<?xml version="1.0" encoding="utf-8"?>
<!-- Generator: Adobe Illustrator 24.3.0, SVG Export Plug-In . SVG Version: 6.00 Build 0)  -->
<svg version="1.1" id="Layer_1" xmlns="http://www.w3.org/2000/svg" xmlns:xlink="http://www.w3.org/1999/xlink" x="0px" y="0px"
	 viewBox="0 0 80 80" style="enable-background:new 0 0 80 80;" xml:space="preserve">
<style type="text/css">
	.st0{fill:none;stroke:#2B71B8;stroke-width:2.5;stroke-linecap:round;stroke-linejoin:round;stroke-miterlimit:10;}
	
		.st1{fill-rule:evenodd;clip-rule:evenodd;fill:none;stroke:#2B71B8;stroke-width:2.5;stroke-linecap:round;stroke-linejoin:round;stroke-miterlimit:10;}
	.st2{fill:#2B71B8;}
</style>
<g>
	<g>
		<path class="st0" d="M52.7,9.2l0,5.4c0,2,1.6,3.6,3.6,3.6h12.7v6.8"/>
		<line class="st1" x1="21.1" y1="45.4" x2="59.8" y2="45.4"/>
		<line class="st1" x1="21.1" y1="56.2" x2="59.8" y2="56.2"/>
		<line class="st1" x1="21.1" y1="65.6" x2="59.8" y2="65.6"/>
		<path class="st0" d="M68.9,23.1v51.3c0,2-1.6,3.6-3.6,3.6H45.8H34.2H14.7c-2,0-3.6-1.6-3.6-3.6V5.6c0-2,1.6-3.6,3.6-3.6h38
			l10.9,10.9"/>
		<line class="st1" x1="21.1" y1="35.3" x2="52.7" y2="35.3"/>
	</g>
	<g>
		<path class="st2" d="M27.3,19.6c0.3,0.5,0.5,1,0.5,1.7c0,1-0.4,1.7-1.1,2.2c-0.7,0.5-1.7,0.8-3,0.8s-2.3-0.3-3-0.8
			c-0.7-0.5-1.1-1.3-1.1-2.2c0-0.7,0.2-1.2,0.5-1.7c0.3-0.4,0.8-0.8,1.5-0.9c-0.5-0.2-0.9-0.5-1.2-0.9c-0.3-0.4-0.4-0.9-0.4-1.5
			c0-0.9,0.3-1.6,1-2.1c0.7-0.5,1.6-0.8,2.8-0.8c1.2,0,2.1,0.3,2.8,0.8c0.7,0.5,1,1.2,1,2.1c0,0.6-0.1,1.1-0.4,1.5
			c-0.3,0.4-0.7,0.7-1.2,0.9C26.5,18.8,27,19.1,27.3,19.6z M25.6,21.1c0-0.9-0.6-1.4-1.9-1.4s-1.9,0.5-1.9,1.4
			c0,0.9,0.6,1.4,1.9,1.4S25.6,22,25.6,21.1z M22.1,16.5c0,0.9,0.5,1.4,1.6,1.4s1.6-0.5,1.6-1.4c0-0.9-0.5-1.4-1.6-1.4
			S22.1,15.5,22.1,16.5z"/>
		<path class="st2" d="M29,20.1c0-0.6,0.4-0.9,1.1-0.9h3c0.7,0,1.1,0.3,1.1,0.9c0,0.6-0.4,0.9-1.1,0.9h-3C29.4,21,29,20.7,29,20.1z"
			/>
		<path class="st2" d="M45.1,23.2c0,0.3-0.1,0.5-0.3,0.7c-0.2,0.2-0.5,0.3-0.8,0.3c-0.3,0-0.6-0.1-0.9-0.4l-4.7-4.6v3.9
			c0,0.4-0.1,0.7-0.3,0.9s-0.5,0.3-0.9,0.3s-0.7-0.1-0.9-0.3s-0.3-0.5-0.3-0.9v-8.6c0-0.4,0.1-0.6,0.3-0.9c0.2-0.2,0.5-0.3,0.9-0.3
			s0.7,0.1,0.9,0.3c0.2,0.2,0.3,0.5,0.3,0.9v3.6l4.6-4.5c0.2-0.2,0.5-0.3,0.8-0.3s0.5,0.1,0.7,0.3c0.2,0.2,0.3,0.5,0.3,0.7
			c0,0.3-0.1,0.6-0.4,0.8l-3.6,3.4l3.9,3.8C45,22.6,45.1,22.9,45.1,23.2z"/>
	</g>
</g>
</svg>
