<svg xmlns="http://www.w3.org/2000/svg" viewBox="0 0 80 80" xmlns:v="https://vecta.io/nano"><path d="M39.7 41.8c-.2-.2-.3-.4-.3-.7l-.9-5.1v-.3c0-.5.2-.9.5-1.2s.8-.4 1.3-.4 1 .1 1.3.4.5.7.5 1.2v.3l-.9 5.2c0 .3-.1.5-.3.7s-.4.2-.6.2-.4-.1-.6-.3zm-.5 3.8c-.3-.3-.5-.7-.5-1.2s.2-.8.5-1.2c.3-.3.7-.5 1.2-.5s.8.2 1.1.5.5.7.5 1.2-.2.8-.5 1.2c-.3.3-.7.5-1.1.5-.6 0-.9-.2-1.2-.5z" fill="#0071ce" enable-background="new"/><g fill="none" stroke="#0071ce" stroke-width="2.5" stroke-linecap="round" stroke-miterlimit="10"><path d="M18.1 13.2V9.8c0-4.3 3.5-7.7 7.7-7.7h28.3c4.3 0 7.7 3.5 7.7 7.7V60m.1 5.4v4.7c0 4.3-3.5 7.7-7.7 7.7H25.9c-4.3 0-7.7-3.5-7.7-7.7V17.6"/><path d="M18.1,13.2h37.2"/></g><g fill="#0071ce"><circle cx="40" cy="8" r="1.4"/><circle cx="40.2" cy="71.6" r="2.8"/></g><g fill="none" stroke-width="2.5" stroke-miterlimit="10" stroke-linejoin="round"><path d="M24.8,65.3h37.1" stroke="#0071ce" stroke-linecap="round"/><path d="M40.2 51.6H26.9c-1.5 0-2.4-1.6-1.7-2.9l13.4-23c.7-1.3 2.6-1.3 3.3 0l13.4 23c.7 1.3-.2 2.9-1.7 2.9H40.2z" stroke="#0070d0"/></g></svg>