<?xml version="1.0" encoding="utf-8"?>
<!-- Generator: Adobe Illustrator 25.0.1, SVG Export Plug-In . SVG Version: 6.00 Build 0)  -->
<svg version="1.1" id="Layer_1" xmlns:v="https://vecta.io/nano"
	 xmlns="http://www.w3.org/2000/svg" xmlns:xlink="http://www.w3.org/1999/xlink" x="0px" y="0px" viewBox="0 0 80 80"
	 style="enable-background:new 0 0 80 80;" xml:space="preserve">
<style type="text/css">
	.st0{fill:#0070D0;}
	.st1{fill:none;stroke:#0070D0;stroke-width:2.5;stroke-linecap:round;stroke-linejoin:round;stroke-miterlimit:10;}
</style>
<g>
	<circle class="st0" cx="40" cy="60.8" r="2.4"/>
	<path class="st0" d="M42.1,50.9c0,1.7-0.4,3-2.1,3s-2.1-1.4-2.1-3l-1-16.9c0-1.7,1.4-3,3-3s3,1.4,3,3L42.1,50.9z"/>
</g>
<path class="st1" d="M40,74H6.4c-3.7,0-6.1-4-4.2-7.3L19,37.6L35.8,8.4c1.9-3.2,6.5-3.2,8.4,0L61,37.6l16.8,29.1
	c1.9,3.2-0.5,7.3-4.2,7.3H40z"/>
</svg>
