<?xml version="1.0" encoding="utf-8"?>
<!-- Generator: Adobe Illustrator 24.3.0, SVG Export Plug-In . SVG Version: 6.00 Build 0)  -->
<svg version="1.1" id="Layer_1" xmlns="http://www.w3.org/2000/svg" xmlns:xlink="http://www.w3.org/1999/xlink" x="0px" y="0px"
	 viewBox="0 0 160 160" style="enable-background:new 0 0 160 160;" xml:space="preserve">
<style type="text/css">
	.st0{clip-path:url(#SVGID_2_);}
	.st1{fill:#FBD477;}
	.st2{fill:#FCB429;}
	.st3{fill:#FDC653;}
	.st4{clip-path:url(#SVGID_4_);}
	.st5{fill:#FFFFFF;}
	.st6{clip-path:url(#SVGID_6_);}
	.st7{fill:#EF7241;}
	.st8{fill:#C24027;}
	.st9{fill:#E04403;}
	.st10{clip-path:url(#SVGID_8_);}
	.st11{fill:#67C6A7;}
	.st12{fill:#1D9B7B;}
	.st13{fill:#25B590;}
	.st14{clip-path:url(#SVGID_10_);}
	.st15{clip-path:url(#SVGID_12_);}
	.st16{fill:#488DD9;}
	.st17{fill:#2666A7;}
	.st18{fill:#0071CE;}
	.st19{clip-path:url(#SVGID_14_);}
	.st20{fill:#AB669A;}
	.st21{fill:#7C2F6D;}
	.st22{fill:#923A7F;}
</style>
<g>
	<g>
		<defs>
			<circle id="SVGID_1_" cx="80" cy="80" r="78.9"/>
		</defs>
		<clipPath id="SVGID_2_">
			<use xlink:href="#SVGID_1_"  style="overflow:visible;"/>
		</clipPath>
		<g class="st0">
			<rect x="-12.9" y="-23.8" class="st1" width="287.8" height="192.7"/>
		</g>
		<g class="st0">
			<polygon class="st2" points="-12.9,47.9 22.8,25.3 22.8,99.6 -12.9,122.2 			"/>
		</g>
		<g class="st0">
			<polygon class="st2" points="-12.9,4.3 22.8,-18.2 22.8,-2.1 -12.9,20.4 			"/>
		</g>
		<g class="st0">
			<polygon class="st3" points="22.8,-23.8 59.3,-23.8 59.3,-9.9 22.8,13.8 			"/>
		</g>
		<g class="st0">
			<polygon class="st3" points="22.8,145.2 59.3,121.6 59.3,168.9 22.8,168.9 			"/>
		</g>
		<g class="st0">
			<polygon class="st3" points="-12.9,141 22.8,117.9 22.8,168.9 -12.9,168.9 			"/>
		</g>
		<g class="st0">
			<polygon class="st2" points="59.3,-23.8 95.7,-23.8 95.7,30 59.3,53.6 			"/>
		</g>
		<g class="st0">
			<polygon class="st3" points="59.3,80.7 95.7,57 95.7,135.9 59.3,159.5 			"/>
		</g>
		<g class="st0">
			<polygon class="st2" points="95.7,80.7 132.2,57 132.2,90.9 95.7,114.6 			"/>
		</g>
		<g class="st0">
			<polygon class="st3" points="132.2,75.6 168.7,51.9 168.7,106.5 132.2,130.2 			"/>
		</g>
		<g class="st0">
			<polygon class="st2" points="132.2,22.1 168.7,-1.6 168.7,23.7 132.2,47.3 			"/>
		</g>
		<g class="st0">
			<polygon class="st2" points="132.2,-23.8 168.7,-23.8 168.7,-18 132.2,5.6 			"/>
		</g>
		<g class="st0">
			<polygon class="st3" points="95.7,130.2 132.2,106.5 132.2,168.9 95.7,168.9 			"/>
		</g>
	</g>
	<g>
		<defs>
			<rect id="SVGID_3_" x="53" y="33.2" width="53.9" height="93.6"/>
		</defs>
		<clipPath id="SVGID_4_">
			<use xlink:href="#SVGID_3_"  style="overflow:visible;"/>
		</clipPath>
		<g class="st4">
			<path class="st5" d="M97.1,75.2L81.4,61.6c-0.8-0.7-2.1-0.7-2.9,0L62.9,75.2c-0.9,0.8-1,2.2-0.2,3.1c0.8,0.9,2.2,1,3.1,0.2l1.1-1
				v12.2c0,1.2,1,2.2,2.2,2.2h21.6c1.2,0,2.2-1,2.2-2.2V77.6l1.1,1c0.4,0.4,0.9,0.5,1.5,0.5c0.6,0,1.2-0.3,1.7-0.8
				C98.1,77.4,98,76,97.1,75.2 M88.6,87.6h-6V81h-5.2v6.6h-6V73.7l8.5-7.4l8.6,7.5V87.6z"/>
		</g>
		<g class="st4">
			<path class="st5" d="M99.5,33.2H60.5c-4.1,0-7.4,3.3-7.4,7.4v78.7c0,4.1,3.3,7.4,7.4,7.4h39.1c4.1,0,7.4-3.3,7.4-7.4V40.7
				C107,36.6,103.6,33.2,99.5,33.2 M101.8,102.5H58.2V51.4h43.5V102.5z M60.5,38.4h39.1c1.2,0,2.2,1,2.2,2.2v5.5H58.2v-5.5
				C58.2,39.4,59.3,38.4,60.5,38.4 M99.5,121.6H60.5c-1.2,0-2.2-1-2.2-2.2v-11.7h43.5v11.7C101.8,120.6,100.7,121.6,99.5,121.6"/>
		</g>
		<g class="st4">
			<path class="st5" d="M80,111c-1.8,0-3.3,1.5-3.3,3.3c0,1.8,1.5,3.3,3.3,3.3c1.8,0,3.3-1.5,3.3-3.3C83.3,112.5,81.8,111,80,111"/>
		</g>
	</g>
</g>
</svg>
