<?xml version="1.0" encoding="utf-8"?>
<!-- Generator: Adobe Illustrator 24.3.0, SVG Export Plug-In . SVG Version: 6.00 Build 0)  -->
<svg version="1.1" id="Layer_1" xmlns="http://www.w3.org/2000/svg" xmlns:xlink="http://www.w3.org/1999/xlink" x="0px" y="0px"
	 viewBox="0 0 160 160" style="enable-background:new 0 0 160 160;" xml:space="preserve">
<style type="text/css">
	.st0{clip-path:url(#SVGID_2_);}
	.st1{fill:#FBD477;}
	.st2{fill:#FCB429;}
	.st3{fill:#FDC653;}
	.st4{clip-path:url(#SVGID_4_);}
	.st5{fill:#FFFFFF;}
	.st6{clip-path:url(#SVGID_6_);}
	.st7{fill:#EF7241;}
	.st8{fill:#C24027;}
	.st9{fill:#E04403;}
	.st10{clip-path:url(#SVGID_8_);}
	.st11{fill:#67C6A7;}
	.st12{fill:#1D9B7B;}
	.st13{fill:#25B590;}
	.st14{clip-path:url(#SVGID_10_);}
	.st15{clip-path:url(#SVGID_12_);}
	.st16{fill:#488DD9;}
	.st17{fill:#2666A7;}
	.st18{fill:#0071CE;}
	.st19{clip-path:url(#SVGID_14_);}
	.st20{fill:#AB669A;}
	.st21{fill:#7C2F6D;}
	.st22{fill:#923A7F;}
</style>
<g>
	<g>
		<defs>
			<circle id="SVGID_7_" cx="-181.1" cy="80" r="78.9"/>
		</defs>
		<clipPath id="SVGID_2_">
			<use xlink:href="#SVGID_7_"  style="overflow:visible;"/>
		</clipPath>
		<g class="st0">
			<rect x="-273.9" y="-23.8" class="st11" width="287.8" height="192.7"/>
		</g>
		<g class="st0">
			<polygon class="st3" points="-19.5,136.8 13.9,115.1 13.9,168.9 -19.5,168.9 			"/>
		</g>
		<g class="st0">
			<polygon class="st2" points="-19.5,104.4 13.9,82.7 13.9,115.1 -19.5,136.8 			"/>
		</g>
		<g class="st0">
			<polygon class="st2" points="-19.5,15.3 13.9,-6.3 13.9,9.8 -19.5,31.5 			"/>
		</g>
	</g>
</g>
<g>
	<g>
		<defs>
			<circle id="SVGID_11_" cx="80" cy="80" r="78.9"/>
		</defs>
		<clipPath id="SVGID_4_">
			<use xlink:href="#SVGID_11_"  style="overflow:visible;"/>
		</clipPath>
		<g class="st4">
			<rect x="-12.9" y="-23.8" class="st16" width="287.8" height="192.7"/>
		</g>
		<g class="st4">
			<polygon class="st17" points="-12.9,47.9 22.8,25.3 22.8,99.6 -12.9,122.2 			"/>
		</g>
		<g class="st4">
			<polygon class="st2" points="-12.9,4.3 22.8,-18.2 22.8,-2.1 -12.9,20.4 			"/>
		</g>
		<g class="st4">
			<polygon class="st3" points="22.8,-23.8 59.3,-23.8 59.3,-9.9 22.8,13.8 			"/>
		</g>
		<g class="st4">
			<polygon class="st18" points="22.8,145.2 59.3,121.6 59.3,168.9 22.8,168.9 			"/>
		</g>
		<g class="st4">
			<polygon class="st18" points="-12.9,141 22.8,117.9 22.8,168.9 -12.9,168.9 			"/>
		</g>
		<g class="st4">
			<polygon class="st17" points="59.3,-23.8 95.7,-23.8 95.7,30 59.3,53.6 			"/>
		</g>
		<g class="st4">
			<polygon class="st18" points="59.3,80.7 95.7,57 95.7,135.9 59.3,159.5 			"/>
		</g>
		<g class="st4">
			<polygon class="st17" points="95.7,80.7 132.2,57 132.2,90.9 95.7,114.6 			"/>
		</g>
		<g class="st4">
			<polygon class="st18" points="132.2,75.6 168.7,51.9 168.7,106.5 132.2,130.2 			"/>
		</g>
		<g class="st4">
			<polygon class="st17" points="132.2,22.1 168.7,-1.6 168.7,23.7 132.2,47.3 			"/>
		</g>
		<g class="st4">
			<polygon class="st2" points="132.2,-23.8 168.7,-23.8 168.7,-18 132.2,5.6 			"/>
		</g>
		<g class="st4">
			<polygon class="st18" points="95.7,130.2 132.2,106.5 132.2,168.9 95.7,168.9 			"/>
		</g>
	</g>
	<g>
		<g>
			<path class="st5" d="M100.3,114H83.5V97.3c0-1.4-1.2-2.6-2.6-2.6H65.4c-1.4,0-2.6,1.2-2.6,2.6V114H46.1V83.9l27-24.2l8.9,7.7
				c0.4-1.8,1-3.6,1.8-5.3l-8.9-7.8c-1-0.9-2.4-0.9-3.4,0L41.8,80.8c-0.5,0.5-0.9,1.2-0.9,1.9v33.8c0,1.4,1.2,2.6,2.6,2.6H68l0-19.2
				h10.3l0,19.2h24.5c1.4,0,2.6-1.1,2.6-2.6v-11.4c-1.8-0.4-3.5-0.9-5.1-1.6V114z"/>
		</g>
		<g>
			<path class="st5" d="M74.7,41.5c-1-0.8-2.4-0.8-3.4,0L55.6,55.2v-5.5c0-1.4-1.2-2.6-2.6-2.6h-9.7c-1.4,0-2.6,1.2-2.6,2.6v18.4
				L30,77.6c-1.1,0.9-1.2,2.6-0.2,3.6c0.9,1.1,2.6,1.2,3.6,0.2l12.6-11V52.3h4.5l0,14.2l22.6-19.7L85.9,58c0.9-1.5,2-2.8,3.1-4.1
				L74.7,41.5z"/>
		</g>
		<g>
			<path class="st5" d="M112.4,48c-14.7,0-26.7,12-26.7,26.7c0,14.7,12,26.7,26.7,26.7c14.8,0,26.7-12,26.7-26.7
				C139.1,59.9,127.1,48,112.4,48 M112.4,96.2c-11.9,0-21.6-9.7-21.6-21.6s9.7-21.6,21.6-21.6c11.9,0,21.6,9.7,21.6,21.6
				S124.3,96.2,112.4,96.2"/>
		</g>
	</g>
	<g>
		<path class="st5" d="M112.7,64.9c2.6,0,4.8,1.7,4.8,3.7h3.5c0-3.4-2.8-6.3-6.5-7v-3.2h-3.5v3.2c-3.7,0.7-6.5,3.6-6.5,7
			c0,3.6,2.6,7.2,8.3,7.2c2.9,0,4.8,1.4,4.8,3.7c0,2-2.1,3.7-4.8,3.7c-2.6,0-4.8-1.7-4.8-3.7h-3.5c0,3.4,2.8,6.3,6.5,7v3.2h3.5v-3.2
			c3.7-0.7,6.5-3.6,6.5-7c0-4.2-3.4-7.2-8.3-7.2c-3,0-4.8-1.3-4.8-3.7C107.9,66.6,110.1,64.9,112.7,64.9"/>
		<path class="st5" d="M114.8,90.1h-4.3v-3.3c-3.8-0.9-6.5-3.9-6.5-7.4v-0.4h4.3v0.4c0,1.8,2,3.3,4.3,3.3c2.4,0,4.3-1.5,4.3-3.3
			c0-2.1-1.6-3.3-4.3-3.3c-6,0-8.7-3.8-8.7-7.6c0-3.5,2.7-6.5,6.5-7.4v-3.3h4.3v3.3c3.8,0.9,6.5,3.9,6.5,7.4V69H117v-0.4
			c0-1.8-2-3.3-4.3-3.3c-2.4,0-4.3,1.5-4.3,3.3c0,2.9,2.7,3.3,4.3,3.3c5.1,0,8.7,3.1,8.7,7.6c0,3.5-2.7,6.5-6.5,7.4V90.1z
			 M111.3,89.3h2.7v-3.2l0.3-0.1c3.6-0.7,6.2-3.5,6.2-6.6c0-4-3.2-6.8-7.8-6.8c-3.2,0-5.2-1.5-5.2-4.1c0-2.3,2.3-4.1,5.2-4.1
			c2.7,0,4.9,1.6,5.1,3.7h2.7c-0.2-3-2.7-5.6-6.2-6.2l-0.3-0.1v-3.2h-2.7v3.2L111,62c-3.6,0.7-6.2,3.5-6.2,6.6
			c0,3.4,2.4,6.8,7.8,6.8c3.2,0,5.2,1.6,5.2,4.1c0,2.3-2.3,4.1-5.2,4.1c-2.7,0-4.9-1.6-5.1-3.7h-2.7c0.2,3,2.7,5.6,6.2,6.2l0.3,0.1
			V89.3z"/>
	</g>
</g>
</svg>
