<svg id="Layer_1" data-name="Layer 1" xmlns="http://www.w3.org/2000/svg" xmlns:xlink="http://www.w3.org/1999/xlink" viewBox="0 0 160 160"><defs><style>.cls-1,.cls-9{fill:none;}.cls-2{clip-path:url(#clip-path);}.cls-3{fill:#2566a7;}.cls-4{fill:#00487c;}.cls-5{fill:#fcb328;}.cls-6{fill:#ffc753;}.cls-7{fill:#004a98;}.cls-8{fill:#fff;}.cls-9{stroke:#fff;stroke-linecap:round;stroke-linejoin:round;stroke-width:0.66px;}</style><clipPath id="clip-path"><path class="cls-1" d="M2.49,80A77.65,77.65,0,0,0,64.68,156a109.8,109.8,0,0,0,30.87,0c32.84-5.24,59.41-35.33,62-70.32V74.17A77.63,77.63,0,0,0,2.49,80"/></clipPath></defs><g class="cls-2"><rect class="cls-3" x="-11.25" y="-22.19" width="283.15" height="189.58"/><polygon class="cls-4" points="-11.25 48.39 23.87 26.16 23.87 99.22 -11.25 121.45 -11.25 48.39"/><polygon class="cls-5" points="-11.25 5.45 23.87 -16.7 23.87 -0.81 -11.25 21.34 -11.25 5.45"/><polygon class="cls-6" points="23.87 -22.19 59.74 -22.19 59.74 -8.48 23.87 14.8 23.87 -22.19"/><polygon class="cls-4" points="-11.25 140 23.87 117.2 23.87 167.38 -11.25 167.38 -11.25 140"/><polygon class="cls-4" points="59.74 -22.19 95.6 -22.19 95.6 30.72 59.74 54.01 59.74 -22.19"/><polygon class="cls-4" points="95.6 80.62 131.47 57.34 131.47 90.71 95.6 113.99 95.6 80.62"/><polygon class="cls-7" points="131.47 75.61 167.34 52.33 167.34 106 131.47 129.28 131.47 75.61"/><polygon class="cls-7" points="131.47 22.97 167.34 -0.31 167.34 24.52 131.47 47.81 131.47 22.97"/><polygon class="cls-5" points="131.47 -22.19 167.34 -22.19 167.34 -16.48 131.47 6.8 131.47 -22.19"/><polygon class="cls-7" points="23.87 144.14 59.74 120.85 59.74 167.38 23.87 167.38 23.87 144.14"/><polygon class="cls-4" points="59.74 80.62 95.6 57.34 95.6 134.92 59.74 158.21 59.74 80.62"/><polygon class="cls-4" points="95.6 129.29 131.47 106.01 131.47 167.38 95.6 167.38 95.6 129.29"/></g><path class="cls-8" d="M80.86,54.79A10.27,10.27,0,1,1,70.59,65.06,10.28,10.28,0,0,1,80.86,54.79m0,24.14A13.88,13.88,0,1,0,67,65.06,13.88,13.88,0,0,0,80.86,78.93"/><path class="cls-8" d="M117.34,49a7.86,7.86,0,1,1-7.86,7.86A7.87,7.87,0,0,1,117.34,49m0,19.3a11.46,11.46,0,1,0-11.47-11.46,11.48,11.48,0,0,0,11.47,11.46"/><path class="cls-8" d="M133.55,94.35H118a19.66,19.66,0,0,0-11.89-4c-.38,0-.77,0-1.13,0a12.45,12.45,0,0,0-3.83-6.84V79.11a6.9,6.9,0,0,1,6.06-6.83,13.34,13.34,0,0,0,20.31,0,6.9,6.9,0,0,1,6.06,6.83ZM106.08,126.4a15.39,15.39,0,0,1-2-.14,16.21,16.21,0,0,1-.43-32.11,18.14,18.14,0,0,1,2.46-.18,16.22,16.22,0,0,1,0,32.43m-45.94-14V92.87a9.05,9.05,0,0,1,8.2-9,16.32,16.32,0,0,0,25,0,9,9,0,0,1,8,7.09,19.86,19.86,0,0,0-15.11,19.26c0,.74,0,1.46.11,2.18H60.14Zm-32-18V79.11a6.9,6.9,0,0,1,6.06-6.83,13.34,13.34,0,0,0,20.31,0,6.9,6.9,0,0,1,6.06,6.83v4.48a12.61,12.61,0,0,0-4.06,9.28v1.48Zm98.52-25.74h-.9l-.54.75a9.79,9.79,0,0,1-15.76,0l-.54-.75H108a10.49,10.49,0,0,0-10.47,10.5v2.12a12.66,12.66,0,0,0-5-1h-.91l-.53.74a12.68,12.68,0,0,1-20.45,0l-.54-.74h-.91a12.33,12.33,0,0,0-5,1V79.13a10.5,10.5,0,0,0-10.46-10.5h-.91l-.54.75a9.78,9.78,0,0,1-15.76,0L36,68.63h-.9A10.49,10.49,0,0,0,24.56,79.11V98h32v18H87.12a19.85,19.85,0,0,0,16.48,13.9,18.46,18.46,0,0,0,2.48.15,19.84,19.84,0,0,0,19.81-19.81A19.62,19.62,0,0,0,121.66,98h15.49V79.13a10.5,10.5,0,0,0-10.47-10.52"/><path class="cls-8" d="M44.37,49a7.86,7.86,0,1,1-7.86,7.84A7.87,7.87,0,0,1,44.37,49m0,19.3A11.46,11.46,0,1,0,32.91,56.86,11.48,11.48,0,0,0,44.37,68.32"/><path class="cls-9" d="M106.34,121.69s10.84-7.9,10.84-13.76c0-6.75-8.87-8.89-10.84-.67-2-8.22-10.85-6.08-10.85.67C95.49,113.79,106.34,121.69,106.34,121.69Z"/></svg>