<?xml version="1.0" encoding="utf-8"?>
<!-- Generator: Adobe Illustrator 24.3.0, SVG Export Plug-In . SVG Version: 6.00 Build 0)  -->
<svg version="1.1" id="Layer_1" xmlns="http://www.w3.org/2000/svg" xmlns:xlink="http://www.w3.org/1999/xlink" x="0px" y="0px"
	 viewBox="0 0 160 160" style="enable-background:new 0 0 160 160;" xml:space="preserve">
<style type="text/css">
	.st0{clip-path:url(#SVGID_2_);}
	.st1{fill:#FBD477;}
	.st2{fill:#FCB429;}
	.st3{fill:#FDC653;}
	.st4{clip-path:url(#SVGID_4_);}
	.st5{fill:#FFFFFF;}
	.st6{clip-path:url(#SVGID_6_);}
	.st7{fill:#EF7241;}
	.st8{fill:#C24027;}
	.st9{fill:#E04403;}
	.st10{clip-path:url(#SVGID_8_);}
	.st11{fill:#67C6A7;}
	.st12{fill:#1D9B7B;}
	.st13{fill:#25B590;}
	.st14{clip-path:url(#SVGID_10_);}
	.st15{clip-path:url(#SVGID_12_);}
	.st16{fill:#488DD9;}
	.st17{fill:#2666A7;}
	.st18{fill:#0071CE;}
	.st19{clip-path:url(#SVGID_14_);}
	.st20{fill:#AB669A;}
	.st21{fill:#7C2F6D;}
	.st22{fill:#923A7F;}
</style>
<g>
	<g>
		<defs>
			<circle id="SVGID_1_" cx="-170.3" cy="80" r="78.9"/>
		</defs>
		<clipPath id="SVGID_2_">
			<use xlink:href="#SVGID_1_"  style="overflow:visible;"/>
		</clipPath>
		<g class="st0">
			<rect x="-263.2" y="-23.8" class="st1" width="287.8" height="192.7"/>
		</g>
		<g class="st0">
			<polygon class="st3" points="-8.8,136.8 24.6,115.1 24.6,168.9 -8.8,168.9 			"/>
		</g>
		<g class="st0">
			<polygon class="st2" points="-8.8,104.4 24.6,82.7 24.6,115.1 -8.8,136.8 			"/>
		</g>
		<g class="st0">
			<polygon class="st2" points="-8.8,15.3 24.6,-6.3 24.6,9.8 -8.8,31.5 			"/>
		</g>
	</g>
</g>
<g>
	<g>
		<defs>
			<circle id="SVGID_5_" cx="80" cy="80" r="78.9"/>
		</defs>
		<clipPath id="SVGID_4_">
			<use xlink:href="#SVGID_5_"  style="overflow:visible;"/>
		</clipPath>
		<g class="st4">
			<rect x="-12.9" y="-23.8" class="st7" width="287.8" height="192.7"/>
		</g>
		<g class="st4">
			<polygon class="st8" points="-12.9,47.9 22.8,25.3 22.8,99.6 -12.9,122.2 			"/>
		</g>
		<g class="st4">
			<polygon class="st2" points="-12.9,4.3 22.8,-18.2 22.8,-2.1 -12.9,20.4 			"/>
		</g>
		<g class="st4">
			<polygon class="st3" points="22.8,-23.8 59.3,-23.8 59.3,-9.9 22.8,13.8 			"/>
		</g>
		<g class="st4">
			<polygon class="st9" points="22.8,145.2 59.3,121.6 59.3,168.9 22.8,168.9 			"/>
		</g>
		<g class="st4">
			<polygon class="st9" points="-12.9,141 22.8,117.9 22.8,168.9 -12.9,168.9 			"/>
		</g>
		<g class="st4">
			<polygon class="st8" points="59.3,-23.8 95.7,-23.8 95.7,30 59.3,53.6 			"/>
		</g>
		<g class="st4">
			<polygon class="st9" points="59.3,80.7 95.7,57 95.7,135.9 59.3,159.5 			"/>
		</g>
		<g class="st4">
			<polygon class="st8" points="95.7,80.7 132.2,57 132.2,90.9 95.7,114.6 			"/>
		</g>
		<g class="st4">
			<polygon class="st9" points="132.2,75.6 168.7,51.9 168.7,106.5 132.2,130.2 			"/>
		</g>
		<g class="st4">
			<polygon class="st8" points="132.2,22.1 168.7,-1.6 168.7,23.7 132.2,47.3 			"/>
		</g>
		<g class="st4">
			<polygon class="st2" points="132.2,-23.8 168.7,-23.8 168.7,-18 132.2,5.6 			"/>
		</g>
		<g class="st4">
			<polygon class="st9" points="95.7,130.2 132.2,106.5 132.2,168.9 95.7,168.9 			"/>
		</g>
	</g>
	<g>
		<g>
			<path class="st5" d="M125.4,97.4c-0.3,0.9-0.9,1.7-1.7,2.1l-35.1,17.9c-2.5,1.3-5.4,1.4-8,0.5l-20.3-7.5c-1.9-0.7-3.8-1-5.8-1H51
				V87.1h10.4c1.4,0,2.8,0.3,4.1,0.8L75.6,92c1.6,0.6,3.3,1,5,1h13.2c2.1,0,3.7,1.7,3.7,3.7c0,2.1-1.7,3.7-3.7,3.7H76.7
				c-2.8,0-5.2,2.3-5.2,5.2H74c0-1.5,1.2-2.7,2.7-2.7h17.2c2,0,3.7-1,4.9-2.4l22.3-7.2c1.5-0.5,3.2,0.1,4,1.5
				C125.6,95.5,125.7,96.5,125.4,97.4 M127.2,93.5c-1.4-2.4-4.3-3.4-6.9-2.6L100,97.5c0-0.3,0.1-0.5,0.1-0.8c0-3.4-2.8-6.2-6.2-6.2
				H80.7c-1.4,0-2.8-0.3-4.1-0.8l-10.2-4.1c-1.6-0.6-3.3-1-5-1H51v-1.4c0-1.8-1.5-3.3-3.3-3.3H32.3v2.4h15.4c0.5,0,0.8,0.4,0.8,0.8
				v29.3c0,0.5-0.4,0.8-0.8,0.8H32.3v2.4h15.4c1.8,0,3.3-1.5,3.3-3.3v-0.8h3.5c1.7,0,3.4,0.3,5,0.9l20.3,7.5
				c1.4,0.5,2.8,0.8,4.3,0.8c1.9,0,3.9-0.5,5.7-1.4l35.1-17.9c1.4-0.7,2.5-2,3-3.6S128,94.9,127.2,93.5"/>
			<path class="st5" d="M84.1,121.3c-1.5,0-3-0.3-4.4-0.8l-20.3-7.5c-1.6-0.6-3.2-0.9-4.8-0.9h-3.1v0.4c0,2-1.6,3.7-3.7,3.7H31.9
				V113h15.8c0.2,0,0.4-0.2,0.4-0.4V83.3c0-0.2-0.2-0.4-0.4-0.4H31.9v-3.2h15.8c2,0,3.7,1.6,3.7,3.7v1h9.9c1.8,0,3.5,0.3,5.2,1
				l10.2,4.1c1.3,0.5,2.6,0.8,4,0.8h13.2c3.6,0,6.6,3,6.6,6.6c0,0.1,0,0.1,0,0.2l19.7-6.4c2.8-0.9,5.9,0.3,7.3,2.8l0,0
				c0.9,1.5,1.1,3.3,0.6,4.9c-0.5,1.7-1.6,3-3.2,3.8l-35.1,17.9C88.1,120.8,86.1,121.3,84.1,121.3z M50.5,111.4h4
				c1.8,0,3.5,0.3,5.1,0.9l20.3,7.5c3.1,1.1,6.7,0.9,9.6-0.6l35.1-17.9c1.3-0.7,2.3-1.9,2.7-3.3c0.4-1.5,0.2-3-0.5-4.3l0,0
				c-1.3-2.2-4-3.2-6.4-2.4l-20.9,6.8l0.1-0.8c0-0.2,0.1-0.4,0.1-0.6c0-3.2-2.6-5.8-5.8-5.8H80.7c-1.5,0-2.9-0.3-4.3-0.8L66.2,86
				c-1.6-0.6-3.2-0.9-4.9-0.9H50.5v-1.8c0-1.6-1.3-2.9-2.9-2.9h-15V82h15c0.7,0,1.3,0.6,1.3,1.3v29.3c0,0.7-0.6,1.3-1.3,1.3h-15v1.6
				h15c1.6,0,2.9-1.3,2.9-2.9V111.4z M84.1,118.9c-1.2,0-2.4-0.2-3.6-0.6l-20.3-7.5c-1.8-0.7-3.7-1-5.7-1h-4V86.7h10.8
				c1.5,0,2.9,0.3,4.3,0.8l10.2,4.1c1.6,0.6,3.2,0.9,4.9,0.9h13.2c2.3,0,4.2,1.9,4.2,4.2c0,2.3-1.9,4.2-4.2,4.2H76.7
				c-2.5,0-4.5,1.9-4.7,4.3h1.6c0.2-1.5,1.5-2.7,3.1-2.7h17.2c1.8,0,3.4-0.8,4.5-2.3l0.1-0.1l22.4-7.3c1.7-0.6,3.6,0.2,4.5,1.7
				c0.5,0.9,0.7,2,0.4,3h0c-0.3,1-1,1.9-1.9,2.3l-35.1,17.9C87.3,118.5,85.7,118.9,84.1,118.9z M51.4,109h3.1c2,0,4.1,0.4,6,1.1
				l20.3,7.5c2.5,0.9,5.3,0.8,7.7-0.5l35.1-17.9c0.7-0.4,1.3-1,1.5-1.8c0.2-0.8,0.1-1.7-0.3-2.4c-0.7-1.2-2.2-1.8-3.5-1.3L99,100.8
				c-1.3,1.6-3.1,2.5-5.1,2.5H76.7c-1.3,0-2.3,1-2.3,2.3v0.4h-3.2v-0.4c0-3.1,2.5-5.6,5.6-5.6h17.2c1.8,0,3.3-1.5,3.3-3.3
				c0-1.8-1.5-3.3-3.3-3.3H80.7c-1.8,0-3.5-0.3-5.2-1l-10.2-4.1c-1.3-0.5-2.6-0.8-4-0.8h-9.9V109z"/>
		</g>
	</g>
	<g>
		<rect x="36.6" y="106.7" class="st5" width="3" height="2.4"/>
		<path class="st5" d="M40.1,109.6h-3.8v-3.2h3.8V109.6z M37.1,108.7h2.2v-1.6h-2.2V108.7z"/>
	</g>
	<g>
		<rect x="42" y="106.7" class="st5" width="3" height="2.4"/>
		<path class="st5" d="M45.4,109.6h-3.8v-3.2h3.8V109.6z M42.4,108.7h2.2v-1.6h-2.2V108.7z"/>
	</g>
	<g>
		<path class="st5" d="M97.3,86.4C89.4,86.4,83,80,83,72.1s6.4-14.3,14.3-14.3s14.3,6.4,14.3,14.3S105.1,86.4,97.3,86.4 M97.3,55.4
			c-9.2,0-16.7,7.5-16.7,16.7c0,9.2,7.5,16.7,16.7,16.7S114,81.3,114,72.1C114,62.9,106.5,55.4,97.3,55.4"/>
		<path class="st5" d="M97.3,89.2c-9.4,0-17.1-7.7-17.1-17.1c0-9.4,7.7-17.1,17.1-17.1s17.1,7.7,17.1,17.1
			C114.4,81.5,106.7,89.2,97.3,89.2z M97.3,55.8c-9,0-16.3,7.3-16.3,16.3c0,9,7.3,16.3,16.3,16.3c9,0,16.3-7.3,16.3-16.3
			C113.5,63.1,106.2,55.8,97.3,55.8z M97.3,86.8c-8.1,0-14.7-6.6-14.7-14.7c0-8.1,6.6-14.7,14.7-14.7s14.7,6.6,14.7,14.7
			C111.9,80.2,105.4,86.8,97.3,86.8z M97.3,58.3c-7.6,0-13.9,6.2-13.9,13.9c0,7.6,6.2,13.9,13.9,13.9c7.6,0,13.9-6.2,13.9-13.9
			C111.1,64.5,104.9,58.3,97.3,58.3z"/>
	</g>
	<g>
		<path class="st5" d="M97.3,65.8c1.8,0,3.3,1.1,3.3,2.6h2.4c0-2.4-1.9-4.4-4.5-4.9v-2.2H96v2.2c-2.6,0.5-4.5,2.5-4.5,4.9
			c0,2.5,1.8,5,5.7,5c2,0,3.3,1,3.3,2.6c0,1.4-1.5,2.6-3.3,2.6S94,77.3,94,75.9h-2.4c0,2.4,1.9,4.4,4.5,4.9V83h2.4v-2.2
			c2.6-0.5,4.5-2.5,4.5-4.9c0-2.9-2.3-5-5.7-5c-2.1,0-3.3-0.9-3.3-2.6C94,66.9,95.4,65.8,97.3,65.8"/>
		<path class="st5" d="M98.9,83.4h-3.2v-2.3c-2.6-0.6-4.5-2.8-4.5-5.2v-0.4h3.2v0.4c0,1.2,1.3,2.1,2.9,2.1s2.9-1,2.9-2.1
			c0-1.3-1.1-2.1-2.9-2.1c-4.2,0-6.1-2.7-6.1-5.4c0-2.4,1.9-4.6,4.5-5.2v-2.3h3.2v2.3c2.6,0.6,4.5,2.8,4.5,5.2v0.4h-3.2v-0.4
			c0-1.2-1.3-2.1-2.9-2.1s-2.9,1-2.9,2.1c0,1.9,1.8,2.1,2.9,2.1c3.6,0,6.1,2.2,6.1,5.4c0,2.4-1.9,4.6-4.5,5.2V83.4z M96.5,82.6h1.6
			v-2.2l0.3-0.1c2.4-0.5,4.2-2.3,4.2-4.5c0-2.7-2.2-4.6-5.3-4.6c-2.3,0-3.7-1.1-3.7-3c0-1.6,1.7-3,3.7-3c1.9,0,3.4,1.1,3.7,2.6h1.6
			c-0.2-2-1.9-3.6-4.1-4l-0.3-0.1v-2.2h-1.6v2.2l-0.3,0.1c-2.4,0.5-4.2,2.3-4.2,4.5c0,2.3,1.6,4.6,5.3,4.6c2.2,0,3.7,1.2,3.7,3
			c0,1.6-1.7,3-3.7,3c-1.9,0-3.4-1.1-3.7-2.6H92c0.2,2,1.9,3.6,4.1,4l0.3,0.1V82.6z"/>
	</g>
	<g>
		<path class="st5" d="M73.8,55.6c-2.1,0-3.3-0.9-3.3-2.6c0-1.4,1.5-2.6,3.3-2.6c1.8,0,3.3,1.1,3.3,2.6h2.4c0-2.4-1.9-4.4-4.5-4.9
			V46h-2.4v2.2c-2.6,0.5-4.5,2.5-4.5,4.9c0,2.5,1.8,5,5.7,5c2,0,3.3,1,3.3,2.6c0,1.4-1.5,2.6-3.3,2.6c-1.8,0-3.3-1.1-3.3-2.6h-2.4
			c0,2.4,1.9,4.4,4.5,4.9v2.2H75v-2.2c2.6-0.5,4.5-2.5,4.5-4.9C79.5,57.7,77.2,55.6,73.8,55.6"/>
		<path class="st5" d="M75.4,68.1h-3.2v-2.3c-2.6-0.6-4.5-2.8-4.5-5.2v-0.4h3.2v0.4c0,1.2,1.3,2.1,2.9,2.1c1.6,0,2.9-1,2.9-2.1
			c0-1.3-1.1-2.1-2.9-2.1c-4.2,0-6.1-2.7-6.1-5.4c0-2.4,1.9-4.6,4.5-5.2v-2.3h3.2v2.3c2.6,0.6,4.5,2.8,4.5,5.2v0.4h-3.2v-0.4
			c0-1.2-1.3-2.1-2.9-2.1c-1.6,0-2.9,1-2.9,2.1c0,1.9,1.8,2.1,2.9,2.1c3.6,0,6.1,2.2,6.1,5.4c0,2.4-1.9,4.6-4.5,5.2V68.1z M73,67.3
			h1.6v-2.2l0.3-0.1c2.4-0.5,4.2-2.3,4.2-4.5c0-2.7-2.2-4.6-5.3-4.6c-2.3,0-3.7-1.1-3.7-3c0-1.6,1.7-3,3.7-3c1.9,0,3.4,1.1,3.7,2.6
			h1.6c-0.2-2-1.9-3.6-4.1-4l-0.3-0.1v-2.2H73v2.2l-0.3,0.1c-2.4,0.5-4.2,2.3-4.2,4.5c0,2.3,1.6,4.6,5.3,4.6c2.2,0,3.7,1.2,3.7,3
			c0,1.6-1.7,3-3.7,3c-1.9,0-3.4-1.1-3.7-2.6h-1.6c0.2,2,1.9,3.6,4.1,4l0.3,0.1V67.3z"/>
	</g>
	<g>
		<path class="st5" d="M74.1,43.4c-7.9,0-14.3,6.4-14.3,14.3S66.3,72,74.1,72c2.2,0,4.4-0.6,6.5-1.6c0.5-5.1,3.4-9.7,7.8-12.4
			c0-0.1,0-0.1,0-0.2C88.4,49.8,82,43.4,74.1,43.4 M74.1,74.4c-9.2,0-16.7-7.5-16.7-16.7c0-9.2,7.5-16.7,16.7-16.7
			s16.7,7.5,16.7,16.7c0,0.2,0,0.5-0.1,0.7l-0.1,1l-0.6,0.3c-4.2,2.4-6.8,6.7-7.1,11.5l0,0.7l-0.6,0.3C79.8,73.6,77,74.4,74.1,74.4"
			/>
		<path class="st5" d="M74.1,74.8c-9.4,0-17.1-7.7-17.1-17.1c0-9.4,7.7-17.1,17.1-17.1s17.1,7.7,17.1,17.1c0,0.3,0,0.5-0.1,0.8
			l-0.1,1.1l-0.8,0.4c-4.1,2.3-6.6,6.5-6.9,11.1l-0.1,0.9l-0.8,0.4C79.9,74,77.1,74.8,74.1,74.8z M74.1,41.4
			c-9,0-16.3,7.3-16.3,16.3c0,9,7.3,16.3,16.3,16.3c2.8,0,5.5-0.7,8.1-2.2l0.4-0.2l0-0.4c0.3-4.9,3-9.3,7.3-11.8l0.4-0.2l0.1-0.7
			c0-0.2,0.1-0.5,0.1-0.7C90.4,48.7,83.1,41.4,74.1,41.4z M74.1,72.4c-8.1,0-14.7-6.6-14.7-14.7C59.4,49.6,66,43,74.1,43
			s14.7,6.6,14.7,14.7c0,0.1,0,0.2,0,0.3l0,0.2l-0.2,0.1c-4.3,2.7-7.1,7.1-7.6,12.1l0,0.2l-0.2,0.1C78.7,71.8,76.4,72.4,74.1,72.4z
			 M74.1,43.9c-7.6,0-13.9,6.2-13.9,13.9c0,7.6,6.2,13.9,13.9,13.9c2.1,0,4.2-0.5,6.1-1.5c0.6-5.1,3.4-9.6,7.7-12.4
			C88,50.1,81.8,43.9,74.1,43.9z"/>
	</g>
	<g>
		<polygon class="st5" points="98.4,34.2 98.4,45.1 95.5,42.1 93.8,43.8 99.7,49.8 105.6,43.8 103.9,42.1 100.9,45.2 100.9,34.2 		
			"/>
		<path class="st5" d="M99.7,50.3l-6.5-6.5l2.3-2.3l2.5,2.5V33.8h3.2v10.4l2.6-2.6l2.3,2.3L99.7,50.3z M94.4,43.8l5.3,5.3l5.3-5.3
			l-1.1-1.1l-3.5,3.5V34.6h-1.6v11.5l-3.3-3.3L94.4,43.8z"/>
	</g>
</g>
</svg>
