<?xml version="1.0" encoding="utf-8"?>
<!-- Generator: Adobe Illustrator 24.3.0, SVG Export Plug-In . SVG Version: 6.00 Build 0)  -->
<svg version="1.1" id="Layer_1" xmlns="http://www.w3.org/2000/svg" xmlns:xlink="http://www.w3.org/1999/xlink" x="0px" y="0px"
	 viewBox="0 0 160 160" style="enable-background:new 0 0 160 160;" xml:space="preserve">
<style type="text/css">
	.st0{clip-path:url(#SVGID_2_);}
	.st1{fill:#FBD477;}
	.st2{fill:#FCB429;}
	.st3{fill:#FDC653;}
	.st4{clip-path:url(#SVGID_4_);}
	.st5{fill:#FFFFFF;}
	.st6{clip-path:url(#SVGID_6_);}
	.st7{fill:#EF7241;}
	.st8{fill:#C24027;}
	.st9{fill:#E04403;}
	.st10{clip-path:url(#SVGID_8_);}
	.st11{fill:#67C6A7;}
	.st12{fill:#1D9B7B;}
	.st13{fill:#25B590;}
	.st14{clip-path:url(#SVGID_10_);}
	.st15{clip-path:url(#SVGID_12_);}
	.st16{fill:#488DD9;}
	.st17{fill:#2666A7;}
	.st18{fill:#0071CE;}
	.st19{clip-path:url(#SVGID_14_);}
	.st20{fill:#AB669A;}
	.st21{fill:#7C2F6D;}
	.st22{fill:#923A7F;}
</style>
<g>
	<g>
		<defs>
			<circle id="SVGID_5_" cx="-173.7" cy="80" r="78.9"/>
		</defs>
		<clipPath id="SVGID_2_">
			<use xlink:href="#SVGID_5_"  style="overflow:visible;"/>
		</clipPath>
		<g class="st0">
			<rect x="-266.6" y="-23.8" class="st7" width="287.8" height="192.7"/>
		</g>
		<g class="st0">
			<polygon class="st3" points="-12.1,136.8 21.3,115.1 21.3,168.9 -12.1,168.9 			"/>
		</g>
		<g class="st0">
			<polygon class="st2" points="-12.1,104.4 21.3,82.7 21.3,115.1 -12.1,136.8 			"/>
		</g>
		<g class="st0">
			<polygon class="st2" points="-12.1,15.3 21.3,-6.3 21.3,9.8 -12.1,31.5 			"/>
		</g>
	</g>
</g>
<g>
	<g>
		<defs>
			<circle id="SVGID_7_" cx="80" cy="80" r="78.9"/>
		</defs>
		<clipPath id="SVGID_4_">
			<use xlink:href="#SVGID_7_"  style="overflow:visible;"/>
		</clipPath>
		<g class="st4">
			<rect x="-12.9" y="-23.8" class="st11" width="287.8" height="192.7"/>
		</g>
		<g class="st4">
			<polygon class="st12" points="-12.9,47.9 22.8,25.3 22.8,99.6 -12.9,122.2 			"/>
		</g>
		<g class="st4">
			<polygon class="st2" points="-12.9,4.3 22.8,-18.2 22.8,-2.1 -12.9,20.4 			"/>
		</g>
		<g class="st4">
			<polygon class="st3" points="22.8,-23.8 59.3,-23.8 59.3,-9.9 22.8,13.8 			"/>
		</g>
		<g class="st4">
			<polygon class="st13" points="22.8,145.2 59.3,121.6 59.3,168.9 22.8,168.9 			"/>
		</g>
		<g class="st4">
			<polygon class="st13" points="-12.9,141 22.8,117.9 22.8,168.9 -12.9,168.9 			"/>
		</g>
		<g class="st4">
			<polygon class="st12" points="59.3,-23.8 95.7,-23.8 95.7,30 59.3,53.6 			"/>
		</g>
		<g class="st4">
			<polygon class="st13" points="59.3,80.7 95.7,57 95.7,135.9 59.3,159.5 			"/>
		</g>
		<g class="st4">
			<polygon class="st12" points="95.7,80.7 132.2,57 132.2,90.9 95.7,114.6 			"/>
		</g>
		<g class="st4">
			<polygon class="st13" points="132.2,75.6 168.7,51.9 168.7,106.5 132.2,130.2 			"/>
		</g>
		<g class="st4">
			<polygon class="st12" points="132.2,22.1 168.7,-1.6 168.7,23.7 132.2,47.3 			"/>
		</g>
		<g class="st4">
			<polygon class="st2" points="132.2,-23.8 168.7,-23.8 168.7,-18 132.2,5.6 			"/>
		</g>
		<g class="st4">
			<polygon class="st13" points="95.7,130.2 132.2,106.5 132.2,168.9 95.7,168.9 			"/>
		</g>
	</g>
	<g>
		<defs>
			<rect id="SVGID_9_" x="30.4" y="51.1" width="99.2" height="64.6"/>
		</defs>
		<clipPath id="SVGID_6_">
			<use xlink:href="#SVGID_9_"  style="overflow:visible;"/>
		</clipPath>
		<g class="st6">
			<path class="st5" d="M36.5,87.6c0,1.7-1.4,3.1-3.1,3.1c-1.7,0-3.1-1.4-3.1-3.1c0-1.7,1.4-3.1,3.1-3.1
				C35.2,84.5,36.5,85.9,36.5,87.6"/>
		</g>
		<g class="st6">
			<path class="st5" d="M89.7,106.6c-1.4,0.5-2.4,0.7-3.5-0.6l-1.8-3.1l-4.7-8.3c-0.7-1.1-2.1-1.5-3.3-0.9c-1.1,0.6-1.5,2.1-0.9,3.2
				l4.7,8.3l0.1,0.1l0,0l1.2,2l0.9,1.5l0.1,0.2c0.2,0.2,0.4,0.4,0.6,0.6c1.6,1.6,3.3,2.1,4.9,2.1c1.7,0,3.2-0.6,4-1
				c0.1-0.1,0.2-0.1,0.3-0.1l-0.9-1.4L89.7,106.6z"/>
		</g>
		<g class="st6">
			<path class="st5" d="M78,109.4c-0.1,0.1-1.4,0.7-2.7-1l0,0l-4-6.9c-0.7-1.1-2.1-1.5-3.3-0.9c-1.1,0.7-1.5,2.1-0.9,3.3l3.8,6.5
				l0.1,0.2l0,0l0.1,0.2l0.1,0.2c1.9,2.6,4.1,3.4,6,3.4c1.3,0,2.4-0.3,3.1-0.8l-2-3.6L78,109.4z"/>
		</g>
		<g class="st6">
			<path class="st5" d="M126.5,88.6c-1.7,0-3.1,1.4-3.1,3.1c0,1.7,1.4,3.1,3.1,3.1s3.1-1.4,3.1-3.1C129.6,90,128.2,88.6,126.5,88.6"
				/>
		</g>
		<g class="st6">
			<path class="st5" d="M66.4,110.9c-1.2,0-2.7-0.5-3.9-2.4l-10.5-18h-5.2V61.4h15.3l3.8-4.8H46.8v-5.6H30.6v4.8h11.5v40.9H30.5v4.8
				h16.4v-6.2h2.5l9.1,15.6c2.2,3.7,5.4,4.7,8,4.7c0.9,0,1.8-0.1,2.5-0.3L66.4,110.9z"/>
		</g>
		<g class="st6">
			<path class="st5" d="M117.9,59.8h11.5V55h-16.3v4.8l-14.9-6.5l0,0v-0.1l-18.5,0c-0.5,0-5.3,0.2-9.9,6L57,75.9l0.6,1.3
				c0.2,0.5,2.5,4.9,7,6c0.6,0.2,1.3,0.2,1.9,0.2c2.2,0,4.4-0.9,6.6-2.6l8.8-8.9c1.4,0.1,3.8,0.3,5.7,0.5l14.8,28.4c0,0,0,0,0,0
				c-0.7,1.4-1.6,2.5-2.3,3.1c-0.2,0.1-0.4,0.2-0.5,0.3c-0.1,0-0.1,0.1-0.2,0.1c-0.2,0-0.7-0.2-1.4-0.9l-4-6.3l-5.6-8.8
				c-0.7-1.1-2.2-1.4-3.3-0.7c-1.1,0.7-1.4,2.2-0.7,3.3l5.2,8.1l0.3,0.5h0l2.6,4.1l1.7,2.6l0,0.1c0.1,0.1,0.1,0.1,0.2,0.2
				c0,0,0,0.1,0.1,0.1c0.8,0.9,1.7,1.6,2.6,2c0.7,0.3,1.4,0.5,2.2,0.5c0.1,0,0.2,0,0.2,0c0.1,0,0.2,0,0.3,0c1-0.1,1.8-0.5,2.6-1
				c2.5-1.6,4.2-4.9,5-7l5.4,0v4.3h16.4v-4.8h-11.6V59.8z M105.5,96.4L90.7,68.1l0-0.1c-1.3-0.1-9.4-0.8-9.5-0.8l-1.1-0.1l-10,10.1
				c-1.6,1.2-3.1,1.7-4.4,1.4c-1.3-0.3-2.4-1.4-3.1-2.3l10.9-14.2c3.2-4,6.1-4.2,6.2-4.2l17.4,0l16.1,7v31.4L105.5,96.4z"/>
		</g>
	</g>
</g>
</svg>
