<?xml version="1.0" encoding="utf-8"?>
<!-- Generator: Adobe Illustrator 24.3.0, SVG Export Plug-In . SVG Version: 6.00 Build 0)  -->
<svg version="1.1" id="Layer_1" xmlns="http://www.w3.org/2000/svg" xmlns:xlink="http://www.w3.org/1999/xlink" x="0px" y="0px"
	 viewBox="0 0 160 160" style="enable-background:new 0 0 160 160;" xml:space="preserve">
<style type="text/css">
	.st0{clip-path:url(#SVGID_2_);}
	.st1{fill:#FBD477;}
	.st2{fill:#FCB429;}
	.st3{fill:#FDC653;}
	.st4{clip-path:url(#SVGID_4_);}
	.st5{fill:#FFFFFF;}
	.st6{clip-path:url(#SVGID_6_);}
	.st7{fill:#EF7241;}
	.st8{fill:#C24027;}
	.st9{fill:#E04403;}
	.st10{clip-path:url(#SVGID_8_);}
	.st11{fill:#67C6A7;}
	.st12{fill:#1D9B7B;}
	.st13{fill:#25B590;}
	.st14{clip-path:url(#SVGID_10_);}
	.st15{clip-path:url(#SVGID_12_);}
	.st16{fill:#488DD9;}
	.st17{fill:#2666A7;}
	.st18{fill:#0071CE;}
	.st19{clip-path:url(#SVGID_14_);}
	.st20{fill:#AB669A;}
	.st21{fill:#7C2F6D;}
	.st22{fill:#923A7F;}
</style>
<g>
	<g>
		<defs>
			<circle id="SVGID_11_" cx="-168.3" cy="80" r="78.9"/>
		</defs>
		<clipPath id="SVGID_2_">
			<use xlink:href="#SVGID_11_"  style="overflow:visible;"/>
		</clipPath>
		<g class="st0">
			<rect x="-261.2" y="-23.8" class="st16" width="287.8" height="192.7"/>
		</g>
		<g class="st0">
			<polygon class="st3" points="-6.7,136.8 26.6,115.1 26.6,168.9 -6.7,168.9 			"/>
		</g>
		<g class="st0">
			<polygon class="st2" points="-6.7,104.4 26.6,82.7 26.6,115.1 -6.7,136.8 			"/>
		</g>
		<g class="st0">
			<polygon class="st2" points="-6.7,15.3 26.6,-6.3 26.6,9.8 -6.7,31.5 			"/>
		</g>
	</g>
</g>
<g>
	<g>
		<defs>
			<circle id="SVGID_13_" cx="80" cy="80" r="78.9"/>
		</defs>
		<clipPath id="SVGID_4_">
			<use xlink:href="#SVGID_13_"  style="overflow:visible;"/>
		</clipPath>
		<g class="st4">
			<rect x="-12.9" y="-23.8" class="st20" width="287.8" height="192.7"/>
		</g>
		<g class="st4">
			<polygon class="st21" points="-12.9,47.9 22.8,25.3 22.8,99.6 -12.9,122.2 			"/>
		</g>
		<g class="st4">
			<polygon class="st2" points="-12.9,4.3 22.8,-18.2 22.8,-2.1 -12.9,20.4 			"/>
		</g>
		<g class="st4">
			<polygon class="st3" points="22.8,-23.8 59.3,-23.8 59.3,-9.9 22.8,13.8 			"/>
		</g>
		<g class="st4">
			<polygon class="st22" points="22.8,145.2 59.3,121.6 59.3,168.9 22.8,168.9 			"/>
		</g>
		<g class="st4">
			<polygon class="st22" points="-12.9,141 22.8,117.9 22.8,168.9 -12.9,168.9 			"/>
		</g>
		<g class="st4">
			<polygon class="st21" points="59.3,-23.8 95.7,-23.8 95.7,30 59.3,53.6 			"/>
		</g>
		<g class="st4">
			<polygon class="st22" points="59.3,80.7 95.7,57 95.7,135.9 59.3,159.5 			"/>
		</g>
		<g class="st4">
			<polygon class="st21" points="95.7,80.7 132.2,57 132.2,90.9 95.7,114.6 			"/>
		</g>
		<g class="st4">
			<polygon class="st22" points="132.2,75.6 168.7,51.9 168.7,106.5 132.2,130.2 			"/>
		</g>
		<g class="st4">
			<polygon class="st21" points="132.2,22.1 168.7,-1.6 168.7,23.7 132.2,47.3 			"/>
		</g>
		<g class="st4">
			<polygon class="st2" points="132.2,-23.8 168.7,-23.8 168.7,-18 132.2,5.6 			"/>
		</g>
		<g class="st4">
			<polygon class="st22" points="95.7,130.2 132.2,106.5 132.2,168.9 95.7,168.9 			"/>
		</g>
	</g>
	<g>
		<g>
			<rect x="34.2" y="113.9" class="st5" width="94.8" height="5.3"/>
		</g>
		<g>
			<g>
				<path class="st5" d="M118.5,40.8H44.8c-5.8,0-10.6,4.8-10.6,10.6v45.8c0,5.8,4.8,10.6,10.6,10.6h73.7c5.8,0,10.6-4.8,10.6-10.6
					V51.4C129.1,45.5,124.3,40.8,118.5,40.8 M123.8,97.2c0,2.9-2.4,5.3-5.3,5.3H44.8c-2.9,0-5.3-2.4-5.3-5.3V51.4
					c0-2.9,2.4-5.3,5.3-5.3h73.7c2.9,0,5.3,2.4,5.3,5.3V97.2z"/>
			</g>
		</g>
		<g>
			<path class="st5" d="M81.7,63.2c2.9,0,5.3,1.8,5.3,4.1h3.9c0-3.8-3.1-7-7.3-7.8v-3.6h-3.9v3.6c-4.1,0.8-7.3,4-7.3,7.8
				c0,4,2.8,8,9.2,8c3.3,0,5.3,1.6,5.3,4.1c0,2.3-2.4,4.1-5.3,4.1c-2.9,0-5.3-1.8-5.3-4.1h-3.9c0,3.8,3.1,7,7.3,7.8v3.6h3.9v-3.6
				c4.1-0.8,7.3-4,7.3-7.8c0-4.7-3.8-8-9.2-8c-3.4,0-5.3-1.5-5.3-4.1C76.4,65.1,78.8,63.2,81.7,63.2"/>
			<path class="st5" d="M84.1,91.3h-4.7v-3.7c-4.2-0.9-7.3-4.3-7.3-8.2v-0.4h4.7v0.4c0,2,2.2,3.7,4.9,3.7c2.7,0,4.9-1.7,4.9-3.7
				c0-2.3-1.8-3.7-4.9-3.7c-6.6,0-9.6-4.2-9.6-8.4c0-3.8,3-7.2,7.3-8.2v-3.7h4.7v3.7c4.2,0.9,7.3,4.3,7.3,8.2v0.4h-4.7v-0.4
				c0-2-2.2-3.7-4.9-3.7c-2.7,0-4.9,1.7-4.9,3.7c0,2.4,1.7,3.7,4.9,3.7c5.7,0,9.6,3.5,9.6,8.4c0,3.8-3,7.2-7.3,8.2V91.3z M80.2,90.5
				h3.1V87l0.3-0.1c4-0.8,6.9-3.9,6.9-7.4c0-4.5-3.6-7.6-8.8-7.6c-3.6,0-5.7-1.7-5.7-4.5c0-2.5,2.6-4.5,5.7-4.5c3,0,5.4,1.8,5.7,4.1
				h3.1c-0.2-3.4-3.1-6.3-6.9-7l-0.3-0.1v-3.5h-3.1v3.5l-0.3,0.1c-4,0.8-6.9,3.9-6.9,7.4c0,3.8,2.7,7.6,8.8,7.6
				c3.5,0,5.7,1.7,5.7,4.5c0,2.5-2.6,4.5-5.7,4.5c-3,0-5.4-1.8-5.7-4.1h-3.1c0.2,3.4,3.1,6.3,6.9,7l0.3,0.1V90.5z"/>
		</g>
	</g>
</g>
</svg>
