<?xml version="1.0" encoding="utf-8"?>
<!-- Generator: Adobe Illustrator 24.3.0, SVG Export Plug-In . SVG Version: 6.00 Build 0)  -->
<svg version="1.1" id="Layer_1" xmlns="http://www.w3.org/2000/svg" xmlns:xlink="http://www.w3.org/1999/xlink" x="0px" y="0px"
	 viewBox="0 0 80 80" style="enable-background:new 0 0 80 80;" xml:space="preserve">
<style type="text/css">
	.st0{fill:none;stroke:#0072CE;stroke-width:2.5;stroke-linecap:round;stroke-linejoin:round;stroke-miterlimit:10;}
</style>
<g>
	<g>
		<g>
			<defs>
				<path id="SVGID_1_" d="M29.3,43.4c0,0.7-0.6,1.2-1.3,1.2s-1.3-0.6-1.3-1.2c0-0.7,0.6-1.2,1.3-1.2S29.3,42.7,29.3,43.4"/>
			</defs>
			<use xlink:href="#SVGID_1_"  style="overflow:visible;fill-rule:evenodd;clip-rule:evenodd;fill:#0472CE;"/>
			<clipPath id="SVGID_2_">
				<use xlink:href="#SVGID_1_"  style="overflow:visible;"/>
			</clipPath>
		</g>
		<g>
			<line class="st0" x1="33" y1="48.4" x2="23" y2="48.4"/>
			<path class="st0" d="M18,48.4H4.2c-1.4,0-2.5-1.1-2.5-2.5V11c0-1.4,1.1-2.5,2.5-2.5h47.5c1.4,0,2.5,1.1,2.5,2.5v11.6"/>
			<line class="st0" x1="19.3" y1="55.9" x2="36.8" y2="55.9"/>
			<line class="st0" x1="33" y1="48.4" x2="33" y2="53.4"/>
			<line class="st0" x1="23" y1="48.4" x2="23" y2="53.4"/>
			<line class="st0" x1="6.8" y1="38.4" x2="38.2" y2="38.4"/>
			<path class="st0" d="M35.5,55.9c-1.4,0-2.5-1.1-2.5-2.5"/>
			<path class="st0" d="M23,53.4c0,1.4-1.1,2.5-2.5,2.5"/>
		</g>
	</g>
	<g>
		<g>
			<g>
				<g>
					<path class="st0" d="M78.3,53.8v-6.9c0-1.3-1.1-2.4-2.4-2.4H65.7c-1.3,0-2.4,1.1-2.4,2.4v7.7v7.6v6.7c0,1.5,1.2,2.7,2.7,2.7
						h9.4c1.6,0,2.9-1.3,2.9-2.9v-1.2V53.8z"/>
				</g>
			</g>
		</g>
		<g>
			<defs>
				<path id="SVGID_3_" d="M72,68.3c0,0.7-0.6,1.2-1.3,1.2s-1.3-0.6-1.3-1.2s0.6-1.2,1.3-1.2S72,67.6,72,68.3"/>
			</defs>
			<use xlink:href="#SVGID_3_"  style="overflow:visible;fill-rule:evenodd;clip-rule:evenodd;fill:#0472CE;"/>
			<clipPath id="SVGID_4_">
				<use xlink:href="#SVGID_3_"  style="overflow:visible;"/>
			</clipPath>
		</g>
	</g>
	<g>
		<g>
			<g>
				<g>
					<path class="st0" d="M69.7,40.4V31c0-1.9-1.6-3.5-3.5-3.5H41.7c-1.9,0-3.5,1.6-3.5,3.5v11.3v11.1v9.9c0,2.2,1.7,3.9,3.9,3.9
						h16.3"/>
				</g>
			</g>
			<g>
				<defs>
					<path id="SVGID_5_" d="M55.2,63c0,0.7-0.6,1.2-1.3,1.2s-1.3-0.6-1.3-1.2c0-0.7,0.6-1.2,1.3-1.2S55.2,62.3,55.2,63"/>
				</defs>
				<use xlink:href="#SVGID_5_"  style="overflow:visible;fill-rule:evenodd;clip-rule:evenodd;fill:#0472CE;"/>
				<clipPath id="SVGID_6_">
					<use xlink:href="#SVGID_5_"  style="overflow:visible;"/>
				</clipPath>
			</g>
		</g>
	</g>
</g>
<g>
	<g>
		<g>
			<defs>
				<path id="SVGID_7_" d="M-270.6,45c0,0.7-0.5,1.2-1.2,1.2c-0.7,0-1.2-0.5-1.2-1.2c0-0.7,0.5-1.2,1.2-1.2
					C-271.1,43.8-270.6,44.3-270.6,45"/>
			</defs>
			<use xlink:href="#SVGID_7_"  style="overflow:visible;fill-rule:evenodd;clip-rule:evenodd;fill:#0472CE;"/>
			<clipPath id="SVGID_8_">
				<use xlink:href="#SVGID_7_"  style="overflow:visible;"/>
			</clipPath>
		</g>
		<g>
			<line class="st0" x1="-267" y1="49.8" x2="-276.6" y2="49.8"/>
			<path class="st0" d="M-281.4,49.8h-13.2c-1.3,0-2.4-1.1-2.4-2.4V13.7c0-1.3,1.1-2.4,2.4-2.4h45.8c1.3,0,2.4,1.1,2.4,2.4v11.2"/>
			<line class="st0" x1="-280.2" y1="57" x2="-263.4" y2="57"/>
			<line class="st0" x1="-267" y1="49.8" x2="-267" y2="54.6"/>
			<line class="st0" x1="-276.6" y1="49.8" x2="-276.6" y2="54.6"/>
			<line class="st0" x1="-292.3" y1="40.2" x2="-262" y2="40.2"/>
			<path class="st0" d="M-264.6,57c-1.3,0-2.4-1.1-2.4-2.4"/>
			<path class="st0" d="M-276.6,54.6c0,1.3-1.1,2.4-2.4,2.4"/>
		</g>
	</g>
	<g>
		<g>
			<g>
				<g>
					<path class="st0" d="M-223.4,54.9v-6.6c0-1.3-1-2.3-2.3-2.3h-9.8c-1.3,0-2.3,1-2.3,2.3v7.4V63v6.5c0,1.4,1.1,2.6,2.6,2.6h9
						c1.6,0,2.8-1.3,2.8-2.8v-1.1V54.9z"/>
				</g>
			</g>
		</g>
		<g>
			<defs>
				<path id="SVGID_9_" d="M-229.4,68.9c0,0.7-0.5,1.2-1.2,1.2s-1.2-0.5-1.2-1.2c0-0.7,0.5-1.2,1.2-1.2S-229.4,68.2-229.4,68.9"/>
			</defs>
			<use xlink:href="#SVGID_9_"  style="overflow:visible;fill-rule:evenodd;clip-rule:evenodd;fill:#0472CE;"/>
			<clipPath id="SVGID_10_">
				<use xlink:href="#SVGID_9_"  style="overflow:visible;"/>
			</clipPath>
		</g>
	</g>
	<g>
		<g>
			<g>
				<g>
					<path class="st0" d="M-231.7,42.1v-9c0-1.9-1.5-3.4-3.4-3.4h-23.5c-1.9,0-3.4,1.5-3.4,3.4v10.8v10.7v9.5c0,2.1,1.7,3.8,3.8,3.8
						h15.7"/>
				</g>
			</g>
			<g>
				<defs>
					<path id="SVGID_11_" d="M-245.6,63.9c0,0.7-0.5,1.2-1.2,1.2s-1.2-0.5-1.2-1.2c0-0.7,0.5-1.2,1.2-1.2S-245.6,63.2-245.6,63.9"/>
				</defs>
				<use xlink:href="#SVGID_11_"  style="overflow:visible;fill-rule:evenodd;clip-rule:evenodd;fill:#0472CE;"/>
				<clipPath id="SVGID_12_">
					<use xlink:href="#SVGID_11_"  style="overflow:visible;"/>
				</clipPath>
			</g>
		</g>
	</g>
</g>
</svg>
