<?xml version="1.0" encoding="utf-8"?>
<!-- Generator: Adobe Illustrator 24.3.0, SVG Export Plug-In . SVG Version: 6.00 Build 0)  -->
<svg version="1.1" id="Layer_1" xmlns="http://www.w3.org/2000/svg" xmlns:xlink="http://www.w3.org/1999/xlink" x="0px" y="0px"
	 viewBox="0 0 80 80" style="enable-background:new 0 0 80 80;" xml:space="preserve">
<style type="text/css">
	.st0{fill:none;stroke:#2B71B8;stroke-width:2.5;stroke-linecap:round;stroke-linejoin:round;stroke-miterlimit:10;}
	.st1{fill:none;stroke:#2B71B8;stroke-width:2.5;stroke-miterlimit:10;}
	
		.st2{fill-rule:evenodd;clip-rule:evenodd;fill:none;stroke:#2B71B8;stroke-width:2.5;stroke-linecap:round;stroke-linejoin:round;stroke-miterlimit:10;}
</style>
<g>
	<g>
		<circle class="st0" cx="43.5" cy="26" r="15.6"/>
		<line class="st0" x1="54.4" y1="37" x2="60.4" y2="43.1"/>
		<path class="st0" d="M58.8,45.9l4-4.6l9.1,7.9c0,0,1.8,1.2-0.4,3.9c-2.2,2.7-4,0.8-4,0.8L58.8,45.9z"/>
	</g>
	<path class="st1" d="M65.9,58.3v18c0,1-0.8,1.8-1.8,1.8H12.8c-1,0-1.8-0.8-1.8-1.8V3.7c0-1,0.8-1.8,1.8-1.8H64c1,0,1.8,0.8,1.8,1.8
		v31.7"/>
	<line class="st2" x1="22.2" y1="58.9" x2="57" y2="58.9"/>
	<line class="st2" x1="22.2" y1="67.6" x2="57" y2="67.6"/>
	<line class="st2" x1="22.2" y1="50.7" x2="49.8" y2="50.7"/>
	<line class="st0" x1="7.4" y1="9.3" x2="14.6" y2="9.3"/>
	<g>
		<line class="st0" x1="7.4" y1="9.5" x2="14.6" y2="9.5"/>
		<line class="st0" x1="7.4" y1="21.7" x2="14.6" y2="21.7"/>
		<line class="st0" x1="7.4" y1="33.9" x2="14.6" y2="33.9"/>
		<line class="st0" x1="7.4" y1="46.1" x2="14.6" y2="46.1"/>
		<line class="st0" x1="7.4" y1="58.3" x2="14.6" y2="58.3"/>
		<line class="st0" x1="7.4" y1="70.5" x2="14.6" y2="70.5"/>
	</g>
</g>
</svg>
