<?xml version="1.0" encoding="utf-8"?>
<!-- Generator: Adobe Illustrator 24.3.0, SVG Export Plug-In . SVG Version: 6.00 Build 0)  -->
<svg version="1.1" id="Layer_1" xmlns="http://www.w3.org/2000/svg" xmlns:xlink="http://www.w3.org/1999/xlink" x="0px" y="0px"
	 viewBox="0 0 80 80" style="enable-background:new 0 0 80 80;" xml:space="preserve">
<style type="text/css">
	.st0{fill:none;stroke:#0072CE;stroke-width:2.5;stroke-linecap:round;stroke-linejoin:round;stroke-miterlimit:10;}
	
		.st1{fill-rule:evenodd;clip-rule:evenodd;fill:none;stroke:#0072CE;stroke-width:2.5;stroke-linecap:round;stroke-linejoin:round;stroke-miterlimit:10;}
</style>
<g>
	<g>
		<path class="st0" d="M52.5,9.6l0,5.4c0,2,1.6,3.6,3.6,3.6h12.5v6.7"/>
		<line class="st1" x1="21.4" y1="46.3" x2="59.6" y2="46.3"/>
		<line class="st1" x1="21.4" y1="56.3" x2="59.6" y2="56.3"/>
		<line class="st1" x1="21.4" y1="66.3" x2="59.6" y2="66.3"/>
		<path class="st0" d="M68.6,23.3v50.6c0,2-1.6,3.6-3.6,3.6H45.7H34.3H15c-2,0-3.6-1.6-3.6-3.6V6.1c0-2,1.6-3.6,3.6-3.6h37.5
			l10.7,10.7"/>
		<line class="st1" x1="21.4" y1="36.3" x2="59.6" y2="36.3"/>
		<line class="st1" x1="21.4" y1="26.3" x2="47.7" y2="26.3"/>
		<line class="st1" x1="21.4" y1="16.3" x2="40.5" y2="16.3"/>
	</g>
</g>
</svg>
