<svg xmlns="http://www.w3.org/2000/svg" xmlns:xlink="http://www.w3.org/1999/xlink" viewBox="0 0 80 80" xmlns:v="https://vecta.io/nano"><style><![CDATA[.D{stroke-linejoin:round}.E{stroke:#6da9dc}.F{stroke-width:2.5}.G{stroke-miterlimit:10}.H{stroke-linecap:round}]]></style><g fill="none" class="E F D"><path d="M38.7 39.7H16c-3.3 0-5.9-2.7-5.9-5.9M29.5 16h42.8c3.3 0 5.9 2.7 5.9 5.9v11.8c0 3.3-2.7 5.9-5.9 5.9h-20" class="G H"/><circle cx="13.5" cy="18.7" r="11.7"/></g><defs><path id="A" d="M8.6 18.9l2.8 2.6c.3.3.8.3 1.1 0l6.3-5.8"/></defs><clipPath ><use xlink:href="#A"/></clipPath><g fill="none" class="D E F G H"><use xlink:href="#A"/><use xlink:href="#C"/></g><path d="M34.9 31.2c0 .2-.1.4-.3.6-.2.1-.4.2-.6.2s-.3 0-.4-.1-.2-.2-.3-.4l-.7-1.5h-4.2l-.7 1.4a1.38 1.38 0 0 1-.3.4c-.1.1-.2.2-.4.2s-.4-.1-.6-.2c-.2-.2-.3-.4-.3-.6 0-.1 0-.2.1-.4l3.3-7a.78.78 0 0 1 .4-.4c.2-.1.4-.2.6-.2s.4.1.6.2.3.3.4.4l3.3 7c.1.1.1.2.1.4zm-5.8-2.6H32l-1.4-3.2-1.5 3.2zm7.1 3.1c-.2-.2-.3-.4-.3-.7v-6.9c0-.3.1-.5.2-.7.2-.2.4-.2.7-.2h3.1c.9 0 1.7.2 2.2.7s.8 1.1.8 2-.3 1.5-.8 2-1.3.7-2.2.7h-2.1V31c0 .3-.1.5-.3.7s-.3.3-.6.3-.5-.1-.7-.3zm3.5-4.5c1 0 1.4-.4 1.4-1.2s-.5-1.3-1.4-1.3h-1.8v2.5h1.8zm4.7 4.5c-.2-.2-.3-.4-.3-.7v-6.9c0-.3.1-.5.2-.7.2-.2.4-.2.7-.2h3.1c.9 0 1.7.2 2.2.7s.8 1.1.8 2-.3 1.5-.8 2-1.3.7-2.2.7H46V31c0 .3-.1.5-.3.7s-.4.3-.7.3-.4-.1-.6-.3zm3.5-4.5c1 0 1.4-.4 1.4-1.2s-.5-1.3-1.4-1.3H46v2.5h1.9zm4.7 4.5c-.2-.2-.2-.4-.2-.7v-6.9c0-.3.1-.5.3-.7s.4-.3.7-.3.5.1.7.3.3.4.3.7v6.2h3.1c.6 0 .9.3.9.8s-.3.8-.9.8h-4.2c-.4 0-.6-.1-.7-.2zm11.1-8.5c.2 0 .4.1.6.3s.3.4.3.6-.1.4-.2.6l-2.7 3.2V31c0 .3-.1.5-.3.7s-.4.3-.6.3c-.3 0-.5-.1-.7-.2-.2-.2-.3-.4-.3-.7v-3.2l-2.7-3.2c-.2-.2-.2-.4-.2-.6s.1-.4.3-.6.4-.3.6-.3.5.1.6.3l2.3 2.9 2.3-2.9c.3-.2.5-.3.7-.3z" fill="#6da9dc"/><path d="M64.7 51.6c-.6-.6-1.4-.9-2.3-.9-1 0-1.8.5-2.4 1.2v-.3c0-1.7-1.4-3.2-3.2-3.2-1 0-1.9.5-2.5 1.2v-.3c0-1.7-1.4-3.2-3.2-3.2-1 0-1.9.5-2.5 1.2v-9.8c0-.9-.4-1.7-1-2.3s-1.4-.9-2.3-.9c-1.7 0-3.1 1.5-3.1 3.2v24.6l-4.8-5.2c-1.2-1.2-3.2-1.3-4.5-.1-.6.6-1 1.4-1 2.3s.3 1.7.9 2.3l7 7.4 5 5a8.21 8.21 0 0 0 5.6 2.2h7c4.5 0 8.1-3.7 8.1-8.1v-14c.2-.8-.2-1.7-.8-2.3z" fill="none" class="D E F G"/></svg>