<?xml version="1.0" encoding="utf-8"?>
<!-- Generator: Adobe Illustrator 24.3.0, SVG Export Plug-In . SVG Version: 6.00 Build 0)  -->
<svg version="1.1" id="Layer_1" xmlns="http://www.w3.org/2000/svg" xmlns:xlink="http://www.w3.org/1999/xlink" x="0px" y="0px"
	 viewBox="0 0 80 80" style="enable-background:new 0 0 80 80;" xml:space="preserve">
<style type="text/css">
	.st0{fill:none;stroke:#0071CE;stroke-width:2.5;stroke-linecap:round;stroke-linejoin:round;stroke-miterlimit:10;}
	.st1{clip-path:url(#SVGID_3_);}
	.st2{fill:#0071CE;}
</style>
<g>
	<g>
		<g>
			<path class="st0" d="M30.9,34h41.6c3.2,0,5.8,2.6,5.8,5.8v11.5c0,3.2-2.6,5.8-5.8,5.8H17.8c-3.2,0-5.8-2.6-5.8-5.8"/>
		</g>
		<g>
			<circle class="st0" cx="13.2" cy="34.4" r="11.4"/>
		</g>
		<g>
			<defs>
				<path id="SVGID_1_" d="M8.4,34.7l2.7,2.5c0.3,0.3,0.8,0.3,1.1,0l6.1-5.7"/>
			</defs>
			<defs>
				<path id="SVGID_2_" d="M11.7,35.7"/>
			</defs>
			<use xlink:href="#SVGID_2_"  style="overflow:visible;fill-rule:evenodd;clip-rule:evenodd;fill:#2C71B9;"/>
			<clipPath id="SVGID_3_">
				<use xlink:href="#SVGID_1_"  style="overflow:visible;"/>
			</clipPath>
			<clipPath id="SVGID_4_" class="st1">
				<use xlink:href="#SVGID_2_"  style="overflow:visible;"/>
			</clipPath>
			
				<use xlink:href="#SVGID_1_"  style="overflow:visible;fill-rule:evenodd;clip-rule:evenodd;fill:none;stroke:#0071CE;stroke-width:2.5;stroke-linecap:round;stroke-linejoin:round;stroke-miterlimit:10;"/>
			
				<use xlink:href="#SVGID_2_"  style="overflow:visible;fill-rule:evenodd;clip-rule:evenodd;fill:none;stroke:#0071CE;stroke-width:2.5;stroke-miterlimit:10;"/>
		</g>
	</g>
	<g>
		<path class="st2" d="M36.1,48.7c0,0.2-0.1,0.4-0.3,0.6c-0.2,0.2-0.4,0.2-0.6,0.2c-0.2,0-0.3,0-0.4-0.1s-0.2-0.2-0.3-0.4l-0.6-1.4
			h-4L29.2,49c-0.1,0.2-0.2,0.3-0.3,0.4s-0.3,0.1-0.4,0.1c-0.2,0-0.4-0.1-0.6-0.2c-0.2-0.2-0.3-0.3-0.3-0.6c0-0.1,0-0.2,0.1-0.4
			l3.2-6.8c0.1-0.2,0.2-0.3,0.4-0.4c0.2-0.1,0.4-0.1,0.6-0.1c0.2,0,0.4,0.1,0.6,0.2c0.2,0.1,0.3,0.2,0.4,0.4l3.2,6.8
			C36.1,48.5,36.1,48.6,36.1,48.7z M30.5,46.2h2.8l-1.4-3.1L30.5,46.2z"/>
		<path class="st2" d="M37.4,49.3c-0.2-0.2-0.2-0.4-0.2-0.7v-6.7c0-0.3,0.1-0.5,0.2-0.6c0.2-0.2,0.4-0.2,0.6-0.2h3
			c0.9,0,1.6,0.2,2.1,0.7s0.8,1.1,0.8,1.9c0,0.8-0.3,1.5-0.8,1.9c-0.5,0.5-1.2,0.7-2.1,0.7h-2v2.3c0,0.3-0.1,0.5-0.2,0.7
			c-0.2,0.2-0.4,0.2-0.7,0.2C37.8,49.5,37.6,49.5,37.4,49.3z M40.8,44.9c0.9,0,1.4-0.4,1.4-1.2c0-0.8-0.5-1.2-1.4-1.2H39v2.4H40.8z"
			/>
		<path class="st2" d="M45.3,49.3c-0.2-0.2-0.2-0.4-0.2-0.7v-6.7c0-0.3,0.1-0.5,0.2-0.6c0.2-0.2,0.4-0.2,0.6-0.2h3
			c0.9,0,1.6,0.2,2.1,0.7c0.5,0.5,0.8,1.1,0.8,1.9c0,0.8-0.3,1.5-0.8,1.9c-0.5,0.5-1.2,0.7-2.1,0.7h-2v2.3c0,0.3-0.1,0.5-0.2,0.7
			c-0.2,0.2-0.4,0.2-0.7,0.2C45.7,49.5,45.5,49.5,45.3,49.3z M48.7,44.9c0.9,0,1.4-0.4,1.4-1.2c0-0.8-0.5-1.2-1.4-1.2h-1.8v2.4H48.7
			z"/>
		<path class="st2" d="M53.3,49.2c-0.2-0.2-0.2-0.4-0.2-0.6v-6.7c0-0.3,0.1-0.5,0.2-0.7c0.2-0.2,0.4-0.2,0.7-0.2s0.5,0.1,0.7,0.2
			c0.2,0.2,0.2,0.4,0.2,0.7v6h3c0.6,0,0.9,0.3,0.9,0.8c0,0.5-0.3,0.7-0.9,0.7h-4C53.6,49.5,53.4,49.4,53.3,49.2z"/>
		<path class="st2" d="M64.1,41c0.2,0,0.4,0.1,0.6,0.3c0.2,0.2,0.3,0.4,0.3,0.6c0,0.2-0.1,0.4-0.2,0.6l-2.6,3.1v3.1
			c0,0.3-0.1,0.5-0.3,0.7c-0.2,0.2-0.4,0.2-0.7,0.2c-0.3,0-0.5-0.1-0.7-0.2c-0.2-0.2-0.3-0.4-0.3-0.7v-3.1l-2.6-3.1
			c-0.2-0.2-0.2-0.3-0.2-0.6c0-0.2,0.1-0.4,0.3-0.6c0.2-0.2,0.4-0.3,0.6-0.3c0.2,0,0.4,0.1,0.6,0.3l2.3,2.8l2.3-2.8
			C63.7,41.1,63.9,41,64.1,41z"/>
	</g>
</g>
</svg>
