<svg xmlns="http://www.w3.org/2000/svg" viewBox="0 0 80 80" xmlns:v="https://vecta.io/nano"><path d="M37.5 47.6c-1 .6-2.2.7-3.4.5l-.5 1.3c-.2.4-.4.7-.7.9s-.6.2-1 .1c-.3-.1-.5-.4-.7-.7-.1-.3-.1-.7.1-1.1l.5-1.2c-.7-.3-1.3-.8-1.8-1.3s-1-1.1-1.3-1.7c-.1-.2-.2-.5-.2-.7s0-.5.1-.8c.1-.4.4-.7.7-.9s.6-.3.8-.2a1.54 1.54 0 0 1 .7.7c.4.6.9 1.1 1.3 1.5.5.4 1 .7 1.5.9.8.3 1.4.3 1.9.2.5-.2.9-.6 1.1-1.2.1-.4.1-.7 0-1.1-.1-.3-.4-.6-.6-.9-.3-.3-.7-.6-1.3-1.1-.8-.6-1.5-1.2-2-1.7s-.8-1.2-1-1.9c-.2-.8-.1-1.7.3-2.7.5-1.2 1.2-2.1 2.3-2.7s2.2-.8 3.5-.6l.5-1.3c.2-.4.4-.7.7-.9s.6-.2 1-.1a1.21 1.21 0 0 1 .7.7c.1.3.1.7-.1 1.1l-.5 1.3c1.1.6 1.9 1.5 2.6 2.7.1.2.2.4.2.7 0 .2 0 .5-.1.7-.1.4-.4.7-.7.9s-.6.3-.8.2c-.1-.1-.3-.1-.4-.2s-.2-.3-.4-.5c-.4-.6-.7-1.1-1-1.4-.3-.4-.8-.6-1.4-.9-.7-.3-1.3-.3-1.8-.1s-.9.6-1.2 1.2c-.2.4-.2.8 0 1.2.1.4.4.7.7 1s.7.7 1.3 1.1c.8.6 1.5 1.2 1.9 1.7.5.5.8 1.1 1 1.9s.1 1.7-.3 2.7c-.5 1.2-1.2 2.1-2.2 2.7z" fill="#6cace4"/><g fill="none" stroke="#6cace4" stroke-width="2.5" stroke-linejoin="round" stroke-miterlimit="10"><path d="M14.6 41.2c-7.1 0-12.9-5.8-12.9-12.9h0c0-7.1 5.8-12.9 12.9-12.9h50.9c7.1 0 12.9 5.8 12.9 12.9h0c0 7.1-5.8 12.9-12.9 12.9" stroke-linecap="round"/><path d="M32.3 22.4h30.1L40.7 55.5h-31z"/><path d="M64.3 27.3l-20.8 33H13.1m54-28.6l-20.8 33H16.9" stroke-linecap="round"/></g></svg>