<svg xmlns="http://www.w3.org/2000/svg" viewBox="0 0 80 80" fill="#0071ce" xmlns:v="https://vecta.io/nano"><path d="M48.3 33.2c-1.5 1.4-3.5 2.3-5.9 2.5v3c0 .4-.1.8-.4 1.1s-.6.4-1 .4-.8-.1-1-.4c-.3-.3-.4-.6-.4-1.1v-3a18.62 18.62 0 0 1-4.7-.9c-1.5-.5-2.8-1.3-3.8-2.2-.4-.3-.6-.8-.6-1.3a1.69 1.69 0 0 1 .3-1c.2-.3.5-.4.7-.4.3 0 .7.1 1.1.4 2.6 1.8 5.3 2.8 7.9 2.8 2.1 0 3.7-.4 4.9-1.3s1.7-2.1 1.7-3.7c0-.9-.3-1.7-.9-2.3s-1.3-1.1-2.2-1.4-2.1-.7-3.7-1c-2-.5-3.6-1-4.8-1.5s-2.3-1.3-3.1-2.3c-.9-1-1.3-2.4-1.3-4.1a7.04 7.04 0 0 1 1.1-3.8c.7-1.1 1.7-2.1 3-2.8s2.7-1.1 4.4-1.3v-3c0-.4.1-.8.4-1 .3-.3.6-.4 1-.4s.8.1 1 .4.4.6.4 1.1v3c1.4.1 2.7.5 4 1s2.4 1.2 3.3 2.2c.4.4.7.8.7 1.3a1.69 1.69 0 0 1-.3 1c-.2.3-.5.4-.8.4s-.7-.1-1.1-.4c-1.2-.9-2.3-1.6-3.4-2.1-1.1-.4-2.4-.7-3.8-.7-2 0-3.6.5-4.8 1.4s-1.8 2.2-1.8 3.7c0 1.1.3 2 1 2.6.6.7 1.4 1.2 2.4 1.5.9.4 2.2.7 3.9 1.2l4.6 1.4c1.2.5 2.2 1.2 3 2.2s1.2 2.2 1.2 3.8c0 1.9-.8 3.6-2.2 5zm21.4 32.3H11.4a9.82 9.82 0 0 1-9.8-9.8v-1.9a9.82 9.82 0 0 1 9.8-9.8h58.3a9.82 9.82 0 0 1 9.8 9.8v1.9c.1 5.4-4.3 9.8-9.8 9.8zm-58.3-19c-4.1 0-7.4 3.3-7.4 7.4v1.9c0 4.1 3.3 7.4 7.4 7.4h58.3c4.1 0 7.4-3.3 7.4-7.4v-1.9c0-4.1-3.3-7.4-7.4-7.4H11.4z"/><path d="M18.4 77h-5.2c-2.6 0-4.7-2.1-4.7-4.7v-8.1h2.4v8.1c0 1.2 1 2.3 2.3 2.3h5.2c1.2 0 2.3-1 2.3-2.3v-7.9h2.4v7.9c0 2.6-2.1 4.7-4.7 4.7zm48.8 0H62c-2.6 0-4.7-2.1-4.7-4.7v-8.1h2.4v8.1c0 1.2 1 2.3 2.3 2.3h5.2c1.2 0 2.3-1 2.3-2.3v-7.9h2.4v7.9c0 2.6-2.1 4.7-4.7 4.7zM15 61.3a6.49 6.49 0 0 1-6.5-6.5c0-3.6 2.9-6.6 6.5-6.6s6.5 2.9 6.5 6.6c.1 3.6-2.8 6.5-6.5 6.5zm0-10.6c-2.3 0-4.1 1.8-4.1 4.1s1.8 4.1 4.1 4.1 4.1-1.8 4.1-4.1c.1-2.3-1.8-4.1-4.1-4.1zm49.6 10.6c-3.6 0-6.6-2.9-6.6-6.5s2.9-6.6 6.6-6.6c3.6 0 6.5 2.9 6.5 6.6a6.49 6.49 0 0 1-6.5 6.5zm0-10.6c-2.3 0-4.1 1.8-4.1 4.1s1.8 4.1 4.1 4.1 4.1-1.8 4.1-4.1-1.9-4.1-4.1-4.1zm-53.2-4.2h-.2c-.7-.1-1.1-.8-1-1.4l3.3-17.6c.3-1.4 1.3-2.5 2.7-2.9l13.1-4c.6-.2 1.3.2 1.5.8s-.2 1.3-.8 1.5l-13.1 4c-.5.1-.9.6-1 1.1l-3.3 17.6c-.1.5-.6.9-1.2.9zm57.8 0c-.6 0-1.1-.4-1.2-1l-3.3-17.6c-.1-.5-.5-.9-1-1.1L51 22.7c-.6-.2-1-.9-.8-1.5s.9-1 1.5-.8l12.6 4c1.4.4 2.4 1.5 2.6 2.9L70.4 45c.1.7-.3 1.3-1 1.4-.1.1-.1.1-.2.1z"/><path d="M12.2 46.4H4.9c-2.4 0-4.4-1.6-4.4-3.7V39c0-2 2-3.7 4.4-3.7h7.4v2.4H4.9c-1.1 0-2 .6-2 1.2v3.7c0 .6.8 1.2 2 1.2h7.3v2.6zm63 0h-7.3V44h7.3c1.1 0 2-.6 2-1.2v-3.7c0-.6-.8-1.2-2-1.2h-7.4v-2.4h7.4c2.4 0 4.4 1.6 4.4 3.7v3.7c0 1.8-2 3.5-4.4 3.5zm-20.8 7.1H25c-.7 0-1.2-.5-1.2-1.2S24.4 51 25 51h29.4c.7 0 1.2.5 1.2 1.2s-.5 1.3-1.2 1.3zm0 5.8H25c-.7 0-1.2-.5-1.2-1.2s.5-1.2 1.2-1.2h29.4c.7 0 1.2.5 1.2 1.2s-.5 1.2-1.2 1.2z"/></svg>