<svg xmlns="http://www.w3.org/2000/svg" viewBox="0 0 80 80" xmlns:v="https://vecta.io/nano"><style><![CDATA[.E{stroke-width:2.699}.F{stroke-linejoin:round}.G{stroke-miterlimit:10}]]></style><g fill="none" class="E F G"><g stroke="#0071ce" stroke-linecap="round"><path d="M23.7 11.8l-3.2-1.7c-.4-.2-.9-.1-1.1.3L9 30.2c-.2.4-.1.9.3 1.1l4.1 2.3M34.9 6.4l-2.3-2.3c-.3-.3-.8-.3-1.2 0L15.7 20c-.3.3-.3.8 0 1.2L28.5 34"/><path d="M61 33.8L45.9 2.1c-.2-.4-.7-.6-1.1-.4l-20.2 9.5c-.4.2-.6.7-.4 1.1l10.1 21.5"/></g><path d="M72.1 78.6H8.9c-2.4 0-4.4-2-4.4-4.4V38.4c0-2.4 2-4.4 4.4-4.4h63.2c2.4 0 4.4 2 4.4 4.4v35.8c0 2.4-1.9 4.4-4.4 4.4z" stroke="#0072cc"/></g><g fill="#0071ce"><path d="M14 39.7c-.2-.1-.4-.1-.6-.1-.3 0-.5.1-.5.4v.7h1.4l-.3 1.1h-1.1V46h-2.2v-4.2H10v-1.2h.7v-.7c0-1.6 1.4-1.8 2.3-1.8.7 0 1.1.1 1.6.3l-.6 1.3m7.3 6.4l-.8-1.7c-.3-.6-.4-.7-.9-.7v2.4h-1.9v-6h2.5c2.1 0 2.8.7 2.8 1.7s-.7 1.6-1.5 1.7c.2.1.6.3.7.7l1.1 2h-2m-1-4.9h-.5v1.2h.5c.6 0 .9-.3.9-.7-.1-.4-.4-.5-.9-.5zm6.2 4.9c-1.1 0-1.9-.2-2.7-.5l.7-1.2c.5.3 1.3.5 2 .5s1-.2 1-.6c0-.3-.2-.4-.7-.5l-.9-.2c-1.1-.2-1.8-.7-1.8-1.8 0-1.2 1.2-2 2.8-2 1 0 1.9.2 2.6.6l-.9 1.1c-.5-.3-1.1-.4-1.6-.4s-.7.2-.7.4.2.4.7.5l.7.2c.8.2 1.9.5 1.9 1.7.1 1.4-1.2 2.2-3.1 2.2m8.7-4.9h-1.7v4.8h-1.8v-4.8H30V40h5.4l-.2 1.3"/><path d="M14.8 41v5.1h1.9v-6.3L14.8 41M56 69.6h-1.1c-.7 0-1.3-.5-1.3-1.2s.6-1.2 1.3-1.2H56c.7 0 1.3.5 1.3 1.2 0 .6-.6 1.2-1.3 1.2zm-5.5 0h-1.1c-.7 0-1.3-.5-1.3-1.2s.6-1.2 1.3-1.2h1.1c.7 0 1.3.5 1.3 1.2-.1.6-.6 1.2-1.3 1.2zm-5.6 0h-1.1c-.7 0-1.3-.5-1.3-1.2s.6-1.2 1.3-1.2h1.1c.7 0 1.3.5 1.3 1.2 0 .6-.6 1.2-1.3 1.2zm-5.6 0h-1.1c-.7 0-1.3-.5-1.3-1.2s.6-1.2 1.3-1.2h1.1c.7 0 1.3.5 1.3 1.2 0 .6-.6 1.2-1.3 1.2zm-5.5 0h-1.1c-.7 0-1.3-.5-1.3-1.2s.6-1.2 1.3-1.2h1.1c.7 0 1.3.5 1.3 1.2-.1.6-.6 1.2-1.3 1.2zm-5.6 0h-1.1c-.7 0-1.3-.5-1.3-1.2s.6-1.2 1.3-1.2h1.1c.7 0 1.3.5 1.3 1.2-.1.6-.6 1.2-1.3 1.2zm-5.6 0h-1.1c-.7 0-1.3-.5-1.3-1.2s.6-1.2 1.3-1.2h1.1c.7 0 1.3.5 1.3 1.2 0 .6-.6 1.2-1.3 1.2zm-5.5 0H16c-.7 0-1.3-.5-1.3-1.2s.6-1.2 1.3-1.2h1.1c.7 0 1.3.5 1.3 1.2-.1.6-.7 1.2-1.3 1.2zm-5.6 0h-1.1c-.7 0-1.3-.5-1.3-1.2s.6-1.2 1.3-1.2h1.1c.7 0 1.3.5 1.3 1.2-.1.6-.6 1.2-1.3 1.2z"/></g><path d="M70 45.4v-6.2a.68.68 0 0 0-.7-.7H58a.68.68 0 0 0-.7.7v6.2l.7.6 2.4 2.1 2.7 2.3a.91.91 0 0 0 1 0l2.7-2.3 2.4-2.1.3-.2.5-.4z" fill="none" stroke="#0072cc" class="E F G"/><path d="M41.1 27.5c-.6-.1-1.2-.5-1.7-1.1l-.6.4c-.2.1-.4.2-.6.1-.2 0-.3-.2-.4-.3-.1-.2-.1-.4-.1-.5 0-.2.2-.3.4-.5l.6-.4c-.2-.4-.3-.8-.4-1.2s-.1-.8-.1-1.2c0-.2 0-.3.1-.4l.3-.3c.2-.1.4-.2.6-.1.2 0 .3.1.4.2s.1.3.1.6c0 .4 0 .8.1 1.1s.2.7.4 1c.2.4.5.7.8.8s.6.1.9-.1a.55.55 0 0 0 .3-.5v-.6c0-.2-.1-.5-.2-.9-.2-.6-.3-1.1-.4-1.5s0-.8.1-1.2.5-.8 1-1.1c.6-.4 1.2-.5 1.8-.3.7.1 1.2.5 1.7 1l.6-.4c.2-.1.4-.1.6-.1s.3.2.4.3c.1.2.1.4.1.5 0 .2-.2.3-.4.5l-.5.4c.3.7.4 1.4.3 2.2 0 .1 0 .3-.1.4l-.3.3c-.2.1-.4.2-.6.1-.2 0-.3-.1-.4-.2 0-.1-.1-.2-.1-.2v-1.4c0-.3-.2-.6-.4-.9-.2-.4-.5-.6-.8-.7s-.6-.1-.9.1c-.2.1-.3.3-.4.5s0 .4 0 .7c0 .2.1.6.3 1 .2.6.3 1.1.4 1.5s0 .8-.1 1.2-.5.8-.9 1c-.7.2-1.3.3-1.9.2z" fill="#0070d0"/></svg>