<svg enable-background="new 0 0 80 80" viewBox="0 0 80 80" xmlns="http://www.w3.org/2000/svg"><path clip-rule="evenodd" d="m41.8 56.5c0 1-.8 1.8-1.8 1.8s-1.8-.8-1.8-1.8.8-1.8 1.8-1.8 1.8.7 1.8 1.8" fill="#0070d0" fill-rule="evenodd"/><g fill="none" stroke-linecap="round" stroke-miterlimit="10"><path d="m25.3 63.8h-20.1c-2 0-3.7-1.6-3.7-3.7v-51.2c0-2 1.6-3.7 3.7-3.7h69.7c2 0 3.7 1.6 3.7 3.7v51.2c0 2-1.6 3.7-3.7 3.7h-42.2" stroke="#0070d0" stroke-linejoin="round" stroke-width="2.5"/><path d="m27.2 74.7h25.6" stroke="#0070d0" stroke-linejoin="round" stroke-width="2.5"/><path d="m47.3 63.8v7.3" stroke="#0070d0" stroke-linejoin="round" stroke-width="2.5"/><path d="m32.7 63.8v7.3" stroke="#0070d0" stroke-linejoin="round" stroke-width="2.5"/><path d="m8.8 49.1h62.4" stroke="#0070d0" stroke-linejoin="round" stroke-width="2.5"/><path d="m51 74.7c-2 0-3.7-1.6-3.7-3.7" stroke="#0070d0" stroke-linejoin="round" stroke-width="2.5"/><path d="m32.7 71.1c0 2-1.6 3.7-3.7 3.7" stroke="#0070d0" stroke-linejoin="round" stroke-width="2.5"/><path d="m25.5 40.5h-5.7c-.3 0-.6-.3-.6-.6v-18.6c0-.3.3-.6.6-.6h5.7c.3 0 .6.3.6.6v18.6c-.1.3-.3.6-.6.6z" stroke="#0071ce" stroke-width="2"/><path d="m36.1 40.5h-5.6c-.3 0-.6-.3-.6-.6v-21.9c0-.3.3-.6.6-.6h5.6c.3 0 .6.3.6.6v22c-.1.2-.3.5-.6.5z" stroke="#0071ce" stroke-width="2"/><circle cx="55.7" cy="28.2" r="12.5" stroke="#0071ce" stroke-width="2"/><path d="m55.4 28.5v-12.8" stroke="#0071ce" stroke-width="2"/><path d="m65.7 35.4-10.3-6.9" stroke="#0071ce" stroke-width="2"/><path d="m64.5 19.7-9.1 8.8" stroke="#0071ce" stroke-width="2"/></g></svg>