<svg xmlns="http://www.w3.org/2000/svg" viewBox="0 0 80 80" xmlns:v="https://vecta.io/nano"><path d="M58.4 40.2c.7.6 1.4 1.3 2 2.1 1.9 2.3 2.8 5.4 2.8 9.2 0 4.4-1.5 8.2-4.5 11.3s-7.1 5.1-12.2 6.1v4c0 1.7-.5 3-1.6 4.1-1.1 1-2.4 1.6-4.1 1.6s-3.1-.5-4.1-1.6c-1.2-1-1.7-2.4-1.7-4v-3.7c-6-.8-11.2-2.5-15.5-5.3-1-.6-1.7-1.3-2.1-2-.4-.8-.6-1.8-.6-3 0-1.6.5-3 1.4-4.2 1-1.2 2.1-1.8 3.4-1.8.7 0 1.3.1 2 .3s1.5.6 2.5 1.2c2.4 1.3 4.6 2.2 6.7 2.8 2.1.5 4.3.8 6.6.8 2.9 0 5.1-.5 6.6-1.4 1.5-1 2.2-2.4 2.2-4.3 0-1.1-.4-2.1-1.3-2.8m-22.3-8.3c-1.4-.9-2.6-2-3.7-3.3-1.9-2.3-2.9-5.3-2.9-9.1 0-4.4 1.5-8.1 4.6-11.4 3-3.2 7.1-5.3 12.1-6.4V7c0-1.6.5-3 1.6-4s2.5-1.6 4.1-1.6c1.7 0 3.1.5 4.1 1.6 1.1 1 1.6 2.4 1.6 4.1v3.8c4.5.7 8.9 2.4 13.2 5.1 1 .7 1.7 1.4 2.1 2.2s.6 1.8.6 2.9c0 1.6-.5 3.1-1.5 4.2-1 1.2-2.1 1.8-3.4 1.8-.7 0-1.3-.1-1.9-.3s-1.5-.6-2.6-1.2c-.4-.2-1.2-.7-2.5-1.3-1.3-.7-2.7-1.2-4.2-1.6s-3.1-.6-4.8-.6c-2.5 0-4.4.5-6 1.6-1.5 1.1-2.3 2.5-2.3 4.3 0 1.7.9 3.1 2.6 3.9.3.2.7.3 1.1.5" fill="none" stroke="#0071ce" stroke-width="2.5" stroke-linecap="round" stroke-linejoin="round" stroke-miterlimit="10"/><path d="M35 47.4c0 .9-.5 1.3-1.5 1.3h-6.9c-1 0-1.5-.4-1.5-1.3 0-.8.5-1.3 1.5-1.3h1.9v-8.3l-1.8 1.1c-.2.1-.4.2-.6.2-.3 0-.6-.1-.9-.4-.2-.3-.4-.6-.4-1 0-.5.2-.8.6-1.1l3.2-1.9c.5-.3.9-.4 1.4-.4.4 0 .8.1 1.1.4s.4.7.4 1.1v10.3h1.9c1.1 0 1.6.5 1.6 1.3zm2.5-.4c-.9-1.3-1.4-3.1-1.4-5.5s.5-4.2 1.4-5.4c.9-1.3 2.2-1.9 4-1.9 1.7 0 3.1.6 4 1.9s1.4 3.1 1.4 5.4c0 2.4-.5 4.2-1.4 5.5s-2.2 1.9-4 1.9c-1.7 0-3.1-.7-4-1.9zm5.7-1.7c.4-.8.5-2 .5-3.8 0-1.7-.2-3-.5-3.8s-.9-1.2-1.7-1.2-1.4.4-1.7 1.2c-.4.8-.5 2-.5 3.7s.2 3 .5 3.8c.4.8.9 1.2 1.7 1.2s1.3-.3 1.7-1.1zm16.1 2.1c0 .9-.5 1.3-1.5 1.3h-6.9c-1 0-1.5-.4-1.5-1.3 0-.8.5-1.3 1.5-1.3h1.9v-8.3L51 38.9c-.2.1-.4.2-.6.2-.3 0-.6-.1-.9-.4-.2-.3-.4-.6-.4-1 0-.5.2-.8.6-1.1l3.2-1.9c.5-.3.9-.4 1.4-.4.4 0 .8.1 1.1.4s.4.7.4 1.1v10.3h1.9c1.1 0 1.6.5 1.6 1.3z" fill="#0070d0"/></svg>