<?xml version="1.0" encoding="utf-8"?>
<!-- Generator: Adobe Illustrator 24.3.0, SVG Export Plug-In . SVG Version: 6.00 Build 0)  -->
<svg version="1.1" id="Layer_1" xmlns="http://www.w3.org/2000/svg" xmlns:xlink="http://www.w3.org/1999/xlink" x="0px" y="0px"
	 viewBox="0 0 80 80" style="enable-background:new 0 0 80 80;" xml:space="preserve">
<style type="text/css">
	.st0{fill:none;stroke:#0072CC;stroke-width:2.5;stroke-linecap:round;stroke-linejoin:round;stroke-miterlimit:10;}
	.st1{fill:none;stroke:#0071CE;stroke-width:2.5;stroke-linecap:round;stroke-linejoin:round;stroke-miterlimit:10;}
	.st2{fill:#0070D0;}
</style>
<g>
	<g>
		<path class="st0" d="M78.2,32.5v32.1c0,1.8-1.5,3.3-3.3,3.3H5.1c-1.8,0-3.3-1.5-3.3-3.3V32.5c0-1.8,1.5-3.3,3.3-3.3h69.8
			C76.7,29.2,78.2,30.7,78.2,32.5z"/>
		<path class="st0" d="M6,26c1.3-1.3,3.1-2.2,5.1-2.2h57.7c2,0,3.8,0.8,5.1,2.1"/>
		<path class="st0" d="M8.2,20.1c1.3-1.3,3.1-2.2,5.1-2.2h53.3c2,0,3.8,0.8,5.1,2.1"/>
		<path class="st0" d="M10.5,14.1c1.2-1.2,2.9-2,4.8-2h49.4c1.8,0,3.5,0.7,4.7,2"/>
		<path class="st1" d="M73.1,38.5c-2.3,0-4.2-1.9-4.2-4.2l-11.6,0H11.1v0c0,2.3-1.9,4.2-4.2,4.2h0v20.2h0c2.3,0,4.2,1.9,4.2,4.2
			h57.9c0-2.3,1.9-4.2,4.2-4.2l0,0V38.5L73.1,38.5z"/>
	</g>
	<g>
		<path class="st2" d="M43.2,54c-0.7,0.7-1.6,1.1-2.7,1.3v1c0,0.3-0.1,0.6-0.3,0.8s-0.5,0.3-0.8,0.3c-0.3,0-0.6-0.1-0.8-0.3
			c-0.2-0.2-0.3-0.5-0.3-0.8v-1c-0.7-0.1-1.3-0.2-1.9-0.4c-0.6-0.2-1.2-0.5-1.6-0.8c-0.2-0.1-0.3-0.3-0.4-0.4
			c-0.1-0.2-0.1-0.3-0.1-0.6c0-0.3,0.1-0.6,0.3-0.8s0.4-0.3,0.6-0.3c0.2,0,0.5,0.1,0.9,0.3c0.6,0.3,1.1,0.6,1.6,0.7
			c0.5,0.2,1,0.2,1.6,0.2c0.7,0,1.3-0.1,1.7-0.4c0.4-0.3,0.6-0.7,0.6-1.2c0-0.3-0.1-0.5-0.3-0.7s-0.5-0.3-0.8-0.5
			c-0.3-0.1-0.8-0.2-1.4-0.4c-0.9-0.2-1.6-0.5-2.2-0.7s-1.1-0.6-1.5-1.1c-0.4-0.5-0.6-1.2-0.6-2c0-1,0.3-1.8,1-2.5
			c0.7-0.7,1.6-1.1,2.7-1.3v-1c0-0.3,0.1-0.6,0.3-0.8c0.2-0.2,0.5-0.3,0.8-0.3c0.3,0,0.6,0.1,0.8,0.3c0.2,0.2,0.3,0.5,0.3,0.8v1
			c1.1,0.1,2.1,0.6,3.1,1.2c0.2,0.1,0.3,0.3,0.4,0.4c0.1,0.2,0.1,0.3,0.1,0.6c0,0.3-0.1,0.6-0.3,0.8s-0.4,0.3-0.6,0.3
			c-0.1,0-0.3,0-0.4-0.1c-0.1,0-0.3-0.1-0.5-0.2c-0.5-0.3-0.9-0.5-1.3-0.7c-0.4-0.2-0.9-0.2-1.4-0.2c-0.7,0-1.2,0.1-1.6,0.4
			c-0.4,0.3-0.6,0.7-0.6,1.2c0,0.3,0.1,0.6,0.3,0.8c0.2,0.2,0.5,0.4,0.9,0.5c0.4,0.1,0.8,0.3,1.5,0.4c0.9,0.2,1.6,0.4,2.2,0.7
			c0.6,0.2,1,0.6,1.5,1.1c0.4,0.5,0.6,1.1,0.6,2C44.2,52.5,43.9,53.3,43.2,54z"/>
	</g>
</g>
</svg>
