<?xml version="1.0" encoding="utf-8"?>
<!-- Generator: Adobe Illustrator 25.0.0, SVG Export Plug-In . SVG Version: 6.00 Build 0)  -->
<svg version="1.1" id="Layer_1" xmlns:v="https://vecta.io/nano"
	 xmlns="http://www.w3.org/2000/svg" xmlns:xlink="http://www.w3.org/1999/xlink" x="0px" y="0px" viewBox="0 0 80 80"
	 style="enable-background:new 0 0 80 80;" xml:space="preserve">
<style type="text/css">
	.st0{enable-background:new    ;}
	.st1{fill:none;stroke:#0070D0;stroke-width:2.5;stroke-linejoin:round;}
	.st2{fill:none;stroke:#0070D0;stroke-width:2.5;stroke-linecap:round;stroke-miterlimit:10;}
	.st3{fill:none;stroke:#0070D0;stroke-width:2.5;stroke-linecap:round;stroke-linejoin:round;stroke-miterlimit:10;}
</style>
<g class="st0">
	<g>
		<circle class="st1" cx="45.2" cy="31.2" r="14.7"/>
		<g>
			<path class="st2" d="M47.2,5.5h5.5"/>
			<path class="st2" d="M50,7.8V2.7 M63.8,20.8h8.7"/>
			<path class="st2" d="M68.1,25.1v-8.6"/>
		</g>
	</g>
	<g>
		<g>
			<path id="A" class="st3" d="M40.2,32.3l2.7,2.5c0.3,0.3,0.8,0.3,1.1,0l6.2-5.7"/>
		</g>
	</g>
</g>
<path class="st2" d="M1.5,63.7c0,0,11.6-11.4,14-12.3c2-0.7,3.9-1.2,6.6-0.9c3.3,0.4,4.2,1.1,10,1.3L33,52h14c2.9,0,5.3,1.6,5.3,4.5
	l0,0c0,2.9-2.4,4.5-5.3,4.5H33 M10.7,78c0,0,5.4-5.7,8.3-5.5s27.2,0,27.2,0c1.2,0.7,13.9-7.3,13.9-7.3l15.6-9.1
	c2.6-1.4,3.5-4.6,2.2-7.1l0,0c-1.4-2.6-4.6-3.5-7.1-2.2l-14.5,7.8"/>
</svg>
