<svg xmlns="http://www.w3.org/2000/svg" viewBox="0 0 80 80" fill="none" stroke="#6cace4" stroke-width="2.5" stroke-miterlimit="10" xmlns:v="https://vecta.io/nano"><path d="M22.4 77.9C10.6 77.9 2 69.2 2 58.5V20.2c0-3.2 2.6-5.8 5.8-5.8s5.8 2.6 5.8 5.8v38.3c0 4.3 3.6 7.8 8.8 7.8 4.2 0 7.6-3.3 7.8-7.5C30.1 55 26.9 52 23 52c-3.2 0-5.8-2.6-5.8-5.8s2.6-5.8 5.8-5.8c10.1 0 18.4 8.1 18.7 18.1h0v.6c-.2 10.4-8.8 18.8-19.3 18.8zm19.4-18.8h0zm12.8-1.8c-3.2 0-5.8-2.6-5.8-5.8 0-11.1-9.5-20.1-21.3-20.1-3.2 0-5.8-2.6-5.8-5.8s2.6-5.8 5.8-5.8c18.1 0 32.8 14.2 32.8 31.7 0 3.2-2.6 5.8-5.7 5.8zm17.6 0c-3.2 0-5.8-2.6-5.8-5.8 0-20.9-17.8-37.9-39.7-37.9-3.2 0-5.8-2.6-5.8-5.8S23.5 2 26.7 2C55 2.1 78 24.3 78 51.5c0 3.2-2.6 5.8-5.8 5.8z"/></svg>