<svg xmlns="http://www.w3.org/2000/svg" viewBox="0 0 80 80" xmlns:v="https://vecta.io/nano"><circle cx="40" cy="40" r="38.2" fill="#0071ce"/><path d="M51.4 41.7c1.3 1.7 2 3.9 2 6.5 0 3.6-1.3 6.4-3.9 8.5s-6.2 3.2-10.6 3.2c-2.5 0-5-.4-7.3-1.2s-4.3-1.9-6-3.3c-.9-.8-1.4-1.7-1.4-2.8 0-.9.2-1.6.7-2.2s1.1-.9 1.7-.9c.4 0 .7.1 1.1.2.3.1.7.4 1.3.7 1.6 1.1 3.2 1.9 4.7 2.5s3.1.9 4.9.9c2.6 0 4.5-.5 5.8-1.6 1.3-1 1.9-2.6 1.9-4.7s-.7-3.6-2-4.6-3.3-1.5-6.1-1.5h-3.3c-.9 0-1.6-.3-2.1-.9s-.7-1.3-.7-2.1.2-1.5.7-2.1 1.2-.9 2.1-.9h2.3c5.4 0 8-2 8-6 0-1.9-.6-3.3-1.7-4.3s-2.7-1.5-4.7-1.5c-2.9 0-5.9 1.1-9.2 3.4l-1.3.7c-.3.1-.7.2-1.1.2-.7 0-1.2-.3-1.7-.9s-.7-1.3-.7-2.2c0-.6.1-1.1.3-1.5s.6-.8 1-1.3c1.6-1.4 3.6-2.5 5.9-3.3s4.6-1.2 7-1.2c4.1 0 7.3 1 9.7 3s3.6 4.7 3.6 8c0 2.3-.6 4.3-1.8 6s-2.8 2.9-4.8 3.7c2.5.6 4.4 1.8 5.7 3.5z" fill="#fff" enable-background="new"/></svg>