<svg xmlns="http://www.w3.org/2000/svg" viewBox="0 0 80 80" xmlns:v="https://vecta.io/nano"><circle cx="40" cy="40" r="38.2" fill="#0071ce"/><path d="M54.5 56.3c0 2.1-1.2 3.1-3.5 3.1H28.7c-1 0-1.8-.3-2.4-.9s-.9-1.4-.9-2.3c0-1.2.4-2.2 1.4-3.2l13.4-14.4c1.6-1.8 2.8-3.5 3.6-5s1.1-3 1.1-4.5c0-1.8-.5-3.2-1.6-4.2s-2.6-1.5-4.5-1.5c-1.6 0-3.2.3-4.7.9s-3 1.4-4.6 2.5c-.4.3-.8.5-1.2.7s-.8.3-1.2.3c-.7 0-1.2-.3-1.7-.9s-.7-1.4-.7-2.2c0-.6.1-1.1.3-1.5s.6-.8 1-1.2c1.7-1.4 3.7-2.5 6-3.3s4.6-1.2 6.9-1.2c4 0 7.3 1 9.7 3.1 2.4 2 3.6 4.8 3.6 8.2 0 2.4-.5 4.6-1.5 6.7s-2.7 4.4-5.2 7l-10 10.8H51c2.4 0 3.5 1 3.5 3z" fill="#fff" enable-background="new"/></svg>