<?xml version="1.0" encoding="utf-8"?>
<!-- Generator: Adobe Illustrator 24.3.0, SVG Export Plug-In . SVG Version: 6.00 Build 0)  -->
<svg version="1.1" id="Layer_1" xmlns="http://www.w3.org/2000/svg" xmlns:xlink="http://www.w3.org/1999/xlink" x="0px" y="0px"
	 viewBox="0 0 80 80" style="enable-background:new 0 0 80 80;" xml:space="preserve">
<style type="text/css">
	.st0{fill:#2B71B9;}
	.st1{fill:none;stroke:#2B71B9;stroke-width:2.5;stroke-linecap:round;stroke-linejoin:round;stroke-miterlimit:10;}
</style>
<g>
	<g>
		<g>
			<path class="st0" d="M44.6,45.8c-0.8,0.8-1.9,1.4-3.3,1.6v1.3c0,0.4-0.1,0.7-0.4,1c-0.2,0.2-0.6,0.4-1,0.4c-0.4,0-0.7-0.1-1-0.4
				c-0.3-0.2-0.4-0.6-0.4-1v-1.2c-0.8-0.1-1.6-0.2-2.4-0.5c-0.8-0.3-1.4-0.6-2-1c-0.2-0.1-0.4-0.3-0.5-0.5c-0.1-0.2-0.1-0.4-0.1-0.7
				c0-0.4,0.1-0.7,0.3-1c0.2-0.3,0.5-0.4,0.8-0.4c0.3,0,0.6,0.1,1.1,0.4c0.7,0.4,1.3,0.7,2,0.9c0.6,0.2,1.3,0.3,1.9,0.3
				c0.9,0,1.6-0.2,2.1-0.5c0.5-0.3,0.7-0.8,0.7-1.4c0-0.4-0.1-0.7-0.4-0.9c-0.3-0.2-0.6-0.4-1-0.6c-0.4-0.1-1-0.3-1.7-0.5
				c-1.1-0.3-2-0.6-2.7-0.8c-0.7-0.3-1.3-0.7-1.8-1.3c-0.5-0.6-0.8-1.4-0.8-2.5c0-1.2,0.4-2.2,1.3-3.1c0.9-0.9,2-1.4,3.4-1.7v-1.3
				c0-0.4,0.1-0.7,0.4-1c0.3-0.2,0.6-0.4,1-0.4c0.4,0,0.7,0.1,1,0.4c0.2,0.2,0.4,0.6,0.4,1v1.2c1.3,0.2,2.6,0.7,3.8,1.5
				c0.2,0.1,0.4,0.3,0.5,0.5c0.1,0.2,0.1,0.4,0.1,0.7c0,0.4-0.1,0.7-0.3,1c-0.2,0.3-0.5,0.4-0.8,0.4c-0.2,0-0.3,0-0.5-0.1
				c-0.1,0-0.3-0.1-0.6-0.3c-0.6-0.4-1.2-0.7-1.6-0.9c-0.5-0.2-1.1-0.3-1.8-0.3c-0.8,0-1.5,0.2-1.9,0.5c-0.5,0.4-0.7,0.8-0.7,1.4
				c0,0.4,0.1,0.8,0.4,1c0.3,0.3,0.6,0.5,1.1,0.6c0.4,0.1,1,0.3,1.8,0.5c1.1,0.3,2,0.5,2.7,0.8c0.7,0.3,1.3,0.7,1.8,1.3
				c0.5,0.6,0.7,1.4,0.7,2.4C45.8,44,45.4,45,44.6,45.8z"/>
		</g>
	</g>
	<g>
		<polyline class="st1" points="35.5,5.5 40,1.5 40,16.5 		"/>
		<polyline class="st1" points="44.5,5.5 40,1.5 40,16.5 		"/>
	</g>
	<g>
		<polyline class="st1" points="44.5,74.5 40,78.5 40,63.5 		"/>
		<polyline class="st1" points="35.5,74.5 40,78.5 40,63.5 		"/>
	</g>
	<g>
		<polyline class="st1" points="5.5,44.5 1.5,40 16.5,40 		"/>
		<polyline class="st1" points="5.5,35.5 1.5,40 16.5,40 		"/>
	</g>
	<g>
		<polyline class="st1" points="74.5,35.5 78.5,40 63.5,40 		"/>
		<polyline class="st1" points="74.5,44.5 78.5,40 63.5,40 		"/>
	</g>
	<g>
		<polyline class="st1" points="18.8,67.6 12.8,67.2 23.4,56.6 		"/>
		<polyline class="st1" points="12.4,61.2 12.8,67.2 23.4,56.6 		"/>
	</g>
	<g>
		<polyline class="st1" points="61.2,12.4 67.2,12.8 56.6,23.4 		"/>
		<polyline class="st1" points="67.6,18.8 67.2,12.8 56.6,23.4 		"/>
	</g>
	<g>
		<polyline class="st1" points="67.6,61.2 67.2,67.2 56.6,56.6 		"/>
		<polyline class="st1" points="61.2,67.6 67.2,67.2 56.6,56.6 		"/>
	</g>
	<g>
		<polyline class="st1" points="12.4,18.8 12.8,12.8 23.4,23.4 		"/>
		<polyline class="st1" points="18.8,12.4 12.8,12.8 23.4,23.4 		"/>
	</g>
</g>
</svg>
