<?xml version="1.0" encoding="utf-8"?>
<!-- Generator: Adobe Illustrator 24.3.0, SVG Export Plug-In . SVG Version: 6.00 Build 0)  -->
<svg version="1.1" id="Layer_1" xmlns:v="https://vecta.io/nano"
	 xmlns="http://www.w3.org/2000/svg" xmlns:xlink="http://www.w3.org/1999/xlink" x="0px" y="0px" viewBox="0 0 80 80"
	 style="enable-background:new 0 0 80 80;" xml:space="preserve">
<style type="text/css">
	.st0{fill:none;stroke:#0072CE;stroke-width:2.5;stroke-linecap:round;stroke-linejoin:round;stroke-miterlimit:10;}
	.st1{fill:none;stroke:#0072CE;stroke-width:2.5;stroke-linejoin:round;stroke-miterlimit:10;}
	.st2{fill:none;stroke:#0072CE;stroke-width:2.5;stroke-linejoin:round;}
</style>
<g>
	<path class="st0" d="M51.5,46.7H62c1.2,0,2.4,0.6,3.2,1.6l12.8,17c1.4,1.9,0.1,4.6-2.3,4.6H4.4c-2.4,0-3.7-2.7-2.3-4.6l13-17
		c0.7-1,1.9-1.5,3.1-1.5H28"/>
	<path class="st1" d="M56.5,26.7c0-9.1-7.4-16.5-16.5-16.5c-9.1,0-16.5,7.4-16.5,16.5c0,2.8,0.7,5.5,2,7.8l0,0
		c0.2,0.3,0.3,0.6,0.5,0.9L40.2,60l14.6-25.4C55.8,32.1,56.5,29.5,56.5,26.7z"/>
</g>
<circle class="st2" cx="40" cy="26.2" r="9.1"/>
</svg>
