<svg xmlns="http://www.w3.org/2000/svg" viewBox="0 0 80 80" fill="none" stroke="#6cace4" stroke-width="2.5" stroke-linejoin="round" xmlns:v="https://vecta.io/nano"><g stroke-miterlimit="10"><path d="M51.5 46.7H62c1.2 0 2.4.6 3.2 1.6l12.8 17c1.4 1.9.1 4.6-2.3 4.6H4.4c-2.4 0-3.7-2.7-2.3-4.6l13-17c.7-1 1.9-1.5 3.1-1.5H28" stroke-linecap="round"/><path d="M56.5 26.7A16.52 16.52 0 0 0 40 10.2a16.52 16.52 0 0 0-16.5 16.5c0 2.8.7 5.5 2 7.8h0c.2.3.3.6.5.9L40.2 60l14.6-25.4c1-2.5 1.7-5.1 1.7-7.9z"/></g><circle cx="40" cy="26.2" r="9.1"/></svg>