<?xml version="1.0" encoding="utf-8"?>
<!-- Generator: Adobe Illustrator 24.3.0, SVG Export Plug-In . SVG Version: 6.00 Build 0)  -->
<svg version="1.1" id="Layer_1" xmlns="http://www.w3.org/2000/svg" xmlns:xlink="http://www.w3.org/1999/xlink" x="0px" y="0px"
	 viewBox="0 0 80 80" style="enable-background:new 0 0 80 80;" xml:space="preserve">
<style type="text/css">
	.st0{fill:none;stroke:#2B71B8;stroke-width:2.5;stroke-linecap:round;stroke-linejoin:round;stroke-miterlimit:10;}
	.st1{fill:none;stroke:#2B71B8;stroke-width:2.5;stroke-linecap:round;stroke-miterlimit:10;}
	.st2{fill-rule:evenodd;clip-rule:evenodd;fill:#2B71B8;}
	.st3{fill:#2B71B8;}
</style>
<g>
	<polyline class="st0" points="12.2,4 12.2,12 3.3,12 	"/>
	<path class="st1" d="M59.6,67.8v7.8c0,0.9-0.8,1.7-1.7,1.7H3.2c-0.9,0-1.7-0.8-1.7-1.7V11.4c0-0.5,0.2-0.9,0.6-1.3l7.8-7.1
		c0.3-0.3,0.7-0.4,1.1-0.4h46.9c0.9,0,1.7,0.8,1.7,1.7v10"/>
	<line class="st1" x1="13" y1="46.4" x2="29.1" y2="46.4"/>
	<line class="st1" x1="13" y1="56.7" x2="29.1" y2="56.7"/>
	<line class="st1" x1="13" y1="67" x2="29.1" y2="67"/>
	<g>
		<g>
			<path class="st0" d="M78.5,35.5c0,1.5-1.2,2.7-2.7,2.7H64.2c-1.5,0-2.7-1.2-2.7-2.7V23.8c0-1.5,1.2-2.7,2.7-2.7h11.7
				c1.5,0,2.7,1.2,2.7,2.7L78.5,35.5L78.5,35.5z"/>
			<path class="st0" d="M56,35.4c0,1.5-1.2,2.7-2.7,2.7H41.7c-1.5,0-2.7-1.2-2.7-2.7V23.8c0-1.5,1.2-2.7,2.7-2.7h11.7
				c1.5,0,2.7,1.2,2.7,2.7V35.4z"/>
			<path class="st0" d="M78.5,57.9c0,1.5-1.2,2.7-2.7,2.7H64.2c-1.5,0-2.7-1.2-2.7-2.7V46.3c0-1.5,1.2-2.7,2.7-2.7h11.7
				c1.5,0,2.7,1.2,2.7,2.7L78.5,57.9L78.5,57.9z"/>
			<path class="st0" d="M56,57.9c0,1.5-1.2,2.7-2.7,2.7H41.7c-1.5,0-2.7-1.2-2.7-2.7V46.3c0-1.5,1.2-2.7,2.7-2.7h11.7
				c1.5,0,2.7,1.2,2.7,2.7V57.9z"/>
			<line class="st0" x1="67.9" y1="29.6" x2="72.2" y2="29.6"/>
			<line class="st0" x1="47.5" y1="27.4" x2="47.5" y2="31.8"/>
			<line class="st0" x1="45" y1="29.6" x2="50" y2="29.6"/>
			<line class="st0" x1="68.2" y1="53.9" x2="71.8" y2="50.3"/>
			<line class="st0" x1="71.8" y1="53.9" x2="68.2" y2="50.3"/>
			<line class="st0" x1="45" y1="54.6" x2="50" y2="49.6"/>
		</g>
		<path class="st2" d="M43.5,49.4c0-0.7,0.6-1.3,1.3-1.3c0.7,0,1.3,0.6,1.3,1.3c0,0.7-0.6,1.3-1.3,1.3
			C44.1,50.6,43.5,50.1,43.5,49.4"/>
		<path class="st2" d="M49.2,54.8c0-0.7,0.6-1.3,1.3-1.3c0.7,0,1.3,0.6,1.3,1.3c0,0.7-0.6,1.3-1.3,1.3C49.8,56,49.2,55.5,49.2,54.8"
			/>
	</g>
	<g>
		<g>
			<path class="st3" d="M23.2,33c-0.8,0.8-1.9,1.3-3.3,1.6v1.3c0,0.4-0.1,0.7-0.4,1c-0.2,0.2-0.6,0.4-1,0.4c-0.4,0-0.7-0.1-0.9-0.4
				c-0.2-0.2-0.4-0.6-0.4-1v-1.2c-0.8-0.1-1.6-0.2-2.3-0.5c-0.8-0.3-1.4-0.6-2-1c-0.2-0.1-0.4-0.3-0.5-0.5c-0.1-0.2-0.1-0.4-0.1-0.7
				c0-0.4,0.1-0.7,0.3-1c0.2-0.3,0.5-0.4,0.8-0.4c0.3,0,0.6,0.1,1,0.4c0.7,0.4,1.3,0.7,1.9,0.9c0.6,0.2,1.2,0.3,1.9,0.3
				c0.9,0,1.6-0.2,2-0.5c0.5-0.3,0.7-0.8,0.7-1.4c0-0.4-0.1-0.7-0.4-0.9c-0.3-0.2-0.6-0.4-1-0.5c-0.4-0.1-1-0.3-1.7-0.5
				c-1.1-0.3-2-0.6-2.7-0.8c-0.7-0.3-1.3-0.7-1.8-1.3c-0.5-0.6-0.8-1.4-0.8-2.4c0-1.2,0.4-2.2,1.3-3.1c0.8-0.8,1.9-1.4,3.3-1.6v-1.3
				c0-0.4,0.1-0.7,0.4-1c0.2-0.2,0.6-0.4,0.9-0.4c0.4,0,0.7,0.1,1,0.4c0.2,0.2,0.4,0.6,0.4,1v1.2c1.3,0.2,2.6,0.7,3.7,1.5
				c0.2,0.1,0.4,0.3,0.5,0.5c0.1,0.2,0.1,0.4,0.1,0.7c0,0.4-0.1,0.7-0.3,1S23.3,23,23,23c-0.2,0-0.3,0-0.5-0.1
				c-0.1,0-0.3-0.1-0.6-0.3c-0.6-0.4-1.1-0.7-1.6-0.9c-0.5-0.2-1.1-0.3-1.7-0.3c-0.8,0-1.4,0.2-1.9,0.5c-0.5,0.4-0.7,0.8-0.7,1.4
				c0,0.4,0.1,0.7,0.4,1c0.3,0.3,0.6,0.5,1.1,0.6c0.4,0.1,1,0.3,1.8,0.5c1.1,0.3,1.9,0.5,2.6,0.8c0.7,0.3,1.3,0.7,1.8,1.3
				s0.7,1.4,0.7,2.4C24.4,31.2,24,32.2,23.2,33z"/>
		</g>
	</g>
</g>
</svg>
