<svg xmlns="http://www.w3.org/2000/svg" viewBox="0 0 80 80"  xmlns:v="https://vecta.io/nano"><style><![CDATA[.D{stroke-linecap:round}.E{stroke-miterlimit:10}]]></style><g fill="none" stroke="#0070d0" stroke-width="2.5"><path d="M3.2 65V8.8" class="D E"/><ellipse cx="28.6" cy="8.8" rx="25.4" ry="6.4"/><path d="M54 8.8v24.7M31.6 51.3l-3 .1c-14 0-25.4-1.9-25.4-4.2M54 27.1c0 2.3-11.4 4.2-25.4 4.2S3.2 29.4 3.2 27.1m35.1 43.6a72.1 72.1 0 0 1-9.7.6c-14 0-25.4-2.9-25.4-6.4" class="D E"/><circle cx="55.2" cy="56" r="22.6"/></g><path d="M61.2 62.3c-.8.8-1.9 1.3-3.3 1.6v1.3c0 .4-.1.7-.4 1a1.53 1.53 0 0 1-1 .4c-.4 0-.7-.1-.9-.4a1.53 1.53 0 0 1-.4-1V64c-.8-.1-1.6-.2-2.3-.5-.8-.3-1.4-.6-2-1-.2-.1-.4-.3-.5-.5s-.1-.4-.1-.7a1.69 1.69 0 0 1 .3-1c.2-.3.5-.4.8-.4s.6.1 1 .4c.7.4 1.3.7 1.9.9s1.2.3 1.9.3c.9 0 1.6-.2 2-.5.5-.3.7-.8.7-1.4 0-.4-.1-.7-.4-.9s-.6-.4-1-.5l-1.7-.5-2.7-.8c-.7-.3-1.3-.7-1.8-1.3s-.8-1.4-.8-2.4c0-1.2.4-2.2 1.3-3.1.8-.9 1.9-1.4 3.3-1.6v-1.3c0-.4.1-.7.4-1 .2-.2.6-.4.9-.4.4 0 .7.1 1 .4a1.53 1.53 0 0 1 .4 1v1.2c1.3.2 2.6.7 3.7 1.5.2.1.4.3.5.5s.1.4.1.7a1.69 1.69 0 0 1-.3 1c-.2.3-.5.4-.8.4-.2 0-.3 0-.5-.1-.1 0-.3-.1-.6-.3-.6-.4-1.1-.7-1.6-.9s-1.1-.3-1.7-.3c-.8 0-1.4.2-1.9.5-.5.4-.7.8-.7 1.4 0 .4.1.7.4 1s.6.5 1.1.6l1.8.5 2.6.8c.7.3 1.3.7 1.8 1.3s.7 1.4.7 2.4c0 1.1-.4 2.1-1.2 2.9z" fill="#0070d0"/><g fill="none" stroke="#0070d0" stroke-width="2.5" stroke-linejoin="round" class="D E"><path d="M60.3 15.4l8-11.5v32.9"/><path d="M76.4 15.4L68.3 3.9v32.9"/></g></svg>