<svg xmlns="http://www.w3.org/2000/svg" viewBox="0 0 80 80" fill="none" stroke="#0070d0" stroke-width="2.5" stroke-linejoin="round" stroke-miterlimit="10" xmlns:v="https://vecta.io/nano"><path d="M44.1 53.7H36c-.5 0-1-.4-1-1V37.1c0-.5.4-1 1-1h8.2c.5 0 1 .4 1 1v15.6c-.1.6-.5 1-1.1 1z"/><g stroke-linecap="round"><path d="M78 40.5V64a8.75 8.75 0 0 1-8.8 8.8H10.8c-4.9 0-8.8-4-8.8-8.8V40.5m0-6.3V19.7a2.22 2.22 0 0 1 2.2-2.2h71.7a2.22 2.22 0 0 1 2.2 2.2v14.7"/><path d="M35 44.6c-11.7-.8-23.1-4.3-33-10.4m75.9.2c-10.5 6.1-21.7 9.4-32.8 10.2M26.2 17.5v-6a5.59 5.59 0 0 1 5.6-5.6H48a5.59 5.59 0 0 1 5.6 5.6v6"/></g></svg>