<?xml version="1.0" encoding="utf-8"?>
<!-- Generator: Adobe Illustrator 24.3.0, SVG Export Plug-In . SVG Version: 6.00 Build 0)  -->
<svg version="1.1" id="Layer_1" xmlns="http://www.w3.org/2000/svg" xmlns:xlink="http://www.w3.org/1999/xlink" x="0px" y="0px"
	 viewBox="0 0 80 80" style="enable-background:new 0 0 80 80;" xml:space="preserve">
<style type="text/css">
	.st0{fill:none;stroke:#0070D0;stroke-width:2.5;stroke-linecap:round;stroke-linejoin:round;stroke-miterlimit:10;}
	.st1{enable-background:new    ;}
</style>
<g>
	<polyline class="st0" points="10.5,12.7 10.5,2.5 57.8,2.5 74.2,19.9 74.3,63.6 	"/>
	<polyline class="st0" points="56.6,2.5 56.6,21.2 74.3,21.2 	"/>
	<polyline class="st0" points="10.5,60 10.5,77.3 50.4,77.3 	"/>
	<circle class="st0" cx="28.4" cy="35.9" r="22.7"/>
	<line class="st0" x1="45.6" y1="52" x2="54.3" y2="60.9"/>
	<path class="st0" d="M52,64.9l5.8-6.7l13.3,11.5c0,0,2.6,1.7-0.6,5.7c-3.2,4-5.8,1.1-5.8,1.1L52,64.9z"/>
	<g>
		<g>
			<defs>
				<path id="SVGID_1_" d="M29.3,29.9c0,0.6-0.5,1.1-1.1,1.1s-1.1-0.5-1.1-1.1c0-0.6,0.5-1.1,1.1-1.1S29.3,29.3,29.3,29.9"/>
			</defs>
			<use xlink:href="#SVGID_1_"  style="overflow:visible;fill-rule:evenodd;clip-rule:evenodd;fill:#0070D0;"/>
			<clipPath id="SVGID_2_">
				<use xlink:href="#SVGID_1_"  style="overflow:visible;"/>
			</clipPath>
		</g>
		<path class="st0" d="M16.3,45.1V34.2H13v-1c0-0.8,0.4-1.4,1-1.8L26.2,24c0.6-0.4,1.3-0.6,2-0.6c0.7,0,1.4,0.2,2,0.6l12.1,7.5
			c0.6,0.4,1,1.1,1,1.8v1h-3.2v13"/>
		<polyline class="st0" points="20.6,45.1 20.6,36.4 27.1,36.4 27.1,45.1 		"/>
		<g>
			<g class="st1">
				<g>
					<g>
						<rect x="30.4" y="36.4" class="st0" width="5.4" height="6.5"/>
						<polyline class="st0" points="35.8,26.7 35.8,23.4 40.1,23.4 40.1,29.9 						"/>
					</g>
				</g>
			</g>
		</g>
	</g>
</g>
</svg>
