<?xml version="1.0" encoding="utf-8"?>
<!-- Generator: Adobe Illustrator 24.2.3, SVG Export Plug-In . SVG Version: 6.00 Build 0)  -->
<svg version="1.1" id="Layer_1" xmlns:v="https://vecta.io/nano"
	 xmlns="http://www.w3.org/2000/svg" xmlns:xlink="http://www.w3.org/1999/xlink" x="0px" y="0px" viewBox="0 0 80 80"
	 style="enable-background:new 0 0 80 80;" xml:space="preserve">
<style type="text/css">
	.st0{fill:none;stroke:#0071CE;stroke-width:2.5;stroke-linecap:round;stroke-linejoin:round;stroke-miterlimit:10;}
	.st1{fill:none;stroke:#0071CE;stroke-width:2.5;stroke-linecap:round;stroke-miterlimit:10;}
	.st2{fill-rule:evenodd;clip-rule:evenodd;fill:#0071CE;}
	.st3{fill:#0071CE;}
</style>
<g>
	<g>
		<path class="st0" d="M12.2,3.7v8H3.3"/>
		<path class="st1" d="M59.6,67.5v7.8c0,0.9-0.8,1.7-1.7,1.7H3.2c-0.9,0-1.7-0.8-1.7-1.7V11.1c0-0.5,0.2-0.9,0.6-1.3l7.8-7
			c0.3-0.3,0.7-0.4,1.1-0.4h46.9c0.9,0,1.7,0.8,1.7,1.7v10"/>
		<path class="st1" d="M13,46.1h16.1 M13,56.4h16.1 M13,66.7h16.1"/>
	</g>
	<g>
		<path class="st0" d="M78.5,35.2c0,1.5-1.2,2.7-2.7,2.7H64.2c-1.5,0-2.7-1.2-2.7-2.7V23.5c0-1.5,1.2-2.7,2.7-2.7h11.7
			c1.5,0,2.7,1.2,2.7,2.7c0,0,0,0,0,0V35.2z M56,35.2c0,1.5-1.2,2.7-2.7,2.7H41.6c-1.5,0-2.7-1.2-2.7-2.7V23.5
			c0-1.5,1.2-2.7,2.7-2.7h11.7c1.5,0,2.7,1.2,2.7,2.7L56,35.2L56,35.2z M78.5,57.6c0,1.5-1.2,2.7-2.7,2.7l0,0H64.2
			c-1.5,0-2.7-1.2-2.7-2.7V46c0-1.5,1.2-2.7,2.7-2.7h11.7c1.5,0,2.7,1.2,2.7,2.7v0C78.5,46,78.5,57.6,78.5,57.6z M56,57.6
			c0,1.5-1.2,2.7-2.7,2.7H41.6c-1.5,0-2.7-1.2-2.7-2.7V46c0-1.5,1.2-2.7,2.7-2.7h11.7c1.5,0,2.7,1.2,2.7,2.7L56,57.6L56,57.6z"/>
		<g>
			<path class="st0" d="M67.9,29.3h4.3 M47.5,27.1v4.4"/>
			<path class="st0" d="M45,29.3h5 M68.2,53.6l3.5-3.5"/>
			<path class="st0" d="M71.8,53.6L68.2,50 M45,54.3l5-5"/>
		</g>
	</g>
</g>
<path class="st2" d="M43.5,49.1c0-0.7,0.6-1.3,1.3-1.3c0.7,0,1.3,0.6,1.3,1.3l0,0c0,0.7-0.6,1.3-1.3,1.3
	C44.1,50.3,43.5,49.8,43.5,49.1 M49.2,54.5c0-0.7,0.6-1.3,1.3-1.3c0.7,0,1.3,0.6,1.3,1.3s-0.6,1.3-1.3,1.3
	C49.8,55.7,49.2,55.2,49.2,54.5"/>
<path class="st3" d="M23.2,32.7c-0.8,0.8-1.9,1.3-3.3,1.6v1.2c0,0.4-0.1,0.7-0.4,1c-0.2,0.2-0.6,0.4-1,0.4c-0.4,0-0.7-0.1-1-0.4
	s-0.4-0.6-0.4-1v-1.2c-0.8-0.1-1.6-0.2-2.3-0.5c-0.8-0.3-1.4-0.6-2-1c-0.2-0.2-0.4-0.3-0.5-0.5c-0.1-0.2-0.1-0.4-0.1-0.7
	c0-0.4,0.1-0.7,0.3-1s0.5-0.4,0.8-0.4s0.6,0.1,1,0.4c0.7,0.4,1.3,0.7,1.9,0.9c0.6,0.2,1.3,0.3,1.9,0.3c0.9,0,1.5-0.2,2-0.5
	s0.7-0.8,0.7-1.4c0-0.3-0.1-0.7-0.4-0.9c-0.3-0.2-0.6-0.4-1-0.5l-1.7-0.5L15.1,27c-0.7-0.3-1.3-0.7-1.8-1.3s-0.8-1.4-0.8-2.4
	c0-1.2,0.4-2.2,1.3-3.1s1.9-1.4,3.3-1.6v-1.2c0-0.4,0.1-0.7,0.4-1c0.2-0.2,0.6-0.4,1-0.4s0.7,0.1,1,0.4c0.2,0.2,0.4,0.6,0.4,1v1.2
	c1.3,0.2,2.6,0.7,3.7,1.5c0.2,0.1,0.4,0.3,0.5,0.5c0.1,0.2,0.1,0.4,0.1,0.7c0,0.4-0.1,0.7-0.3,1s-0.5,0.4-0.8,0.4
	c-0.2,0-0.3,0-0.5-0.1c-0.1,0-0.3-0.1-0.6-0.3c-0.6-0.4-1.1-0.7-1.6-0.9c-0.5-0.2-1.1-0.3-1.8-0.3c-0.8,0-1.4,0.2-1.9,0.5
	C16.2,22,16,22.4,16,23c0,0.4,0.1,0.7,0.4,1s0.6,0.5,1.1,0.6c0.4,0.1,1,0.3,1.8,0.5c1.1,0.3,1.9,0.5,2.6,0.8
	c0.7,0.3,1.3,0.7,1.8,1.3s0.7,1.4,0.7,2.4C24.4,30.8,24,31.8,23.2,32.7L23.2,32.7z"/>
</svg>
