<?xml version="1.0" encoding="utf-8"?>
<!-- Generator: Adobe Illustrator 24.2.3, SVG Export Plug-In . SVG Version: 6.00 Build 0)  -->
<svg version="1.1" id="Layer_1" xmlns:v="https://vecta.io/nano"
	 xmlns="http://www.w3.org/2000/svg" xmlns:xlink="http://www.w3.org/1999/xlink" x="0px" y="0px" viewBox="0 0 80 80"
	 style="enable-background:new 0 0 80 80;" xml:space="preserve">
<style type="text/css">
	.st0{fill:none;stroke:#0071CE;stroke-width:2.699;stroke-linecap:round;stroke-linejoin:round;stroke-miterlimit:10;}
	.st1{fill:#0071CE;}
</style>
<g>
	<g>
		<path class="st0" d="M23.7,11.7L20.5,10c-0.4-0.2-0.9-0.1-1.1,0.3c0,0,0,0,0,0L9,30.1c-0.2,0.4-0.1,0.9,0.3,1.1c0,0,0,0,0,0
			l4.1,2.3 M34.9,6.2l-2.3-2.3c-0.3-0.3-0.8-0.3-1.1,0c0,0,0,0,0,0L15.7,19.8c-0.3,0.3-0.3,0.8,0,1.1c0,0,0,0,0,0l12.8,12.9"/>
		<path class="st0" d="M61,33.7L45.9,2c-0.2-0.4-0.7-0.6-1.1-0.4l-20.2,9.5c-0.4,0.2-0.6,0.7-0.4,1.1l10.1,21.5"/>
	</g>
	<path class="st0" d="M72.1,78.5H8.9c-2.4,0-4.4-2-4.4-4.4V38.3c0-2.4,2-4.4,4.4-4.4h63.2c2.4,0,4.4,2,4.4,4.4v35.8
		C76.6,76.5,74.6,78.5,72.1,78.5z"/>
</g>
<g>
	<path class="st1" d="M14,39.5c-0.1-0.1-0.4-0.1-0.6-0.1c-0.3,0-0.5,0.2-0.5,0.4v0.7h1.4L14,41.7h-1.1v4.2h-2.2v-4.2H10v-1.2h0.7
		c0-0.2,0-0.4,0-0.7c0-1.6,1.4-1.8,2.3-1.8c0.7,0,1.1,0.1,1.6,0.3L14,39.5 M21.4,45.9l-0.8-1.7c-0.3-0.6-0.5-0.7-0.9-0.7v2.4h-1.8
		v-6h2.5c2.1,0,2.8,0.7,2.8,1.7c0,1-0.7,1.6-1.5,1.7c0.2,0.1,0.5,0.3,0.7,0.7l1.1,2L21.4,45.9 M20.3,41.2h-0.5v1.2h0.5
		c0.6,0,0.9-0.2,0.9-0.7C21.2,41.3,20.9,41.2,20.3,41.2z M26.5,46c-1.1,0-2-0.2-2.7-0.5l0.7-1.2c0.5,0.2,1.3,0.5,2,0.5
		c0.7,0,1-0.2,1-0.5c0-0.3-0.2-0.4-0.7-0.5L26,43.6c-1-0.2-1.8-0.7-1.8-1.8c0-1.2,1.2-2,2.8-2c1,0,2,0.2,2.6,0.6l-0.9,1.1
		c-0.5-0.3-1.1-0.4-1.6-0.4c-0.5,0-0.7,0.2-0.7,0.4c0,0.2,0.2,0.4,0.7,0.5l0.7,0.2c0.8,0.2,1.9,0.5,1.9,1.7
		C29.6,45.3,28.4,46,26.5,46 M35.2,41.2h-1.7v4.8h-1.9v-4.8H30v-1.3h5.5L35.2,41.2"/>
	<path class="st1" d="M14.8,40.8v5.1h1.9v-6.3L14.8,40.8 M56.1,69.4H55c-0.7,0-1.2-0.5-1.2-1.2S54.3,67,55,67h1.1
		c0.7,0,1.2,0.5,1.2,1.2C57.3,68.9,56.7,69.4,56.1,69.4z M50.5,69.4h-1.1c-0.7,0-1.2-0.5-1.2-1.2s0.6-1.2,1.2-1.2h1.1
		c0.7,0,1.2,0.5,1.2,1.2C51.7,68.9,51.2,69.4,50.5,69.4z M44.9,69.4h-1.1c-0.7,0-1.2-0.5-1.2-1.2s0.6-1.2,1.2-1.2h1.1
		c0.7,0,1.2,0.5,1.2,1.2C46.2,68.9,45.6,69.4,44.9,69.4L44.9,69.4z M39.3,69.4h-1.1c-0.7,0-1.2-0.5-1.2-1.2s0.6-1.2,1.2-1.2h1.1
		c0.7,0,1.2,0.5,1.2,1.2C40.6,68.9,40,69.4,39.3,69.4z M33.8,69.4h-1.1c-0.7,0-1.2-0.5-1.2-1.2S32,67,32.7,67h1.1
		c0.7,0,1.2,0.5,1.2,1.2C35,68.9,34.5,69.4,33.8,69.4z M28.2,69.4h-1.1c-0.7,0-1.2-0.5-1.2-1.2s0.6-1.2,1.2-1.2h1.1
		c0.7,0,1.2,0.5,1.2,1.2C29.5,68.9,28.9,69.4,28.2,69.4z M22.6,69.4h-1.1c-0.7,0-1.2-0.5-1.2-1.2s0.6-1.2,1.2-1.2h1.1
		c0.7,0,1.2,0.5,1.2,1.2C23.9,68.9,23.3,69.4,22.6,69.4z M17.1,69.4H16c-0.7,0-1.2-0.5-1.2-1.2S15.3,67,16,67h1.1
		c0.7,0,1.2,0.5,1.2,1.2C18.3,68.9,17.8,69.4,17.1,69.4z M11.5,69.4h-1.1c-0.7,0-1.2-0.5-1.2-1.2S9.7,67,10.4,67h1.1
		c0.7,0,1.2,0.5,1.2,1.2C12.8,68.9,12.2,69.4,11.5,69.4z"/>
</g>
<path class="st0" d="M70,45.3v-6.2c0-0.4-0.3-0.7-0.7-0.7H58c-0.4,0-0.7,0.3-0.7,0.7v0v6.2L58,46l2.4,2.1l2.7,2.3
	c0.3,0.2,0.7,0.2,1,0l5.2-4.5l0.3-0.2L70,45.3L70,45.3z"/>
<path class="st1" d="M41.1,27.3c-0.6-0.1-1.2-0.5-1.7-1l-0.6,0.4c-0.2,0.1-0.4,0.2-0.6,0.1c-0.2,0-0.4-0.2-0.5-0.3
	c-0.1-0.2-0.1-0.4-0.1-0.5s0.2-0.3,0.4-0.5l0.6-0.4c-0.2-0.4-0.3-0.8-0.4-1.2c-0.1-0.4-0.1-0.8-0.1-1.2c0-0.1,0-0.3,0.1-0.4
	s0.2-0.2,0.3-0.3c0.2-0.1,0.4-0.1,0.6-0.1s0.3,0.1,0.4,0.2c0.1,0.1,0.1,0.3,0.1,0.6c0,0.4,0,0.8,0.1,1.1s0.2,0.7,0.4,1
	c0.2,0.4,0.5,0.7,0.8,0.8s0.6,0.1,0.9-0.1c0.2-0.1,0.3-0.3,0.3-0.5c0-0.2,0-0.4,0-0.6l-0.2-0.9c-0.2-0.6-0.3-1.1-0.3-1.5
	c-0.1-0.4,0-0.8,0.1-1.2c0.2-0.4,0.5-0.8,1-1.1c0.6-0.4,1.2-0.5,1.8-0.3s1.2,0.5,1.7,1l0.6-0.4c0.2-0.1,0.4-0.1,0.6-0.1
	s0.3,0.1,0.4,0.3s0.1,0.4,0.1,0.5s-0.2,0.3-0.4,0.5L47,21.6c0.3,0.7,0.4,1.4,0.3,2.2c0,0.1,0,0.3-0.1,0.4c-0.1,0.1-0.2,0.2-0.3,0.3
	c-0.2,0.1-0.4,0.1-0.6,0.1s-0.3-0.1-0.4-0.2c0-0.1-0.1-0.1-0.1-0.2c0-0.1,0-0.2,0-0.4c0-0.4,0-0.7,0-1s-0.2-0.6-0.4-0.9
	c-0.2-0.4-0.5-0.6-0.8-0.7c-0.3-0.1-0.6-0.1-0.9,0.1c-0.2,0.1-0.3,0.3-0.4,0.5c0,0.2,0,0.4,0,0.7s0.1,0.6,0.3,1
	c0.1,0.5,0.3,1,0.3,1.5c0.1,0.4,0,0.8-0.1,1.2s-0.5,0.8-1,1C42.3,27.3,41.7,27.4,41.1,27.3L41.1,27.3z"/>
</svg>
