<svg xmlns="http://www.w3.org/2000/svg" viewBox="0 0 80 80" fill="none" stroke="#0070d0" stroke-width="2.5" stroke-linejoin="round" stroke-miterlimit="10" xmlns:v="https://vecta.io/nano"><path d="M34.7 20a3.37 3.37 0 0 1-3.4 3.4H16.2a3.37 3.37 0 0 1-3.4-3.4V4.9a3.37 3.37 0 0 1 3.4-3.4h15.1a3.37 3.37 0 0 1 3.4 3.4V20z"/><path d="M19.7 14.5l2.8 2.3 7-8.7" stroke-linecap="round"/><path d="M34.7 47.5a3.37 3.37 0 0 1-3.4 3.4H16.2a3.37 3.37 0 0 1-3.4-3.4v-15a3.37 3.37 0 0 1 3.4-3.4h15.1a3.37 3.37 0 0 1 3.4 3.4v15z"/><path d="M19.7 42l2.8 2.3 7-8.6m5.2 32.7V75a3.37 3.37 0 0 1-3.4 3.4H16.2a3.37 3.37 0 0 1-3.4-3.4V60a3.37 3.37 0 0 1 3.4-3.4h17.1" stroke-linecap="round"/><path d="M33.1 68.4L29.3 66c-.5-.3-.6-.9-.3-1.4l28.1-43.4c.3-.5.9-.6 1.4-.3l3.8 2.5c.5.3.6.9.3 1.4L34.4 68.1c-.3.5-.9.6-1.3.3zm25.53-47.576l2-3.107 3.694 2.4-2 3.107z"/><path d="M62.8 27.7l1.4.9c.3.2.3.5.2.8L54.8 44" stroke-linecap="round"/><path d="M28.9 70.8h0a2 2 0 0 1-.6-2.9l1.1-1.6 3.5 2.3-1.1 1.6c-.7.9-2 1.2-2.9.6z"/><path d="M27.9 72.3l.8-1.2" stroke-linecap="round"/></svg>