<svg xmlns="http://www.w3.org/2000/svg" viewBox="0 0 80 80" xmlns:v="https://vecta.io/nano"><style><![CDATA[.B{stroke-linejoin:round}.C{stroke-miterlimit:10}.D{stroke-linecap:round}]]></style><g fill="none" stroke="#0071ce" stroke-width="2.5" class="B C"><g class="D"><path d="M65.9 36.8h8.5c2.2 0 4.1 1.8 4.1 4.1V73c0 2.2-1.8 4.1-4.1 4.1H5.6c-2.2 0-4.1-1.8-4.1-4.1V40.9c0-2.2 1.8-4.1 4.1-4.1h41.7"/><path d="M13.5 48.4h15.2M13.6 61.2h52.8m-52.8 7h52.8"/></g><path d="M51.1 52.5l-3.8-1.9c-.4-.2-.6-.8-.4-1.2L69 6.4c.2-.4.8-.6 1.2-.4L74 7.9c.4.2.6.8.4 1.2l-22.1 43c-.2.5-.8.7-1.2.4z"/><path d="M70.487 5.94L72.09 2.83l3.645 1.877-1.603 3.11z"/><path d="M75 11.9l1.3.7c.3.1.4.5.2.7L69 27.8" class="D"/><path d="M47.4 55.1h0c-1-.5-1.3-1.7-.8-2.6l.8-1.6 3.5 1.8-.9 1.6c-.5.9-1.6 1.3-2.6.8z"/><path d="M46.6 56.6l.7-1.2" class="D"/></g></svg>