<svg xmlns="http://www.w3.org/2000/svg" xmlns:xlink="http://www.w3.org/1999/xlink" viewBox="0 0 80 80" xmlns:v="https://vecta.io/nano"><style><![CDATA[.B{stroke-linecap:round}.C{stroke-miterlimit:10}]]></style><g fill="none" stroke="#0071ce" stroke-width="2.5"><g class="C"><path d="M53.8 78.5H26.2c-7.06 0-12.84-5.78-12.84-12.84V25.2c0-7.06 5.78-12.84 12.84-12.84h27.6c7.06 0 12.84 5.78 12.84 12.84v40.46c0 7.06-5.77 12.84-12.83 12.84z"/><path d="M18.74 33.63v-4.97c0-8.7 1.83-11.05 9.1-10.92m-9.1 23.3V37.7" class="B"/><path d="M56.08 1.5H24.14a.77.77 0 0 0-.77.77v9.32a.77.77 0 0 0 .77.77H56.1a.77.77 0 0 0 .77-.77V2.27a.78.78 0 0 0-.78-.77z"/><path d="M23.36 7.16h21.07m4.13 0h7.98M42.24 49.9V70" class="B"/></g><ellipse cx="52.14" cy="49.9" rx="9.89" ry="5.07"/><g class="B C"><use xlink:href="#B"/><use xlink:href="#C"/><use xlink:href="#B" y="4.3"/><use xlink:href="#C" y="4.3"/><use xlink:href="#B" y="8.52"/><use xlink:href="#C" y="8.5"/><use xlink:href="#B" y="12.56"/><use xlink:href="#C" y="12.55"/><path d="M62.03 49.9v18.27"/></g><ellipse cx="27.86" cy="53.6" rx="9.89" ry="5.07"/><g class="B C"><use xlink:href="#B" x="-24.27" y="3.7"/><use xlink:href="#C" x="-24.27" y="3.7"/><use xlink:href="#B" x="-24.27" y="8"/><use xlink:href="#C" x="-24.27" y="8"/><use xlink:href="#B" x="-24.14" y="12.34"/><use xlink:href="#C" x="-24.16" y="12.3"/><path d="M17.97 53.6v16.05m19.8-16.05v14.6"/></g></g><defs ><path id="B" d="M48.32 59.8c-2.7-.55-4.84-1.38-6.08-2.37"/><path id="C" d="M61.83 56c-.92 2.3-4.9 4.05-9.7 4.05"/></defs></svg>