<svg xmlns="http://www.w3.org/2000/svg" viewBox="0 0 80 80" xmlns:v="https://vecta.io/nano"><style><![CDATA[.D{stroke-linejoin:round}.E{stroke-miterlimit:10}.F{stroke:#0070d0}.G{stroke-linecap:round}]]></style><path d="M41.8 72.1c-.3.3-.7.5-1.2.6v.3c0 .2-.1.3-.2.4s-.2.1-.4.1-.3 0-.4-.1-.2-.2-.2-.4v-.4c-.6-.1-1.1-.2-1.5-.5-.1-.1-.2-.1-.2-.2s-.1-.2-.1-.3c0-.2 0-.3.1-.4s.2-.2.3-.2h.2c.1 0 .1.1.2.1l.6.3c.2.1.4.1.6.1.3 0 .5 0 .6-.1s.2-.2.2-.4c0-.1 0-.2-.1-.3s-.2-.1-.3-.2c-.1 0-.3-.1-.6-.2l-1-.3c-.3-.1-.5-.3-.7-.5s-.3-.5-.3-.9.1-.8.4-1.1.7-.5 1.2-.6v-.4c0-.2.1-.3.2-.4s.2-.2.4-.2.3 0 .4.1.2.2.2.4v.4c.4.1.9.2 1.3.5.1.1.2.1.2.2s.1.2.1.3c0 .2 0 .3-.1.4s-.2.2-.3.2h-.2c-.1 0-.1-.1-.3-.1 0 0-.1-.1-.2-.1-.1-.1-.3-.1-.4-.2-.1 0-.3-.1-.5-.1s-.4.1-.6.2c-.1.1-.2.2-.2.4s.1.3.3.4.4.2.8.3l1 .3c.2.1.5.3.6.5.2.2.3.5.3.9.3.5.1.9-.2 1.2zm-30.4-27c-.3.3-.7.5-1.2.6v.4c0 .2-.1.3-.2.4s-.2.1-.4.1-.3 0-.4-.1-.2-.2-.2-.4v-.4c-.6-.1-1.1-.2-1.5-.5-.1-.1-.2-.1-.2-.2s-.1-.2-.1-.3c0-.2 0-.3.1-.4s.2-.2.3-.2h.2c.1 0 .1.1.2.1l.6.3c.2.1.4.1.6.1.3 0 .5 0 .6-.1s.2-.2.2-.4c0-.1 0-.2-.1-.3s-.2-.1-.3-.2c-.1 0-.3-.1-.6-.2l-1-.3c-.3-.1-.5-.3-.7-.5s-.3-.5-.3-.9.1-.8.4-1.1.7-.5 1.2-.6v-.4c0-.2.1-.3.2-.4s.2-.2.4-.2.3 0 .4.1.2.2.2.4v.4c.4.1.9.2 1.3.5.1.1.2.1.2.2s.1.2.1.3c0 .2 0 .3-.1.4s-.2.2-.3.2h-.2c-.1 0-.1-.1-.3-.1 0 0-.1-.1-.2-.1-.1-.1-.3-.1-.4-.2-.1 0-.3-.1-.5-.1s-.4.1-.6.2c.2.3.2.4.2.6s.1.3.3.4.4.2.8.3l1 .3c.2.1.5.3.6.5.2.2.3.5.3.9-.1.3-.3.6-.6.9zm60.5 0c-.3.3-.7.5-1.2.6v.4c0 .2-.1.3-.2.4s-.2.1-.4.1-.3 0-.4-.1-.2-.2-.2-.4v-.4c-.6-.1-1.1-.2-1.5-.5 0 0 0-.1-.1-.2 0-.1-.1-.2-.1-.3 0-.2 0-.3.1-.4s.2-.2.3-.2h.2c.1 0 .1.1.2.1l.6.3c.2.1.4.1.6.1.3 0 .5 0 .6-.1s.2-.2.2-.4c0-.1 0-.2-.1-.3s-.2-.1-.3-.2c-.1 0-.3-.1-.6-.2l-1-.3c-.3-.1-.5-.3-.7-.5s-.3-.5-.3-.9.1-.8.4-1.1.7-.5 1.2-.6v-.4c0-.2.1-.3.2-.4s.2-.2.4-.2.3 0 .4.1.2.2.2.4v.4c.4.1.9.2 1.3.5.1.1.2.1.2.2s.1.2.1.3c0 .2 0 .3-.1.4s-.2.2-.3.2h-.2c-.1 0-.1-.1-.3-.1 0 0-.1-.1-.2-.1-.1-.1-.3-.1-.4-.2-.1 0-.3-.1-.5-.1s-.4.1-.6.2c-.1.1-.2.2-.2.4s.1.3.3.4.4.2.8.3l1 .3c.2.1.5.3.6.5.2.2.3.5.3.9.1.5 0 .8-.3 1.1z" fill="#0070d0" stroke-width=".5" class="E F"/><g fill="none" stroke-width="2.5" class="D"><g class="G E F"><path d="M19.5,42.4c11.4,0,20.7-9.3,20.7-20.7V7.6"/><path d="M40.2 21.7V2.8m20.7 39.6c-8.1 0-15.2-4.7-18.6-11.6m-2.1 30.9V34.9"/></g><g stroke="#0472cc"><circle cx="9.8" cy="42.9" r="8.2"/><circle cx="70.2" cy="42.9" r="8.2"/><circle cx="40.2" cy="69.9" r="8.2"/><path d="M48.3 9.9l-8.1-8.1-8 8.1" class="E G"/></g></g></svg>