<?xml version="1.0" encoding="utf-8"?>
<!-- Generator: Adobe Illustrator 24.3.0, SVG Export Plug-In . SVG Version: 6.00 Build 0)  -->
<svg version="1.1" id="Layer_1" xmlns="http://www.w3.org/2000/svg" xmlns:xlink="http://www.w3.org/1999/xlink" x="0px" y="0px"
	 viewBox="0 0 80 80" style="enable-background:new 0 0 80 80;" xml:space="preserve">
<style type="text/css">
	.st0{fill:none;stroke:#2B71B8;stroke-width:2.5;stroke-linecap:round;stroke-linejoin:round;stroke-miterlimit:10;}
	.st1{enable-background:new    ;}
</style>
<g>
	<g>
		<g>
			<defs>
				<path id="SVGID_1_" d="M42.1,19.9c0,1.2-0.9,2.1-2.1,2.1c-1.2,0-2.1-0.9-2.1-2.1c0-1.2,0.9-2.1,2.1-2.1
					C41.2,17.8,42.1,18.7,42.1,19.9"/>
			</defs>
			<use xlink:href="#SVGID_1_"  style="overflow:visible;fill-rule:evenodd;clip-rule:evenodd;fill:#2B71B8;"/>
			<clipPath id="SVGID_2_">
				<use xlink:href="#SVGID_1_"  style="overflow:visible;"/>
			</clipPath>
		</g>
		<path class="st0" d="M16.9,34.3v-6h-6.3v-1.9c0-1.5,0.8-2.8,2-3.6L36.1,8.3c1.2-0.7,2.5-1.1,3.9-1.1c1.4,0,2.7,0.4,3.9,1.1
			l23.5,14.5c1.2,0.8,2,2.1,2,3.6v1.9h-6.3V34"/>
		<polyline class="st0" points="25.6,44.8 25.6,32.2 37.9,32.5 37.9,40.7 		"/>
		<g>
			<g class="st1">
				<g>
					<g>
						<polyline class="st0" points="54.3,45.1 54.3,32.5 44.2,32.5 44.2,41.5 						"/>
						<polyline class="st0" points="54.7,13.6 54.7,7.2 63.1,7.2 63.1,19.9 						"/>
					</g>
				</g>
			</g>
		</g>
	</g>
	<g>
		<g>
			<circle class="st0" cx="15.8" cy="45" r="9.8"/>
			<path class="st0" d="M2,66.7c0,0,2.5-10,14-10c11.8,0.1,13.8,10,13.8,10"/>
		</g>
		<circle class="st0" cx="39.8" cy="51" r="9.8"/>
		<path class="st0" d="M26,72.7c0,0,2.5-10,14-10c11.8,0.1,13.8,10,13.8,10"/>
		<path class="st0" d="M21,62.3"/>
		<g>
			<circle class="st0" cx="64" cy="45" r="9.8"/>
			<path class="st0" d="M50.2,66.7c0,0,2.5-10,14-10C76,56.8,78,66.7,78,66.7"/>
		</g>
	</g>
</g>
</svg>
