<svg xmlns="http://www.w3.org/2000/svg" viewBox="0 0 80 80" xmlns:v="https://vecta.io/nano"><style><![CDATA[.B{stroke-linejoin:round}.C{stroke-miterlimit:10}.D{stroke-linecap:round}]]></style><g fill="none" stroke="#0070d0" stroke-width="2.5" class="B C"><path d="M6.1 38.6h67.8M2.1 78.4l4-39.8m71.8 39.8l-4-39.8" class="D"/><path d="M59.2,31.1H20.8c-1.3,0-2.3-1-2.3-2.3v-25c0-1.3,1-2.3,2.3-2.3h38.4c1.3,0,2.3,1,2.3,2.3v25 C61.5,30.1,60.4,31.1,59.2,31.1z"/><path d="M18.5 34.7h43" class="D"/><path d="M42.9 16.4c0-1.6-1.3-2.9-2.9-2.9s-2.9 1.3-2.9 2.9 1.3 2.9 2.9 2.9 2.9-1.3 2.9-2.9z"/><path d="M48.1 18.5l-1.6-1.4v-1.5l1.6-1.4s0-.1.1-.1c.1-.1.1-.2.1-.3v-.1c0-.1 0-.3-.1-.4h0l-.8-1.4-.6-1.1c-.2-.3-.5-.4-.9-.3l-2.1.7s-.1 0-.1-.1c-.3-.2-.5-.4-.8-.5h-.1c-.1 0-.1-.1-.2-.1l-.4-1.9c0-.2-.1-.5-.3-.6-.1-.1-.2-.1-.3-.1h-2.9c-.3 0-.6.2-.7.6l-.4 2.1c-.4.2-.8.4-1.2.7l-2.1-.7c-.3-.1-.7 0-.9.3h0l-.9 1.1-.7 1.3c-.2.3-.1.7.2.9l1.6 1.4c-.1.4-.1.9 0 1.4L32 18.4c-.3.2-.3.6-.1.9h0l.8 1.3.7 1.2c.2.3.5.4.9.3l2.1-.7c.4.3.8.5 1.2.7l.4 2.1c.1.3.4.6.7.6h2.8c.3 0 .6-.2.7-.6l.4-2.1c.4-.2.7-.4 1.2-.7 0 0 .1 0 .1-.1l2.1.7c.3.1.7 0 .9-.3h0l.6-1 .8-1.4c.1-.2 0-.6-.2-.8z"/></g></svg>