<?xml version="1.0" encoding="utf-8"?>
<!-- Generator: Adobe Illustrator 24.3.0, SVG Export Plug-In . SVG Version: 6.00 Build 0)  -->
<svg version="1.1" id="Layer_1" xmlns="http://www.w3.org/2000/svg" xmlns:xlink="http://www.w3.org/1999/xlink" x="0px" y="0px"
	 viewBox="0 0 80 80" style="enable-background:new 0 0 80 80;" xml:space="preserve">
<style type="text/css">
	.st0{fill:none;stroke:#2B71B8;stroke-width:2.5;stroke-linecap:round;stroke-linejoin:round;stroke-miterlimit:10;}
</style>
<g>
	<g>
		<path class="st0" d="M63.3,78.3H18c-4.2,0-7.6-3.4-7.6-7.6V9.6c0-4.2,3.4-7.6,7.6-7.6h45.4c4.2,0,7.6,3.4,7.6,7.6v61.1
			C71,74.9,67.5,78.3,63.3,78.3z"/>
		<line class="st0" x1="20.6" y1="37.6" x2="60.9" y2="37.6"/>
		<line class="st0" x1="20.6" y1="47.9" x2="60.9" y2="47.9"/>
		<line class="st0" x1="20.6" y1="58.2" x2="60.9" y2="58.2"/>
		<line class="st0" x1="20.6" y1="68.5" x2="60.9" y2="68.5"/>
		<path class="st0" d="M23.6,28.3v-6.9h-3.8v-2.1c0-0.6,0.3-1.1,0.8-1.4l9.3-5.7c0.5-0.3,1-0.4,1.5-0.4c0.5,0,1.1,0.2,1.5,0.4
			l9.3,5.7c0.5,0.3,0.8,0.8,0.8,1.4v2.1h-3.8v7.2"/>
	</g>
</g>
</svg>
