<?xml version="1.0" encoding="utf-8"?>
<!-- Generator: Adobe Illustrator 24.3.0, SVG Export Plug-In . SVG Version: 6.00 Build 0)  -->
<svg version="1.1" id="Layer_1" xmlns="http://www.w3.org/2000/svg" xmlns:xlink="http://www.w3.org/1999/xlink" x="0px" y="0px"
	 viewBox="0 0 80 80" style="enable-background:new 0 0 80 80;" xml:space="preserve">
<style type="text/css">
	.st0{fill:none;stroke:#0072CE;stroke-width:2.5;stroke-linecap:round;stroke-linejoin:round;stroke-miterlimit:10;}
</style>
<g>
	<path class="st0" d="M27.1,12.6l0.6-3.5c0.6-3.5,3.8-5.8,7.3-5.2L72.2,10c3.5,0.6,5.8,3.8,5.2,7.3l-8.2,50.2
		c-0.6,3.5-3.8,5.8-7.3,5.2l-9.1-1.5"/>
	<line class="st0" x1="53.8" y1="20.7" x2="68" y2="23.2"/>
	<line class="st0" x1="53.8" y1="29.6" x2="66.6" y2="31.7"/>
	<line class="st0" x1="53.8" y1="38.3" x2="65.2" y2="40.2"/>
	<path class="st0" d="M54.2,48.3c0.4,0.1,0.8,0.3,1.2,0.6l6.6,6.2c0.3,0.3,0.5,0.8,0.4,1.3L62,58l-3.1-0.6l-1.2,5.9"/>
	<g>
		<path class="st0" d="M46.6,76.2H8.8c-3.5,0-6.3-2.8-6.3-6.3V19c0-3.5,2.8-6.3,6.3-6.3h37.7c3.5,0,6.3,2.8,6.3,6.3v50.9
			C52.9,73.3,50.1,76.2,46.6,76.2z"/>
		<line class="st0" x1="11.1" y1="42.3" x2="44.6" y2="42.3"/>
		<line class="st0" x1="11.1" y1="50.9" x2="44.6" y2="50.9"/>
		<line class="st0" x1="11.1" y1="59.4" x2="44.6" y2="59.4"/>
		<line class="st0" x1="11.1" y1="68" x2="44.6" y2="68"/>
		<path class="st0" d="M13.6,34.5v-5.8h-3.2v-1.7c0-0.5,0.2-0.9,0.7-1.2l7.7-4.7c0.4-0.2,0.8-0.4,1.3-0.4s0.9,0.1,1.3,0.4l7.7,4.7
			c0.4,0.3,0.7,0.7,0.7,1.2v1.7h-3.2v6"/>
	</g>
</g>
</svg>
