<svg xmlns="http://www.w3.org/2000/svg" viewBox="0 0 80 80"  xmlns:v="https://vecta.io/nano"><g stroke="#0072cc"><path d="M22.7 64.1l14.4-8.2 5.9 7.6 19.2-11" fill="none" stroke-width="2.5" stroke-linecap="round" stroke-linejoin="round" stroke-miterlimit="10"/><g fill="#0072cc"><circle cx="62.2" cy="52.5" r="3.1"/><circle cx="43" cy="63.5" r="3.1"/><circle cx="37.1" cy="55.7" r="3.1"/><circle cx="21.8" cy="64.5" r="3.1"/></g><g fill="none" stroke-width="2.5" stroke-linejoin="round"><circle cx="40" cy="39.8" r="38.4"/><g stroke-linecap="round" stroke-miterlimit="10"><path d="M40 1.4v38.4"/><path d="M5.5 56.4l35.1-16.9m37.8.3H40"/></g><path d="M8.4 29.3h7.7v10.1H8.4zm12-11.5h10.4v22H20.4z" stroke-miterlimit="10"/></g></g><path d="M60.3 28.9c-.8.8-1.8 1.3-3.1 1.5v1.2c0 .4-.1.7-.3.9s-.5.3-.9.3-.7-.1-.9-.3-.4-.5-.4-.9v-1.1c-.8-.1-1.5-.2-2.2-.5-.7-.2-1.3-.6-1.9-.9-.2-.1-.4-.3-.5-.5s-.1-.4-.1-.6c0-.3.1-.7.3-.9.2-.3.5-.4.7-.4.3 0 .6.1 1 .3.6.4 1.3.6 1.8.8.6.2 1.2.3 1.8.2.8 0 1.5-.2 1.9-.5s.7-.8.7-1.3c0-.3-.1-.6-.4-.8s-.6-.4-1-.5-.9-.3-1.6-.5c-1-.3-1.9-.5-2.5-.8-.7-.3-1.2-.7-1.7-1.2-.5-.6-.7-1.3-.7-2.3 0-1.1.4-2.1 1.2-2.9s1.8-1.3 3.1-1.6v-1.2c0-.4.1-.7.3-.9s.5-.3.9-.4c.4 0 .7.1.9.3s.3.5.4.9v1.1c1.2.2 2.4.6 3.5 1.4.2.1.4.3.5.5s.1.4.1.6c0 .3-.1.7-.3.9-.2.3-.5.4-.7.4s-.3 0-.4-.1c-.1 0-.3-.1-.6-.3-.6-.4-1.1-.6-1.5-.8-.5-.2-1-.3-1.7-.3s-1.3.2-1.8.5c-.4.3-.7.8-.7 1.3 0 .4.1.7.4.9l1 .6 1.7.5c1 .2 1.8.5 2.5.7s1.2.7 1.7 1.2c.5.6.7 1.3.7 2.3-.1 1.5-.4 2.4-1.2 3.2z" fill="#0472cc"/></svg>