<?xml version="1.0" encoding="utf-8"?>
<!-- Generator: Adobe Illustrator 24.3.0, SVG Export Plug-In . SVG Version: 6.00 Build 0)  -->
<svg version="1.1" id="Layer_1" xmlns="http://www.w3.org/2000/svg" xmlns:xlink="http://www.w3.org/1999/xlink" x="0px" y="0px"
	 viewBox="0 0 80 80" style="enable-background:new 0 0 80 80;" xml:space="preserve">
<style type="text/css">
	.st0{fill:none;stroke:#0072CE;stroke-width:2.5;stroke-linecap:round;stroke-linejoin:round;stroke-miterlimit:10;}
	.st1{fill:#0071CE;}
</style>
<g>
	<polygon class="st0" points="40,4.8 64.3,4.8 64.3,43.2 78.3,43.2 40,75.2 1.7,43.2 15.7,43.2 15.7,4.8 	"/>
	<g>
		<path class="st1" d="M27.8,34.8c-1-1.2-1.5-3-1.5-5.3s0.5-4.1,1.5-5.3c1-1.2,2.4-1.8,4.2-1.8c1.8,0,3.2,0.6,4.2,1.8
			c1,1.2,1.5,2.9,1.5,5.3c0,2.3-0.5,4.1-1.5,5.3c-1,1.2-2.4,1.8-4.2,1.8C30.2,36.6,28.8,36,27.8,34.8z M34.1,33.2
			c0.5-0.8,0.7-2,0.7-3.7c0-1.7-0.2-2.9-0.7-3.6c-0.5-0.8-1.2-1.1-2.1-1.1s-1.7,0.4-2.1,1.1c-0.4,0.8-0.7,2-0.7,3.7s0.2,2.9,0.7,3.7
			c0.4,0.8,1.2,1.2,2.1,1.2S33.6,34,34.1,33.2z M33.7,46.5c-0.3,0-0.6-0.1-0.9-0.4c-0.3-0.2-0.4-0.5-0.4-0.9c0-0.3,0.1-0.6,0.3-0.9
			L45,23.1c0.3-0.6,0.8-0.9,1.3-0.9c0.3,0,0.6,0.1,0.9,0.4c0.3,0.2,0.4,0.5,0.4,0.9c0,0.3-0.1,0.6-0.3,0.9L35,45.6
			C34.7,46.2,34.3,46.5,33.7,46.5z M43.9,44.3c-1-1.2-1.5-3-1.5-5.3c0-2.3,0.5-4.1,1.5-5.3c1-1.2,2.4-1.8,4.2-1.8
			c1.8,0,3.2,0.6,4.2,1.8c1,1.2,1.5,2.9,1.5,5.3s-0.5,4.1-1.5,5.3s-2.4,1.8-4.2,1.8C46.3,46.1,44.9,45.5,43.9,44.3z M50.2,42.7
			c0.4-0.8,0.7-2,0.7-3.7c0-1.7-0.2-2.9-0.7-3.7c-0.5-0.8-1.2-1.2-2.1-1.2c-1,0-1.7,0.4-2.1,1.1c-0.5,0.8-0.7,2-0.7,3.7
			c0,1.7,0.2,2.9,0.7,3.7c0.5,0.8,1.2,1.2,2.1,1.2C49,43.9,49.7,43.5,50.2,42.7z"/>
	</g>
</g>
</svg>
