<?xml version="1.0" encoding="utf-8"?>
<!-- Generator: Adobe Illustrator 24.3.0, SVG Export Plug-In . SVG Version: 6.00 Build 0)  -->
<svg version="1.1" id="Layer_1" xmlns:v="https://vecta.io/nano"
	 xmlns="http://www.w3.org/2000/svg" xmlns:xlink="http://www.w3.org/1999/xlink" x="0px" y="0px" viewBox="0 0 80 80"
	 style="enable-background:new 0 0 80 80;" xml:space="preserve">
<style type="text/css">
	.st0{fill:none;stroke:#0072CE;stroke-width:2.5;stroke-linecap:round;stroke-linejoin:round;stroke-miterlimit:10;}
	.st1{fill:none;stroke:#0072CE;stroke-width:2.5;stroke-linejoin:round;stroke-miterlimit:10;}
</style>
<g>
	<g>
		<path class="st0" d="M39.2,31.2c0,0-1.9-0.7-4.3-0.7s-4.7,0.8-6.9,1.2s-4.9-0.2-4.9-0.2 M56.4,31.3L53.2,33
			c-1.1,0.3-2.2,0.2-3.2-0.4c-0.8-0.5-4.7-2.2-7.1-2.1c-2.2,0.1-5,1.7-7.2,2.7c-2.2,1.1-3.7,1.5-4.1,2.2c-0.8,1.2,0,2.1,0.7,2.5
			c2,1,5.8,1.1,8.1,0.3c1.1-0.4,2-0.6,2.7-0.7c0.8-0.1,1.5,0.1,2.1,0.6l12.4,11.6c0.3,0.3,0.5,0.6,0.6,1c0.2,0.9,0.4,2.3-0.7,3.2
			c-0.7,0.6-1.4,0.8-2,0.9c0,0-1.3,0.2-1.8-0.2 M54.3,56.7c0,0.8-0.3,1.6-1.1,2.2c-0.9,0.8-2.1,1-3.2,0.8c0,0-1.1-0.2-1.6-0.7
			 M54.3,56.7v-0.8"/>
		<path class="st0" d="M54.2,55.9c0-0.2-0.1-0.4-0.1-0.6c0,0-0.3-0.8-0.9-1.3l-6.6-6.6 M48,60.8c-0.3,0.7-0.8,1.4-1.7,1.8
			c-0.5,0.3-1.1,0.4-1.7,0.4c-0.5,0-1.1-0.4-1.4-0.6l-1.7-1.6 M48,60.8l0.3-0.8 M48.3,60c0-0.1,0.1-0.3,0.1-0.4c0,0,0-0.9-0.6-1.6
			l-5.7-6.1 M35.8,64.6c0.6,0.5,1.4,1.1,2.2,1.2c0.6,0.1,1.7,0,2.3-0.5c0.7-0.5,1.1-1.2,1.3-2 M41.6,63.4l0.1-0.9v-1.1
			c0,0-0.2-0.9-0.7-1.4l-2.1-2.3 M65.8,47.2l-6.6,3.6"/>
	</g>
	<path class="st1" d="M18.9,55.5l3.6-3.4c1.1-1.1,1.2-2.9,0.1-4.1l0,0c-1.1-1.1-2.9-1.2-4.1-0.1l-3.6,3.4c-1.1,1.1-1.2,2.9-0.1,4.1
		l0,0C15.9,56.5,17.7,56.6,18.9,55.5z"/>
	<path class="st1" d="M22.8,59.6l5.5-5.3c1.1-1.1,1.2-2.9,0.1-4.1l0,0c-1.1-1.1-2.9-1.2-4.1-0.1l-5.5,5.3c-1.1,1.1-1.2,2.9-0.1,4.1
		l0,0C19.8,60.7,21.7,60.7,22.8,59.6z M27.7,63.1l4.5-4.3c1.1-1.1,1.2-2.9,0.1-4.1l0,0c-1.1-1.1-2.9-1.2-4.1-0.1L23.8,59
		c-1.1,1.1-1.2,2.9-0.1,4.1l0,0C24.8,64.2,26.6,64.2,27.7,63.1z"/>
	<path class="st1" d="M33.6,65.5l2.7-2.5c1.1-1.1,1.2-2.9,0.1-4.1l0,0c-1.1-1.1-2.9-1.2-4.1-0.1l-2.7,2.5c-1.1,1.1-1.2,2.9-0.1,4.1
		l0,0C30.6,66.5,32.4,66.5,33.6,65.5z"/>
	<path class="st0" d="M15,50.5l-2.9-2.2"/>
	<path class="st1" d="M5.4,16.1l16.3,11.2c1.1,0.7,1.4,2.2,0.7,3.3L11.9,47.8c-0.7,1.1-2.2,1.5-3.3,0.8l-5.7-3.3
		c-0.8-0.4-1.2-1.2-1.2-2.1L1.5,18.1C1.5,16.2,3.7,15,5.4,16.1z M74.2,15.7l-17,11.6c-1.1,0.8-1.5,2.3-0.8,3.5L66,46.7
		c0.8,1.2,2.4,1.6,3.6,0.9l7.6-4.8c0.8-0.5,1.2-1.3,1.2-2.2L78.2,18C78.3,15.8,76,14.6,74.2,15.7z"/>
</g>
</svg>
