<?xml version="1.0" encoding="utf-8"?>
<!-- Generator: Adobe Illustrator 24.3.0, SVG Export Plug-In . SVG Version: 6.00 Build 0)  -->
<svg version="1.1" id="Layer_1" xmlns="http://www.w3.org/2000/svg" xmlns:xlink="http://www.w3.org/1999/xlink" x="0px" y="0px"
	 viewBox="0 0 80 80" style="enable-background:new 0 0 80 80;" xml:space="preserve">
<style type="text/css">
	.st0{fill:none;stroke:#0072CE;stroke-width:2.5;stroke-linecap:round;stroke-linejoin:round;stroke-miterlimit:10;}
</style>
<g>
	<path class="st0" d="M71.4,26.5l6.1,6.1L64.3,45.7l-6.1-6.1c0,0,1.8-6.8-1.8-8.3c-3.6-1.5-6.4,2.1-6.4,2.1l-6.3-6.3
		c0,0,5-7.8,0.8-12S32.7,8.7,32.7,8.7S45,2.3,54.1,9.2c3.6,3.6,11,11,11,11s-1.5,4.7,0,6.2C66.7,27.9,71.4,26.5,71.4,26.5z"/>
	<path class="st0" d="M39.8,30.6L4.3,63.7c0,0-4.1,4.1,0.2,8.4c4.4,4.4,8.9-0.2,8.9-0.2l33-34.6L39.8,30.6z"/>
</g>
</svg>
