<?xml version="1.0" encoding="utf-8"?>
<!-- Generator: Adobe Illustrator 24.3.0, SVG Export Plug-In . SVG Version: 6.00 Build 0)  -->
<svg version="1.1" id="Layer_1" xmlns="http://www.w3.org/2000/svg" xmlns:xlink="http://www.w3.org/1999/xlink" x="0px" y="0px"
	 viewBox="0 0 80 80" style="enable-background:new 0 0 80 80;" xml:space="preserve">
<style type="text/css">
	.st0{fill:none;stroke:#2C71B9;stroke-width:2.5;stroke-linecap:round;stroke-linejoin:round;stroke-miterlimit:10;}
</style>
<g>
	<g>
		<path class="st0" d="M51.1,34.7L19,51c-2.9,1.5-6.5,0.3-8-2.6L2.7,32l-0.4-0.8c-1.5-2.9-0.3-6.5,2.6-8L36.9,6.9
			c2.9-1.5,6.5-0.3,8,2.6l8.7,17.2C55.2,29.6,54,33.2,51.1,34.7z"/>
		<line class="st0" x1="45.3" y1="11" x2="3.6" y2="32.2"/>
		<line class="st0" x1="47.4" y1="15.2" x2="5.7" y2="36.3"/>
	</g>
	<g>
		<path class="st0" d="M39.3,48c0,0,6.2-5.7,15-5.7c9.2,0,14,5.7,14,5.7"/>
		<path class="st0" d="M45,52.5c0,0,3.5-3.5,8.8-3.5s9.1,3.5,9.1,3.5"/>
		<path class="st0" d="M48,57.9c0,0,2.7-2.2,5.8-2.2c3.2,0,5.4,2.2,5.4,2.2"/>
	</g>
	<path class="st0" d="M53.7,24.5c13.6,0,24.6,11,24.6,24.6c0,13.6-11,24.6-24.6,24.6c-13.6,0-24.6-11-24.6-24.6
		c0-1.1,0.1-2.2,0.2-3.2"/>
</g>
</svg>
