<?xml version="1.0" encoding="utf-8"?>
<!-- Generator: Adobe Illustrator 24.3.0, SVG Export Plug-In . SVG Version: 6.00 Build 0)  -->
<svg version="1.1" id="Layer_1" xmlns="http://www.w3.org/2000/svg" xmlns:xlink="http://www.w3.org/1999/xlink" x="0px" y="0px"
	 viewBox="0 0 80 80" style="enable-background:new 0 0 80 80;" xml:space="preserve">
<style type="text/css">
	.st0{fill:none;stroke:#0072CC;stroke-width:2.5;stroke-linecap:round;stroke-linejoin:round;stroke-miterlimit:10;}
	.st1{fill:none;stroke:#0070D0;stroke-width:2.5;stroke-linecap:round;stroke-linejoin:round;stroke-miterlimit:10;}
</style>
<g>
	<path class="st0" d="M57.8,33.5c-2.1,0.5-0.5,1.9-3.3,1.3c-0.7-2.1-1.8-4.1-3.3-5.7c1.5-1.5,3.5-2.3,4.2-3.2
		c1.4-1.7,1.3-4.1-0.7-5.7c-2-1.6-4.9-0.9-5.7,0.6c-1.1,1.8-0.5,3.5-2.2,5c-1.8-0.9-3.8-1.4-5.9-1.5c0-2.2,0.7-2.5,0.6-3.6
		c-0.2-2-1.8-3.5-4.1-3.2c-2.4,0.3-3.7,2.5-3.3,4.1c0.5,1.9,1.6,1.1,1.3,3.5c-1.7,0.6-3.3,1.5-4.7,2.6c-1.7-1.7-2.9-3.9-3.8-4.5
		c-1.8-1.4-4.1-1.3-5.7,0.8c-1.6,2.1-0.8,4.9,0.7,5.7c2.1,1.2,3.4-0.3,5.1,2.6c-0.9,1.7-1.4,3.5-1.6,5.4c-2.4,0-3.1-0.5-4-0.3
		c-2,0.3-3.5,1.8-3.2,4.2c0.3,2.4,2.6,3.7,4.1,3.3c2.1-0.6,0.4-2,3.6-1.2c0.6,2.1,1.7,3.9,3,5.5c-1.5,1.6-3.6,2.4-4.3,3.3
		c-1.4,1.7-1.3,4.1,0.7,5.7c2,1.6,4.9,0.9,5.7-0.6c1.2-2-0.2-3.3,2.5-4.9c1.7,0.9,3.7,1.4,5.7,1.6c0,2.1-0.7,2.4-0.6,3.4
		c0.2,2,1.8,3.5,4.1,3.2s3.7-2.5,3.3-4.1c-0.5-2.1-1.7-0.5-1.1-3.3c1.8-0.6,3.4-1.5,4.8-2.7c1.7,1.5,2.5,3.6,3.4,4.3
		c1.8,1.4,4.1,1.3,5.7-0.8c1.6-2.1,0.8-4.9-0.7-5.7c-2-1.2-3.2,0.2-4.8-2.2c1-1.8,1.6-3.8,1.8-5.9c2.2-0.1,2.6,0.6,3.6,0.4
		c2-0.3,3.5-1.8,3.2-4.2C61.6,34.4,59.3,33.1,57.8,33.5z"/>
	<path class="st0" d="M37.9,31.2c-0.1,0.4-0.1,0.8,0,1.1c0.2,2.1,2.1,3.6,4.2,3.3c1.5-0.2,2.7-1.2,3.2-2.6"/>
	<path class="st0" d="M37.8,45.7c0.2-0.5,0.3-1.1,0.2-1.7c-0.2-2.1-2.1-3.6-4.2-3.3c-1.2,0.1-2.1,0.8-2.7,1.7"/>
	<path class="st0" d="M47.5,41.8C45.5,42,44,43.9,44.2,46"/>
	<path class="st1" d="M40.1,78.5c0,0,32-16.2,32-41.2V10.5c0-0.3-0.3-0.5-0.5-0.4c-3.2,0.6-19.9,3-31.4-8.6h-0.2
		c-14.3,14.3-28.3,9.9-31.4,8.7c-0.3-0.1-0.6,0.1-0.6,0.4v26.6c0,25,32,41.2,32,41.2H40.1z"/>
</g>
</svg>
