<?xml version="1.0" encoding="utf-8"?>
<!-- Generator: Adobe Illustrator 24.3.0, SVG Export Plug-In . SVG Version: 6.00 Build 0)  -->
<svg version="1.1" id="Layer_1" xmlns="http://www.w3.org/2000/svg" xmlns:xlink="http://www.w3.org/1999/xlink" x="0px" y="0px"
	 viewBox="0 0 80 80" style="enable-background:new 0 0 80 80;" xml:space="preserve">
<style type="text/css">
	.st0{fill:none;stroke:#2C72B8;stroke-width:2.5;stroke-linecap:round;stroke-linejoin:round;stroke-miterlimit:10;}
	
		.st1{fill-rule:evenodd;clip-rule:evenodd;fill:none;stroke:#2C72B8;stroke-width:2.5;stroke-linecap:round;stroke-linejoin:round;stroke-miterlimit:10;}
	.st2{fill:#2C72B8;}
</style>
<g>
	<g>
		<path class="st0" d="M52.5,9.7l0,5.4c0,2,1.6,3.6,3.6,3.6h12.5v6.7"/>
		<line class="st1" x1="21.4" y1="46.4" x2="59.6" y2="46.4"/>
		<line class="st1" x1="21.4" y1="57" x2="59.6" y2="57"/>
		<line class="st1" x1="21.4" y1="66.3" x2="59.6" y2="66.3"/>
		<path class="st0" d="M68.6,23.4V74c0,2-1.6,3.6-3.6,3.6H45.7H34.3H15c-2,0-3.6-1.6-3.6-3.6V6.1c0-2,1.6-3.6,3.6-3.6h37.5
			l10.7,10.7"/>
		<line class="st1" x1="21.4" y1="36.3" x2="59.6" y2="36.3"/>
	</g>
	<g>
		<path class="st2" d="M22.6,23.3c-0.7-0.4-1.2-0.9-1.6-1.6s-0.6-1.5-0.6-2.5c0-0.9,0.2-1.8,0.6-2.5c0.4-0.7,0.9-1.3,1.6-1.6
			c0.7-0.4,1.5-0.6,2.4-0.6c1.1,0,2.1,0.3,2.9,0.9c0.1,0.1,0.3,0.2,0.3,0.3c0.1,0.1,0.1,0.3,0.1,0.5c0,0.3-0.1,0.5-0.2,0.7
			c-0.2,0.2-0.3,0.3-0.6,0.3c-0.1,0-0.2,0-0.4-0.1c-0.1,0-0.2-0.1-0.4-0.2c-0.3-0.2-0.6-0.3-0.9-0.4s-0.5-0.1-0.8-0.1
			c-0.8,0-1.3,0.2-1.7,0.7c-0.4,0.5-0.6,1.2-0.6,2.1c0,1,0.2,1.7,0.6,2.1c0.4,0.5,1,0.7,1.7,0.7c0.3,0,0.5,0,0.8-0.1
			c0.2-0.1,0.6-0.2,0.9-0.4c0.2-0.1,0.3-0.2,0.4-0.2c0.1,0,0.2-0.1,0.3-0.1c0.2,0,0.4,0.1,0.6,0.3c0.2,0.2,0.2,0.4,0.2,0.7
			c0,0.2,0,0.3-0.1,0.5c-0.1,0.1-0.2,0.2-0.3,0.3c-0.8,0.6-1.8,0.9-2.9,0.9C24.1,23.8,23.3,23.7,22.6,23.3z"/>
		<path class="st2" d="M37.5,22.9c0,0.3-0.1,0.5-0.3,0.7c-0.2,0.2-0.5,0.3-0.8,0.3c-0.2,0-0.4,0-0.6-0.1c-0.2-0.1-0.3-0.2-0.5-0.4
			l-1.7-2.5c-0.1-0.2-0.2-0.3-0.4-0.4c-0.1-0.1-0.3-0.1-0.5-0.1h-0.8v2.3c0,0.4-0.1,0.7-0.3,0.9c-0.2,0.2-0.5,0.3-0.9,0.3
			c-0.4,0-0.7-0.1-0.9-0.3c-0.2-0.2-0.3-0.5-0.3-0.9v-7c0-0.4,0.1-0.6,0.3-0.8s0.5-0.3,0.8-0.3h3.3c1.1,0,1.9,0.2,2.5,0.7
			c0.6,0.5,0.8,1.2,0.8,2.1c0,0.7-0.2,1.3-0.6,1.8c-0.4,0.5-0.9,0.8-1.6,1c0.3,0,0.5,0.1,0.7,0.3c0.2,0.1,0.4,0.4,0.6,0.7l0.8,1.2
			C37.4,22.4,37.5,22.7,37.5,22.9z M34.7,18.3c0.2-0.2,0.3-0.4,0.3-0.8c0-0.4-0.1-0.7-0.3-0.8c-0.2-0.2-0.6-0.3-1.1-0.3h-1.7v2.1
			h1.7C34,18.5,34.4,18.4,34.7,18.3z"/>
		<path class="st2" d="M47.5,22.7c0,0.3-0.1,0.5-0.3,0.7c-0.2,0.2-0.5,0.3-0.8,0.3c-0.2,0-0.4-0.1-0.5-0.2c-0.2-0.1-0.3-0.3-0.4-0.5
			l-0.6-1.3h-4.2L40,23.1c-0.1,0.2-0.2,0.4-0.4,0.5c-0.2,0.1-0.4,0.2-0.6,0.2c-0.3,0-0.6-0.1-0.8-0.3s-0.4-0.4-0.4-0.7
			c0-0.2,0-0.3,0.1-0.5l3.4-7c0.1-0.2,0.3-0.4,0.5-0.5c0.2-0.1,0.5-0.2,0.7-0.2c0.3,0,0.5,0.1,0.7,0.2c0.2,0.1,0.4,0.3,0.5,0.5
			l3.4,7C47.4,22.4,47.5,22.6,47.5,22.7z M41.4,20H44l-1.3-2.9L41.4,20z"/>
	</g>
</g>
</svg>
