<svg xmlns="http://www.w3.org/2000/svg" viewBox="0 0 80 80" xmlns:v="https://vecta.io/nano"><path d="M70.9 64.8H9.1c-4.1 0-7.4-3.3-7.4-7.4V22.7c0-4.1 3.3-7.4 7.4-7.4H71c4.1 0 7.4 3.3 7.4 7.4v34.7c0 4-3.4 7.4-7.5 7.4z" fill="none" stroke="#0070d0" stroke-width="2.563" stroke-miterlimit="10"/><g fill="#0071ce"><path d="M16.3 24.1c-.2-.1-.5-.2-.8-.2s-.6.2-.6.5v.9h1.8l-.4 1.5h-1.4v5.4h-2.8v-5.4h-.9v-1.5h.9v-.8c0-2 1.9-2.3 2.9-2.3.9 0 1.5.1 2.1.4l-.8 1.5m9.5 8.2l-1-2.2c-.4-.8-.6-.9-1.1-.9v3.1h-2.4v-7.8h3.2c2.7 0 3.6.9 3.6 2.2s-.8 2-1.9 2.2a1.71 1.71 0 0 1 .9.8l1.4 2.5-2.7.1m-1.5-6.2h-.7v1.6h.7c.8 0 1.1-.3 1.1-.8.1-.6-.3-.8-1.1-.8zm8.1 6.3c-1.4 0-2.5-.3-3.4-.7l.8-1.6c.7.3 1.7.6 2.6.6s1.3-.3 1.3-.7c0-.3-.3-.5-.9-.6l-1.1-.2c-1.4-.3-2.3-.9-2.3-2.3 0-1.5 1.5-2.6 3.6-2.6 1.3 0 2.5.3 3.3.8l-1.2 1.4c-.6-.3-1.5-.5-2.1-.5s-1 .2-1 .6c0 .3.2.5.9.7l1 .2c1 .2 2.5.6 2.5 2.2.1 1.7-1.6 2.7-4 2.7m11.2-6.3h-2.2l.1 6.2H39v-6.2h-2.1l-.1-1.6h7.1l-.3 1.6"/><path d="M17.3 25.8v6.5h2.5v-8.1l-2.5 1.6m33.3 21.5h-1c-.6 0-1.1-.7-1.1-1.5s.5-1.5 1.1-1.5h1c.6 0 1.1.7 1.1 1.5 0 .9-.5 1.5-1.1 1.5zm-4.8 0h-1c-.6 0-1.1-.7-1.1-1.5s.5-1.5 1.1-1.5h1c.6 0 1.1.7 1.1 1.5s-.5 1.5-1.1 1.5zm-4.8 0h-1c-.6 0-1.1-.7-1.1-1.5s.5-1.5 1.1-1.5h1c.6 0 1.1.7 1.1 1.5 0 .9-.5 1.5-1.1 1.5zm-4.8.1h-1c-.6 0-1.1-.7-1.1-1.5s.5-1.5 1.1-1.5h1c.6 0 1.1.7 1.1 1.5-.1.8-.5 1.5-1.1 1.5zm-4.9 0h-1c-.6 0-1.1-.7-1.1-1.5s.5-1.5 1.1-1.5h1c.6 0 1.1.7 1.1 1.5s-.5 1.5-1.1 1.5zm-4.8 0h-1c-.6 0-1.1-.7-1.1-1.5s.5-1.5 1.1-1.5h1c.6 0 1.1.7 1.1 1.5s-.5 1.5-1.1 1.5zm-4.8 0h-1c-.6 0-1.1-.7-1.1-1.5s.5-1.5 1.1-1.5h1c.6 0 1.1.7 1.1 1.5s-.5 1.5-1.1 1.5zm-4.8 0h-1c-.6 0-1.1-.7-1.1-1.5s.5-1.5 1.1-1.5h1c.6 0 1.1.7 1.1 1.5s-.5 1.5-1.1 1.5zm-4.8 0h-1c-.6 0-1.1-.7-1.1-1.5s.5-1.5 1.1-1.5h1c.6 0 1.1.7 1.1 1.5s-.5 1.5-1.1 1.5zm37.1 10.7c-.3-.2-.6-.5-.8-.8s-.3-.8-.3-1.2c0-.5.1-.9.3-1.2.2-.4.5-.6.8-.8s.8-.3 1.2-.3c.2 0 .5 0 .7.1s.5.2.6.3a.55.55 0 0 1 .3.5c0 .1 0 .2-.1.3s-.1 0-.2 0h-.2c-.1 0-.1-.1-.2-.1-.1-.1-.3-.1-.4-.2-.1 0-.3-.1-.4-.1-.4 0-.7.1-.9.4-.2.2-.3.6-.3 1.1s.1.8.3 1.1c.2.2.5.4.9.4.2 0 .3 0 .4-.1s.3-.1.4-.2.2-.1.2-.1h.2c.1 0 .2 0 .2.1s.1.2.1.3 0 .2-.1.3c0 .1-.1.1-.2.2-.2.1-.4.2-.7.3s-.5.1-.8.1c-.3-.1-.7-.2-1-.4zm6.5-4.3c.1.1.1.2.1.4s0 .3-.1.4-.2.1-.4.2H55c-.4 0-.6.2-.8.4s-.3.5-.3.8v1.9c0 .2-.1.3-.2.4s-.2.1-.4.1-.3 0-.4-.1-.2-.2-.2-.4v-3.6c0-.2.1-.3.2-.4s.2-.1.4-.1.3 0 .4.1.1.2.1.4v.4c.1-.3.3-.5.5-.6s.5-.2.8-.2h.1c.3-.2.5-.2.5-.1zm4.4 3.4c.1.1.1.2.1.3 0 .2-.1.3-.3.5-.2.1-.4.2-.7.3s-.5.1-.8.1c-.7 0-1.3-.2-1.7-.6s-.6-1-.6-1.7c0-.5.1-.9.3-1.2a1.56 1.56 0 0 1 .8-.8c.3-.2.7-.3 1.1-.3s.8.1 1.1.3a1.85 1.85 0 0 1 .7.8c.2.3.2.7.3 1.1 0 .3-.1.4-.3.4h-2.7c0 .4.2.7.4.9s.5.3.9.3c.2 0 .4 0 .5-.1s.3-.1.5-.2.3-.1.4-.1c-.1-.2-.1-.1 0 0zm-2.6-2.4c-.2.2-.3.5-.3.8h2.1c0-.4-.1-.7-.3-.9s-.4-.3-.7-.3c-.4.1-.6.2-.8.4zm7.8-2.9c.1.1.2.2.2.4v5.5c0 .2-.1.3-.2.4s-.2.1-.4.1-.3 0-.4-.1-.2-.2-.2-.4v-.2c-.1.3-.3.4-.6.6-.3.1-.5.2-.9.2a1.69 1.69 0 0 1-1-.3c-.3-.2-.5-.5-.7-.8s-.3-.8-.3-1.2c0-.5.1-.9.3-1.2a1.85 1.85 0 0 1 .7-.8 1.69 1.69 0 0 1 1-.3c.3 0 .6.1.9.2s.4.3.6.6v-2.2c0-.2 0-.3.2-.4.1-.1.2-.1.4-.1.2-.2.3-.1.4 0zm-1.2 5.2c.2-.3.3-.6.3-1.1s-.1-.8-.3-1.1c-.2-.2-.5-.4-.8-.4-.4 0-.7.1-.9.4-.2.2-.3.6-.3 1.1s.1.8.3 1.1.5.4.8.4c.4 0 .7-.2.9-.4zm2.7-4.4a.76.76 0 0 1-.2-.4c0-.2.1-.3.2-.4s.3-.2.5-.2.4.1.5.2a.76.76 0 0 1 .2.4c0 .2-.1.3-.2.4s-.3.2-.5.2-.4-.1-.5-.2zm.1 5.5c-.1-.1-.2-.2-.2-.4v-3.5c0-.2.1-.3.2-.4s.2-.1.4-.1.3 0 .4.1.2.2.2.4v3.5c0 .2-.1.3-.2.4s-.2.1-.4.1-.3 0-.4-.1zm4.9-.3c0 .1-.1.3-.2.3-.1.1-.3.1-.5.1h-.2c-1-.1-1.5-.6-1.5-1.7v-2h-.5c-.2 0-.3 0-.4-.1s-.1-.2-.1-.3 0-.2.1-.3.2-.1.4-.1h.5V53c0-.2.1-.3.2-.4s.2-.1.4-.1.3 0 .4.1.2.2.2.4v.8h.8c.2 0 .3 0 .4.1s.1.2.1.3 0 .2-.1.3-.2.1-.4.1h-.8v2.1c0 .5.2.7.6.7h.2c.3.1.4.2.4.5z"/></g></svg>