<svg xmlns="http://www.w3.org/2000/svg" viewBox="0 0 80 80" xmlns:v="https://vecta.io/nano"><path d="M76.5,38.6v25.5c0,4.2-3.4,7.7-7.7,7.7h-59c-4.2,0-7.7-3.4-7.7-7.7V31.5c0-4.2,3.4-7.7,7.7-7.7h31.4" fill="none" stroke="#0071ce" stroke-width="2.5" stroke-linecap="round" stroke-miterlimit="10"/><g fill="#0071ce"><path d="M16.5 32.4c-.2-.1-.4-.1-.8-.1-.3 0-.7.2-.7.4v.9h1.7l-.3 1.6h-1.3v5.2h-2.8v-5.2h-.9v-1.4h.9V33c0-2 1.8-2.2 2.8-2.2.8 0 1.4.1 2 .3l-.6 1.3m9.1 8l-1-2.1c-.3-.8-.6-.9-1.1-.9v3h-2.3v-7.6h3.1c2.7 0 3.6.9 3.6 2.1 0 1.3-.8 2-1.9 2.1a1.71 1.71 0 0 1 .9.8l1.3 2.4-2.6.2m-1.3-5.9h-.7V36h.7c.8 0 1.1-.3 1.1-.8-.1-.6-.4-.8-1.1-.7zm7.8 6c-1.3 0-2.4-.2-3.3-.7l.8-1.6c.7.3 1.7.6 2.6.6s1.2-.3 1.2-.7c0-.3-.3-.4-.9-.7l-1.1-.2c-1.3-.3-2.2-.9-2.2-2.2 0-1.4 1.4-2.4 3.4-2.4 1.2 0 2.4.2 3.2.8l-1.1 1.3c-.4-.2-1.3-.4-1.9-.4s-.9.2-.9.6c0 .2.2.4.9.7l.9.2c1 .2 2.3.6 2.3 2.1 0 1.6-1.6 2.6-3.9 2.6m10.7-6.1h-2v6h-2.3l-.1-6h-2v-1.6h6.8l-.4 1.6"/><path d="M17.4 34v6.3h2.4v-7.9L17.4 34m32.2 20.9h-.9c-.6 0-1-.7-1-1.4 0-.8.4-1.4 1-1.4h.9c.6 0 1 .7 1 1.4.1.8-.3 1.4-1 1.4zm-4.5 0h-.9c-.6 0-1-.7-1-1.4 0-.8.4-1.4 1-1.4h.9c.6 0 1 .7 1 1.4 0 .8-.5 1.4-1 1.4zm-4.7 0h-.9c-.6 0-1-.7-1-1.4 0-.8.4-1.4 1-1.4h.9c.6 0 1 .7 1 1.4 0 .8-.4 1.4-1 1.4zm-4.7 0h-.9c-.6 0-1-.7-1-1.4 0-.8.3-1.4.9-1.4h.9c.6 0 1 .7 1 1.4.1.8-.3 1.4-.9 1.4zm-4.6 0h-.9c-.6 0-1-.7-1-1.4 0-.8.4-1.4 1-1.4h.9c.6 0 1 .7 1 1.4 0 .8-.5 1.4-1 1.4zm-4.7 0h-.9c-.6 0-1-.7-1-1.4 0-.8.4-1.4 1-1.4h.9c.6 0 1 .7 1 1.4 0 .8-.4 1.4-1 1.4zm-4.7 0h-.9c-.6 0-1-.7-1-1.4 0-.8.4-1.4 1-1.4h.9c.6 0 1 .7 1 1.4 0 .8-.4 1.4-1 1.4zm-4.6 0h-.9c-.6 0-1-.7-1-1.4 0-.8.4-1.4 1-1.4h.9c.6 0 1 .7 1 1.4 0 .8-.5 1.4-1 1.4zm-4.7 0h-.9c-.6 0-1-.7-1-1.4 0-.8.4-1.4 1-1.4h.9c.6 0 1 .7 1 1.4 0 .9-.4 1.4-1 1.4zm35.9 10.5c-.3-.2-.6-.4-.8-.8-.2-.3-.2-.8-.2-1.2s.1-.9.3-1.2.4-.7.8-.8c.3-.2.7-.3 1.1-.3.2 0 .4 0 .7.1.2.1.4.1.7.2.2.1.3.3.3.4s0 .2-.1.3-.1.1-.2.1h-.2c-.1 0-.1-.1-.2-.1-.1-.1-.2-.1-.3-.2-.1 0-.2-.1-.4-.1-.3 0-.7.1-.9.3s-.3.6-.3 1 .1.8.3 1 .4.3.9.3c.1 0 .3 0 .4-.1s.2-.1.3-.2c.1 0 .1-.1.2-.1h.2c.1 0 .2 0 .2.1.1.1.1.2.1.3s0 .2-.1.2c0 .1-.1.1-.2.2l-.7.3c-.2.1-.4.1-.8.1-.5.4-.8.3-1.1.2h0zm6.3-4.3c.1.1.1.2.1.3s0 .3-.1.3c-.1.1-.2.1-.4.1H54c-.3 0-.6.1-.8.3-.1.2-.2.4-.2.8v1.9c0 .2 0 .3-.1.4s-.2.1-.4.1c-.1 0-.3 0-.4-.1s-.1-.2-.1-.4v-3.4c0-.1 0-.3.1-.3.1-.1.2-.1.3-.1s.3 0 .3.1c.1.1.1.2.1.3v.3c.1-.2.3-.4.6-.6.2-.1.4-.2.8-.2h.1c.1.1.2.2.3.2zm4.2 3.4c.1.1.1.2.1.3 0 .2-.1.3-.3.4s-.4.2-.7.2c-.2.1-.4.1-.8.1a2.52 2.52 0 0 1-1.7-.6c-.4-.4-.7-1-.7-1.7a4.3 4.3 0 0 1 .2-1.2c.2-.3.4-.7.8-.8.3-.2.7-.3 1.1-.3s.8.1 1 .2c.3.2.5.5.7.8.1.3.2.7.2 1.1 0 .2-.1.3-.3.3h-2.7c0 .4.1.7.3.9s.4.3.9.3c.2 0 .3 0 .6-.1.2 0 .3-.1.4-.2.2-.1.3-.1.4-.1.4.3.5.3.5.4h0zm-2.4-2.4c-.2.2-.3.4-.3.8h2c0-.3-.1-.7-.2-.8-.1-.2-.4-.3-.7-.3-.5 0-.7.1-.8.3zm7.5-2.7c.1.1.1.2.1.3V65c0 .1 0 .3-.1.3-.1.1-.2.1-.4.1-.1 0-.3 0-.4-.1s-.1-.2-.1-.3v-.2c-.1.2-.3.4-.6.6a2.39 2.39 0 0 1-.9.2 1.93 1.93 0 0 1-1-.3c-.3-.2-.6-.4-.7-.8s-.2-.8-.2-1.2a4.3 4.3 0 0 1 .2-1.2c.1-.3.3-.6.7-.8.3-.2.7-.2 1-.2s.6.1.9.2c.2.1.4.3.6.6v-2.1c0-.1 0-.2.1-.3s.2-.1.4-.1c.2-.3.3-.1.4 0zm-1.2 5c.2-.2.3-.6.3-1s-.1-.8-.3-1-.4-.3-.8-.3c-.3 0-.7.1-.8.3-.2.2-.3.6-.3 1s.1.8.3 1 .4.3.8.3.6-.1.8-.3zm2.6-4.3c-.1-.1-.3-.2-.3-.4s.1-.3.2-.4.3-.1.4-.1c.2 0 .3 0 .4.1s.2.2.2.4-.1.3-.2.4-.3.1-.4.1-.2.1-.3-.1zm.1 5.3c-.1 0-.1-.2-.1-.3v-3.4c0-.2 0-.3.1-.4s.2-.1.4-.1c.1 0 .3 0 .4.1s.1.2.1.4V65c0 .2 0 .3-.1.4s-.2.1-.4.1c-.2.1-.3 0-.4-.1zm4.8-.3c0 .1-.1.2-.2.3s-.3.1-.4.1h-.2c-1-.1-1.4-.6-1.4-1.6V62h-.4c-.1 0-.3 0-.3-.1-.1-.1-.1-.2-.1-.3s0-.2.1-.3.2-.1.3-.1h.4v-.8c0-.1 0-.3.1-.3-.1-.1.1-.1.3-.1.1 0 .3 0 .4.1s.1.2.1.3v.8h.8c.1 0 .3 0 .3.1.1.1.1.2.1.3s0 .2-.1.3-.2.1-.3.1h-.8v2c0 .4.2.7.6.7h.2c.3 0 .5.2.5.4z"/></g><path d="M62.6 39.3c-5.8 0-11.1-3.2-13.9-8.2-4.3-7.6-1.5-17.4 6.1-21.7 2.4-1.3 5-2 7.7-2 5.8 0 11.1 3.2 13.9 8.2 4.3 7.6 1.5 17.4-6.1 21.7-2.4 1.3-5 2-7.7 2z" fill="none" stroke="#0070d0" stroke-width="2.563" stroke-linejoin="round" stroke-miterlimit="10"/><path d="M65.6 27.2c-.5.5-1.1.8-2 1v.8c0 .3-.1.4-.2.6-.2.2-.4.3-.6.3-.3 0-.4-.1-.6-.2-.2-.2-.3-.4-.3-.6v-.7c-.5 0-1-.2-1.4-.3l-1.2-.6c-.2-.1-.3-.2-.3-.3-.1-.1-.1-.3-.1-.4 0-.3.1-.4.2-.6.2-.2.3-.3.4-.3s.4.1.6.2c.4.3.8.4 1.1.5s.8.2 1.1.2c.5 0 1-.1 1.2-.4.3-.2.4-.5.4-.9 0-.3-.1-.4-.3-.5-.2-.2-.4-.3-.6-.4s-.6-.2-1.1-.3l-1.7-.5c-.5-.1-.8-.4-1.1-.8-.4-.4-.4-.9-.4-1.5 0-.7.3-1.3.8-1.8s1.1-.9 2-1V18c0-.3.1-.4.3-.6s.4-.3.6-.3c.3 0 .4.1.6.2.2.2.3.4.3.6v.7a5.05 5.05 0 0 1 2.3.9c.2.1.3.2.3.3.1.1.1.3.1.4 0 .3-.1.4-.2.6-.2.2-.3.3-.4.3h-.3c-.1 0-.2-.1-.4-.2-.4-.3-.7-.4-1-.5s-.7-.2-1.1-.2-.9.1-1.1.4c-.3.2-.4.5-.4.9 0 .3.1.4.3.6s.4.3.6.4a8.11 8.11 0 0 0 1.1.3l1.6.4c.4.2.8.4 1.1.8s.4.9.4 1.5c.1.5-.2 1.1-.6 1.7z" fill="#0070d0"/></svg>