<svg xmlns="http://www.w3.org/2000/svg" viewBox="0 0 80 80" fill="#0071ce" xmlns:v="https://vecta.io/nano"><g stroke="#0071ce" stroke-width=".5"><g stroke-miterlimit="10"><path d="M67.24 34.25c4.18 0 7.58 2.96 7.58 6.6v31.67c0 3.64-3.4 6.6-7.58 6.6H12.66c-4.18 0-7.58-2.96-7.58-6.6v-40.8l2.13 2.23V72.5c0 2.46 2.45 4.47 5.45 4.47h54.58c3 0 5.45-2 5.45-4.47V40.85c0-2.46-2.73-4.58-5.73-4.58"/><path d="M65.2 27.65c1.7.3 2.96 1.6 2.96 4.1v4.53H10.2c-2.85 0-5.17-2.03-5.17-4.53s.57-3.94 3.42-3.94h0L9 29.26c-1.82 0-2.12 1.02-2.12 2.5s1.48 2.67 3.3 2.67h56.1v-2.67c0-1.47-.3-2.5-2.13-2.5m9.6 35.56H50.88c-4.48 0-8.13-3.17-8.13-7.06s3.65-7.06 8.13-7.06h22.88v2.13H50.88c-3.3 0-6 2.2-6 4.93s2.7 4.93 6 4.93h22.88v2.13z"/></g><circle cx="51.07" cy="57.75" r="1.32"/></g><path d="M18.1 25.6c-.14.01-.34.08-.52.18-.2.1-.3.33-.2.5l.3.53 1.02-.6.3 1-.8.47 1.82 3.13-1.62.95-1.82-3.13-.54.3-.52-.9.54-.3c-.1-.12-.22-.3-.3-.47-.68-1.16.32-1.92.92-2.28.5-.3.87-.44 1.32-.5l.1 1.07m8.2 1.63l-1.3-.92c-.48-.34-.63-.33-.93-.15l1.03 1.77-1.38.8-2.6-4.47 1.85-1.08c1.58-.92 2.4-.68 2.83.06.45.77.2 1.44-.4 1.9.2-.06.55.01.82.17l1.66 1-1.6.93m-2.86-3.06l-.38.22.53.9.4-.23c.47-.27.52-.55.35-.86-.2-.3-.46-.3-.9-.04zm6.72.9a5.62 5.62 0 0 1-2.21.75l-.04-1.18c.5-.04 1.17-.2 1.72-.52.54-.3.66-.6.52-.85-.12-.2-.34-.2-.75-.05l-.7.23c-.87.3-1.62.24-2.06-.53-.52-.9.02-2 1.22-2.7.75-.44 1.53-.68 2.17-.68l-.2 1.2a3.04 3.04 0 0 0-1.39.39c-.35.2-.46.46-.36.64.1.15.3.22.74.07l.6-.2c.65-.2 1.6-.48 2.13.42.62 1.07 0 2.2-1.4 3m4.37-7.36l-1.25.73 2.06 3.52-1.4.8-2.05-3.52-1.25.73-.55-.95 4.05-2.36.4 1.04"/><path d="M19.25 26.24l2.2 3.77 1.42-.83-2.7-4.67-.9 1.73m26.35 1.3l-.55.32a.73.73 0 0 1-.99-.26.73.73 0 0 1 .26-.99l.55-.32a.73.73 0 0 1 .99.26.71.71 0 0 1-.26.99zm-2.76 1.6l-.55.32a.73.73 0 0 1-.99-.26.73.73 0 0 1 .26-.99l.55-.32a.73.73 0 0 1 .99.26.73.73 0 0 1-.26.99zm-2.77 1.62l-.55.32a.73.73 0 0 1-.99-.26.73.73 0 0 1 .26-.99l.55-.32a.73.73 0 0 1 .99.26.73.73 0 0 1-.26.99zm-2.77 1.6l-.55.32a.73.73 0 0 1-.99-.26.73.73 0 0 1 .26-.99l.55-.32a.73.73 0 0 1 .99.26.73.73 0 0 1-.26.99zm-2.77 1.6l-.55.33a.73.73 0 0 1-.99-.26.73.73 0 0 1 .26-.99l.55-.32a.73.73 0 0 1 .99.26.72.72 0 0 1-.26.98zm-2.77 1.62l-.55.32a.73.73 0 0 1-.99-.26.73.73 0 0 1 .26-.99l.55-.32a.73.73 0 0 1 .99.26c.2.34.1.8-.26 1zM49.5 28.8c.1.02.17.08.22.17l1.84 3.16c.06.1.07.2.04.28a.37.37 0 0 1-.19.22c-.1.06-.2.08-.3.05-.1-.02-.17-.08-.22-.17l-.08-.13a.9.9 0 0 1-.14.53c-.1.17-.24.3-.43.4-.22.13-.45.2-.7.18s-.47-.1-.7-.24-.4-.36-.56-.63-.24-.53-.26-.8.02-.5.13-.7.28-.38.5-.5c.2-.1.37-.17.56-.17.2-.01.36.04.52.13L49 29.33c-.05-.1-.06-.18-.04-.26a.4.4 0 0 1 .19-.22c.13-.06.23-.08.32-.06zm1 3.4c.03-.2-.03-.45-.2-.72s-.33-.44-.53-.52-.4-.05-.6.07-.33.3-.37.5c-.03.2.03.45.18.7.16.27.34.44.54.52s.4.06.62-.06.33-.3.36-.5zm3.74-2.1c.06.02.12.08.16.15.06.1.05.24-.04.4a2.2 2.2 0 0 1-.3.4 1.4 1.4 0 0 1-.4.3c-.42.24-.8.3-1.2.22-.38-.1-.7-.35-.94-.77-.15-.26-.24-.53-.25-.8a1.37 1.37 0 0 1 .17-.74c.13-.22.3-.4.55-.55a1.31 1.31 0 0 1 .7-.2 1.16 1.16 0 0 1 .65.2c.2.13.38.32.53.58.1.15.07.27-.07.34l-1.56.9c.16.23.34.37.52.42s.4.01.6-.12c.1-.07.2-.14.27-.22l.23-.3c.07-.12.13-.2.18-.22.07-.03.13-.03.2-.01zm-2.3-.5c-.04.18-.01.38.1.6l1.2-.7c-.13-.2-.28-.34-.44-.4a.63.63 0 0 0-.51.07c-.17.12-.28.26-.33.43zm3.92-2.93a1.26 1.26 0 0 1 .68.23 1.87 1.87 0 0 1 .55.62c.16.27.25.53.27.8.02.26-.02.5-.13.72a1.19 1.19 0 0 1-.5.52c-.2.1-.38.17-.57.17a.98.98 0 0 1-.53-.14l.08.13c.06.1.07.2.04.28a.37.37 0 0 1-.19.22.37.37 0 0 1-.28.05c-.08-.02-.16-.08-.22-.18l-1.84-3.16c-.05-.1-.07-.18-.04-.28a.37.37 0 0 1 .19-.22.38.38 0 0 1 .28-.06c.08.02.16.07.22.16l.73 1.25c0-.2.04-.36.14-.52a1.19 1.19 0 0 1 .43-.4 1.33 1.33 0 0 1 .69-.19zm.76 1.96c.03-.22-.03-.46-.2-.73-.15-.26-.33-.43-.53-.5a.68.68 0 0 0-.6.07c-.2.12-.33.3-.36.5s.03.45.2.72.33.44.53.52.4.06.62-.07a.65.65 0 0 0 .35-.5zm-.05-3.33c-.1-.02-.2-.1-.25-.2a.36.36 0 0 1-.04-.32c.03-.1.1-.2.23-.26a.48.48 0 0 1 .34-.07c.1.02.2.1.26.2a.36.36 0 0 1 .04.32c-.03.1-.1.2-.23.26s-.24.1-.35.07zm1.9 3.13c-.1-.02-.17-.08-.23-.18l-1.2-2.04a.34.34 0 0 1-.04-.29.4.4 0 0 1 .19-.22.38.38 0 0 1 .28-.06c.08.02.17.07.23.18l1.2 2.04a.34.34 0 0 1 .04.29.37.37 0 0 1-.19.22.41.41 0 0 1-.28.06zm2.75-1.85c.05.08.05.17.01.25s-.13.16-.26.23l-.15.07c-.62.3-1.1.16-1.44-.43l-.67-1.15-.26.15c-.1.06-.18.08-.26.06-.08-.01-.14-.06-.18-.14-.05-.08-.06-.16-.03-.23s.1-.14.18-.2l.26-.15-.28-.5c-.06-.1-.07-.2-.04-.28a.42.42 0 0 1 .19-.23c.1-.06.2-.08.3-.05.1.02.17.08.22.17l.28.5.45-.26c.1-.06.18-.08.26-.06.08.01.14.06.18.14.05.08.06.16.03.23s-.1.14-.18.2l-.45.26.7 1.2c.15.26.35.33.6.2l.15-.07c.18-.1.3-.07.4.08z"/><path d="M65.38 23.38L53.95 3.75a5.81 5.81 0 0 0-7.93-2.09l-35.37 20.6a5.81 5.81 0 0 0-2.09 7.93l2.77 4.76H13l-3.2-5.5c-1.2-2.07-.5-4.75 1.57-5.96L46.74 2.9c2.07-1.2 4.75-.5 5.96 1.57L64.14 24.1c1.2 2.07.5 4.75-1.57 5.96l-8.4 4.9h2.86l6.27-3.66c2.76-1.6 3.7-5.16 2.1-7.92z" stroke="#0071ce" stroke-miterlimit="10"/></svg>