<svg xmlns="http://www.w3.org/2000/svg" xmlns:xlink="http://www.w3.org/1999/xlink" viewBox="0 0 80 80" xmlns:v="https://vecta.io/nano"><style><![CDATA[.C{stroke:#0070d0}.D{stroke-linejoin:round}.E{stroke-miterlimit:10}.F{stroke-width:2.5}.G{fill:#0070d0}.H{stroke-width:.5}]]></style><g fill="none" class="C F D"><g stroke-linecap="round" class="E"><path d="M26.9 43.2h10v10"/><path d="M36.9 43.2L25.2 54.9m27.9-11.7h-10v10"/><path d="M43.1 43.2l11.6 11.7m-1.5-17.7h-10v-10"/><path d="M43.2 37.2l11.7-11.7M27 37.2h10v-10"/><path d="M37 37.2L25.4 25.5"/></g><ellipse cx="66.1" cy="14.3" rx="12.3" ry="12.4"/></g><use xlink:href="#B" class="C E G H"/><ellipse cx="66.1" cy="66.2" rx="12.3" ry="12.4" fill="none" class="C D F"/><use xlink:href="#C" class="C E G H"/><ellipse cx="13.8" cy="14.3" rx="12.3" ry="12.4" fill="none" class="C D F"/><use xlink:href="#B" x="-52.3" class="C E G H"/><ellipse cx="13.8" cy="66.2" rx="12.3" ry="12.4" fill="none" class="C D F"/><use xlink:href="#C" x="-52.3" class="C E G H"/><defs ><path id="B" d="M68.2 17.1c-.4.4-.8.6-1.5.7v.6c0 .2-.1.3-.2.4s-.2.2-.4.2-.3-.1-.4-.2-.2-.2-.2-.4v-.5c-.4 0-.7-.1-1-.2s-.6-.3-.9-.4c-.1-.1-.2-.1-.2-.2s-.1-.2-.1-.3c0-.2.1-.3.2-.4s.2-.2.3-.2.3.1.5.2c.3.2.6.3.9.4s.6.1.8.1c.4 0 .7-.1.9-.2s.3-.4.3-.6-.1-.3-.2-.4a.76.76 0 0 0-.4-.2c-.2-.1-.4-.1-.8-.2-.5-.1-.9-.2-1.2-.4-.3-.1-.6-.3-.8-.6s-.3-.6-.3-1.1.2-1 .6-1.4.9-.6 1.5-.7v-.6c0-.2.1-.3.2-.4a.76.76 0 0 1 .4-.2c.2 0 .3.1.4.2s.2.2.2.4v.5c.6.1 1.1.3 1.7.7.1.1.2.1.2.2s.1.2.1.3c0 .2-.1.3-.2.4s-.2.2-.3.2h-.2c-.1 0-.1-.1-.3-.1-.3-.2-.5-.3-.7-.4-.3-.3-.6-.3-.9-.3-.4 0-.6.1-.8.2-.2.2-.3.4-.3.6s.1.3.2.4.3.2.5.3.5.1.8.2c.5.1.9.2 1.2.4.3.1.6.3.8.6s.3.6.3 1.1c-.1.5-.3.9-.7 1.3z"/><path id="C" d="M68.2 69c-.4.4-.8.6-1.5.7v.6c0 .2-.1.3-.2.4s-.2.2-.4.2-.3-.1-.4-.2-.2-.2-.2-.4v-.5c-.4 0-.7-.1-1-.2s-.6-.3-.9-.4c-.1-.1-.2-.1-.2-.2s-.1-.2-.1-.3c0-.2.1-.3.2-.4s.2-.2.3-.2.3.1.5.2c.3.2.6.3.9.4s.6.1.8.1c.4 0 .7-.1.9-.2s.3-.4.3-.6-.1-.3-.2-.4a.76.76 0 0 0-.4-.2c-.2-.1-.4-.1-.8-.2-.5-.1-.9-.2-1.2-.4-.3-.1-.6-.3-.8-.6s-.3-.6-.3-1.1.2-1 .6-1.4.9-.6 1.5-.7v-.6c0-.2.1-.3.2-.4a.76.76 0 0 1 .4-.2c.2 0 .3.1.4.2s.2.2.2.4v.5c.6.1 1.1.3 1.7.7.1.1.2.1.2.2s.1.2.1.3c0 .2-.1.3-.2.4s-.2.2-.3.2h-.2c-.1 0-.1-.1-.3-.1-.3-.2-.5-.3-.7-.4s-.5-.1-.8-.1c-.4 0-.6.1-.8.2-.2.2-.3.4-.3.6s.1.3.2.4.3.2.5.3.5.1.8.2c.5.1.9.2 1.2.4.3.1.6.3.8.6s.3.6.3 1.1c-.2.3-.4.7-.8 1.1z"/></defs></svg>