<?xml version="1.0" encoding="utf-8"?>
<!-- Generator: Adobe Illustrator 24.3.0, SVG Export Plug-In . SVG Version: 6.00 Build 0)  -->
<svg version="1.1" id="Layer_1" xmlns="http://www.w3.org/2000/svg" xmlns:xlink="http://www.w3.org/1999/xlink" x="0px" y="0px"
	 viewBox="0 0 80 80" style="enable-background:new 0 0 80 80;" xml:space="preserve">
<style type="text/css">
	.st0{fill:none;stroke:#0071CE;stroke-width:2.5;stroke-linecap:round;stroke-linejoin:round;stroke-miterlimit:10;}
	.st1{fill:#0071CE;}
	.st2{fill:#2A6FB6;}
</style>
<g>
	<g>
		<path class="st0" d="M17.8,12.7V9.4c0-4.3,3.5-7.9,7.9-7.9h28.7c4.3,0,7.9,3.5,7.9,7.9v51"/>
		<path class="st0" d="M62.2,65.8v4.8c0,4.3-3.5,7.9-7.9,7.9H25.6c-4.3,0-7.9-3.5-7.9-7.9V19.9"/>
		<line class="st0" x1="17.8" y1="12.7" x2="55.6" y2="12.7"/>
		<line class="st0" x1="24" y1="65.8" x2="62.2" y2="65.8"/>
		<circle class="st1" cx="40" cy="7.5" r="1.4"/>
		<circle class="st1" cx="40.2" cy="72.1" r="2.9"/>
	</g>
	<g>
		<g>
			<path class="st2" d="M51.8,39C51.8,39,51.8,39,51.8,39c0-0.1,0-0.1,0-0.2c0,0-0.1,0-0.1,0h-0.1V39L51.8,39
				C51.7,39,51.8,39,51.8,39z"/>
		</g>
		<g>
			<g>
				<path class="st0" d="M37.2,31.8c4.7,0,13.2,0,13.2,0s3.2-0.2,3.2,2.6v1.7"/>
				<path class="st0" d="M23.6,36.1v19.2c0,1.7,1.6,3.1,3.6,3.1h25.7c2,0,3.6-1.4,3.6-3.1V40.4c0-1.7-1.6-3.1-3.6-3.1h-2.1H24.9
					C24.1,37.3,23.6,36.8,23.6,36.1c0-4.5,4.2-4.2,4.7-4.2c0.2,0,1.3,0,1.3,0"/>
				<path class="st0" d="M55.9,51.7h-7.5c-2.1,0-4-1.5-4-3.3c0-1.8,1.8-3.3,4-3.3h7.5"/>
			</g>
		</g>
		<rect x="30.3" y="27.3" class="st0" width="6.2" height="6.2"/>
		<rect x="39.9" y="21.8" class="st0" width="3.3" height="3.3"/>
		<rect x="33.3" y="20.5" class="st1" width="2.5" height="2.5"/>
		<rect x="39.5" y="17.3" class="st1" width="1.4" height="1.4"/>
	</g>
</g>
</svg>
