<svg xmlns="http://www.w3.org/2000/svg" viewBox="0 0 80 80" fill="none" stroke="#0070d0" stroke-width="2.5" stroke-linejoin="round" stroke-miterlimit="10" xmlns:v="https://vecta.io/nano"><path d="M39.9 17h-.2c-11.9.1-21.5 9.8-21.5 21.8 0 5.6 2.2 10.9 6.1 14.9 1.9 2 3.2 4.6 3.7 7.4.5 3.1 3.1 5.4 6.3 5.4h11.4c3.1 0 5.8-2.3 6.3-5.4a13.09 13.09 0 0 1 3.7-7.4c8.3-8.6 8.1-22.3-.5-30.6-4.1-3.9-9.6-6.1-15.3-6.1zm3.8 21.1c0-2-1.6-3.7-3.7-3.7-2 0-3.7 1.6-3.7 3.7 0 2 1.6 3.7 3.7 3.7 2-.1 3.7-1.7 3.7-3.7zm6.5 2.7l-2-1.8c0-.4.1-.9 0-1.4v-.5l2.1-1.8s.1-.1.1-.2c.1-.1.1-.2.2-.3v-.1c0-.2 0-.3-.1-.5h0v-.1l-1-1.7-.9-1.4c-.2-.4-.7-.5-1.1-.4l-2.6.9s-.1 0-.1-.1c-.3-.2-.7-.5-1-.6h-.2c-.1 0-.2-.1-.3-.2l-.5-2.4c0-.3-.1-.6-.4-.8-.1-.1-.2-.1-.4-.2-.1 0-.1-.1-.1-.1h0-3.6c-.4 0-.8.3-.9.7l-.5 2.7c-.5.2-1 .5-1.6.9l-2.6-.9c-.4-.1-.9 0-1.1.4h0l-.8 1.5-.9 1.7c-.2.4-.1.9.2 1.1l2.1 1.8c-.1.5-.1 1.1 0 1.8l-2.1 1.8c-.3.3-.4.8-.2 1.1h0l1 1.6.8 1.5c.2.4.7.5 1.1.4l2.6-.9c.5.3 1 .7 1.6.9l.5 2.7c.1.4.5.7.9.7H42c.4 0 .8-.3.9-.7l.5-2.7a7.42 7.42 0 0 0 1.5-.8l.1-.1 2.6.9c.4.1.9 0 1.1-.4h0l.7-1.3 1.1-1.8c.2-.2.1-.6-.3-.9z"/><path d="M31.9 70.3h16.3m-14.7 4.1h13m-9.2 4.1h5.4M40 11.6V1.5m11.6 12.6l5.8-8.3m-34.8 0l5.8 8.3m34.3 7.7l8-6.1m-61.4 0l8.1 6.1" stroke-linecap="round"/></svg>