<svg xmlns="http://www.w3.org/2000/svg" viewBox="0 0 80 80" xmlns:v="https://vecta.io/nano"><style><![CDATA[.D{stroke-linecap:round}.E{stroke-miterlimit:10}]]></style><g fill="none" stroke="#0070d0" stroke-width="2.5"><path d="M3.1 64.3V8.6" class="D E"/><ellipse cx="28.2" cy="8.6" rx="25.1" ry="6.3"/><path d="M53.4 8.6v24.5M31.2 50.7l-2.9.1c-13.9 0-25.1-1.9-25.1-4.2m50.2-19.9c0 2.3-11.3 4.2-25.1 4.2S3.1 29 3.1 26.7m34.7 43.2c-3.2.4-5.8.6-9.6.6-13.9 0-25.1-2.8-25.1-6.3" class="D E"/><circle cx="54.6" cy="55.4" r="22.3"/></g><path d="M60.5 61.5c-.8.8-1.9 1.3-3.3 1.6v1.2c0 .4-.1.7-.4.9-.2.2-.6.4-.9.4-.4 0-.7-.1-.9-.4-.2-.2-.4-.6-.4-.9v-1.2c-.8-.1-1.6-.2-2.3-.5s-1.4-.6-2-1c-.2-.1-.4-.3-.5-.5s-.1-.4-.1-.7a1.69 1.69 0 0 1 .3-1c.2-.3.5-.4.8-.4s.6.1 1 .3c.7.4 1.3.7 1.9.9s1.2.3 1.9.3c.9 0 1.5-.2 2-.5s.7-.8.7-1.4c0-.4-.1-.7-.4-.9s-.6-.4-1-.5l-1.7-.5-2.7-.8c-.7-.3-1.3-.7-1.8-1.3s-.8-1.4-.8-2.4c0-1.2.4-2.2 1.3-3 .8-.8 1.9-1.4 3.3-1.6v-1.2c0-.4.1-.7.4-.9.2-.2.6-.4.9-.4.4 0 .7.1.9.4.2.2.4.6.4.9v1.2c1.3.2 2.5.7 3.7 1.5.2.1.4.3.5.5s.1.4.1.7a1.69 1.69 0 0 1-.3 1c-.2.3-.5.4-.8.4-.2 0-.3 0-.4-.1-.1 0-.3-.1-.6-.3-.6-.4-1.1-.7-1.6-.8-.5-.2-1-.3-1.7-.3-.8 0-1.4.2-1.9.5s-.7.8-.7 1.4c0 .4.1.7.4 1s.6.5 1 .6l1.8.5 2.6.8c.7.3 1.3.7 1.7 1.3.5.6.7 1.4.7 2.4.1 1-.3 2-1.1 2.8z" fill="#0070d0"/><g fill="none" stroke="#0070d0" stroke-width="2.5" stroke-linejoin="round" class="D E"><path d="M59.6 15.2l7.9-11.5v32.7"/><path d="M75.5 15.2l-8-11.5v32.7"/></g></svg>