<svg xmlns="http://www.w3.org/2000/svg" xmlns:xlink="http://www.w3.org/1999/xlink" viewBox="0 0 80 80" xmlns:v="https://vecta.io/nano"><defs><path id="A" d="M39.1 25.5c-2 0-3.7.8-3.7 1.8s1.6 1.8 3.7 1.8c2 0 3.7-.8 3.7-1.8s-1.7-1.8-3.7-1.8"/></defs><use xlink:href="#A" fill-rule="evenodd" fill="#0070d0"/><g fill="none" stroke="#0070d0" stroke-width="2.5"><g stroke-linecap="round" stroke-linejoin="round" stroke-miterlimit="10"><path d="M52.8 40.1l-7.3 2.8c-2.7 1.2-6.1 1.2-9.2.1l-32-11.7c-3.8-1.4-3.9-6.7-.1-8.1l29.9-11.5c3-1.2 6.4-1.2 9.5-.1l32 11.7c3.8 1.4 3.9 6.7-.2 8.1L62 36.6m5.5 5.4v14.7C66 58 64.1 59.3 62 60.4"/><path d="M12.5 42v14.7c6.4 5.7 18.4 9.2 27.5 9.2 3.4 0 7.2-.5 11-1.4m11-27.9v25.5M39.1 27.3L62 36.6"/></g><circle cx="62" cy="65.8" r="3.7" stroke-linejoin="round"/></g></svg>