<?xml version="1.0" encoding="utf-8"?>
<!-- Generator: Adobe Illustrator 25.0.1, SVG Export Plug-In . SVG Version: 6.00 Build 0)  -->
<svg version="1.1" id="Layer_1" xmlns:v="https://vecta.io/nano"
	 xmlns="http://www.w3.org/2000/svg" xmlns:xlink="http://www.w3.org/1999/xlink" x="0px" y="0px" viewBox="0 0 80 80"
	 style="enable-background:new 0 0 80 80;" xml:space="preserve">
<style type="text/css">
	.st0{fill:none;stroke:#0070D0;stroke-width:2.5;stroke-linecap:round;stroke-linejoin:round;stroke-miterlimit:10;}
	.st1{fill:#0070D0;}
</style>
<g>
	<path class="st0" d="M73.4,64.9H6.7c-2.4,0-4.4-2-4.4-4.4l-0.1-41c0-2.4,2-4.4,4.4-4.4h66.7c2.4,0,4.4,2,4.4,4.4l0.1,41
		C77.8,62.9,75.8,64.9,73.4,64.9z"/>
	<path class="st0" d="M76.9,16.8L43.7,47.1c-2.2,1.5-5.1,1.5-7.3,0L3.2,16.8"/>
</g>
<path class="st1" d="M33.8,38.3c-1.6-0.8-2.7-2-3.6-3.4c-0.8-1.5-1.2-3.2-1.2-5.1c0-2.2,0.4-4.1,1.3-5.6s2.1-2.7,3.7-3.6
	c1.6-0.8,3.3-1.2,5.3-1.2s3.8,0.4,5.2,1.1c1.5,0.7,2.6,1.7,3.3,3c0.8,1.3,1.2,2.8,1.2,4.5c0,1.3-0.2,2.4-0.6,3.4
	c-0.3,0.9-0.9,1.6-1.7,2.2c-0.7,0.5-1.6,0.8-2.6,0.8c-0.8,0-1.5-0.2-2-0.5s-0.9-0.8-1-1.4l0,0c-0.4,0.6-0.9,1.1-1.4,1.4
	s-1.1,0.5-1.9,0.5c-1.2,0-2.1-0.4-2.8-1.2c-0.6-0.8-1-1.8-1-3.1c0-1.1,0.2-2.1,0.6-3s1-1.6,1.7-2.1s1.6-0.8,2.5-0.8
	c0.6,0,1.1,0.1,1.6,0.3c0.4,0.2,0.8,0.6,1,1h0.1c0.1-0.3,0.2-0.6,0.5-0.8c0.3-0.2,0.6-0.3,1-0.3c0.4,0,0.7,0.1,1,0.4
	c0.3,0.3,0.4,0.6,0.4,1v0.4l-0.6,3.3c-0.1,0.5-0.1,0.9-0.1,1.2c0,0.4,0.1,0.8,0.2,1c0.2,0.2,0.4,0.3,0.8,0.3c0.2,0,0.5-0.1,0.8-0.4
	s0.5-0.7,0.6-1.3c0.2-0.6,0.3-1.4,0.3-2.4c0-2-0.6-3.5-1.8-4.6s-3-1.6-5.2-1.6c-1.4,0-2.7,0.3-3.9,0.9s-2,1.5-2.6,2.7S32,28,32,29.6
	c0,1.5,0.3,2.8,0.9,3.9s1.4,2,2.5,2.6s2.4,0.9,4,0.9c0.9,0,1.7-0.1,2.4-0.2c0.7-0.2,1.4-0.4,2.1-0.8c0.3-0.1,0.5-0.2,0.7-0.2
	c0.3,0,0.6,0.1,0.9,0.4c0.2,0.2,0.4,0.5,0.4,0.9s-0.2,0.8-0.6,1.1c-0.6,0.4-1.4,0.7-2.4,0.9c-1,0.3-2.1,0.4-3.3,0.4
	C37.2,39.6,35.4,39.1,33.8,38.3z M40.4,31c0.5-0.7,0.7-1.6,0.7-2.5c0-0.6-0.1-1.1-0.4-1.4s-0.7-0.5-1.2-0.5c-0.8,0-1.4,0.4-1.8,1.1
	s-0.6,1.6-0.6,2.5c0,0.6,0.1,1,0.4,1.4c0.2,0.4,0.6,0.5,1.1,0.5C39.3,32.1,40,31.8,40.4,31z"/>
</svg>
