<?xml version="1.0" encoding="utf-8"?>
<!-- Generator: Adobe Illustrator 24.3.0, SVG Export Plug-In . SVG Version: 6.00 Build 0)  -->
<svg version="1.1" id="Layer_1" xmlns="http://www.w3.org/2000/svg" xmlns:xlink="http://www.w3.org/1999/xlink" x="0px" y="0px"
	 viewBox="0 0 80 80" style="enable-background:new 0 0 80 80;" xml:space="preserve">
<style type="text/css">
	.st0{fill:none;stroke:#0072CE;stroke-width:2.5;stroke-linecap:round;stroke-linejoin:round;stroke-miterlimit:10;}
	.st1{fill:#0071CE;}
</style>
<g>
	<path class="st0" d="M62.7,78.3H17.3c-4.2,0-7.6-3.4-7.6-7.6V9.4c0-4.2,3.4-7.6,7.6-7.6h45.4c4.2,0,7.6,3.4,7.6,7.6v61.2
		C70.4,74.8,66.9,78.3,62.7,78.3z"/>
	<line class="st0" x1="20" y1="37.5" x2="60.3" y2="37.5"/>
	<line class="st0" x1="20" y1="47.8" x2="60.3" y2="47.8"/>
	<line class="st0" x1="20" y1="58.1" x2="60.3" y2="58.1"/>
	<line class="st0" x1="20" y1="68.5" x2="60.3" y2="68.5"/>
	<g>
		<path class="st1" d="M18.7,24.8c-0.2-0.2-0.3-0.5-0.3-0.8v-7.1c0-0.4,0.1-0.6,0.3-0.8c0.2-0.2,0.5-0.3,0.8-0.3h4.6
			c0.4,0,0.7,0.1,0.9,0.2c0.2,0.2,0.3,0.4,0.3,0.7c0,0.6-0.4,1-1.2,1h-3.3v1.8h3.1c0.8,0,1.2,0.3,1.2,0.9c0,0.3-0.1,0.5-0.3,0.7
			c-0.2,0.2-0.5,0.2-0.9,0.2h-3.1v1.9h3.3c0.8,0,1.2,0.3,1.2,1c0,0.3-0.1,0.5-0.3,0.7c-0.2,0.2-0.5,0.2-0.9,0.2h-4.6
			C19.2,25.1,18.9,25,18.7,24.8z"/>
		<path class="st1" d="M27.7,25c-0.6-0.2-1.1-0.4-1.5-0.6c-0.2-0.1-0.3-0.2-0.3-0.4c-0.1-0.1-0.1-0.3-0.1-0.5c0-0.3,0.1-0.5,0.2-0.7
			c0.2-0.2,0.3-0.3,0.6-0.3c0.1,0,0.2,0,0.3,0.1c0.1,0,0.2,0.1,0.4,0.2c0.4,0.2,0.7,0.3,1.1,0.4c0.4,0.1,0.8,0.1,1.2,0.1
			c0.5,0,0.9-0.1,1.2-0.2c0.3-0.2,0.4-0.4,0.4-0.7c0-0.2-0.1-0.4-0.4-0.5c-0.3-0.1-0.7-0.3-1.4-0.4c-0.9-0.2-1.6-0.4-2.1-0.7
			c-0.5-0.3-0.8-0.6-1-0.9c-0.2-0.3-0.3-0.8-0.3-1.3c0-0.6,0.2-1.1,0.5-1.5c0.3-0.5,0.8-0.8,1.4-1.1c0.6-0.3,1.2-0.4,2-0.4
			c0.6,0,1.2,0.1,1.7,0.2c0.5,0.1,1,0.4,1.4,0.7c0.2,0.1,0.3,0.2,0.3,0.4c0.1,0.1,0.1,0.3,0.1,0.5c0,0.3-0.1,0.5-0.2,0.7
			c-0.2,0.2-0.3,0.3-0.5,0.3c-0.1,0-0.2,0-0.3,0s-0.2-0.1-0.4-0.2c0,0-0.2-0.1-0.4-0.2s-0.5-0.2-0.7-0.3c-0.3-0.1-0.6-0.1-0.9-0.1
			c-0.5,0-0.8,0.1-1.1,0.3c-0.3,0.2-0.4,0.4-0.4,0.7c0,0.2,0,0.3,0.1,0.4s0.3,0.2,0.5,0.3c0.3,0.1,0.7,0.2,1.2,0.3
			c0.8,0.2,1.5,0.4,2,0.7c0.5,0.3,0.8,0.6,1,0.9c0.2,0.3,0.3,0.8,0.3,1.2c0,0.6-0.2,1.1-0.5,1.5c-0.3,0.4-0.8,0.8-1.4,1
			c-0.6,0.2-1.3,0.4-2,0.4C29,25.2,28.3,25.1,27.7,25z"/>
		<path class="st1" d="M36.9,24.6c-0.7-0.4-1.2-0.9-1.6-1.7c-0.4-0.7-0.6-1.6-0.6-2.5s0.2-1.8,0.6-2.5s0.9-1.3,1.6-1.7
			c0.7-0.4,1.5-0.6,2.5-0.6s1.8,0.2,2.5,0.6c0.7,0.4,1.2,0.9,1.6,1.7c0.4,0.7,0.6,1.6,0.6,2.5s-0.2,1.8-0.6,2.5
			c-0.4,0.7-0.9,1.3-1.6,1.7c-0.7,0.4-1.5,0.6-2.5,0.6C38.4,25.2,37.6,25,36.9,24.6z M41.1,22.6c0.4-0.5,0.6-1.2,0.6-2.2
			s-0.2-1.7-0.6-2.2s-1-0.7-1.6-0.7c-0.7,0-1.3,0.2-1.7,0.7c-0.4,0.5-0.6,1.2-0.6,2.2s0.2,1.7,0.6,2.2c0.4,0.5,0.9,0.7,1.7,0.7
			S40.7,23.1,41.1,22.6z"/>
		<path class="st1" d="M45.8,24.8c-0.2-0.2-0.3-0.5-0.3-0.9v-7.1c0-0.4,0.1-0.6,0.3-0.8c0.2-0.2,0.5-0.3,0.8-0.3H50
			c1,0,1.8,0.3,2.4,0.8c0.6,0.5,0.9,1.3,0.9,2.2c0,0.9-0.3,1.7-0.9,2.2c-0.6,0.5-1.4,0.8-2.4,0.8h-2.1V24c0,0.4-0.1,0.7-0.3,0.9
			c-0.2,0.2-0.5,0.3-0.9,0.3C46.3,25.2,46,25.1,45.8,24.8z M49.7,19.9c0.5,0,0.8-0.1,1-0.3c0.2-0.2,0.3-0.5,0.3-0.9
			c0-0.8-0.4-1.2-1.3-1.2h-1.7v2.3H49.7z"/>
	</g>
</g>
</svg>
