<svg xmlns="http://www.w3.org/2000/svg" viewBox="0 0 80 80" xmlns:v="https://vecta.io/nano"><g fill="none" stroke="#0071ce" stroke-width="2.5" stroke-linecap="round" stroke-miterlimit="10"><path d="M17.7 12.7V9.4a7.92 7.92 0 0 1 7.9-7.9h28.7a7.92 7.92 0 0 1 7.9 7.9v51m0 5.4v4.8a7.92 7.92 0 0 1-7.9 7.9H25.6a7.92 7.92 0 0 1-7.9-7.9V17.3"/><path d="M17.7 12.7h37.8M23.9 65.8h38.3"/></g><g fill="#0071ce"><circle cx="39.9" cy="7.5" r="1.4"/><circle cx="40.2" cy="72.1" r="2.9"/></g><g fill="none" stroke="#0071ce" stroke-width="2.5" stroke-linecap="round" stroke-miterlimit="10"><path d="M32.5 21.4v6.3h-6.7" stroke-linejoin="round"/><path d="M55 52.6v5.6c0 .5-.4.9-.9.9H26.3c-.5 0-.9-.4-.9-.9V26.7c0-.2.1-.5.3-.6l5.1-4.7c.2-.1.4-.2.6-.2h22.7c.5 0 .9.4.9.9v30.5"/><path d="M31.3 43.3h17.9m-17.9 5.3h17.9m-17.9 5.2h17.9"/></g><path d="M46.7 36c-.5.5-1.1.8-1.9.9v.7c0 .2-.1.4-.2.5s-.3.2-.5.2-.4-.1-.5-.2-.2-.3-.2-.5v-.7c-.5 0-.9-.1-1.3-.3-.4-.1-.8-.3-1.1-.6l-.3-.3c-.1-.1-.1-.2-.1-.4s.1-.4.2-.6.3-.2.4-.2c.2 0 .4.1.6.2l1.1.5c.3.1.7.2 1.1.1.5 0 .9-.1 1.2-.3s.4-.5.4-.8c0-.2-.1-.4-.2-.5-.2-.1-.3-.2-.6-.3-.2-.1-.6-.2-1-.3-.6-.2-1.1-.3-1.5-.5s-.8-.4-1-.7c-.3-.3-.4-.8-.4-1.4 0-.7.2-1.3.7-1.8s1.1-.8 1.9-.9v-.7c0-.2.1-.4.2-.5s.3-.2.5-.2.4.1.5.2.2.3.2.5v.7c.8.1 1.5.4 2.1.8l.3.3c.1.1.1.2.1.4s-.1.4-.2.6-.3.2-.4.2h-.3c-.1 0-.2-.1-.3-.2-.3-.2-.7-.4-.9-.5-.3-.1-.6-.2-1-.2-.5 0-.8.1-1.1.3s-.4.5-.4.8c0 .2.1.4.2.6.2.1.4.3.6.3.2.1.6.2 1 .3.6.1 1.1.3 1.5.4.4.2.7.4 1 .7s.4.8.4 1.4c-.1 1-.3 1.6-.8 2z" fill="#0070d0"/></svg>