<svg xmlns="http://www.w3.org/2000/svg" viewBox="0 0 80 80" fill="#0070d0" xmlns:v="https://vecta.io/nano"><path d="M42 55.7V42.4c0-2.4-2-4.4-4.4-4.4H22.8c-2.4 0-4.4 2-4.4 4.4v13.3c0 2.1 1.2 4.6 4.6 5.1v9.8c0 2.5 2 4.4 4.4 4.4 1 0 2-.4 2.8-1 .8.6 1.7 1 2.8 1 2.4 0 4.4-2 4.4-4.4v-9.8c3.4-.5 4.6-3 4.6-5.1zm-7.2 14.9a1.79 1.79 0 0 1-1.8 1.8c-.6 0-1.1-.3-1.5-.8V61c0-.7-.6-1.3-1.3-1.3s-1.3.6-1.3 1.3v10.6c-.3.5-.9.8-1.5.8a1.79 1.79 0 0 1-1.8-1.8V45.5c0-.7-.6-1.3-1.3-1.3s-1.3.6-1.3 1.3v12.6c-1.5-.4-1.9-1.5-1.9-2.4V42.4a1.79 1.79 0 0 1 1.8-1.8h14.8a1.79 1.79 0 0 1 1.8 1.8v13.3c0 .9-.4 2-1.9 2.4V45.5c0-.7-.6-1.3-1.3-1.3s-1.3.6-1.3 1.3v25.1zm-4.6-34.2c3.5 0 6.4-2.9 6.4-6.4s-2.9-6.4-6.4-6.4-6.4 2.9-6.4 6.4 2.9 6.4 6.4 6.4zm0-10.2a3.8 3.8 0 0 1 0 7.6 3.8 3.8 0 0 1 0-7.6zM18.6 72.3c-1 0-1.8-.5-2.3-1.3V48.3c0-.7-.6-1.3-1.3-1.3s-1.3.6-1.3 1.3V71c-.5.8-1.3 1.3-2.3 1.3a2.69 2.69 0 0 1-2.7-2.7V31.9c0-.7-.6-1.3-1.3-1.3s-1.3.6-1.3 1.3v16.8c-2.8-.5-3.3-2.4-3.3-3.6V27.9a2.69 2.69 0 0 1 2.7-2.7h16.1c.8 0 1.4-.6 1.4-1.3s-.6-1.3-1.3-1.3H5.6C2.6 22.6.2 25 .2 28v17.2c0 2.7 1.6 5.8 5.9 6.3v18.3c0 3 2.4 5.4 5.4 5.4 1.4 0 2.7-.5 3.6-1.4 1 .9 2.2 1.4 3.6 1.4.7 0 1.3-.6 1.3-1.3 0-1-.6-1.6-1.4-1.6zM15 19.8c3.6 0 6.6-2.9 6.6-6.6 0-3.6-2.9-6.6-6.6-6.6-3.6 0-6.6 2.9-6.6 6.6 0 3.6 3 6.6 6.6 6.6zm0-10.5c2.2 0 3.9 1.8 3.9 3.9 0 2.2-1.8 3.9-3.9 3.9-2.2 0-3.9-1.8-3.9-3.9A3.84 3.84 0 0 1 15 9.3zm30.3 10.5c3.6 0 6.6-2.9 6.6-6.6 0-3.6-2.9-6.6-6.6-6.6-3.6 0-6.6 2.9-6.6 6.6.1 3.6 3 6.6 6.6 6.6zm0-10.5c2.2 0 3.9 1.8 3.9 3.9 0 2.2-1.8 3.9-3.9 3.9-2.2 0-3.9-1.8-3.9-3.9 0-2.2 1.8-3.9 3.9-3.9zm34.5 49.2c0-9-5.5-14.3-14.6-14.3-.7 0-1.3.6-1.3 1.3v11.7h-3.1c0-.1 0-.3-.1-.4L59 53.1c1.7-.8 2.9-1.9 3.4-3.3.6-1.5.4-3.3-.4-5l-2.6-5.1V27.9c0-3-2.4-5.4-5.4-5.4H38.7c-.7 0-1.3.6-1.3 1.3s.6 1.3 1.3 1.3H54a2.69 2.69 0 0 1 2.7 2.7V40c0 .2 0 .4.1.6l2.8 5.4c.4.7.7 1.8.3 2.7-.3.9-1.2 1.5-2.1 1.9l-4.6-10v-8.8c0-.7-.6-1.3-1.3-1.3s-1.3.6-1.3 1.3V41c0 .2 0 .4.1.6l7.2 15.6h-7c-.4 0-.8.2-1.1.6s-.3.8-.2 1.2l2.5 6.8c-.9 1-1.5 2.4-1.5 3.8 0 .7.1 1.3.4 1.9-.5.6-1.2.9-2 .9-1 0-1.8-.5-2.3-1.3V57.3c0-.7-.6-1.3-1.3-1.3s-1.3.6-1.3 1.3V71c-.5.8-1.3 1.3-2.3 1.3-.7 0-1.3.6-1.3 1.3s.6 1.3 1.3 1.3c1.4 0 2.7-.5 3.6-1.4 1 .9 2.2 1.4 3.6 1.4 1.3 0 2.5-.5 3.5-1.3 1 .9 2.3 1.5 3.8 1.5 2.6 0 4.9-1.8 5.5-4.3h5c.6 2.5 2.8 4.3 5.5 4.3a5.59 5.59 0 0 0 5.6-5.6c0-1.2-.3-2.2-.9-3.1l2.8-7.5c-.1-.1 0-.3 0-.4zm-2.7-1.4H66.5V46.9c6.4.4 10.1 4 10.6 10.2zm-11.9 2.7h11.3l-1.8 4.7c-.8-.4-1.6-.6-2.6-.6-2.6 0-4.9 1.8-5.5 4.3h-5c-.6-2.5-2.8-4.3-5.5-4.3-.6 0-1.2.1-1.8.3l-1.6-4.4h12.5zm-9 12.7a3.01 3.01 0 0 1-3-3 3.01 3.01 0 0 1 3-3 3.01 3.01 0 0 1 3 3c0 1.7-1.3 3-3 3zm16 0a3.01 3.01 0 0 1-3-3 3.01 3.01 0 0 1 3-3 3.01 3.01 0 0 1 3 3c-.1 1.7-1.4 3-3 3z"/></svg>