<svg xmlns="http://www.w3.org/2000/svg" width="82" height="22" viewBox="0 0 82 22">
    <path d="M57.94 8.287l.004 1.754 2.974-.005.004 2.298-2.974.005.007 4.093-2.722.005-.018-10.44 6.003-.01.004 2.294-3.281.006m24.022 1.165c-.571-.736-1.453-1.16-2.381-1.142-1.665.003-2.79 1.281-2.787 2.89.003 1.655 1.15 2.836 2.837 2.833.9-.012 1.752-.413 2.336-1.102l.006 3.26c-.896.257-1.548.484-2.392.486-1.453 0-2.854-.55-3.923-1.541-1.159-1.038-1.687-2.392-1.69-3.938-.012-1.424.537-2.796 1.529-3.813 1.053-1.068 2.482-1.677 3.978-1.694.852.001 1.696.173 2.481.506l.005 3.256m-20.28-3.466l3.855-.007c2.904-.004 5.314 2.283 5.319 5.22.005 2.923-2.406 5.215-5.3 5.22l-3.857.006-.017-10.439m2.722 8.128h.608c1.625-.003 3.014-.883 3.01-2.91-.003-1.88-1.243-2.933-2.989-2.93l-.64.001.01 5.84zm9.42 2.32l-2.983.006-.018-10.561 2.982-.005.018 10.56zM7.478 9.126l-.007-3.786 1.897-.003.001.555-1.22.002.002.96 1.122-.002v.555l-1.121.001.002 1.158 1.22-.002.001.56-1.897.002m3.513-.635l.13.137c-.053.012-.108.019-.162.022-.466 0-.5-.517-.5-.823l-.002-1.052c0-.303-.042-.955.497-.956.515-.001.482.651.483.955l-.009 1.05c.004.126-.007.252-.034.374l-.033-.034-.37.327m1.32.664l-.377-.392c.17-.292.195-.807.194-1.292l-.001-.547c-.032-.962-.104-1.691-1.174-1.69-1.086.002-1.16.731-1.183 1.694v.548c.002 1.006.074 1.746 1.19 1.744.215.013.431-.026.63-.114l.374.38.348-.331zm1.95-3.826l.673-.001.005 2.642c0 .84-.261 1.244-1.133 1.245-.895.002-1.16-.402-1.162-1.242l-.004-2.641.681-.002.006 2.587c0 .362.016.728.484.728.437-.001.456-.367.455-.73l-.004-2.586m2.155 1.195c.036-.174.046-.344.072-.524 0-.087.008-.173.024-.257.013.085.02.17.022.256.012.177.037.352.073.525l.18 1.073-.578.001.207-1.074m-.486 2.588l.18-.956.794-.001.18.955.715-.002-.823-3.784-.908.002-.857 3.787.719-.001zm2.143-.004l-.006-3.786h.672l.006 3.226 1.26-.003.001.56-1.933.003M.737 11.84c0-.289-.047-.955.484-.956.497 0 .484.674.485.976l.002.982c0 .353-.012.881-.482.882-.457 0-.486-.518-.487-.832L.737 11.84m-.694.7c.001 1.015.078 1.753 1.184 1.751 1.105-.002 1.17-.74 1.169-1.755L2.395 12c-.02-.97-.1-1.69-1.175-1.689-1.083.002-1.149.723-1.178 1.693v.536zm3.55-1.578H3.9c.388-.001.546.065.546.502 0 .448-.193.589-.494.59h-.356l-.002-1.092m.006 3.234l-.003-1.592h.448c.27.019.537-.06.753-.223.265-.212.34-.583.34-.896-.001-.536-.2-1.081-.848-1.08l-1.373.002.007 3.79h.676zm2.574-3.239h.303c.383 0 .554.066.555.502.001.448-.203.59-.495.59h-.361l-.002-1.092m.005 3.234l-.002-1.591.448-.001c.273.016.543-.062.764-.223.25-.212.328-.583.327-.896 0-.536-.191-1.08-.839-1.08l-1.381.003.006 3.79.677-.002zm1.87-1.665c.002 1.015.076 1.753 1.187 1.752 1.097-.002 1.18-.74 1.178-1.756v-.536c-.037-.97-.112-1.69-1.185-1.689-1.083.002-1.156.723-1.18 1.693v.536m.687-.7c0-.289-.036-.955.493-.956.49 0 .488.674.489.977l.002.982c0 .352-.006.88-.486.881-.471.001-.497-.518-.497-.832l-.001-1.052zm2.861.72l.003 1.637h-.676l-.006-3.789 1.277-.002c.579 0 1.029.205 1.03.905 0 .415-.11.859-.563.915v.012c.403.055.53.319.53.684 0 .153-.024 1.095.143 1.197v.075h-.744c-.076-.236-.07-.712-.073-.96-.004-.229 0-.556-.235-.628-.186-.04-.377-.055-.567-.047h-.12m0-.55h.52c.227-.016.4-.175.4-.545-.001-.426-.175-.503-.429-.503h-.493l.002 1.048zm1.847-1.05l.788-.001.005 3.234.676-.001-.006-3.235h.779l-.001-.556-2.242.004v.555m4.17 2.02c0 .363-.02.731-.456.732-.459 0-.478-.367-.478-.73l-.005-2.582h-.677L16 13.025c.001.841.257 1.243 1.156 1.241.877-.001 1.138-.404 1.137-1.245l-.005-2.637-.681.001.004 2.583m2.835-2.588l.68-.001.007 3.79-.705.001-.526-1.356c-.199-.488-.36-.99-.484-1.502h-.013c.02.314.058.694.08 1.084.013.384.026.754.027 1.062v.713l-.664.002-.006-3.79.696-.001.525 1.384c.192.489.355.989.489 1.497-.022-.34-.04-.713-.067-1.08-.02-.367-.037-.715-.038-1.058l-.001-.745m2.237.551l.786-.001.005 3.234h.675l-.006-3.235.79-.002v-.555l-2.251.004v.555m3.405.428c.076.187.127.384.151.585h.02c.047-.246.119-.487.214-.718l.321-.857h.736l-.955 2.177.002 1.614h-.667l-.002-1.613-.937-2.174.729-.001.387.987M8.15 19.251l-.001-.561-1.249.002-.005-3.231h-.678l.007 3.793 1.926-.003m.371 0l-.006-3.793 1.897-.003.001.556-1.224.002.001.953 1.123-.002.001.553-1.123.002.002 1.17 1.225-.003v.562l-1.896.003m3.935-3.058c0 .34.016.698.037 1.064.02.368.04.723.066 1.08h-.009c-.173-.618-.316-1.07-.482-1.513l-.53-1.37h-.697l.006 3.793.672-.001-.001-.719c0-.302-.01-.684-.04-1.055-.015-.388-.037-.773-.068-1.086h.008c.132.51.292 1.012.48 1.504l.536 1.354.7-.001-.006-3.793-.674.001v.741m1.935 2.487l-.004-2.675.438-.001c.402 0 .492.35.494 1.237.002 1.106-.04 1.438-.633 1.439h-.294m.567.56c.174.01.348-.025.506-.098.548-.352.547-1.202.545-1.96 0-.627-.041-1.043-.197-1.314-.145-.254-.41-.413-.701-.42l-1.405.002.007 3.792 1.245-.002zm3.458-.006v-.561l-1.225.002-.002-1.17 1.122-.002-.001-.553-1.122.002-.001-.953 1.224-.002-.001-.556-1.903.004.007 3.792 1.902-.003m1.216-1.643c.192-.009.384.008.573.049.23.073.226.401.232.63.007.248-.01.715.07.96l.746-.001v-.082c-.162-.112-.149-1.036-.15-1.187 0-.371-.12-.63-.518-.695v-.002c.446-.072.554-.506.553-.92-.001-.699-.444-.906-1.029-.905l-1.277.002.007 3.793.67-.001-.002-1.64h.124m-.126-1.597h.504c.256 0 .424.067.425.492 0 .382-.17.54-.395.546h-.533l-.001-1.038zm2.882-1.832l-.724.001-.007-3.795h.725l.006 3.794zm12.45 7.695l-.001-.545-1.363.003-.005-3.162-.718.001.006 3.707 2.081-.004m.4 0l-.006-3.707 2.055-.003.001.543-1.321.002.001.94 1.213-.003v.538l-1.212.002.002 1.142 1.322-.002v.545l-2.055.003m4.28-2.98c0 .327.013.678.031 1.037.025.358.048.717.08 1.052h-.01c-.147-.5-.322-.99-.524-1.469l-.582-1.353-.753.002.006 3.706h.727v-.692c0-.297-.015-.67-.032-1.041-.026-.37-.054-.747-.081-1.051h.013c.147.498.32.989.517 1.47l.582 1.31h.758l-.007-3.707-.727.001.002.735M41.61 21.3l-.005-2.619h.47c.448-.001.54.35.54 1.223.003 1.077-.038 1.395-.688 1.396h-.317m.613.544c.189.015.378-.02.55-.101.602-.328.6-1.186.6-1.903-.001-.611-.048-1.025-.22-1.28-.166-.26-.45-.418-.757-.423l-1.53.002.006 3.707 1.351-.002zm3.755-.007v-.544l-1.32.002-.003-1.142 1.228-.002v-.538l-1.228.002-.002-.94 1.32-.002v-.542l-2.059.003.007 3.707 2.057-.004m1.319-1.6c.21-.01.42.008.626.054.252.07.25.385.253.603 0 .248-.001.696.077.94l.811-.002v-.062c-.185-.116-.158-1.021-.159-1.185 0-.35-.136-.603-.56-.661v-.007c.488-.068.59-.486.59-.896-.001-.685-.481-.895-1.11-.894l-1.394.003.006 3.707.74-.002-.003-1.598h.123m-.126-1.566h.542c.277 0 .46.08.46.495 0 .362-.181.51-.424.525h-.576l-.002-1.02zM31.202 7.644l-.004-2.058 9.709-5.55 9.657 5.593.003 1.983-1.432.003.013 7.162-16.436.028-.012-7.162-1.5.002m16.024 5.449l-.012-7.13-6.302-3.805-6.265 3.836.013 7.12 12.566-.021zm-2.91-4.45l-6.707.011-.003-1.86 6.706-.012.004 1.86zm.004 2.827l-6.706.011-.003-1.857 6.706-.011.003 1.857zm-11.587 5.867l-.004-2.218 1.028-.001v.324h-.658l.001.56h.614v.325l-.614.001.001.683h.659v.324l-1.028.002m1.915-.374l.07.072c-.028.014-.059.02-.09.02-.257 0-.269-.302-.269-.482l-.001-.619c0-.17-.024-.558.268-.558.281 0 .26.386.26.557l-.001.62c-.002.073-.007.147-.016.22l-.025-.023-.197.193m.71.381l-.197-.223c.094-.168.105-.474.104-.755v-.32c-.017-.562-.056-.986-.638-.985-.586.001-.627.425-.643.986v.321c.001.586.037 1.025.646 1.024.117.005.233-.02.34-.07l.207.224.182-.202zm1.065-2.23h.37l.002 1.542c0 .491-.14.733-.615.734-.487.001-.63-.24-.631-.732l-.003-1.543h.362l.002 1.51c0 .216.018.428.27.428.235 0 .246-.213.246-.43l-.003-1.509m1.174.696c.016-.103.027-.2.036-.305.004-.045.009-.102.008-.153h.007c.009.05.014.101.014.153.014.105.017.202.035.305l.104.634h-.315l.111-.634m-.26 1.52l.09-.563.437-.001.095.563h.39l-.444-2.217h-.502l-.463 2.218h.397zm1.16-.002l-.005-2.218h.372l.003 1.892h.677v.324l-1.048.002m1.967-2.307h.352l.001.872h.428l-.001-.872.36-.001.004 2.286h-.36l-.002-1.015h-.428l.001 1.016h-.351l-.004-2.286m1.705 1.138c-.001-.61.035-.852.248-.852s.251.242.252.852c.002.615-.037.85-.249.85s-.25-.234-.251-.85m-.362.001c.002.696.073 1.186.614 1.184.54-.001.605-.49.604-1.186-.001-.692-.066-1.19-.608-1.19-.542.001-.61.498-.608 1.19l-.002.002zm1.757-1.144l.003 1.595c0 .22.046.396.216.396.162 0 .21-.176.21-.397l-.003-1.595h.36l.003 1.595c.001.577-.28.733-.57.733-.295 0-.579-.127-.58-.73v-1.598l.363-.001m.936 1.57v.09c.001.426.16.666.568.665.392 0 .626-.218.625-.696.028-.255-.11-.5-.343-.605l-.281-.163c-.124-.046-.2-.171-.184-.303 0-.135.043-.27.207-.271.14 0 .193.13.193.346h.348v-.064c-.001-.442-.239-.62-.561-.62-.341 0-.554.228-.553.678 0 .378.154.554.48.692.234.103.318.18.318.383 0 .197-.106.288-.217.288-.19 0-.236-.136-.236-.355v-.064h-.364m2.412-1.576l.435 1.563h.011l-.003-1.564h.328l.003 2.286h-.41l-.445-1.602h-.005l.003 1.603h-.33l-.004-2.286.417-.001m1.804.672c0-.166-.06-.386-.203-.385-.177 0-.249.231-.248.809.001.545.04.893.251.893.086 0 .226-.12.225-.371v-.231h-.24v-.34h.583l.003 1.235h-.264v-.21h-.006c-.063.155-.214.255-.38.251-.443.001-.529-.418-.53-1.213-.001-.768.138-1.162.602-1.163.398 0 .556.26.557.724h-.35m-2.48 1.615h-.377l-.004-2.292h.377l.004 2.292z" opacity=".6"/>
</svg>
