<svg xmlns="http://www.w3.org/2000/svg" viewBox="0 0 80 80" xmlns:v="https://vecta.io/nano"><style><![CDATA[.D{stroke-linejoin:round}.E{stroke-miterlimit:10}.F{stroke-linecap:round}]]></style><g fill="none" stroke="#0072cc" stroke-width="2.5" class="D"><path d="M22.3 7.2v5.3c0 1.9-1.6 3.5-3.5 3.5h-7v6.6m51.3 51.7h1.6c1.9 0 3.5-1.6 3.5-3.5v-65c0-1.9-1.6-3.5-3.5-3.5H21.3l-9.5 9.5m0 9v50c0 1.9 1.6 3.5 3.5 3.5h1.8" class="E F"/><circle cx="39.5" cy="28.1" r="13.8"/><path d="M39.5 28.1V14.6m0 13.5l11.6-5.6m-11.6 5.6l6.3 12.2" class="E F"/><path d="M58.7 62.3v12.3a3.33 3.33 0 0 1-3.3 3.3H24.6a3.33 3.33 0 0 1-3.3-3.3V62.3a3.33 3.33 0 0 1 3.3-3.3h30.7c1.9 0 3.4 1.5 3.4 3.3z" class="E"/><path d="M23.4 55.5c.6-.7 1.5-1.1 2.5-1.1h28.2c1 0 1.8.4 2.5 1m-32.1-4.8c.6-.7 1.5-1.1 2.5-1.1h26c1 0 1.8.4 2.5 1" class="F E"/></g><path d="M43.2 72.6c-.5.5-1.1.8-1.9.9v.7c0 .2-.1.4-.2.6-.1.1-.3.2-.6.2-.2 0-.4-.1-.6-.2-.1-.1-.2-.3-.2-.6v-.7c-.5 0-.9-.1-1.4-.3-.4-.2-.8-.3-1.2-.6l-.3-.3c-.1-.1-.1-.2-.1-.4s.1-.4.2-.6.3-.2.5-.2.4.1.6.2l1.1.5c.4.1.7.2 1.1.2.5 0 .9-.1 1.2-.3s.4-.5.4-.8c0-.2-.1-.4-.2-.5l-.6-.3c-.2-.1-.6-.2-1-.3-.6-.2-1.2-.3-1.6-.5s-.8-.4-1.1-.8-.5-.8-.5-1.4c0-.7.2-1.3.7-1.8s1.1-.8 1.9-1v-.7c0-.2.1-.4.2-.6.1-.1.3-.2.6-.2.2 0 .4.1.6.2.1.1.2.3.2.6v.7c.8.1 1.5.4 2.2.9l.3.3c.1.1.1.2.1.4s-.1.4-.2.6-.3.2-.5.3h-.3c-.1 0-.2-.1-.3-.2-.4-.2-.7-.4-1-.5s-.6-.2-1-.2c-.5 0-.8.1-1.1.3-.1.2-.2.4-.2.8 0 .2.1.4.3.6.2.1.4.3.6.4s.6.2 1.1.3c.6.2 1.2.3 1.6.5s.8.4 1 .8.4.8.4 1.4c-.1.5-.3 1.1-.8 1.6z" fill="#0072cc"/></svg>