<?xml version="1.0" encoding="utf-8"?>
<!-- Generator: Adobe Illustrator 24.3.0, SVG Export Plug-In . SVG Version: 6.00 Build 0)  -->
<svg version="1.1" id="Layer_1" xmlns="http://www.w3.org/2000/svg" xmlns:xlink="http://www.w3.org/1999/xlink" x="0px" y="0px"
	 viewBox="0 0 80 80" style="enable-background:new 0 0 80 80;" xml:space="preserve">
<style type="text/css">
	.st0{fill:none;stroke:#2C73B9;stroke-width:2.5;stroke-linecap:round;stroke-linejoin:round;stroke-miterlimit:10;}
	.st1{fill:#2C73B9;}
</style>
<g>
	<g>
		<g>
			<g>
				<circle class="st0" cx="29.2" cy="42.4" r="27.4"/>
			</g>
			<g>
				<ellipse class="st0" cx="29.2" cy="42.4" rx="21.5" ry="21.6"/>
			</g>
			<g>
				<g>
					<path class="st1" d="M33.3,47.7c-0.7,0.7-1.6,1.1-2.8,1.3v1.1c0,0.3-0.1,0.6-0.3,0.8c-0.2,0.2-0.5,0.3-0.8,0.3
						c-0.3,0-0.6-0.1-0.8-0.3c-0.2-0.2-0.3-0.5-0.3-0.8v-1c-0.7-0.1-1.3-0.2-2-0.4c-0.6-0.2-1.2-0.5-1.7-0.9
						c-0.2-0.1-0.3-0.3-0.4-0.4c-0.1-0.2-0.1-0.3-0.1-0.6c0-0.3,0.1-0.6,0.3-0.8c0.2-0.2,0.4-0.4,0.7-0.4c0.2,0,0.5,0.1,0.9,0.3
						c0.6,0.3,1.1,0.6,1.6,0.7c0.5,0.2,1,0.2,1.6,0.2c0.7,0,1.3-0.1,1.7-0.4c0.4-0.3,0.6-0.7,0.6-1.2c0-0.3-0.1-0.6-0.3-0.8
						c-0.2-0.2-0.5-0.4-0.8-0.5c-0.3-0.1-0.8-0.3-1.4-0.4c-0.9-0.2-1.7-0.5-2.3-0.7c-0.6-0.2-1.1-0.6-1.5-1.1
						c-0.4-0.5-0.6-1.2-0.6-2c0-1,0.4-1.9,1.1-2.6c0.7-0.7,1.6-1.2,2.8-1.4v-1.1c0-0.3,0.1-0.6,0.3-0.8c0.2-0.2,0.5-0.3,0.8-0.3
						c0.3,0,0.6,0.1,0.8,0.3c0.2,0.2,0.3,0.5,0.3,0.8v1c1.1,0.1,2.2,0.6,3.1,1.3c0.2,0.1,0.3,0.3,0.4,0.4c0.1,0.2,0.1,0.4,0.1,0.6
						c0,0.3-0.1,0.6-0.3,0.8c-0.2,0.2-0.4,0.4-0.7,0.4c-0.1,0-0.3,0-0.4-0.1c-0.1,0-0.3-0.1-0.5-0.2c-0.5-0.3-1-0.6-1.4-0.7
						c-0.4-0.2-0.9-0.2-1.5-0.2c-0.7,0-1.2,0.1-1.6,0.4c-0.4,0.3-0.6,0.7-0.6,1.2c0,0.3,0.1,0.6,0.4,0.8c0.2,0.2,0.5,0.4,0.9,0.5
						c0.4,0.1,0.9,0.3,1.5,0.4c0.9,0.2,1.6,0.4,2.2,0.7c0.6,0.2,1.1,0.6,1.5,1.1c0.4,0.5,0.6,1.2,0.6,2C34.3,46.2,34,47,33.3,47.7z"
						/>
				</g>
			</g>
		</g>
	</g>
	<g>
		<line class="st0" x1="42.7" y1="10.2" x2="49.4" y2="10.2"/>
		<line class="st0" x1="57" y1="10.2" x2="72.6" y2="10.2"/>
		<line class="st0" x1="76.6" y1="23.8" x2="68.1" y2="23.8"/>
		<line class="st0" x1="78.2" y1="55.6" x2="62.9" y2="55.6"/>
	</g>
</g>
</svg>
