<svg xmlns="http://www.w3.org/2000/svg" viewBox="0 0 80 80" xmlns:v="https://vecta.io/nano"><g fill="#0070d0"><path d="M32.3 38.1c-.2-.1-.3-.1-.5-.1s-.4.1-.4.3v.5h1.1l-.2.9h-.8V43h-1.7v-3.2h-.6v-.9h.6v-.5c0-1.2 1.1-1.3 1.7-1.3.5 0 .9 0 1.2.2l-.4.8zm5.6 4.9l-.6-1.3c-.2-.5-.3-.5-.7-.5V43h-1.4v-4.6h1.9c1.6 0 2.2.6 2.2 1.3 0 .8-.5 1.2-1.2 1.3.2 0 .4.3.6.5.2.3.7 1.2.8 1.5h-1.6zm-.9-3.7h-.4v.9h.4c.5 0 .7-.2.7-.5s-.2-.4-.7-.4z"/><path d="M41.8 43c-.8 0-1.5-.2-2.1-.4l.5-.9c.4.2 1 .4 1.6.4s.8-.2.8-.4-.2-.3-.6-.4l-.7-.1c-.8-.2-1.4-.5-1.4-1.3 0-.9.9-1.5 2.2-1.5.8 0 1.5.2 2 .5l-.7.8a3.08 3.08 0 0 0-1.3-.3c-.4 0-.6.1-.6.3s.1.3.5.4l.6.1c.6.1 1.5.4 1.5 1.3.2 1-.8 1.5-2.3 1.5zm6.7-3.7h-1.3V43h-1.4v-3.7h-1.3v-1h4.2l-.2 1zm-15.6-.2V43h1.4v-4.9zm17-.7c.1 0 .1.1.2.2 0 .1.1.2.1.2 0 .1 0 .2-.1.2 0 .1-.1.1-.2.2-.1 0-.2.1-.2.1-.1 0-.2 0-.2-.1-.1 0-.1-.1-.2-.2 0-.1-.1-.2-.1-.2 0-.1 0-.2.1-.2 0-.1.1-.1.2-.2.1 0 .2-.1.2-.1 0 .1.1.1.2.1zm-.1.8c.1 0 .1-.1.1-.1 0-.1.1-.1.1-.2s0-.1-.1-.2c0-.1-.1-.1-.1-.1-.1 0-.1-.1-.2-.1s-.1 0-.2.1c-.1 0-.1.1-.1.1 0 .1-.1.1-.1.2s0 .1.1.2c0 .1.1.1.1.1.1 0 .1.1.2.1.1-.1.2-.1.2-.1zm0-.3l.1.2h-.1l-.1-.2h-.1v.2h-.1v-.6h.3l.1.1v.1l-.1.2zm-.1-.1h0v-.1h-.2v.2l.2-.1z"/></g><g fill="none" stroke="#0071ce" stroke-width="2.5" stroke-linecap="round" stroke-linejoin="round" stroke-miterlimit="10"><path d="M17.4 12.7V9.4a7.92 7.92 0 0 1 7.9-7.9H54a7.92 7.92 0 0 1 7.9 7.9v51m0 5.4v4.8a7.92 7.92 0 0 1-7.9 7.9H25.3a7.92 7.92 0 0 1-7.9-7.9V19.9"/><path d="M17.4 12.7h37.8M23.6 65.8h38.3"/></g><g fill="#0071ce"><circle cx="39.6" cy="7.5" r="1.4"/><circle cx="39.9" cy="72.1" r="2.9"/></g><path d="M27.8 54.8h23.6c2.5 0 4.6-2.1 4.6-4.6V29.8c0-2.5-2.1-4.6-4.6-4.6H27.8c-2.5 0-4.6 2.1-4.6 4.6v20.4c0 2.5 2.1 4.6 4.6 4.6z" fill="none" stroke="#0071ce" stroke-width="2.5" stroke-linejoin="round" stroke-miterlimit="10"/></svg>