<?xml version="1.0" encoding="utf-8"?>
<!-- Generator: Adobe Illustrator 24.3.0, SVG Export Plug-In . SVG Version: 6.00 Build 0)  -->
<svg version="1.1" id="Layer_1" xmlns="http://www.w3.org/2000/svg" xmlns:xlink="http://www.w3.org/1999/xlink" x="0px" y="0px"
	 viewBox="0 0 80 80" style="enable-background:new 0 0 80 80;" xml:space="preserve">
<style type="text/css">
	.st0{fill-rule:evenodd;clip-rule:evenodd;fill:#0070D0;}
	.st1{fill:none;stroke:#0070D0;stroke-width:2.5;stroke-linecap:round;stroke-linejoin:round;stroke-miterlimit:10;}
	.st2{fill:#FFB600;}
	.st3{fill:#FFC844;}
	.st4{fill:#0071CE;}
</style>
<g>
	<g>
		<g>
			<path id="SVGID_1_" class="st0" d="M41.8,56.5c0,1-0.8,1.8-1.8,1.8s-1.8-0.8-1.8-1.8s0.8-1.8,1.8-1.8S41.8,55.4,41.8,56.5"/>
		</g>
	</g>
	<g>
		<path class="st1" d="M25.3,63.8H5.2c-2,0-3.7-1.6-3.7-3.7V8.9c0-2,1.6-3.7,3.7-3.7h69.7c2,0,3.7,1.6,3.7,3.7v51.2
			c0,2-1.6,3.7-3.7,3.7H32.7"/>
		<line class="st1" x1="27.2" y1="74.7" x2="52.8" y2="74.7"/>
		<line class="st1" x1="47.3" y1="63.8" x2="47.3" y2="71.1"/>
		<line class="st1" x1="32.7" y1="63.8" x2="32.7" y2="71.1"/>
		<path class="st1" d="M51,74.7c-2,0-3.7-1.6-3.7-3.7"/>
		<path class="st1" d="M32.7,71.1c0,2-1.6,3.7-3.7,3.7"/>
	</g>
</g>
<g>
	<polygon class="st2" points="39.1,35.1 39.1,30.3 58.5,18.1 58.5,35.1 59.8,35.1 59.8,15.8 37.9,29.6 37.9,35.1 	"/>
	<polygon class="st2" points="18,43.9 21.8,35.7 25.5,43.9 21.8,42 	"/>
	<polyline class="st3" points="21.8,35.7 25.5,43.9 21.8,42 	"/>
	<g>
		<g>
			<path d="M14.2,28.5c-0.2-0.1-0.4-0.2-0.6-0.2c-0.3,0-0.5,0.2-0.5,0.4v0.8h1.4l-0.3,1.2h-1.1v4.4h-2.3v-4.4H10v-1.2h0.8
				c-0.1-0.2-0.1-0.5-0.1-0.7c0-1.6,1.5-1.8,2.3-1.8c0.7,0,1.2,0.1,1.7,0.3L14.2,28.5z"/>
			<path d="M21.9,35.1l-0.8-1.8c-0.3-0.6-0.5-0.7-0.9-0.7v2.5h-2v-6.3h2.6c2.2,0,3,0.8,3,1.8c0,1.1-0.7,1.6-1.6,1.8
				c0.2,0.1,0.5,0.4,0.8,0.7c0.2,0.4,0.9,1.6,1.2,2C24.2,35.1,21.9,35.1,21.9,35.1z M20.7,30.1h-0.5v1.2h0.5c0.6,0,0.9-0.2,0.9-0.7
				C21.6,30.3,21.3,30.1,20.7,30.1z"/>
			<path d="M27.2,35.2c-1.2,0-2-0.2-2.8-0.5l0.7-1.2c0.5,0.2,1.3,0.5,2.1,0.5s1.1-0.2,1.1-0.5c0-0.3-0.2-0.4-0.8-0.5l-0.9-0.2
				c-1.1-0.2-1.9-0.7-1.9-1.8c0-1.2,1.2-2.1,2.9-2.1c1,0,2,0.2,2.7,0.6l-0.9,1.2C29,30.2,28.4,30,27.8,30c-0.5,0-0.8,0.2-0.8,0.5
				s0.2,0.4,0.7,0.5l0.8,0.2c0.8,0.2,2,0.5,2,1.7C30.5,34.4,29.1,35.2,27.2,35.2z"/>
			<path d="M36.3,30.1h-1.7V35h-2v-4.9h-1.7v-1.3h5.6L36.3,30.1z"/>
		</g>
		<polygon points="15,29.8 15,35.1 17,35.1 17,28.6 		"/>
	</g>
	<g>
		<g>
			<path class="st4" d="M16.1,35.7h1.7v8h-1.3l-4-5.2v5.2h-1.7v-8h1.3l4,5.2V35.7z"/>
			<path class="st4" d="M29.9,35.7h1.8l-3.6,8h-1.4l-3.7-8h1.9l2.5,5.9L29.9,35.7z"/>
			<path class="st4" d="M31.8,43.8v-8h1.8v8C33.6,43.8,31.8,43.8,31.8,43.8z"/>
			<path class="st4" d="M41.5,39.3v4c-0.4,0.2-0.9,0.3-1.4,0.5c-0.5,0.1-1,0.1-1.6,0.1c-0.9,0-1.6-0.2-2.2-0.5S35.3,42.6,35,42
				s-0.5-1.3-0.5-2.2c0-0.9,0.2-1.6,0.5-2.2s0.8-1.1,1.4-1.4s1.3-0.5,2.2-0.5c0.5,0,1.1,0.1,1.6,0.2c0.5,0.2,0.9,0.4,1.2,0.6
				l-0.5,1.2c-0.4-0.2-0.7-0.5-1.1-0.5c-0.4-0.2-0.7-0.2-1.2-0.2c-1.6,0-2.3,0.9-2.3,2.7c0,0.9,0.2,1.6,0.6,2.1
				c0.4,0.5,1,0.7,1.8,0.7c0.5,0,0.9-0.1,1.3-0.2v-1.8h-1.6v-1.2h3V39.3z"/>
			<path class="st4" d="M48.7,43.8L47.9,42h-3.7l-0.8,1.8h-1.8l3.7-8h1.5l3.7,8H48.7z M44.7,40.7h2.6l-1.2-3L44.7,40.7z"/>
			<path class="st4" d="M51.3,43.8v-6.6h-2.5v-1.5h6.9v1.5h-2.5v6.6H51.3z"/>
			<path class="st4" d="M57.2,43.4c-0.6-0.3-1-0.9-1.4-1.4c-0.3-0.6-0.5-1.3-0.5-2.2c0-0.9,0.2-1.6,0.5-2.2s0.8-1.1,1.4-1.4
				s1.2-0.5,2.1-0.5c0.8,0,1.5,0.2,2.1,0.5c0.6,0.3,1,0.8,1.4,1.4c0.3,0.6,0.5,1.3,0.5,2.2c0,0.9-0.2,1.6-0.5,2.2
				c-0.3,0.6-0.8,1.1-1.4,1.4c-0.6,0.3-1.3,0.5-2.1,0.5S57.8,43.7,57.2,43.4z M60.8,41.8c0.4-0.5,0.5-1.2,0.5-2c0-0.9-0.2-1.6-0.5-2
				c-0.4-0.5-0.9-0.7-1.6-0.7c-0.7,0-1.2,0.2-1.6,0.7c-0.4,0.5-0.5,1.2-0.5,2c0,0.9,0.2,1.6,0.5,2c0.4,0.5,0.9,0.7,1.6,0.7
				C60,42.5,60.4,42.3,60.8,41.8z"/>
			<path class="st4" d="M71,43.8h-2l-1.4-2.6c-0.1-0.2-0.2-0.3-0.4-0.4c-0.2-0.1-0.4-0.2-0.6-0.2h-0.9v3.1H64v-8h3.7
				c0.9,0,1.6,0.2,2.1,0.6s0.7,1,0.7,1.8c0,0.6-0.2,1.1-0.5,1.6c-0.3,0.4-0.8,0.7-1.4,0.8c0.4,0.1,0.8,0.4,1.1,0.9L71,43.8z
				 M68.6,39c0.2-0.2,0.3-0.5,0.3-0.9c0-0.4-0.1-0.7-0.3-0.9s-0.6-0.2-1.1-0.2h-1.7v2.2h1.7C67.9,39.3,68.3,39.2,68.6,39z"/>
		</g>
		<g>
			<path class="st4" d="M70.4,35.9v-0.2h0.7v0.2h-0.3v0.7h-0.2v-0.7H70.4z M71.8,35.7H72v0.9h-0.2V36l-0.2,0.5h-0.1L71.3,36v0.5
				h-0.2v-0.9h0.2l0.3,0.5L71.8,35.7z"/>
		</g>
	</g>
</g>
</svg>
