<?xml version="1.0" encoding="utf-8"?>
<!-- Generator: Adobe Illustrator 24.3.0, SVG Export Plug-In . SVG Version: 6.00 Build 0)  -->
<svg version="1.1" id="Layer_1" xmlns="http://www.w3.org/2000/svg" xmlns:xlink="http://www.w3.org/1999/xlink" x="0px" y="0px"
	 viewBox="0 0 80 80" style="enable-background:new 0 0 80 80;" xml:space="preserve">
<style type="text/css">
	.st0{fill:none;stroke:#2C71B9;stroke-width:2.5;stroke-linecap:round;stroke-linejoin:round;stroke-miterlimit:10;}
	.st1{fill:#2C71B9;}
</style>
<g>
	<g>
		<g>
			<g>
				<path class="st0" d="M35.2,44.6c-3.5,2.5-7.8,4.1-12.5,4.1C11,48.6,1.5,39.1,1.5,27.4S11,6.2,22.7,6.2s21.2,9.5,21.2,21.2
					c0,2-0.3,4-0.8,5.8"/>
			</g>
			<polyline class="st0" points="22.4,17 22.4,29.1 30.9,37.4 			"/>
		</g>
		<g>
			<circle class="st0" cx="56.3" cy="51.6" r="22.2"/>
		</g>
		<g>
			<ellipse class="st0" cx="56.3" cy="51.6" rx="17.4" ry="17.5"/>
		</g>
		<g>
			<g>
				<path class="st1" d="M59.6,55.9c-0.6,0.6-1.3,0.9-2.2,1.1v0.9c0,0.3-0.1,0.5-0.2,0.7c-0.2,0.2-0.4,0.2-0.7,0.2
					c-0.3,0-0.5-0.1-0.6-0.2c-0.2-0.2-0.3-0.4-0.3-0.7V57c-0.6,0-1.1-0.2-1.6-0.3c-0.5-0.2-1-0.4-1.4-0.7c-0.2-0.1-0.3-0.2-0.3-0.3
					c-0.1-0.1-0.1-0.3-0.1-0.5c0-0.3,0.1-0.5,0.2-0.7c0.2-0.2,0.3-0.3,0.5-0.3c0.2,0,0.4,0.1,0.7,0.2c0.5,0.3,0.9,0.5,1.3,0.6
					c0.4,0.1,0.8,0.2,1.3,0.2c0.6,0,1.1-0.1,1.4-0.3c0.3-0.2,0.5-0.5,0.5-1c0-0.3-0.1-0.5-0.3-0.6c-0.2-0.2-0.4-0.3-0.7-0.4
					c-0.3-0.1-0.7-0.2-1.2-0.3c-0.7-0.2-1.4-0.4-1.8-0.6c-0.5-0.2-0.9-0.5-1.2-0.9c-0.3-0.4-0.5-1-0.5-1.7c0-0.8,0.3-1.5,0.9-2.1
					c0.6-0.6,1.3-1,2.3-1.1v-0.9c0-0.3,0.1-0.5,0.3-0.7c0.2-0.2,0.4-0.2,0.6-0.2c0.3,0,0.5,0.1,0.7,0.2c0.2,0.2,0.2,0.4,0.2,0.7v0.8
					c0.9,0.1,1.7,0.5,2.5,1c0.1,0.1,0.3,0.2,0.3,0.3c0.1,0.1,0.1,0.3,0.1,0.5c0,0.3-0.1,0.5-0.2,0.7s-0.3,0.3-0.5,0.3
					c-0.1,0-0.2,0-0.3,0c-0.1,0-0.2-0.1-0.4-0.2c-0.4-0.3-0.8-0.5-1.1-0.6C57.4,48.1,57,48,56.5,48c-0.5,0-1,0.1-1.3,0.4
					c-0.3,0.2-0.5,0.6-0.5,1c0,0.3,0.1,0.5,0.3,0.7s0.4,0.3,0.7,0.4c0.3,0.1,0.7,0.2,1.2,0.3c0.7,0.2,1.3,0.4,1.8,0.5
					c0.5,0.2,0.9,0.5,1.2,0.9c0.3,0.4,0.5,0.9,0.5,1.6C60.5,54.7,60.2,55.4,59.6,55.9z"/>
			</g>
		</g>
	</g>
</g>
</svg>
