<svg xmlns="http://www.w3.org/2000/svg" viewBox="0 0 80 80" stroke="#0070d0" stroke-miterlimit="10" xmlns:v="https://vecta.io/nano"><path d="M1.5 53.8s11.6-11.4 14-12.3c2-.7 3.9-1.2 6.6-.9 3.3.4 4.2 1.1 10 1.3l.9.1h14c2.9 0 5.3 1.6 5.3 4.5h0c0 2.9-2.4 4.5-5.3 4.5H33M10.7 68.1s5.4-5.7 8.3-5.5 27.2 0 27.2 0c1.2.7 13.9-7.3 13.9-7.3l15.6-9.1c2.6-1.4 3.5-4.6 2.2-7.1h0c-1.4-2.6-4.6-3.5-7.1-2.2l-14.5 7.8" fill="none" stroke-width="2.5" stroke-linecap="round" stroke-linejoin="round"/><path d="M53.4 42.5c-.2 0-.5-.1-.6-.3-.3-.4-.3-.9.1-1.2 2.6-2.3 5-4.7 7.3-7.2C65.7 27.3 70.6 21 69 14.6c-.8-3.3-4.1-6.6-8.9-6.7S51.6 11 49.7 14c-.2.2-.4.4-.7.4s-.6-.1-.7-.4c-1.9-3-5.7-6.2-10.4-6.1-4.8.1-8 3.5-8.9 6.7-2.2 8.2 7.1 17.3 12.7 23.7.3.4.3.9-.1 1.2s-.9.3-1.2-.1C34.7 33 24.9 23.2 27.2 14.2c1-3.9 4.9-7.9 10.5-8 5-.1 8.9 2.8 11.2 5.8 2.3-3 6.1-5.8 10.9-5.8h.3c5.6.1 9.5 4.1 10.5 8 1.8 7.2-3.6 14.2-9.2 20.7-2.1 2.4-4.7 4.9-7.4 7.4-.2.1-.4.2-.6.2z" fill="#0070d0" stroke-width=".99"/></svg>