<svg xmlns="http://www.w3.org/2000/svg" xmlns:xlink="http://www.w3.org/1999/xlink" width="244" height="33" viewBox="0 0 244 33">
    <defs>
        <path id="nss354unva" d="M0 0.583L17.9 0.583 17.9 31.207 0 31.207z"/>
    </defs>
    <g fill="none" fill-rule="evenodd">
        <g transform="translate(0 .228)">
            <mask id="61fsj3casb" fill="#fff">
                <use xlink:href="#nss354unva"/>
            </mask>
            <path fill="#202620" d="M15.878 6.174c-.592-.288-1.53-.494-2.467-.494-1.036 0-1.973.575-1.973 1.52v2.796h5.377l-1.134 4.687h-4.243v16.524H2.855V14.683H0V9.996h2.855c-.148-.74-.148-1.726-.148-2.548 0-6.125 5.672-6.865 8.88-6.865 2.614 0 4.44.247 6.313 1.11l-2.022 4.48z" mask="url(#61fsj3casb)"/>
            <path fill="#202620" d="M44.547 31.207l-2.97-6.613c-1.1-2.443-1.751-2.748-3.338-2.748v9.361h-7.285V7.567h9.768c8.343 0 11.03 2.816 11.03 6.75 0 4.07-2.565 6.139-5.902 6.614.977.237 2.157 1.323 2.848 2.543.937 1.595 3.338 5.97 4.274 7.733h-8.425zm-4.274-18.653H38.24v4.816h2.075c2.483 0 3.337-.983 3.337-2.578 0-1.696-1.098-2.238-3.378-2.238zM64.652 31.615c-4.274 0-7.611-.882-10.46-2.137l2.564-4.749c2.035.984 5.088 1.9 7.977 1.9 2.85 0 3.989-.883 3.989-2.171 0-1.052-.896-1.526-2.85-1.933l-3.337-.713c-4.11-.882-6.918-2.78-6.918-6.851 0-4.68 4.64-7.8 10.988-7.8 3.948 0 7.611.847 10.135 2.306l-3.5 4.307c-1.913-1.051-4.437-1.662-6.39-1.662-1.872 0-2.89.747-2.89 1.696 0 .78.651 1.56 2.768 2l2.89.612c3.052.645 7.447 1.797 7.447 6.546 0 5.664-5.046 8.649-12.413 8.649"/>
        </g>
        <path fill="#202620" d="M78.286 7.795L78.286 12.816 84.878 12.816 84.878 31.436 92.246 31.436 92.246 12.816 98.84 12.816 99.694 7.795zM18.887 11.542L18.887 31.434 26.408 31.434 26.408 6.781z"/>
        <g fill="#007DC2">
            <path d="M1.759 5.665H.357V4.22h1.402v-.963c0-1.883.424-3.114 2.534-3.114.368 0 .722.027 1.076.099l-.114 1.444c-.24-.057-.467-.1-.708-.1-.947 0-1.09.652-1.09 1.402V4.22H5.03v1.445H3.458v5.353h-1.7V5.665zM7.21.893c.623 0 1.104.439 1.104 1.02 0 .58-.48 1.019-1.104 1.019-.624 0-1.076-.482-1.076-1.02 0-.537.452-1.019 1.076-1.019zm-.835 10.125h1.699V4.22h-1.7v6.798zM10.028 4.22h1.7v1.076h.027c.368-.778 1.12-1.246 2.01-1.246.213 0 .411.043.609.1v1.642c-.282-.07-.551-.127-.82-.127-1.6 0-1.827 1.345-1.827 1.713v3.64h-1.699V4.22zM19.16 6.103c-.324-.453-.75-.693-1.33-.693-.454 0-.99.212-.99.722 0 1.217 3.666.227 3.666 2.874 0 1.614-1.544 2.181-2.931 2.181-1.048 0-1.955-.27-2.649-1.047l1.134-1.063c.439.481.892.836 1.614.836.496 0 1.133-.241 1.133-.78 0-1.401-3.668-.297-3.668-2.888 0-1.515 1.36-2.195 2.733-2.195.906 0 1.87.284 2.422 1.034l-1.134 1.02zM21.03 5.665V4.22h1.402V2.252h1.699V4.22h1.868v1.445h-1.868v2.973c0 .68.198 1.104.948 1.104.298 0 .708-.056.92-.211v1.43c-.354.17-.948.226-1.344.226-1.8 0-2.223-.807-2.223-2.407V5.665h-1.403zM32.13 5.665H30.73V4.22h1.401v-.963c0-1.883.425-3.114 2.536-3.114.367 0 .722.027 1.075.099l-.113 1.444c-.24-.057-.468-.1-.708-.1-.949 0-1.09.652-1.09 1.402V4.22h1.571v1.445h-1.57v5.353h-1.7V5.665zM37.582.893c.624 0 1.105.439 1.105 1.02 0 .58-.481 1.019-1.105 1.019s-1.076-.482-1.076-1.02c0-.537.452-1.019 1.076-1.019zm-.835 10.125h1.699V4.22h-1.7v6.798zM40.4 4.22h1.614v1.09h.029c.311-.679.948-1.26 2.08-1.26 1.828 0 2.479 1.289 2.479 2.677v4.29h-1.7v-3.44c0-.751-.056-1.997-1.244-1.997-1.12 0-1.56.82-1.56 1.728v3.71H40.4V4.22zM52.775 10.082h-.042c-.481.765-1.274 1.105-2.181 1.105-1.26 0-2.478-.694-2.478-2.039 0-2.21 2.577-2.364 4.277-2.364h.424v-.185c0-.836-.65-1.274-1.557-1.274-.708 0-1.36.283-1.812.707l-.893-.891c.75-.766 1.813-1.09 2.89-1.09 2.902 0 2.902 2.096 2.902 3.058v3.908h-1.53v-.935zm-.099-2.109h-.354c-.934 0-2.548.07-2.548 1.047 0 .624.637.892 1.189.892 1.161 0 1.713-.609 1.713-1.557v-.382zM55.919 4.22h1.614v1.09h.028c.312-.679.949-1.26 2.082-1.26 1.827 0 2.478 1.289 2.478 2.677v4.29h-1.7v-3.44c0-.751-.056-1.997-1.245-1.997-1.12 0-1.558.82-1.558 1.728v3.71h-1.7V4.22zM68.479 6.26c-.396-.412-.835-.68-1.288-.68-1.247 0-1.997.977-1.997 2.039 0 1.062.75 2.039 1.997 2.039.524 0 1.005-.227 1.316-.638l1.134 1.219c-.694.693-1.856.948-2.45.948-2.054 0-3.696-1.43-3.696-3.568 0-2.139 1.642-3.57 3.696-3.57.863 0 1.812.314 2.463 1.035L68.48 6.259zM71.524.893c.622 0 1.103.439 1.103 1.02 0 .58-.48 1.019-1.103 1.019-.625 0-1.077-.482-1.077-1.02 0-.537.452-1.019 1.077-1.019zm-.835 10.125h1.699V4.22h-1.7v6.798zM78.589 10.082h-.042c-.482.765-1.275 1.105-2.18 1.105-1.261 0-2.479-.694-2.479-2.039 0-2.21 2.577-2.364 4.276-2.364h.425v-.185c0-.836-.651-1.274-1.557-1.274-.709 0-1.36.283-1.813.707l-.892-.891c.75-.766 1.812-1.09 2.889-1.09 2.902 0 2.902 2.096 2.902 3.058v3.908h-1.53v-.935zm-.1-2.109h-.353c-.935 0-2.549.07-2.549 1.047 0 .624.637.892 1.19.892 1.16 0 1.712-.609 1.712-1.557v-.382z" transform="translate(122.405 14.009)"/>
        </g>
        <path fill="#007DC2" d="M204.379 25.026L206.078 25.026 206.078 14.321 204.379 14.321z"/>
        <g fill="#007DC2">
            <path d="M.647.312h1.7v4.772h.042c.355-.44 1.035-1.033 2.308-1.033 1.94 0 3.286 1.557 3.286 3.567 0 2.011-1.261 3.57-3.356 3.57-.949 0-1.84-.37-2.337-1.19h-.028v1.02H.647V.311zm3.64 5.267c-1.246 0-1.997.978-1.997 2.04s.75 2.039 1.997 2.039c1.246 0 1.996-.977 1.996-2.04 0-1.061-.75-2.039-1.996-2.039zM13.675 10.082h-.042c-.482.765-1.275 1.105-2.18 1.105-1.261 0-2.479-.694-2.479-2.039 0-2.21 2.577-2.364 4.276-2.364h.425v-.185c0-.836-.652-1.274-1.557-1.274-.709 0-1.36.283-1.813.707l-.892-.891c.75-.766 1.812-1.09 2.889-1.09 2.903 0 2.903 2.096 2.903 3.058v3.908h-1.53v-.935zm-.1-2.109h-.354c-.934 0-2.548.07-2.548 1.047 0 .624.637.892 1.19.892 1.16 0 1.712-.609 1.712-1.557v-.382zM17.03 4.22h1.615v1.09h.028c.312-.679.95-1.26 2.082-1.26 1.826 0 2.477 1.289 2.477 2.677v4.29h-1.699v-3.44c0-.751-.056-1.997-1.246-1.997-1.118 0-1.557.82-1.557 1.728v3.71h-1.7V4.22z" transform="translate(211.575 14.009)"/>
        </g>
        <path fill="#007DC2" d="M236.733 14.321L236.733 25.026 238.433 25.026 238.433 21.556 238.461 21.556 241.165 25.026 243.416 25.026 240.315 21.315 243.232 18.229 241.051 18.229 238.433 21.047 238.433 14.321z"/>
        <path fill="#241F21" d="M104.567 8.213c.379.218.677.516.895.895.218.378.327.8.327 1.263 0 .465-.109.886-.327 1.265-.218.379-.518.678-.898.898-.381.22-.801.331-1.26.331-.465 0-.887-.11-1.265-.33-.379-.221-.678-.52-.898-.899-.221-.379-.331-.8-.331-1.265 0-.463.108-.885.326-1.263.22-.379.518-.677.9-.895.38-.218.803-.328 1.267-.328.464 0 .885.11 1.264.328m-.18 4.022c.322-.188.576-.446.761-.773.186-.328.28-.69.28-1.09 0-.4-.094-.763-.28-1.09-.185-.328-.44-.584-.762-.77-.323-.186-.684-.278-1.083-.278-.4 0-.762.092-1.087.278-.325.186-.58.442-.766.77-.185.327-.279.69-.279 1.09 0 .4.094.762.28 1.09.185.327.44.585.765.773.325.188.688.282 1.087.282.4 0 .76-.094 1.083-.282m-.163-1.257l.5.863h-.702l-.53-.94c-.047-.074-.095-.127-.146-.157-.051-.03-.119-.045-.202-.045h-.3v1.142h-.633V8.903h1.281c.334 0 .592.078.773.236.181.158.271.376.271.654 0 .223-.063.41-.19.561-.129.151-.308.248-.54.29.185.046.324.157.418.334m-.425-.846c.083-.068.125-.173.125-.317 0-.144-.04-.25-.122-.317-.081-.068-.21-.1-.387-.1h-.578v.835h.578c.172 0 .3-.034.384-.101"/>
    </g>
</svg>
