<?xml version="1.0" encoding="utf-8"?>
<!-- Generator: Adobe Illustrator 24.3.0, SVG Export Plug-In . SVG Version: 6.00 Build 0)  -->
<svg version="1.1" id="Layer_1" xmlns="http://www.w3.org/2000/svg" xmlns:xlink="http://www.w3.org/1999/xlink" x="0px" y="0px"
	 viewBox="0 0 80 80" style="enable-background:new 0 0 80 80;" xml:space="preserve">
<style type="text/css">
	.st0{fill:none;stroke:#2C6FB6;stroke-width:2.5;stroke-linecap:round;stroke-linejoin:round;stroke-miterlimit:10;}
</style>
<g>
	<g>
		<path class="st0" d="M75.9,49.5l-7.2-6.3c0.2-1.5,0.2-3,0.1-4.7c0-0.1,0-0.2,0-0.4c0,0,0,0,0-0.1c0-0.4,0-0.8-0.1-1.3l7.2-6.3
			c0.2-0.2,0.2-0.4,0.3-0.6c0.3-0.3,0.5-0.7,0.6-1.1c0-0.2,0-0.3,0-0.5c0.1-0.6,0-1.2-0.3-1.8c0,0,0,0,0,0l0,0c0-0.1,0-0.1-0.1-0.2
			l-3.5-6l-2.8-4.9c0,0-0.1,0-0.1-0.1l-0.1-0.1c-0.8-1.3-2.4-1.9-3.8-1.4L57,16.8c-0.1-0.1-0.3-0.2-0.5-0.3
			c-1.2-0.8-2.4-1.6-3.7-2.3c-0.2-0.1-0.4-0.1-0.6-0.2c-0.3-0.2-0.7-0.4-1-0.6L49.5,5c0.1-1.1-0.4-2-1.2-2.7
			c-0.4-0.3-0.9-0.4-1.4-0.6c-0.2,0-0.3-0.2-0.5-0.2h-0.1c-0.1,0-0.1,0-0.1,0l-6.3,0h-6.3c-0.1,0-0.1,0-0.1,0.1l-0.1,0
			c-1.5,0-2.8,1.1-3.1,2.6l-1.8,9.5c-1.7,0.7-3.5,1.7-5.5,3.2c0,0,0,0-0.1,0l-9.1-3.1c-1.4-0.5-3,0.1-3.8,1.4l-0.1,0.1
			c0,0,0,0-0.1,0l-2.9,5.1l-3.3,5.8c0,0,0,0.1,0,0.1l-0.1,0.1c-0.8,1.3-0.5,3,0.7,4l7.3,6.3c-0.2,1.9-0.3,3.9,0,6.4l-7.2,6.3
			c-1.1,1-1.4,2.7-0.6,4l0.1,0.1c0,0,0,0.1,0,0.1L7,59.6l3,5.1c0,0,0.1,0,0.1,0.1l0.1,0.1c0.8,1.3,2.4,1.9,3.8,1.4l9.1-3.1
			c1.6,1.2,3.6,2.3,5.4,3.1c0,0,0.1,0.1,0.1,0.1l1.9,9.4c0.3,1.5,1.6,2.6,3.1,2.6h0.1c0,0,0.1,0,0.1,0l6.7,0h5.9c0,0,0.1,0,0.1,0
			l0.1,0c1.5,0,2.8-1.1,3.1-2.6l1.8-9.4c1.8-0.8,3.3-1.6,5.2-3c0.1-0.1,0.3-0.2,0.4-0.3l9.1,3.1c1.4,0.5,3-0.1,3.8-1.4l0.1-0.1
			c0,0,0.1,0,0.1-0.1l2.6-4.5l3.7-6.4c0,0,0-0.1,0-0.1l0.1-0.1C77.3,52.1,77,50.5,75.9,49.5z"/>
	</g>
	<circle class="st0" cx="40" cy="40" r="18.3"/>
</g>
</svg>
