<?xml version="1.0" encoding="utf-8"?>
<!-- Generator: Adobe Illustrator 24.3.0, SVG Export Plug-In . SVG Version: 6.00 Build 0)  -->
<svg version="1.1" id="Layer_1" xmlns="http://www.w3.org/2000/svg" xmlns:xlink="http://www.w3.org/1999/xlink" x="0px" y="0px"
	 viewBox="0 0 80 80" style="enable-background:new 0 0 80 80;" xml:space="preserve">
<style type="text/css">
	.st0{fill:none;stroke:#0072CE;stroke-width:2.5;stroke-linecap:round;stroke-linejoin:round;stroke-miterlimit:10;}
</style>
<g>
	<path class="st0" d="M3.6,24.7l36-19c0.3-0.2,0.6-0.2,0.9,0l35.9,19c0.9,0.5,0.6,1.9-0.5,1.9H4.1C3,26.6,2.7,25.2,3.6,24.7z"/>
	<path class="st0" d="M76.7,74.4H3.3c-0.5,0-1-0.4-1-1v-10c0-0.5,0.4-1,1-1h73.3c0.5,0,1,0.4,1,1v10C77.7,73.9,77.2,74.4,76.7,74.4z
		"/>
	<line class="st0" x1="11.5" y1="26.9" x2="11.5" y2="62.4"/>
	<line class="st0" x1="22" y1="26.6" x2="22" y2="62.4"/>
	<line class="st0" x1="35.1" y1="26.9" x2="35.1" y2="62.4"/>
	<line class="st0" x1="45.3" y1="26.6" x2="45.3" y2="62.4"/>
	<line class="st0" x1="58.3" y1="26.9" x2="58.3" y2="62.4"/>
	<line class="st0" x1="68.7" y1="26.9" x2="68.7" y2="62.4"/>
</g>
</svg>
