<svg xmlns="http://www.w3.org/2000/svg" viewBox="0 0 80 80" xmlns:v="https://vecta.io/nano"><style><![CDATA[.B{stroke-linejoin:round}.C{stroke-miterlimit:10}.D{stroke-linecap:round}]]></style><g fill="none" stroke="#0070d0" stroke-width="2.5" class="B C"><g class="D"><path d="M39.2 32.2s-1.9-.7-4.3-.7-4.7.8-6.9 1.2-4.9-.2-4.9-.2m33.3-.2L53.2 34c-1.1.3-2.2.2-3.2-.4-.8-.5-4.7-2.2-7.1-2.1-2.2.1-5 1.7-7.2 2.7-2.2 1.1-3.7 1.5-4.1 2.2-.8 1.2 0 2.1.7 2.5 2 1 5.8 1.1 8.1.3 1.1-.4 2-.6 2.7-.7.8-.1 1.5.1 2.1.6l12.4 11.6c.3.3.5.6.6 1 .2.9.4 2.3-.7 3.2-.7.6-1.4.8-2 .9 0 0-1.3.2-1.8-.2m.6 2.1c0 .8-.3 1.6-1.1 2.2-.9.8-2.1 1-3.2.8 0 0-1.1-.2-1.6-.7m5.9-2.3v-.8"/><path d="M54.2 56.9c0-.2-.1-.4-.1-.6 0 0-.3-.8-.9-1.3l-6.6-6.6M48 61.8c-.3.7-.8 1.4-1.7 1.8a3.81 3.81 0 0 1-1.7.4c-.5 0-1.1-.4-1.4-.6l-1.7-1.6m6.5 0l.3-.8m0 0c0-.1.1-.3.1-.4 0 0 0-.9-.6-1.6l-5.7-6.1m-6.3 12.7c.6.5 1.4 1.1 2.2 1.2.6.1 1.7 0 2.3-.5.7-.5 1.1-1.2 1.3-2m0 .1l.1-.9v-1.1s-.2-.9-.7-1.4l-2.1-2.3m26.9-10.5l-6.6 3.6"/></g><path d="M18.9 56.5l3.6-3.4c1.1-1.1 1.2-2.9.1-4.1h0c-1.1-1.1-2.9-1.2-4.1-.1l-3.6 3.4c-1.1 1.1-1.2 2.9-.1 4.1h0c1.1 1.1 2.9 1.2 4.1.1z"/><path d="M22.8 60.6l5.5-5.3c1.1-1.1 1.2-2.9.1-4.1h0c-1.1-1.1-2.9-1.2-4.1-.1l-5.5 5.3c-1.1 1.1-1.2 2.9-.1 4.1h0c1.1 1.2 3 1.2 4.1.1zm4.9 3.5l4.5-4.3c1.1-1.1 1.2-2.9.1-4.1h0c-1.1-1.1-2.9-1.2-4.1-.1L23.8 60c-1.1 1.1-1.2 2.9-.1 4.1h0a2.84 2.84 0 0 0 4 0z"/><path d="M33.6 66.5l2.7-2.5c1.1-1.1 1.2-2.9.1-4.1h0c-1.1-1.1-2.9-1.2-4.1-.1l-2.7 2.5c-1.1 1.1-1.2 2.9-.1 4.1h0c1.1 1.1 2.9 1.1 4.1.1z"/><path d="M15 51.5l-2.9-2.2" class="D"/><path d="M5.4 17.1l16.3 11.2c1.1.7 1.4 2.2.7 3.3L11.9 48.8c-.7 1.1-2.2 1.5-3.3.8l-5.7-3.3c-.8-.4-1.2-1.2-1.2-2.1l-.2-25c0-2 2.2-3.2 3.9-2.1zm68.8-.4l-17 11.6c-1.1.8-1.5 2.3-.8 3.5L66 47.7c.8 1.2 2.4 1.6 3.6.9l7.6-4.8c.8-.5 1.2-1.3 1.2-2.2L78.2 19c.1-2.2-2.2-3.4-4-2.3z"/></g></svg>