<svg xmlns="http://www.w3.org/2000/svg" viewBox="0 0 80 80" xmlns:v="https://vecta.io/nano"><path d="M1.8 53.7s11.5-11.3 13.9-12.1c2-.7 3.9-1.1 6.6-.8 3.2.3 4.2 1.1 9.9 1.3l.9.1h13.8c2.9 0 5.2 1.6 5.2 4.5h0c0 2.9-2.3 4.5-5.2 4.5H33.1M10.9 67.9s5.4-5.7 8.3-5.5 27 0 27 0c1.2.7 13.8-7.2 13.8-7.2l15.4-9c2.5-1.3 3.5-4.5 2.2-7.1h0c-1.3-2.5-4.5-3.5-7.1-2.2l-14.6 7.6m-13.7-6.1c-3.4-2.3-5.7-6-6.4-10C34.4 20 40 12.2 48.3 10.8S64.5 15 65.9 23.3s-4.2 16.2-12.5 17.6" fill="#fff" stroke="#0071ce" stroke-width="2.5" stroke-linecap="round" stroke-miterlimit="10"/><path d="M55.2 31.9c-.8.8-1.8 1.2-3.1 1.5v1.2c0 .4-.1.7-.3.9s-.5.3-.9.3-.6-.1-.9-.3c-.2-.2-.3-.5-.3-.9v-1.1c-.7-.1-1.5-.2-2.2-.5s-1.3-.6-1.8-.9c-.2-.1-.4-.3-.5-.5s-.1-.4-.1-.6c0-.3.1-.6.3-.9s.5-.4.7-.4c.3 0 .6.1 1 .3.6.4 1.2.6 1.8.8.5.2 1.1.2 1.7.2.8 0 1.4-.2 1.9-.5s.7-.7.7-1.3c0-.3-.1-.6-.4-.8s-.6-.4-.9-.5c-.4-.1-.9-.3-1.6-.5l-2.5-.8c-.7-.3-1.2-.7-1.7-1.2-.5-.6-.7-1.3-.7-2.2 0-1.1.4-2.1 1.2-2.8.8-.8 1.8-1.3 3.1-1.5v-1.2c0-.4.1-.7.3-.9s.5-.3.9-.3.7.1.9.3.3.5.3.9v1.1c1.2.2 2.4.6 3.5 1.4.2.1.4.3.4.5s.1.4.1.6c0 .3-.1.6-.3.9s-.5.4-.7.4-.3 0-.4-.1c-.1 0-.3-.1-.5-.3-.6-.4-1.1-.6-1.5-.8s-1-.3-1.6-.3c-.7 0-1.3.2-1.8.5-.4.3-.7.8-.7 1.3 0 .4.1.7.4.9l1 .6 1.7.5c1 .2 1.8.5 2.4.7s1.2.7 1.6 1.2c.5.6.7 1.3.7 2.2-.1 1.2-.5 2.2-1.2 2.9z" fill="#0071ce" enable-background="new"/></svg>