<svg xmlns="http://www.w3.org/2000/svg" xmlns:xlink="http://www.w3.org/1999/xlink" viewBox="0 0 80 80" xmlns:v="https://vecta.io/nano"><style><![CDATA[.E{stroke:#0070d0}.F{stroke-width:2.563}.G{stroke-linejoin:round}.H{stroke-miterlimit:10}.I{stroke-linecap:round}]]></style><path d="M56.1 78.5c-7 0-13.6-3.8-17-10-5.2-9.4-1.8-21.2 7.5-26.4 2.9-1.6 6.2-2.5 9.4-2.5 7 0 13.6 3.8 17 10 5.2 9.4 1.8 21.2-7.5 26.4-2.9 1.6-6.1 2.5-9.4 2.5z" fill="none" class="E F G H"/><path d="M59.7 63.7c-.6.6-1.4 1-2.4 1.2v.9c0 .3-.1.5-.3.7s-.4.3-.7.3-.5-.1-.7-.3-.3-.4-.3-.7v-.9c-.6 0-1.2-.2-1.7-.4-.6-.2-1.1-.4-1.5-.7a.78.78 0 0 1-.4-.4c-.1-.1-.1-.3-.1-.5 0-.3.1-.5.2-.7.2-.2.4-.3.6-.3s.5.1.8.3c.5.3 1 .5 1.4.6.5.1.9.2 1.4.2.7 0 1.2-.1 1.5-.4.3-.2.5-.6.5-1 0-.3-.1-.5-.3-.7s-.5-.3-.7-.4l-1.3-.4-2-.6c-.5-.2-1-.5-1.4-1-.4-.4-.6-1-.6-1.8 0-.9.3-1.6.9-2.3.6-.6 1.4-1 2.4-1.2v-.9c0-.3.1-.5.3-.7s.4-.3.7-.3.5.1.7.3.3.4.3.7v.9c1 .1 1.9.5 2.8 1.1a.78.78 0 0 1 .4.4c.1.1.1.3.1.5 0 .3-.1.5-.2.7-.2.2-.4.3-.6.3h-.3c-.1 0-.2-.1-.4-.2-.4-.3-.8-.5-1.2-.6s-.8-.2-1.3-.2c-.6 0-1.1.1-1.4.4-.4.3-.5.6-.5 1 0 .3.1.6.3.7.2.2.5.3.8.4s.8.2 1.3.4l2 .6c.6.2.9.5 1.3 1 .4.4.6 1 .6 1.8-.1.8-.4 1.6-1 2.2z" fill="#0070d0"/><defs><path id="A" d="M36.8,14.4c0,1.2-1,2.2-2.2,2.2s-2.2-1-2.2-2.2c0-1.2,1-2.2,2.2-2.2S36.8,13.2,36.8,14.4"/></defs><use xlink:href="#A" fill-rule="evenodd" fill="#0070d0"/><path d="M58.3 38.6V23h6.5v-1.9c0-1.5-.8-2.9-2-3.7L38.6 2.6c-1.2-.7-2.6-1.1-4-1.1s-2.8.4-4 1.1l-24 14.9c-1.3.8-2 2.2-2 3.7V23H11v21.5m8.6.1V27.3h12.9v17.3" fill="none" class="E F G H I"/><g enable-background="new" fill="none" class="E F G H"><path d="M49.7 39V27.3H39l.1 11.7z"/><path d="M49.7 8V1.5h8.6v12.9" class="I"/></g></svg>