<?xml version="1.0" encoding="utf-8"?>
<!-- Generator: Adobe Illustrator 24.3.0, SVG Export Plug-In . SVG Version: 6.00 Build 0)  -->
<svg version="1.1" id="Layer_1" xmlns="http://www.w3.org/2000/svg" xmlns:xlink="http://www.w3.org/1999/xlink" x="0px" y="0px"
	 viewBox="0 0 80 80" style="enable-background:new 0 0 80 80;" xml:space="preserve">
<style type="text/css">
	.st0{fill:none;stroke:#2C71B9;stroke-width:2.5;stroke-linecap:round;stroke-linejoin:round;stroke-miterlimit:10;}
</style>
<g>
	<g>
		<line class="st0" x1="18.8" y1="35.6" x2="28.2" y2="26.1"/>
		<line class="st0" x1="34" y1="25.4" x2="46" y2="32.6"/>
		<line class="st0" x1="51.6" y1="31.8" x2="63.2" y2="19"/>
		<ellipse class="st0" cx="30.8" cy="23.5" rx="3.7" ry="3.7"/>
		<ellipse class="st0" cx="49.2" cy="34.5" rx="3.7" ry="3.7"/>
		<line class="st0" x1="73" y1="16.2" x2="69.3" y2="16.2"/>
		<ellipse class="st0" cx="65.7" cy="16.2" rx="3.7" ry="3.7"/>
		<line class="st0" x1="8.8" y1="38.2" x2="12.5" y2="38.2"/>
		<ellipse class="st0" cx="16.2" cy="38.2" rx="3.7" ry="3.7"/>
	</g>
	<g>
		<defs>
			<path id="SVGID_1_" d="M41.8,56.5c0,1-0.8,1.8-1.8,1.8s-1.8-0.8-1.8-1.8c0-1,0.8-1.8,1.8-1.8S41.8,55.4,41.8,56.5"/>
		</defs>
		<use xlink:href="#SVGID_1_"  style="overflow:visible;fill-rule:evenodd;clip-rule:evenodd;fill:#2C71B9;"/>
		<clipPath id="SVGID_2_">
			<use xlink:href="#SVGID_1_"  style="overflow:visible;"/>
		</clipPath>
	</g>
	<g>
		<path class="st0" d="M25.3,63.8H5.2c-2,0-3.7-1.6-3.7-3.7V8.9c0-2,1.6-3.7,3.7-3.7h69.7c2,0,3.7,1.6,3.7,3.7v51.2
			c0,2-1.6,3.7-3.7,3.7H32.7"/>
		<line class="st0" x1="27.2" y1="74.7" x2="52.8" y2="74.7"/>
		<line class="st0" x1="47.3" y1="63.8" x2="47.3" y2="71.1"/>
		<line class="st0" x1="32.7" y1="63.8" x2="32.7" y2="71.1"/>
		<line class="st0" x1="8.8" y1="49.1" x2="71.2" y2="49.1"/>
		<path class="st0" d="M51,74.7c-2,0-3.7-1.6-3.7-3.7"/>
		<path class="st0" d="M32.7,71.1c0,2-1.6,3.7-3.7,3.7"/>
	</g>
</g>
</svg>
