<?xml version="1.0" encoding="utf-8"?>
<!-- Generator: Adobe Illustrator 24.3.0, SVG Export Plug-In . SVG Version: 6.00 Build 0)  -->
<svg version="1.1" id="Layer_1" xmlns="http://www.w3.org/2000/svg" xmlns:xlink="http://www.w3.org/1999/xlink" x="0px" y="0px"
	 viewBox="0 0 80 80" style="enable-background:new 0 0 80 80;" xml:space="preserve">
<style type="text/css">
	.st0{fill:none;stroke:#2A6FB6;stroke-width:2.5;stroke-linecap:round;stroke-linejoin:round;stroke-miterlimit:10;}
	.st1{fill:none;stroke:#2A6FB6;stroke-width:2.6306;stroke-linecap:round;stroke-linejoin:round;stroke-miterlimit:10;}
	.st2{fill:#2A6FB6;stroke:#2A6FB6;stroke-width:0.5261;stroke-miterlimit:10;}
</style>
<g>
	<g>
		<circle class="st0" cx="13" cy="15.3" r="7.9"/>
		<path class="st0" d="M1.8,33c0,0,2-8.1,11.3-8.1c9.6,0,11.2,8.1,11.2,8.1"/>
	</g>
	<circle class="st0" cx="40.6" cy="54.9" r="7.9"/>
	<path class="st0" d="M29.4,72.6c0,0,2-8.1,11.3-8.1c9.6,0,11.2,8.1,11.2,8.1"/>
	<path class="st1" d="M25.3,64.1"/>
	<g>
		<circle class="st0" cx="66.9" cy="15.3" r="7.9"/>
		<path class="st0" d="M55.6,33c0,0,2-8.1,11.3-8.1c9.6,0,11.2,8.1,11.2,8.1"/>
	</g>
	<path class="st2" d="M39,10.5c-4.2,0-8.2,1-12,2.9c-0.3,0.2-0.7,0.3-1.1,0.3c-0.5,0-0.9-0.4-1-0.9c-0.1-0.6,0.1-1.1,0.7-1.3
		c1.3-0.6,2.5-1.3,3.8-1.7c7.8-2.7,15.4-2.2,22.8,1.5c0.3,0.1,0.5,0.3,0.8,0.4c0.5,0.4,0.7,1,0.4,1.5c-0.3,0.6-0.9,0.8-1.6,0.6
		c-0.2-0.1-0.4-0.2-0.5-0.3C47.4,11.5,43.3,10.5,39,10.5z"/>
	<path class="st2" d="M12.4,41.1c0.7,0,1.1,0.3,1.2,1.1c1,4.5,3.1,8.5,6.3,11.9c1.1,1.2,2.5,2.2,3.7,3.3c0.2,0.2,0.4,0.3,0.6,0.5
		c0.5,0.5,0.5,1.1,0.2,1.6c-0.4,0.5-1.1,0.6-1.6,0.3c-0.6-0.4-1.2-0.9-1.8-1.3c-5-4.2-8.2-9.4-9.7-15.7
		C11.1,41.8,11.6,41.2,12.4,41.1z"/>
	<path class="st2" d="M66.8,42.5c-0.4,1.4-0.8,2.8-1.3,4.1c-2,5.2-5.2,9.4-9.7,12.7c-0.2,0.2-0.4,0.3-0.7,0.4
		c-0.6,0.1-1-0.1-1.3-0.5c-0.3-0.6-0.2-1.1,0.2-1.5c0.5-0.5,1.2-0.9,1.7-1.4c4.3-3.7,7.2-8.4,8.5-14c0.2-0.8,0.7-1.2,1.4-1.1
		C66.4,41.2,66.8,41.8,66.8,42.5z"/>
</g>
</svg>
