<svg xmlns="http://www.w3.org/2000/svg" viewBox="0 0 80 80" xmlns:v="https://vecta.io/nano"><style><![CDATA[.C{stroke-miterlimit:10}.D{stroke-linecap:round}]]></style><g fill="none" stroke="#0070d0" stroke-width="2.5" stroke-linejoin="round"><circle cx="12.8" cy="15.9" r="8"/><path d="M1.5 33.6s2.1-8.2 11.4-8.2c9.7 0 11.3 8.2 11.3 8.2" class="C D"/><circle cx="40.6" cy="55.8" r="8"/><path d="M29.3 73.6s2.1-8.2 11.4-8.2c9.7 0 11.3 8.2 11.3 8.2" class="C D"/><circle cx="67.1" cy="15.9" r="8"/><path d="M55.8 33.6s2.1-8.2 11.4-8.2c9.7 0 11.3 8.2 11.3 8.2" class="C D"/></g><path d="M39 11c-4.3 0-8.3 1-12.1 2.9-.3.2-.7.3-1.1.3-.5 0-.9-.4-1-.9-.1-.6.1-1.1.7-1.3 1.3-.6 2.5-1.3 3.8-1.7 7.9-2.7 15.5-2.2 23 1.6.3.1.5.3.8.4.5.4.7 1 .4 1.5-.3.6-.9.8-1.6.6-.2-.1-.4-.2-.5-.3C47.4 12 43.3 11 39 11zM12.2 41.9c.7 0 1.1.4 1.2 1.1 1.1 4.6 3.2 8.6 6.4 12 1.1 1.2 2.5 2.2 3.7 3.4.2.2.4.3.6.5.5.5.5 1.1.2 1.6a1.25 1.25 0 0 1-1.6.3c-.6-.4-1.2-.9-1.8-1.3-5-4.2-8.3-9.5-9.8-15.8-.2-1.1.3-1.8 1.1-1.8zM67 43.2l-1.3 4.1c-2 5.2-5.2 9.5-9.7 12.8-.2.2-.5.3-.7.4a1.14 1.14 0 0 1-1.3-.6c-.3-.6-.2-1.1.3-1.5.6-.5 1.2-.9 1.7-1.4 4.4-3.8 7.3-8.5 8.6-14.1.2-.8.7-1.2 1.4-1.1a1.41 1.41 0 0 1 1 1.4z" stroke="#0070d0" fill="#0070d0" stroke-width=".5" class="C"/></svg>