<svg xmlns="http://www.w3.org/2000/svg" xmlns:xlink="http://www.w3.org/1999/xlink" viewBox="0 0 80 80" xmlns:v="https://vecta.io/nano"><g fill="none" stroke="#0071ce" stroke-width="2.5" stroke-linejoin="round" stroke-miterlimit="10"><use xlink:href="#B"/><use xlink:href="#B" y="19.7"/><path d="M51.8 58.5H28.2c-.5 0-.9-.4-.9-.9v-8c0-.5.4-.9.9-.9h23.6c.5 0 .9.4.9.9v8c0 .5-.4.9-.9.9z"/><path d="M64.5 68.3H40.9c-.5 0-.9-.4-.9-.9v-8c0-.5.4-.9.9-.9h23.6c.5 0 .9.4.9.9v8c0 .5-.4.9-.9.9z"/><path d="M39.1 68.3H15.5c-.5 0-.9-.4-.9-.9v-8c0-.5.4-.9.9-.9h23.6c.5 0 .9.4.9.9v8c0 .5-.4.9-.9.9zm25.4-19.7H40.9c-.5 0-.9-.4-.9-.9v-8c0-.5.4-.9.9-.9h23.6c.5 0 .9.4.9.9v8c0 .5-.4.9-.9.9z"/><path d="M77.2 48.6h-11c-.5 0-.9-.4-.9-.9v-8c0-.5.4-.9.9-.9h10.9c.5 0 .9.4.9.9v8c0 .5-.4.9-.8.9zm0 19.7h-11c-.5 0-.9-.4-.9-.9v-8c0-.5.4-.9.9-.9h10.9c.5 0 .9.4.9.9v8c0 .5-.4.9-.8.9zm-25.4 9.8H28.2c-.5 0-.9-.4-.9-.9v-8c0-.5.4-.9.9-.9h23.6c.5 0 .9.4.9.9v8c0 .5-.4.9-.9.9z"/><path d="M26.5 78.1H2.8c-.5 0-.9-.4-.9-.9v-8c0-.5.4-.9.9-.9h23.6c.5 0 .9.4.9.9v8c0 .5-.4.9-.8.9z"/><use xlink:href="#B" y="39.3"/><path d="M10.6 35.1l23-16.6 1.3 25.9zM3 6.2l5.906-4.3L21.73 19.56l-5.906 4.3z"/><path d="M17 22.9l3.6 5m-.1-7.5l3.6 5" stroke-linecap="round"/></g><defs ><path id="B" d="M77.2 38.8H53.5c-.5 0-.9-.4-.9-.9v-8c0-.5.4-.9.9-.9h23.6c.5 0 .9.4.9.9v8c0 .5-.4.9-.8.9z"/></defs></svg>