<?xml version="1.0" encoding="utf-8"?>
<!-- Generator: Adobe Illustrator 24.3.0, SVG Export Plug-In . SVG Version: 6.00 Build 0)  -->
<svg version="1.1" id="Layer_1" xmlns="http://www.w3.org/2000/svg" xmlns:xlink="http://www.w3.org/1999/xlink" x="0px" y="0px"
	 viewBox="0 0 80 80" style="enable-background:new 0 0 80 80;" xml:space="preserve">
<style type="text/css">
	.st0{fill:none;stroke:#2C71B9;stroke-width:2.5633;stroke-linecap:round;stroke-linejoin:round;stroke-miterlimit:10;}
	.st1{fill:#2C71B9;}
	.st2{enable-background:new    ;}
</style>
<g>
	<g>
		<g>
			<g>
				<path class="st0" d="M56.1,78.5c-7,0-13.6-3.8-17-10c-5.2-9.4-1.8-21.2,7.5-26.4c2.9-1.6,6.2-2.5,9.4-2.5c7,0,13.6,3.8,17,10
					c5.2,9.4,1.8,21.2-7.5,26.4C62.6,77.6,59.4,78.5,56.1,78.5z"/>
			</g>
		</g>
		<g>
			<g>
				<path class="st1" d="M59.7,63.7c-0.6,0.6-1.4,1-2.4,1.2l0,0.9c0,0.3-0.1,0.5-0.3,0.7c-0.2,0.2-0.4,0.3-0.7,0.3
					c-0.3,0-0.5-0.1-0.7-0.3c-0.2-0.2-0.3-0.4-0.3-0.7l0-0.9c-0.6,0-1.2-0.2-1.7-0.4c-0.6-0.2-1.1-0.4-1.5-0.7
					c-0.2-0.1-0.3-0.2-0.4-0.4c-0.1-0.1-0.1-0.3-0.1-0.5c0-0.3,0.1-0.5,0.2-0.7c0.2-0.2,0.4-0.3,0.6-0.3c0.2,0,0.5,0.1,0.8,0.3
					c0.5,0.3,1,0.5,1.4,0.6c0.5,0.1,0.9,0.2,1.4,0.2c0.7,0,1.2-0.1,1.5-0.4c0.3-0.2,0.5-0.6,0.5-1c0-0.3-0.1-0.5-0.3-0.7
					s-0.5-0.3-0.7-0.4c-0.3-0.1-0.7-0.2-1.3-0.4c-0.8-0.2-1.5-0.4-2-0.6c-0.5-0.2-1-0.5-1.4-1c-0.4-0.4-0.6-1-0.6-1.8
					c0-0.9,0.3-1.6,0.9-2.3c0.6-0.6,1.4-1,2.4-1.2l0-0.9c0-0.3,0.1-0.5,0.3-0.7c0.2-0.2,0.4-0.3,0.7-0.3c0.3,0,0.5,0.1,0.7,0.3
					c0.2,0.2,0.3,0.4,0.3,0.7l0,0.9c1,0.1,1.9,0.5,2.8,1.1c0.2,0.1,0.3,0.2,0.4,0.4c0.1,0.1,0.1,0.3,0.1,0.5c0,0.3-0.1,0.5-0.2,0.7
					c-0.2,0.2-0.4,0.3-0.6,0.3c-0.1,0-0.2,0-0.3,0c-0.1,0-0.2-0.1-0.4-0.2c-0.4-0.3-0.8-0.5-1.2-0.6c-0.4-0.1-0.8-0.2-1.3-0.2
					c-0.6,0-1.1,0.1-1.4,0.4c-0.4,0.3-0.5,0.6-0.5,1c0,0.3,0.1,0.6,0.3,0.7c0.2,0.2,0.5,0.3,0.8,0.4c0.3,0.1,0.8,0.2,1.3,0.4
					c0.8,0.2,1.4,0.4,2,0.6s0.9,0.5,1.3,1c0.4,0.4,0.6,1,0.6,1.8C60.6,62.3,60.3,63.1,59.7,63.7z"/>
			</g>
		</g>
	</g>
	<g>
		<g>
			<g>
				<defs>
					<path id="SVGID_1_" d="M36.8,14.4c0,1.2-1,2.2-2.2,2.2s-2.2-1-2.2-2.2c0-1.2,1-2.2,2.2-2.2S36.8,13.2,36.8,14.4"/>
				</defs>
				<use xlink:href="#SVGID_1_"  style="overflow:visible;fill-rule:evenodd;clip-rule:evenodd;fill:#2C71B9;"/>
				<clipPath id="SVGID_2_">
					<use xlink:href="#SVGID_1_"  style="overflow:visible;"/>
				</clipPath>
			</g>
			<path class="st0" d="M58.3,38.6V23h6.5v-1.9c0-1.5-0.8-2.9-2-3.7L38.6,2.6c-1.2-0.7-2.6-1.1-4-1.1c-1.4,0-2.8,0.4-4,1.1L6.6,17.5
				c-1.3,0.8-2,2.2-2,3.7V23H11v21.5"/>
			<polyline class="st0" points="19.6,44.6 19.6,27.3 32.5,27.3 32.5,44.6 			"/>
			<g>
				<g class="st2">
					<g>
						<g>
							<polygon class="st0" points="49.7,39 49.7,27.3 39,27.3 39.1,39 							"/>
							<polyline class="st0" points="49.7,8 49.7,1.5 58.3,1.5 58.3,14.4 							"/>
						</g>
					</g>
				</g>
			</g>
		</g>
	</g>
</g>
</svg>
