<?xml version="1.0" encoding="utf-8"?>
<!-- Generator: Adobe Illustrator 24.3.0, SVG Export Plug-In . SVG Version: 6.00 Build 0)  -->
<svg version="1.1" id="Layer_1" xmlns="http://www.w3.org/2000/svg" xmlns:xlink="http://www.w3.org/1999/xlink" x="0px" y="0px"
	 viewBox="0 0 80 80" style="enable-background:new 0 0 80 80;" xml:space="preserve">
<style type="text/css">
	.st0{fill:none;stroke:#0072CE;stroke-width:2.5;stroke-linecap:round;stroke-linejoin:round;stroke-miterlimit:10;}
</style>
<g>
	<path class="st0" d="M38.9,47.6L30.7,58c-0.8,1-2.4,1.2-3.4,0.4l0,0c-1-0.8-1.2-2.4-0.4-3.4l8.2-10.4c0.8-1,2.4-1.2,3.4-0.4l0,0
		C39.6,45,39.7,46.6,38.9,47.6z"/>
	<path class="st0" d="M7.5,38.3l-2.5,3.1c-0.4,0.5-1.2,0.6-1.7,0.2l-0.8-0.7c-0.5-0.4-0.6-1.2-0.2-1.7l2.5-3.1
		c0.4-0.5,1.2-0.6,1.7-0.2l0.8,0.7C7.9,37,7.9,37.8,7.5,38.3z"/>
	<path class="st0" d="M2.7,41.6c0,0-2.6,6.3-0.1,9c2.5,2.8,4.5,3,6.6,3.6c2.1,0.6,14,4.8,14,4.8s2.5,0.7,4-0.7"/>
	<path class="st0" d="M14.4,29.6l2.5-3.1c0.4-0.5,0.3-1.3-0.2-1.7l-0.8-0.7c-0.5-0.4-1.3-0.3-1.7,0.2l-2.5,3.1
		c-0.4,0.5-0.3,1.3,0.2,1.7l0.8,0.7C13.2,30.2,14,30.1,14.4,29.6z"/>
	<path class="st0" d="M16.6,24.1c0,0,5.5-4,8.8-2.1c3.3,1.9,4,3.7,5,5.6s7.8,12.6,7.8,12.6s1.3,2.3,0.3,4"/>
	<path class="st0" d="M68.1,25.2c0,0-5.1-6.8-13.4-6.8s-12.8,4.3-13.4,9.6c-0.4,3.8,0.9,9.4,8.1,11.4s12,2,15.1,5.1
		c2.8,2.8,3.3,7.7,1.6,11.3c-1.6,3.3-5.1,6-11.1,6.1c-5.6,0.1-12.1-2-19.4-8.6"/>
	<circle class="st0" cx="72.8" cy="29.1" r="5.7"/>
	<line class="st0" x1="54.5" y1="17.2" x2="54.5" y2="11.1"/>
	<line class="st0" x1="54.5" y1="68.4" x2="54.5" y2="62.3"/>
</g>
</svg>
