<?xml version="1.0" encoding="utf-8"?>
<!-- Generator: Adobe Illustrator 24.3.0, SVG Export Plug-In . SVG Version: 6.00 Build 0)  -->
<svg version="1.1" id="Layer_1" xmlns="http://www.w3.org/2000/svg" xmlns:xlink="http://www.w3.org/1999/xlink" x="0px" y="0px"
	 viewBox="0 0 80 80" style="enable-background:new 0 0 80 80;" xml:space="preserve">
<style type="text/css">
	.st0{fill:#2B71B9;}
	.st1{fill:none;stroke:#2B71B9;stroke-width:2.5;stroke-linecap:round;stroke-linejoin:round;stroke-miterlimit:10;}
</style>
<g>
	<path class="st0" d="M40,16.8c4,0,7.2,3.2,7.2,7.2c0,4-3.3,7.2-7.2,7.2c-4,0-7.2-3.2-7.2-7.2C32.8,20,36,16.8,40,16.8 M40,33.8
		c5.4,0,9.8-4.4,9.8-9.8s-4.4-9.8-9.8-9.8c-5.4,0-9.8,4.4-9.8,9.8S34.6,33.8,40,33.8"/>
	<path class="st0" d="M65.7,12.7c3.1,0,5.5,2.5,5.5,5.5c0,3.1-2.5,5.5-5.5,5.5c-3.1,0-5.5-2.5-5.5-5.5
		C60.2,15.2,62.7,12.7,65.7,12.7 M65.7,26.3c4.4,0,8.1-3.6,8.1-8.1c0-4.4-3.6-8.1-8.1-8.1c-4.5,0-8.1,3.6-8.1,8.1
		C57.6,22.7,61.3,26.3,65.7,26.3"/>
	<path class="st0" d="M77.2,44.7h-11c-2.3-1.8-5.2-2.8-8.4-2.8c-0.3,0-0.5,0-0.8,0c-0.4-1.9-1.3-3.6-2.7-4.8v-3.1
		c0-2.5,1.9-4.5,4.3-4.8c1.8,2.1,4.4,3.3,7.2,3.3c2.7,0,5.4-1.2,7.2-3.3c2.4,0.3,4.3,2.3,4.3,4.8V44.7z M57.8,67.3
		c-0.5,0-1,0-1.4-0.1c-5.7-0.7-10-5.6-10-11.3c0-2.7,1-5.4,2.8-7.5c1.8-2.1,4.2-3.4,6.9-3.8c0.6-0.1,1.1-0.1,1.7-0.1
		c6.3,0,11.4,5.1,11.4,11.4C69.2,62.2,64.1,67.3,57.8,67.3 M25.4,57.4V43.6c0-3.3,2.5-6.1,5.8-6.4c2.2,2.6,5.4,4.1,8.8,4.1
		c3.4,0,6.7-1.5,8.8-4.1c2.8,0.3,5.1,2.3,5.6,5c-2.8,0.7-5.3,2.2-7.2,4.4c-2.2,2.5-3.4,5.8-3.4,9.2c0,0.5,0,1,0.1,1.5L25.4,57.4
		L25.4,57.4z M2.8,44.7V33.9c0-2.5,1.9-4.5,4.3-4.8c1.8,2.1,4.4,3.3,7.2,3.3c2.7,0,5.4-1.2,7.2-3.3c2.4,0.3,4.3,2.3,4.3,4.8v3.2
		c-1.8,1.6-2.9,4-2.9,6.5v1H2.8z M72.3,26.5h-0.6l-0.4,0.5c-1.3,1.8-3.4,2.8-5.6,2.8c-2.2,0-4.3-1-5.6-2.8l-0.4-0.5h-0.6
		c-4.1,0-7.4,3.3-7.4,7.4v1.5c-1.1-0.5-2.3-0.7-3.5-0.7h-0.6l-0.4,0.5c-1.7,2.3-4.4,3.7-7.2,3.7c-2.8,0-5.5-1.4-7.2-3.7l-0.4-0.5
		h-0.6c-1.3,0-2.4,0.3-3.5,0.7v-1.5c0-4.1-3.3-7.4-7.4-7.4h-0.6l-0.4,0.5c-1.3,1.8-3.4,2.8-5.6,2.8c-2.2,0-4.3-1-5.6-2.8l-0.4-0.5
		H7.7c-4.1,0-7.4,3.3-7.4,7.4v13.3h22.6v12.7h21.6C46,65.1,50.5,69,56,69.7c0.6,0.1,1.2,0.1,1.7,0.1c7.7,0,14-6.3,14-14
		c0-3.3-1.1-6.3-3-8.6h10.9V33.9C79.7,29.8,76.4,26.5,72.3,26.5"/>
	<path class="st0" d="M14.3,12.7c3.1,0,5.5,2.5,5.5,5.5c0,3.1-2.5,5.5-5.5,5.5s-5.5-2.5-5.5-5.6C8.7,15.2,11.2,12.7,14.3,12.7
		 M14.3,26.3c4.4,0,8.1-3.6,8.1-8.1c0-4.4-3.6-8.1-8.1-8.1s-8.1,3.6-8.1,8.1C6.2,22.7,9.8,26.3,14.3,26.3"/>
	<path class="st1" d="M57.8,62.7c0,0-1.3-1.1-4.7-4.5c-3-3-1.6-5.7-1.6-5.7s0.8-1.8,2.8-1.8s3.5,2.1,3.5,2.1s1.4-2.1,3.5-2.1
		c2,0,2.8,1.8,2.8,1.8s1.4,2.6-1.6,5.7C59.1,61.6,57.8,62.7,57.8,62.7"/>
</g>
</svg>
