<?xml version="1.0" encoding="utf-8"?>
<!-- Generator: Adobe Illustrator 24.3.0, SVG Export Plug-In . SVG Version: 6.00 Build 0)  -->
<svg version="1.1" id="Layer_1" xmlns="http://www.w3.org/2000/svg" xmlns:xlink="http://www.w3.org/1999/xlink" x="0px" y="0px"
	 viewBox="0 0 80 80" style="enable-background:new 0 0 80 80;" xml:space="preserve">
<style type="text/css">
	.st0{fill-rule:evenodd;clip-rule:evenodd;fill:#2B9A47;}
	.st1{fill-rule:evenodd;clip-rule:evenodd;fill:#FFFFFE;}
</style>
<g id="Page-1">
	<g id="QB_64x64" transform="translate(-2.000000, -2.000000)">
		<path id="Fill-2" class="st0" d="M2.5,42C2.5,20.2,20.2,2.5,42,2.5S81.5,20.2,81.5,42S63.8,81.5,42,81.5S2.5,63.8,2.5,42"/>
		<path id="Fill-3" class="st1" d="M55.2,26.6H53v5.7h2.2c5.3,0,9.7,4.3,9.7,9.7c0,5.3-4.3,9.7-9.7,9.7h-5.3c0,0,0-29.3,0-29.9
			c0-3.2-2.6-5.7-5.7-5.7v41.3c0,0,5.9,0,11,0c8.5,0,15.4-6.9,15.4-15.4C70.6,33.5,63.7,26.6,55.2,26.6z M13.4,42
			c0,8.5,6.9,15.4,15.4,15.4H31v-5.7h-2.2c-5.3,0-9.7-4.3-9.7-9.7s4.3-9.7,9.7-9.7h5.3c0,0,0,29.3,0,29.9c0,3.2,2.6,5.7,5.7,5.7
			V26.6c0,0-5.9,0-11,0C20.3,26.6,13.4,33.5,13.4,42z"/>
	</g>
</g>
</svg>
