<?xml version="1.0" encoding="utf-8"?>
<!-- Generator: Adobe Illustrator 24.3.0, SVG Export Plug-In . SVG Version: 6.00 Build 0)  -->
<svg version="1.1" id="Layer_1" xmlns="http://www.w3.org/2000/svg" xmlns:xlink="http://www.w3.org/1999/xlink" x="0px" y="0px"
	 viewBox="0 0 80 80" style="enable-background:new 0 0 80 80;" xml:space="preserve">
<style type="text/css">
	.st0{fill:none;stroke:#2C72B8;stroke-width:2.5;stroke-linecap:round;stroke-linejoin:round;stroke-miterlimit:10;}
</style>
<g>
	<polyline class="st0" points="31.2,7.3 49.4,17.2 49.4,22.9 	"/>
	<line class="st0" x1="26.5" y1="22.7" x2="34.4" y2="27.2"/>
	<polygon class="st0" points="59.2,33.9 59.2,11.7 40,1.6 20.8,11.7 20.8,33.9 40,44.9 	"/>
	<path class="st0" d="M40,22.8L20.8,11.7L40,22.8z"/>
	<polyline class="st0" points="59.2,11.7 40,22.8 40,44.9 	"/>
	<polyline class="st0" points="50.4,39.6 68.6,50.6 68.6,56.3 	"/>
	<line class="st0" x1="45.7" y1="56.1" x2="53.6" y2="60.6"/>
	<polygon class="st0" points="78.4,67.3 78.4,45.1 59.2,34 40,45.1 40,67.3 59.2,78.4 	"/>
	<path class="st0" d="M59.2,56.2L40,45.1L59.2,56.2z"/>
	<polyline class="st0" points="78.4,45.1 59.2,56.2 59.2,78.4 	"/>
	<polyline class="st0" points="12.1,39.6 30.2,50.6 30.2,56.3 	"/>
	<line class="st0" x1="7.3" y1="56.1" x2="15.3" y2="60.6"/>
	<polygon class="st0" points="40,67.3 40,45.1 20.8,34 1.6,45.1 1.6,67.3 20.8,78.4 	"/>
	<path class="st0" d="M20.8,56.2L1.6,45.1L20.8,56.2z"/>
	<polyline class="st0" points="40,45.1 20.8,56.2 20.8,78.4 	"/>
</g>
</svg>
