<svg xmlns="http://www.w3.org/2000/svg" viewBox="0 0 80 80" xmlns:v="https://vecta.io/nano"><g fill="none" stroke="#0071ce" stroke-width="2.5" stroke-linecap="round" stroke-miterlimit="10"><path d="M14.9 23.5s.8 8 5.4 9.9 8.8 3.5 11.5 5.8 10.7 10.4 10.7 10.4 5.9 5.1 9.6 1.5c3.4-3.2 1.5-7.3 0-8.8-1.5-1.6-11.5-9.3-11.5-9.3s-5.8-5.9 1.9-7.3M30.3 9.2s21.2 2 24.2 5.3c2.2 2.4 3 21.6 3 21.6"/><path d="M26.3 1.5l5.1 5.2-20.1 20-5.1-5.1" stroke-linejoin="round"/><path d="M54 38.9c10.9 0 19.8 8.9 19.8 19.8S64.9 78.5 54 78.5s-19.8-8.9-19.8-19.8a20 20 0 0 1 2.5-9.7"/></g><path d="M57.3 64.1c-.5.5-1.2.8-2 1v.8c0 .2-.1.4-.2.6-.1.1-.3.2-.6.2-.2 0-.4-.1-.6-.2s-.2-.3-.2-.6v-.7c-.5 0-1-.1-1.4-.3-.5-.2-.9-.4-1.2-.6l-.3-.3c-.1-.1-.1-.3-.1-.4 0-.2.1-.4.2-.6a.55.55 0 0 1 .5-.3c.2 0 .4.1.6.2.4.2.8.4 1.2.5s.8.2 1.2.2c.5 0 1-.1 1.3-.3s.4-.5.4-.9c0-.2-.1-.4-.3-.6-.2-.1-.4-.3-.6-.3-.2-.1-.6-.2-1.1-.3l-1.7-.5c-.4-.2-.8-.4-1.1-.8s-.5-.9-.5-1.5c0-.7.3-1.4.8-1.9s1.2-.9 2-1v-.8c0-.2.1-.4.2-.6.2-.1.3-.2.6-.2.2 0 .4.1.6.2.1.1.2.3.2.6v.7a5.05 5.05 0 0 1 2.3.9l.3.3c.1.1.1.3.1.4 0 .2-.1.4-.2.6a.55.55 0 0 1-.5.3h-.3c-.1 0-.2-.1-.4-.2-.4-.2-.7-.4-1-.5s-.7-.2-1.1-.2c-.5 0-.9.1-1.2.3s-.4.5-.4.9c0 .3.1.5.3.6.2.2.4.3.7.4s.6.2 1.1.3c.7.2 1.2.3 1.6.5s.8.4 1.1.8.5.9.5 1.5c-.1.7-.3 1.3-.8 1.8z" fill="#0472cc"/></svg>