<?xml version="1.0" encoding="utf-8"?>
<!-- Generator: Adobe Illustrator 24.3.0, SVG Export Plug-In . SVG Version: 6.00 Build 0)  -->
<svg version="1.1" id="Layer_1" xmlns="http://www.w3.org/2000/svg" xmlns:xlink="http://www.w3.org/1999/xlink" x="0px" y="0px"
	 viewBox="0 0 80 80" style="enable-background:new 0 0 80 80;" xml:space="preserve">
<style type="text/css">
	.st0{fill:none;stroke:#0072CC;stroke-width:2.5;stroke-linecap:round;stroke-linejoin:round;stroke-miterlimit:10;}
</style>
<g>
	<g>
		<line class="st0" x1="13.5" y1="31.2" x2="24.8" y2="19.8"/>
		<line class="st0" x1="31.7" y1="19" x2="46.1" y2="27.6"/>
		<line class="st0" x1="52.8" y1="26.6" x2="66.7" y2="11.2"/>
		<ellipse class="st0" cx="27.9" cy="16.7" rx="4.4" ry="4.4"/>
		<ellipse class="st0" cx="49.9" cy="29.9" rx="4.4" ry="4.4"/>
		<line class="st0" x1="78.4" y1="8" x2="74" y2="8"/>
		<ellipse class="st0" cx="69.6" cy="8" rx="4.4" ry="4.4"/>
		<line class="st0" x1="1.6" y1="34.2" x2="6" y2="34.2"/>
		<ellipse class="st0" cx="10.4" cy="34.2" rx="4.4" ry="4.4"/>
	</g>
	<line class="st0" x1="1.6" y1="76.4" x2="78.4" y2="76.4"/>
	<polyline class="st0" points="45.1,75.6 45.1,51.8 52.6,51.8 52.6,75.6 	"/>
	<polyline class="st0" points="61.5,75.6 61.5,40.4 69.1,40.4 69.1,75.6 	"/>
	<polyline class="st0" points="28.6,75.6 28.6,46.7 36.2,46.7 36.2,75.6 	"/>
	<polyline class="st0" points="12.2,75.6 12.2,59.4 19.8,59.4 19.8,75.6 	"/>
</g>
</svg>
