<?xml version="1.0" encoding="utf-8"?>
<!-- Generator: Adobe Illustrator 25.0.1, SVG Export Plug-In . SVG Version: 6.00 Build 0)  -->
<svg version="1.1" id="Layer_1" xmlns:v="https://vecta.io/nano"
	 xmlns="http://www.w3.org/2000/svg" xmlns:xlink="http://www.w3.org/1999/xlink" x="0px" y="0px" viewBox="0 0 80 80"
	 style="enable-background:new 0 0 80 80;" xml:space="preserve">
<style type="text/css">
	.st0{fill:none;stroke:#0070D0;stroke-width:2.5;stroke-linecap:round;stroke-linejoin:round;stroke-miterlimit:10;}
</style>
<circle class="st0" cx="43.4" cy="15.9" r="13.3"/>
<path class="st0" d="M24.6,45.5c0,0,3.4-13.6,19-13.6C59.7,32,62.5,45.5,62.5,45.5 M1.5,63c0,0,11.6-11.4,14-12.3
	c2-0.7,3.9-1.2,6.6-0.9c3.3,0.4,4.2,1.1,10,1.3l0.9,0.1h14c2.9,0,5.3,1.6,5.3,4.5l0,0c0,2.9-2.4,4.5-5.3,4.5H33 M10.7,77.4
	c0,0,5.4-5.7,8.3-5.5s27.2,0,27.2,0c1.2,0.7,13.9-7.3,13.9-7.3l15.6-9.1c2.6-1.4,3.5-4.6,2.2-7.1l0,0c-1.4-2.6-4.6-3.5-7.1-2.2
	L56.3,54"/>
</svg>
