<svg xmlns="http://www.w3.org/2000/svg" viewBox="0 0 80 80" xmlns:v="https://vecta.io/nano"><style><![CDATA[.D{stroke-width:2.5}.E{stroke-linejoin:round}.F{stroke-miterlimit:10}.G{stroke-linecap:round}]]></style><g fill="none" class="D E"><g stroke="#6caae2"><path d="M61.9 72.7l-37.2-6.1c-3.5-.6-5.8-3.8-5.2-7.3l8.2-50.2c.6-3.5 3.8-5.8 7.3-5.2L72.2 10c3.5.6 5.8 3.8 5.2 7.3l-8.2 50.2c-.6 3.5-3.9 5.8-7.3 5.2z" class="F"/><circle cx="55.2" cy="53.9" r="5.9"/><path d="M44.2 64.9s2.8-5.6 9.5-4c6.9 1.6 6.8 7.7 6.8 7.7M34.9 17.8L68 23.2m-34.5 3.1l33.1 5.4m-34.5 3l33.1 5.5" class="F G"/></g><path d="M30.7 43.2l14.4 2.4" stroke="#0070d0" class="F G"/></g><g stroke="#6caae2" class="D E"><path d="M46.6 76.2H8.8c-3.5 0-6.3-2.8-6.3-6.3V19c0-3.5 2.8-6.3 6.3-6.3h37.7c3.5 0 6.3 2.8 6.3 6.3v50.9c.1 3.4-2.7 6.3-6.2 6.3z" fill="#fff" class="F"/><g fill="none"><path d="M11.1 42.3h33.5m-33.5 8.6h33.5m-33.5 8.5h33.5M11.1 68h33.5" class="G F"/><circle cx="19.4" cy="23.8" r="5.9"/><path d="M11.1 36.9s1.5-6 8.4-6c7.1 0 8.3 6 8.3 6" class="F G"/></g></g></svg>