<svg xmlns="http://www.w3.org/2000/svg" viewBox="0 0 80 80" xmlns:v="https://vecta.io/nano"><g stroke-width="2.5" stroke-linecap="round" stroke-miterlimit="10"><path d="M1.4 53.3S13 41.9 15.5 41c2.1-.7 3.9-1.2 6.6-.9 3.3.4 4.2 1.1 10 1.3l.9.1h14c2.9 0 5.3 1.6 5.3 4.5h0c0 2.9-2.4 4.5-5.3 4.5H33M10.6 67.7S16 62 19 62.1s27.3 0 27.3 0c1.2.7 13.9-7.3 13.9-7.3l15.6-9.1c2.6-1.4 3.6-4.6 2.2-7.2h0c-1.4-2.6-4.6-3.6-7.2-2.2L56 44" fill="none" stroke="#0072cc"/><path d="M42.3,37.8c-3.3-2.3-5.7-5.9-6.5-10.1C34.4,19.2,40,11.3,48.4,9.9s16.4,4.2,17.8,12.6S62,38.9,53.6,40.3" fill="#fff" stroke="#0071ce"/></g><path d="M55.3 31.3c-.8.8-1.8 1.3-3.1 1.5V34c0 .4-.1.7-.3.9s-.5.3-.9.3-.7-.1-.9-.3-.4-.5-.4-.9v-1.1c-.8-.1-1.5-.2-2.2-.5-.7-.2-1.3-.6-1.9-1-.2-.1-.4-.3-.5-.5s-.1-.4-.1-.7.1-.6.3-.9.5-.4.7-.4c.3 0 .6.1 1 .3.6.4 1.2.6 1.8.8s1.2.3 1.8.3c.8 0 1.5-.2 1.9-.5s.7-.7.7-1.3c0-.3-.1-.6-.4-.8s-.6-.4-.9-.5-.9-.2-1.6-.4c-1-.3-1.9-.5-2.5-.8a6.57 6.57 0 0 1-1.7-1.2c-.5-.6-.7-1.3-.7-2.3 0-1.1.4-2.1 1.2-2.9s1.8-1.3 3.1-1.5v-1.2c0-.4.1-.7.4-.9s.5-.3.9-.3.7.1.9.3.3.5.3.9V18c1.2.2 2.4.6 3.5 1.4.2.1.4.3.4.5.1.2.1.4.1.6 0 .3-.1.6-.3.9s-.5.4-.7.4-.3 0-.4-.1c-.1 0-.3-.1-.5-.3-.6-.4-1.1-.6-1.5-.8s-1-.3-1.6-.3c-.7 0-1.3.2-1.8.5-.4.3-.7.8-.7 1.3 0 .4.1.7.4.9l1 .6c.4.2 1 .3 1.7.5 1 .2 1.8.5 2.5.8s1.2.7 1.7 1.2c.5.6.7 1.3.7 2.2-.2 1.3-.6 2.2-1.4 3z" fill="#0071ce" enable-background="new"/></svg>