<svg xmlns="http://www.w3.org/2000/svg" width="30" height="30" viewBox="0 0 30 30">
    <g fill="none" fill-rule="evenodd">
        <circle cx="15" cy="15" r="15" fill="#2968B2"/>
        <g fill="#FFF">
            <path d="M10.1 7.5l.1-.1c1-1.5 2.4-2 4.1-1.7 1.9.3 3.2 1.7 3.5 3.9.1.5.1 1 .1 1.5v6.4c0 .2-.1.3-.3.3h-3.2c-.2 0-.3-.1-.3-.3v-6c0-.5 0-.9-.2-1.3-.4-1.4-1.9-1.9-3-1-.6.5-.8 1.2-.8 2v6.3c0 .2-.1.3-.3.3H6.5c-.2 0-.3 0-.3-.3V6.1c0-.2 0-.3.3-.3h3.3c.2 0 .3.1.2.3.1.5.1.9.1 1.4zM4.2 17.5c0 .2 0 .3-.3.3H.6c-.2 0-.3-.1-.3-.3V6.1c0-.2 0-.3.2-.3h3.3c.2 0 .3.1.3.3.1 2 .1 9.5.1 11.4zM2.3.2c1.5 0 2.4 1.2 2.1 2.6-.3 1.1-1.3 1.7-2.5 1.5C.6 4.1-.1 2.8.4 1.5.5.7 1.3.2 2.3.2z" transform="translate(6 6)"/>
        </g>
    </g>
</svg>
