<svg xmlns="http://www.w3.org/2000/svg" viewBox="0 0 80 80" xmlns:v="https://vecta.io/nano"><path d="M38.3 1.6h3.4c.1 0 .3.1.4.1 4.3.2 8.4 1.2 12.3 2.8 13.4 5.4 22.8 18.3 23.8 32.8.4 6.1-.5 11.9-2.9 17.5C69.7 68.3 56.6 77.6 42 78.3c-5.3.3-10.4-.4-15.4-2.3-8.6-3.2-15.2-8.8-19.9-16.7-2.8-4.7-4.4-9.8-5-15.2-.1-.8-.1-1.6-.2-2.4v-3.4c0-.5.1-1 .1-1.5.3-3.8 1.1-7.4 2.6-10.9 3.5-8.5 9.2-15 17.3-19.5 4.4-2.5 9.2-3.9 14.3-4.5l2.5-.3zM59 55.9V41a17.59 17.59 0 0 0-.6-4.6c-.7-2.1-1.8-3.8-3.8-5-3.3-1.9-9.1-1.6-12.1 2.7-.1.1-.1.2-.3.4-.1-1.3-.3-2.4-.4-3.5h-6.6l.1 24.9h7.8V41.1c0-1.6.7-2.9 2.1-3.8 2.2-1.4 4.9-.5 5.7 2 .3.8.4 1.6.4 2.5V56c2.5-.1 5.1-.1 7.7-.1zm-36.1 0h7.7V31h-7.7v24.9zm3.8-28.1c1.5 0 2.8-.5 3.6-1.8s.8-2.7 0-4.1-2.1-1.9-3.6-1.8c-1.4 0-2.6.5-3.4 1.8s-.8 2.7-.1 4c.6 1.3 1.9 1.9 3.5 1.9z" fill="none" stroke="#6caae2" stroke-width="2.5" stroke-linejoin="round" stroke-miterlimit="10"/></svg>