<svg xmlns="http://www.w3.org/2000/svg" viewBox="0 0 80 80" fill="none" stroke="#0071ce" stroke-width="2.5" stroke-linejoin="round" stroke-miterlimit="10" xmlns:v="https://vecta.io/nano"><path d="M39.7 64.5h3.1v-8.7s.2-.3.3-.4c1.5-1.3 2.9-3 2.9-5.2 0-3.4-2.8-6.2-6.2-6.2h.2c-3.4 0-6.2 2.8-6.2 6.2 0 2.2 1.3 3.9 2.9 5.2.1.1.3.4.3.4v8.7h2.7z"/><path d="M58.6 78.5H21.4C15 78.5 9.9 73.4 9.9 67V41.5C9.9 35.2 15 30 21.4 30h37.3c6.3 0 11.5 5.1 11.5 11.5V67c-.1 6.4-5.2 11.5-11.6 11.5z"/><path d="M20.9,22.1c0-11.4,8.6-20.6,19.1-20.6s19.2,9.2,19.2,20.6v7.8" stroke-linecap="round"/></svg>