<svg xmlns="http://www.w3.org/2000/svg" xmlns:xlink="http://www.w3.org/1999/xlink" width="256" height="33" viewBox="0 0 256 33">
    <defs>
        <path id="q2d7f4is5a" d="M0 0.583L18.781 0.583 18.781 31.207 0 31.207z"/>
    </defs>
    <g fill="none" fill-rule="evenodd">
        <g transform="translate(0 .228)">
            <mask id="q9yh6tilxb" fill="#fff">
                <use xlink:href="#q2d7f4is5a"/>
            </mask>
            <path fill="#202620" d="M16.659 6.174c-.621-.288-1.604-.494-2.588-.494-1.087 0-2.07.575-2.07 1.52v2.796h5.64l-1.189 4.687H12v16.524H2.995V14.683H0V9.996h2.995c-.155-.74-.155-1.726-.155-2.548 0-6.125 5.952-6.865 9.316-6.865 2.743 0 4.658.247 6.625 1.11l-2.122 4.48z" mask="url(#q9yh6tilxb)"/>
            <path fill="#202620" d="M46.738 31.207l-3.117-6.613c-1.153-2.443-1.836-2.748-3.502-2.748v9.361h-7.643V7.567h10.248c8.754 0 11.572 2.816 11.572 6.75 0 4.07-2.69 6.139-6.191 6.614 1.025.237 2.263 1.323 2.988 2.543.983 1.595 3.502 5.97 4.484 7.733h-8.84zm-4.484-18.653H40.12v4.816h2.178c2.605 0 3.501-.983 3.501-2.578 0-1.696-1.152-2.238-3.544-2.238zM67.831 31.615c-4.483 0-7.985-.882-10.974-2.137l2.69-4.749c2.135.984 5.338 1.9 8.37 1.9 2.989 0 4.185-.883 4.185-2.171 0-1.052-.94-1.526-2.99-1.933l-3.501-.713c-4.313-.882-7.26-2.78-7.26-6.851 0-4.68 4.869-7.8 11.53-7.8 4.142 0 7.985.847 10.633 2.306l-3.672 4.307c-2.008-1.051-4.655-1.662-6.705-1.662-1.964 0-3.031.747-3.031 1.696 0 .78.683 1.56 2.904 2l3.032.612c3.202.645 7.813 1.797 7.813 6.546 0 5.664-5.294 8.649-13.024 8.649"/>
        </g>
        <path fill="#202620" d="M82.136 7.795L82.136 12.816 89.053 12.816 89.053 31.436 96.783 31.436 96.783 12.816 103.701 12.816 104.597 7.795zM19.816 11.542L19.816 31.434 27.707 31.434 27.707 6.781z"/>
        <g fill="#007DC2">
            <path d="M1.845 5.665H.375V4.22h1.47v-.963c0-1.883.445-3.114 2.66-3.114.386 0 .757.027 1.128.099l-.12 1.444c-.251-.057-.49-.1-.742-.1-.994 0-1.143.652-1.143 1.402V4.22h1.649v1.445h-1.65v5.353H1.846V5.665zM7.564.893c.654 0 1.159.439 1.159 1.02 0 .58-.505 1.019-1.159 1.019s-1.128-.482-1.128-1.02c0-.537.474-1.019 1.128-1.019zm-.876 10.125h1.783V4.22H6.688v6.798zM10.521 4.22h1.783v1.076h.03c.386-.778 1.173-1.246 2.108-1.246.224 0 .431.043.639.1v1.642c-.296-.07-.579-.127-.861-.127-1.678 0-1.916 1.345-1.916 1.713v3.64H10.52V4.22zM20.103 6.103c-.34-.453-.787-.693-1.397-.693-.475 0-1.038.212-1.038.722 0 1.217 3.846.227 3.846 2.874 0 1.614-1.619 2.181-3.075 2.181-1.1 0-2.05-.27-2.779-1.047l1.19-1.063c.46.481.936.836 1.693.836.52 0 1.189-.241 1.189-.78 0-1.401-3.849-.297-3.849-2.888 0-1.515 1.427-2.195 2.868-2.195.951 0 1.961.284 2.54 1.034l-1.188 1.02zM22.064 5.665V4.22h1.47V2.252h1.784V4.22h1.96v1.445h-1.96v2.973c0 .68.207 1.104.995 1.104.312 0 .742-.056.965-.211v1.43c-.372.17-.995.226-1.41.226-1.888 0-2.333-.807-2.333-2.407V5.665h-1.471zM33.71 5.665h-1.47V4.22h1.47v-.963c0-1.883.446-3.114 2.66-3.114.386 0 .759.027 1.129.099l-.119 1.444c-.251-.057-.49-.1-.743-.1-.995 0-1.143.652-1.143 1.402V4.22h1.648v1.445h-1.648v5.353h-1.783V5.665zM39.43.893c.655 0 1.16.439 1.16 1.02 0 .58-.505 1.019-1.16 1.019-.654 0-1.129-.482-1.129-1.02 0-.537.475-1.019 1.13-1.019zm-.876 10.125h1.782V4.22h-1.782v6.798zM42.387 4.22h1.693v1.09h.03c.327-.679.996-1.26 2.184-1.26 1.917 0 2.6 1.289 2.6 2.677v4.29H47.11v-3.44c0-.751-.06-1.997-1.306-1.997-1.175 0-1.636.82-1.636 1.728v3.71h-1.782V4.22zM55.37 10.082h-.043c-.506.765-1.337 1.105-2.29 1.105-1.32 0-2.598-.694-2.598-2.039 0-2.21 2.704-2.364 4.487-2.364h.445v-.185c0-.836-.683-1.274-1.634-1.274-.743 0-1.426.283-1.902.707l-.936-.891c.787-.766 1.902-1.09 3.031-1.09 3.046 0 3.046 2.096 3.046 3.058v3.908H55.37v-.935zm-.103-2.109h-.372c-.98 0-2.674.07-2.674 1.047 0 .624.669.892 1.248.892 1.219 0 1.798-.609 1.798-1.557v-.382zM58.669 4.22h1.693v1.09h.03c.327-.679.995-1.26 2.184-1.26 1.917 0 2.6 1.289 2.6 2.677v4.29h-1.782v-3.44c0-.751-.06-1.997-1.308-1.997-1.174 0-1.634.82-1.634 1.728v3.71h-1.783V4.22zM71.847 6.26c-.416-.412-.876-.68-1.352-.68-1.308 0-2.094.977-2.094 2.039 0 1.062.786 2.039 2.094 2.039.55 0 1.055-.227 1.382-.638l1.189 1.219c-.728.693-1.947.948-2.57.948-2.156 0-3.878-1.43-3.878-3.568 0-2.139 1.722-3.57 3.877-3.57.906 0 1.901.314 2.585 1.035l-1.233 1.175zM75.041.893c.653 0 1.158.439 1.158 1.02 0 .58-.505 1.019-1.158 1.019-.655 0-1.13-.482-1.13-1.02 0-.537.475-1.019 1.13-1.019zm-.876 10.125h1.783V4.22h-1.783v6.798zM82.454 10.082h-.044c-.506.765-1.338 1.105-2.288 1.105-1.323 0-2.6-.694-2.6-2.039 0-2.21 2.704-2.364 4.486-2.364h.446v-.185c0-.836-.683-1.274-1.634-1.274-.743 0-1.426.283-1.902.707l-.936-.891c.787-.766 1.902-1.09 3.031-1.09 3.046 0 3.046 2.096 3.046 3.058v3.908h-1.605v-.935zm-.105-2.109h-.37c-.981 0-2.675.07-2.675 1.047 0 .624.669.892 1.248.892 1.219 0 1.797-.609 1.797-1.557v-.382z" transform="translate(128.425 14.009)"/>
        </g>
        <path fill="#007DC2" d="M214.43 25.026L216.213 25.026 216.213 14.321 214.43 14.321z"/>
        <g fill="#007DC2">
            <path d="M.679.312h1.783v4.772h.045c.372-.44 1.085-1.033 2.421-1.033 2.036 0 3.448 1.557 3.448 3.567 0 2.011-1.323 3.57-3.522 3.57-.995 0-1.93-.37-2.451-1.19h-.03v1.02H.68V.311zm3.819 5.267c-1.308 0-2.095.978-2.095 2.04s.787 2.039 2.095 2.039c1.307 0 2.094-.977 2.094-2.04 0-1.061-.787-2.039-2.094-2.039zM14.348 10.082h-.045c-.505.765-1.337 1.105-2.287 1.105-1.323 0-2.6-.694-2.6-2.039 0-2.21 2.703-2.364 4.486-2.364h.446v-.185c0-.836-.684-1.274-1.634-1.274-.744 0-1.427.283-1.902.707l-.936-.891c.787-.766 1.901-1.09 3.03-1.09 3.046 0 3.046 2.096 3.046 3.058v3.908h-1.604v-.935zm-.105-2.109h-.372c-.98 0-2.673.07-2.673 1.047 0 .624.669.892 1.248.892 1.218 0 1.797-.609 1.797-1.557v-.382zM17.868 4.22h1.694v1.09h.03c.327-.679.995-1.26 2.184-1.26 1.916 0 2.599 1.289 2.599 2.677v4.29h-1.783v-3.44c0-.751-.059-1.997-1.307-1.997-1.173 0-1.634.82-1.634 1.728v3.71h-1.783V4.22z" transform="translate(221.98 14.009)"/>
        </g>
        <path fill="#007DC2" d="M248.376 14.321L248.376 25.026 250.159 25.026 250.159 21.556 250.189 21.556 253.025 25.026 255.387 25.026 252.134 21.315 255.194 18.229 252.906 18.229 250.159 21.047 250.159 14.321z"/>
        <path fill="#241F21" d="M109.71 8.213c.397.218.71.516.939.895.228.378.343.8.343 1.263 0 .465-.115.886-.343 1.265-.23.379-.544.678-.943.898-.4.22-.84.331-1.322.331-.488 0-.93-.11-1.327-.33-.397-.221-.711-.52-.942-.899-.232-.379-.347-.8-.347-1.265 0-.463.114-.885.342-1.263.23-.379.544-.677.944-.895.398-.218.842-.328 1.33-.328.486 0 .929.11 1.326.328m-.19 4.022c.339-.188.605-.446.8-.773.194-.328.292-.69.292-1.09 0-.4-.098-.763-.292-1.09-.195-.328-.461-.584-.8-.77-.34-.186-.718-.278-1.136-.278-.42 0-.8.092-1.14.278-.342.186-.61.442-.804.77-.195.327-.293.69-.293 1.09 0 .4.098.762.293 1.09.194.327.462.585.803.773.341.188.721.282 1.14.282.42 0 .798-.094 1.137-.282m-.172-1.257l.526.863h-.738l-.555-.94c-.05-.074-.1-.127-.154-.157-.053-.03-.124-.045-.212-.045h-.314v1.142h-.665V8.903h1.345c.35 0 .62.078.81.236.191.158.286.376.286.654 0 .223-.067.41-.201.561-.135.151-.323.248-.567.29.195.046.341.157.44.334m-.446-.846c.087-.068.13-.173.13-.317 0-.144-.042-.25-.127-.317-.085-.068-.22-.1-.406-.1h-.606v.835h.606c.18 0 .314-.034.403-.101"/>
    </g>
</svg>
