<svg xmlns="http://www.w3.org/2000/svg" xmlns:xlink="http://www.w3.org/1999/xlink" width="66" height="19" viewBox="0 0 66 19">
    <defs>
        <path id="7b7sxabl7a" d="M0 0.19L11.137 0.19 11.137 18.964 0 18.964z"/>
        <path id="3uf7f2hdrc" d="M0.111 0.047L3.415 0.047 3.415 3.341 0.111 3.341z"/>
    </defs>
    <g fill="none" fill-rule="evenodd">
        <mask id="96zj7echsb" fill="#fff">
            <use xlink:href="#7b7sxabl7a"/>
        </mask>
        <path fill="#060300" d="M9.879 3.618c-.369-.177-.952-.303-1.535-.303-.644 0-1.227.353-1.227.932v1.714h3.345l-.706 2.873h-2.64v10.13h-5.34V8.834H0V5.96h1.777c-.093-.453-.093-1.058-.093-1.562C1.684.644 5.214.19 7.21.19c1.626 0 2.762.152 3.928.68L9.88 3.619z" mask="url(#96zj7echsb)"/>
        <path fill="#060300" d="M24.936 7.415h-1.281v2.99h1.307c1.563 0 2.102-.61 2.102-1.6 0-1.053-.692-1.39-2.128-1.39zM27.627 19l-1.87-4.108c-.693-1.516-1.103-1.705-2.102-1.705V19h-4.588V4.318h6.151c5.255 0 6.946 1.749 6.946 4.192 0 2.528-1.614 3.813-3.716 4.108.615.147 1.358.821 1.794 1.58.59.99 2.102 3.707 2.691 4.802h-5.306zM40.141 19c-2.59 0-4.614-.53-6.341-1.283l1.555-2.85c1.233.59 3.084 1.14 4.836 1.14 1.727 0 2.417-.53 2.417-1.304 0-.63-.542-.916-1.726-1.16l-2.024-.428c-2.492-.53-4.194-1.67-4.194-4.113 0-2.81 2.812-4.684 6.661-4.684 2.394 0 4.614.51 6.144 1.385l-2.122 2.586c-1.16-.631-2.69-.998-3.873-.998-1.135 0-1.752.448-1.752 1.018 0 .469.395.937 1.678 1.202l1.751.366c1.85.387 4.516 1.08 4.516 3.93 0 3.4-3.06 5.193-7.526 5.193M60.98 7.436L56.709 7.436 56.709 19 51.938 19 51.938 7.436 47.667 7.436 47.667 4.318 61.533 4.318zM11.267 6.457L11.267 19 16.467 19 16.467 3.455z"/>
        <g transform="translate(61.533 4.318)">
            <mask id="xhem47gpyd" fill="#fff">
                <use xlink:href="#3uf7f2hdrc"/>
            </mask>
            <path fill="#231F20" d="M2.093 1.533c.056-.045.084-.115.084-.21 0-.095-.027-.165-.081-.21-.054-.044-.14-.066-.257-.066h-.383V1.6h.383c.114 0 .199-.023.254-.067m.282.56l.333.57h-.467l-.35-.621c-.032-.05-.064-.084-.098-.104-.034-.02-.079-.03-.134-.03H1.46v.756h-.42V.72h.85c.222 0 .393.052.513.157.12.104.18.248.18.433 0 .147-.042.27-.127.37-.084.1-.204.164-.358.191.123.031.216.105.277.222m.11.83c.213-.123.382-.294.505-.51.123-.217.185-.457.185-.721 0-.264-.062-.505-.185-.721-.123-.217-.292-.386-.506-.509C2.27.339 2.03.278 1.765.278c-.265 0-.505.061-.72.184C.827.585.658.754.534.971c-.122.216-.184.457-.184.72 0 .265.062.505.185.722.123.216.292.387.508.51.216.125.456.187.721.187.265 0 .505-.062.72-.186m.12-2.66c.25.144.448.342.593.592.145.25.217.529.217.836 0 .307-.072.585-.217.836-.145.25-.343.448-.596.594-.253.146-.532.219-.837.219-.308 0-.587-.073-.839-.219-.25-.146-.45-.344-.596-.594-.146-.25-.22-.53-.22-.836 0-.307.073-.586.218-.836C.472.606.67.408.924.264c.253-.144.533-.217.841-.217.308 0 .588.073.84.217" mask="url(#xhem47gpyd)"/>
        </g>
    </g>
</svg>
