<svg xmlns="http://www.w3.org/2000/svg" viewBox="0 0 80 80" fill="none" stroke="#0071ce" stroke-width="2.5" stroke-miterlimit="10" xmlns:v="https://vecta.io/nano"><path d="M74.5 51.8H26L7.8 38.5c-1.8-1.3-4.3-.8-5.6 1s-.8 4.5 1 5.8l18.7 13.5c.1.1-.2-.1 0 0 .9.7 1.8 1.3 2.9 1.3h49.7c2.2 0 4-1.9 4-4.2h0c.1-2.2-1.8-4.1-4-4.1z"/><path d="M24.1 60.2h49.5v6.5H24.1z"/><path d="M25 70.7h3.2c.5 0 1-.4 1-1v-3.1h-5.1v3.1c0 .6.4 1 .9 1zm44.4 0h3.2c.5 0 1-.4 1-1v-3.1h-5.1v3.1c0 .6.4 1 .9 1zM46.7 51.4v-30"/><g stroke-linejoin="round"><path d="M47 9.4l21.2 9.8c1.1.5.7 2.2-.5 2.2H25.3c-1.2 0-1.6-1.6-.5-2.2L46 9.4c.3-.1.7-.1 1 0z"/><g stroke-linecap="round"><path d="M38.5 21.4l8.1-12"/><path d="M54.7 21.4l-8.2-12"/></g></g></svg>