<?xml version="1.0" encoding="utf-8"?>
<!-- Generator: Adobe Illustrator 24.3.0, SVG Export Plug-In . SVG Version: 6.00 Build 0)  -->
<svg version="1.1" id="Layer_1" xmlns="http://www.w3.org/2000/svg" xmlns:xlink="http://www.w3.org/1999/xlink" x="0px" y="0px"
	 viewBox="0 0 80 80" style="enable-background:new 0 0 80 80;" xml:space="preserve">
<style type="text/css">
	.st0{fill:none;stroke:#0472CE;stroke-width:2.5;stroke-linecap:round;stroke-linejoin:round;stroke-miterlimit:10;}
</style>
<g>
	<g>
		<path class="st0" d="M47.1,24.9c3.2,3.4,7,9,9.5,11.9c3.7,4.4,7,10.5,7,16.8c0,13.8-10.6,24.9-23.6,24.9S16.4,67.4,16.4,53.6
			c0-6,5.1-14.2,8.5-18.5c2.3-2.9,6.5-7.8,9-10.6"/>
		<line class="st0" x1="29.2" y1="18.1" x2="50.6" y2="18.1"/>
		<path class="st0" d="M46.3,10.9c0,0,1.9-3.4,3.6-5.8c1.6-2.4,0.2-4.1-3.4-2.4c-1.6,0.8-3.2,3.3-4.3,2.6c-0.3-0.2-1.6-4.7-4.3-3.6
			c-2,0.8-1.4,2.9-3.1,2.7c-2.3-0.2-5.5-1.7-6.3-0.5c-1,1.5,3.1,2.9,5.1,6.9"/>
	</g>
	<g>
		<polyline class="st0" points="33.6,55.6 40.6,62.5 47.6,55.6 		"/>
		<line class="st0" x1="40.6" y1="62.5" x2="40.6" y2="46.3"/>
	</g>
</g>
</svg>
