<?xml version="1.0" encoding="utf-8"?>
<!-- Generator: Adobe Illustrator 25.0.1, SVG Export Plug-In . SVG Version: 6.00 Build 0)  -->
<svg version="1.1" id="Layer_1" xmlns:v="https://vecta.io/nano"
	 xmlns="http://www.w3.org/2000/svg" xmlns:xlink="http://www.w3.org/1999/xlink" x="0px" y="0px" viewBox="0 0 80 80"
	 style="enable-background:new 0 0 80 80;" xml:space="preserve">
<style type="text/css">
	.st0{fill:none;stroke:#0071CE;stroke-width:2.5;stroke-linecap:round;stroke-linejoin:round;stroke-miterlimit:10;}
	.st1{fill:#0071CE;}
</style>
<g>
	<path class="st0" d="M41.9,48L21.8,76.8V13.4"/>
	<path class="st0" d="M1.6,48l20.2,28.8V13.4"/>
</g>
<path class="st1" d="M39.7,21.9c-1.5-1.8-2.3-4.7-2.3-8.3s0.8-6.5,2.3-8.3s3.6-2.7,6.2-2.7c2.7,0,4.8,0.9,6.4,2.7
	c1.5,1.8,2.3,4.7,2.3,8.3s-0.8,6.5-2.3,8.3c-1.5,1.8-3.6,2.8-6.4,2.8S41.2,23.9,39.7,21.9z M50.1,20.2c0.9-1.4,1.4-3.5,1.4-6.6
	S51,8.6,50.1,7.1c-0.9-1.4-2.3-2-4.2-2c-1.8,0-3.2,0.7-4.1,2.2c-0.9,1.4-1.4,3.6-1.4,6.5c0,2.9,0.5,5.1,1.4,6.6c0.9,1.5,2.3,2,4.1,2
	C47.7,22.3,49.2,21.6,50.1,20.2z M47.9,40.1c-0.3,0-0.7-0.1-0.9-0.5c-0.2-0.2-0.5-0.6-0.5-1c0-0.3,0.1-0.7,0.2-0.9L66.8,3.1
	c0.3-0.6,0.8-0.9,1.4-0.9c0.3,0,0.7,0.1,0.9,0.5c0.2,0.2,0.5,0.6,0.5,1c0,0.3-0.1,0.7-0.2,0.9L49.2,39.2
	C48.9,39.7,48.4,40.1,47.9,40.1z M63.9,36.8c-1.5-1.8-2.3-4.7-2.3-8.3s0.8-6.5,2.3-8.3c1.5-1.8,3.6-2.7,6.2-2.7
	c2.7,0,4.8,0.9,6.2,2.7c1.5,1.8,2.3,4.7,2.3,8.3c0,3.6-0.8,6.5-2.3,8.3c-1.5,1.8-3.6,2.7-6.2,2.7C67.4,39.5,65.3,38.6,63.9,36.8z
	 M74.2,35c0.9-1.4,1.4-3.5,1.4-6.6c0-2.9-0.5-5.1-1.4-6.5c-0.9-1.4-2.3-2-4.1-2c-1.9,0-3.3,0.7-4.2,2c-0.9,1.4-1.4,3.5-1.4,6.5
	c0,2.9,0.5,5.1,1.4,6.6c0.9,1.4,2.3,2,4.2,2C71.9,37,73.3,36.3,74.2,35z"/>
</svg>
