<?xml version="1.0" encoding="utf-8"?>
<!-- Generator: Adobe Illustrator 24.3.0, SVG Export Plug-In . SVG Version: 6.00 Build 0)  -->
<svg version="1.1" id="Layer_1" xmlns="http://www.w3.org/2000/svg" xmlns:xlink="http://www.w3.org/1999/xlink" x="0px" y="0px"
	 viewBox="0 0 80 80" style="enable-background:new 0 0 80 80;" xml:space="preserve">
<style type="text/css">
	.st0{fill:none;stroke:#0070D0;stroke-width:2.5;stroke-linecap:round;stroke-linejoin:round;stroke-miterlimit:10;}
	.st1{fill:#0070D0;}
</style>
<g>
	<g>
		<g>
			<defs>
				<path id="SVGID_1_" d="M41.8,56.5c0,1-0.8,1.8-1.8,1.8s-1.8-0.8-1.8-1.8c0-1,0.8-1.8,1.8-1.8S41.8,55.4,41.8,56.5"/>
			</defs>
			<use xlink:href="#SVGID_1_"  style="overflow:visible;fill-rule:evenodd;clip-rule:evenodd;fill:#0070D0;"/>
			<clipPath id="SVGID_2_">
				<use xlink:href="#SVGID_1_"  style="overflow:visible;"/>
			</clipPath>
		</g>
		<g>
			<path class="st0" d="M25.3,63.8H5.2c-2,0-3.7-1.6-3.7-3.7V8.9c0-2,1.6-3.7,3.7-3.7h69.7c2,0,3.7,1.6,3.7,3.7v51.2
				c0,2-1.6,3.7-3.7,3.7H32.7"/>
			<line class="st0" x1="27.2" y1="74.7" x2="52.8" y2="74.7"/>
			<line class="st0" x1="47.3" y1="63.8" x2="47.3" y2="71.1"/>
			<line class="st0" x1="32.7" y1="63.8" x2="32.7" y2="71.1"/>
			<line class="st0" x1="8.8" y1="49.1" x2="71.2" y2="49.1"/>
			<path class="st0" d="M51,74.7c-2,0-3.7-1.6-3.7-3.7"/>
			<path class="st0" d="M32.7,71.1c0,2-1.6,3.7-3.7,3.7"/>
		</g>
	</g>
	<g>
		<g>
			<g>
				<path class="st1" d="M39.1,37.6h1.3v-3.7c0,0,0.1-0.1,0.1-0.2c0.7-0.6,1.2-1.3,1.2-2.2c0-1.4-1.2-2.6-2.6-2.6h0.1
					c-1.4,0-2.6,1.2-2.6,2.6c0,0.9,0.6,1.7,1.2,2.2c0,0,0.1,0.2,0.1,0.2v3.7h1.3H39.1z"/>
			</g>
		</g>
		<path class="st0" d="M46,43.6H32.4c-3.3,0-6-2.7-6-6V29c0-3.3,2.7-6,6-6H46c3.3,0,6,2.7,6,6v8.6C52,40.9,49.3,43.6,46,43.6z"/>
		<path class="st0" d="M31,19.6c0-4.8,3.7-8.8,8.2-8.8s8.2,3.9,8.2,8.8v3.3"/>
	</g>
</g>
</svg>
