<svg xmlns="http://www.w3.org/2000/svg" viewBox="0 0 80 80" fill="none" stroke="#0071ce" stroke-width="2.494" stroke-linejoin="round" stroke-miterlimit="10" xmlns:v="https://vecta.io/nano"><path d="M60.3 77.3H2.1V42l17.1-8.7V42l19.5-8.7v8.9l23.5-.2z"/><path d="M74.6 18.4h-11l-3.3 58.9h17.6zM8.8 48.6h19.4v7.6H8.8zm25.2 0h19.4v7.6H34zM8.8 63.1h19.4v7.6H8.8zm25.2 0h19.4v7.6H34z"/><path d="M68.1 14.5c.6-2.1-1.1-4.3-3.1-5.1s-4.3-.6-6.4-.4l-6.1.6c-2 .2-4.2.3-5.9-.9-2.1-1.5-2.5-4.6-4.6-6.1" stroke-linecap="round"/></svg>