<?xml version="1.0" encoding="utf-8"?>
<!-- Generator: Adobe Illustrator 24.3.0, SVG Export Plug-In . SVG Version: 6.00 Build 0)  -->
<svg version="1.1" id="Layer_1" xmlns="http://www.w3.org/2000/svg" xmlns:xlink="http://www.w3.org/1999/xlink" x="0px" y="0px"
	 viewBox="0 0 80 80" style="enable-background:new 0 0 80 80;" xml:space="preserve">
<style type="text/css">
	.st0{fill:none;stroke:#2B71B9;stroke-width:2.5;stroke-linecap:round;stroke-linejoin:round;stroke-miterlimit:10;}
</style>
<g>
	<path class="st0" d="M11.6,25.6v20.2c0,1.9,1.5,3.3,3.4,3.3c7.8-0.1,26.7-0.3,30,0c4.1,0.4,13.6,5.2,17.4,8.4
		c2.6,2.2,9.2,7.9,13.1,11.3c1.2,1.1,3.1,0.2,3.1-1.4v-62c0-1.8-2.2-2.7-3.5-1.4c-3.8,3.8-9.7,9.6-13.1,11.4
		c-5.2,2.8-14,7.5-16.9,7.3C42.7,22.5,23,22.3,15,22.3C13.1,22.3,11.6,23.8,11.6,25.6z"/>
	<path class="st0" d="M11.8,48.1l-6-1.9c-2.6-0.8-4.3-3.2-4.3-5.9v-9c0-2.6,1.6-4.9,4.1-5.8l6.2-2.2"/>
	<line class="st0" x1="32.9" y1="22.9" x2="32.9" y2="48"/>
	<line class="st0" x1="45.1" y1="23.4" x2="45.1" y2="48.5"/>
	<path class="st0" d="M17,49.1v25.5c0,1.1,0.9,2,2,2h4.5c4.1,0,7.7-2.8,8.6-6.8l5-20.7"/>
</g>
</svg>
