<svg xmlns="http://www.w3.org/2000/svg" viewBox="0 0 80 80" xmlns:v="https://vecta.io/nano"><g fill="none" stroke="#0071ce" stroke-width="2.5" stroke-linecap="round" stroke-miterlimit="10"><path d="M16.9 12.7V9.4a7.92 7.92 0 0 1 7.9-7.9h28.7a7.92 7.92 0 0 1 7.9 7.9v17.1m0 27.2v16.9a7.92 7.92 0 0 1-7.9 7.9H24.8a7.92 7.92 0 0 1-7.9-7.9V17.3"/><path d="M16.9 12.7h37.8M23.1 65.8h38.3"/></g><g fill="#0071ce"><circle cx="39.1" cy="7.5" r="1.4"/><circle cx="39.4" cy="72.1" r="2.9"/></g><path d="M50.7 44.1c2.4-3.1 2.1-7.3-.7-9.5m5.2 11.9c3.6-4.7 3.1-11.1-1.1-14.3m5.7 16.9c4.9-6.4 4.3-15.1-1.5-19.5" fill="none" stroke="#0071ce" stroke-width="2.5" stroke-linecap="round" stroke-miterlimit="10"/><path d="M43.4 45c-.7.7-1.5 1.1-2.7 1.3v1c0 .3-.1.6-.3.8s-.5.3-.8.3-.6-.1-.8-.3-.3-.5-.3-.8v-1c-.7 0-1.3-.2-1.9-.4s-1.2-.5-1.6-.8a.78.78 0 0 1-.4-.4c-.1-.2-.1-.3-.1-.6s.1-.6.3-.8.4-.3.6-.3.5.1.8.3c.5.3 1.1.5 1.6.7s1 .2 1.5.2c.7 0 1.3-.1 1.6-.4s.6-.7.6-1.1c0-.3-.1-.5-.3-.7s-.5-.3-.8-.4l-1.4-.4c-.9-.2-1.6-.4-2.2-.7s-1.1-.6-1.5-1.1-.6-1.1-.6-2c0-1 .3-1.8 1-2.5s1.6-1.1 2.7-1.3v-1c0-.3.1-.6.3-.8s.5-.3.8-.3.6.1.8.3.3.4.3.8v1c1.1.1 2.1.5 3 1.2a.78.78 0 0 1 .4.4.9.9 0 0 1 .1.5c0 .3-.1.6-.3.8s-.4.3-.6.3h-.4c-.1 0-.3-.1-.5-.2l-1.3-.7c-.4-.2-.9-.2-1.4-.2-.6 0-1.2.2-1.5.4-.4.3-.6.7-.6 1.1 0 .3.1.6.3.8s.5.4.9.5c.3.1.8.2 1.5.4.9.2 1.6.4 2.1.6s1 .6 1.4 1 .6 1.1.6 1.9c0 1.1-.3 2-.9 2.6z" fill="#0071ce"/></svg>