<svg xmlns="http://www.w3.org/2000/svg" viewBox="0 0 80 80" xmlns:v="https://vecta.io/nano"><style><![CDATA[.F{stroke:#0071ce}.G{stroke-miterlimit:10}.H{fill:#0071ce}.I{stroke-linecap:round}.J{stroke-width:2.505}]]></style><g fill="none" class="F G I"><path d="M17.7,22h15.8" stroke-width="2.5"/><g class="J"><path d="M10.9 10.8V8a6.49 6.49 0 0 1 6.5-6.5h23.7A6.49 6.49 0 0 1 47.6 8v39.8M37.5 65.1H17.4a6.49 6.49 0 0 1-6.5-6.5V14.5"/><path d="M10.9 10.8h31.2M16 54.6h15.5"/></g></g><g class="H"><circle cx="29.2" cy="6.5" r="1.2"/><circle cx="29.4" cy="59.8" r="2.4"/></g><path d="M30.2 49.7H19.7c-2.1 0-3.9-1.8-3.9-3.9v-.4c0-2.2 1.8-3.9 3.9-3.9h18.5c2.2 0 3.9 1.8 3.9 3.9" fill="none" class="F G I J"/><path d="M27.2 44.2c.2.1.3.3.5.5.1.2.2.5.2.8s-.1.6-.2.8-.3.4-.4.5c-.3.2-.5.2-.8.2-.2 0-.4 0-.5-.1-.2-.1-.3-.2-.4-.3v1.1c0 .1 0 .2-.1.3h-.3c-.1 0-.2 0-.3-.1s-.1-.2-.1-.3v-3.2c0-.1 0-.2.1-.3s.2-.1.3-.1.2 0 .3.1.1.2.1.3h0c.1-.1.2-.3.4-.3.2-.1.3-.1.5-.1.3 0 .5.1.7.2zm-.4 1.9c.1-.1.2-.3.2-.6s-.1-.5-.2-.6-.3-.2-.5-.2-.4.1-.5.2-.2.3-.2.6.1.5.2.6.3.2.5.2.4 0 .5-.2zm3.8-1.8c.2.2.3.5.3.9v1.3c0 .1 0 .2-.1.3s-.2.2-.3.2-.2 0-.3-.1-.1-.2-.1-.3h0c-.1.1-.2.3-.3.3s-.3.1-.5.1-.4 0-.5-.1a1.38 1.38 0 0 1-.4-.3c-.1-.1-.1-.3-.1-.5s.1-.4.2-.5.3-.2.5-.3.6-.1 1-.1h0v-.1c0-.2 0-.3-.1-.4s-.2-.1-.4-.1-.4.1-.7.2c-.1 0-.2.1-.2.1-.1 0-.2 0-.2-.1s-.1-.1-.1-.2 0-.1.1-.2.1-.1.2-.1c.1-.1.3-.1.5-.2.2 0 .4-.1.6-.1.4 0 .7.1.9.3zm-.7 1.9c.1-.1.1-.2.1-.4v-.1h-.1c-.3 0-.5 0-.7.1s-.2.1-.2.3c0 .1 0 .2.1.3s.2.1.3.1c.2-.1.4-.2.5-.3zm3.8-2.1c.1 0 .1-.1.2-.1s.2 0 .3.1.1.2.1.3v.2l-1.6 3.2c0 .1-.1.1-.2.2s-.1.1-.2.1-.2 0-.3-.1-.1-.2-.1-.3v-.2l.4-.8-1-2.1v-.2c0-.1 0-.2.1-.3s.2-.1.3-.1.1 0 .2.1l.2.2.7 1.6.7-1.6c0-.1.1-.2.2-.2z" enable-background="new" class="H"/><path d="M59.6 52c-.8-.2-1.5 0-2.2.4-.7.5-1.2 1.2-1.3 2.1l-.1-.3c-.8-1.3-2.6-1.8-4-.9-.8.5-1.2 1.3-1.3 2.1l-.2-.2c-.8-1.3-2.6-1.8-4-.9-.8.5-1.2 1.3-1.3 2.1l-4.7-7.5c-.4-.7-1.1-1.1-1.9-1.3-.7-.2-1.5 0-2.2.4-1.3.8-1.7 2.6-.9 3.9l11.7 18.9-6-1.8c-1.5-.4-3.1.6-3.5 2.1-.2.7-.1 1.5.3 2.2s1 1.1 1.8 1.3L51 77.5l3.8.9c1.8.4 3.7 0 5.3-1l5.4-3.3C68.9 72 70 67.4 67.9 64l-6.6-10.6a2.18 2.18 0 0 0-1.7-1.4h0z" fill="none" stroke-linejoin="round" class="F G J"/><path d="M40.9 22.9c0-.3-.1-.6-.3-.8s-.4-.3-.6-.4-.5-.2-.8-.2l-.5-.1c-.1 0-.2-.1-.3-.1 0 0-.1-.1-.1-.2s0-.2.1-.3.3-.1.5-.1a.9.9 0 0 1 .5.1c.2.1.3.1.5.2.1 0 .1.1.2.1h.2c.2 0 .3-.1.4-.2s.1-.3.1-.4 0-.2-.1-.3c0-.1-.1-.2-.2-.2-.3-.2-.7-.4-1.1-.5v-.2c0-.2-.1-.3-.2-.4a.76.76 0 0 0-.4-.2c-.2 0-.3.1-.4.2a.76.76 0 0 0-.2.4v.2c-.4.1-.7.3-1 .5-.3.3-.4.6-.4 1.1 0 .4.1.6.3.9.2.2.4.4.6.5s.5.2.8.2l.5.1c.1 0 .2.1.2.1l.1.1c0 .1 0 .2-.1.3s-.3.1-.5.1-.4 0-.5-.1-.2-.2-.4-.3-.3-.1-.4-.1-.2 0-.4.2c-.1.1-.1.3-.1.4s0 .2.1.3c0 .1.1.2.2.2.2.1.4.2.7.3.2.1.4.1.6.1v.2c0 .2.1.3.2.4a.76.76 0 0 0 .4.2c.2 0 .3-.1.4-.2s.2-.2.2-.4v-.2c.4-.1.7-.3.9-.5a1.69 1.69 0 0 0 .3-1h0z" class="H"/><path d="M17.7,32.2h15.8" fill="none" stroke-width="2.5" class="F G I"/><path d="M40.9 33.1c0-.3-.1-.6-.3-.8s-.4-.3-.6-.4-.5-.2-.8-.2l-.5-.1c-.1 0-.2-.1-.3-.1 0 0-.1-.1-.1-.2s0-.2.1-.3.3-.1.5-.1.3 0 .5.1.3.1.5.2c.1 0 .1.1.2.1h.2c.2 0 .3-.1.4-.2s.1-.3.1-.4 0-.2-.1-.3c0-.1-.1-.2-.2-.2-.3-.2-.7-.4-1.1-.5v-.2c0-.2-.1-.3-.2-.4a.76.76 0 0 0-.4-.2c-.2 0-.3.1-.4.2a.76.76 0 0 0-.2.4v.2c-.4.1-.7.3-1 .5-.3.3-.4.6-.4 1.1 0 .4.1.6.3.8s.4.3.6.5c.2.1.5.2.8.2l.5.2c.1 0 .2.1.2.1l.1.1c0 .1 0 .2-.1.3s-.3.1-.5.1-.4 0-.5-.1-.3-.1-.5-.2-.3-.1-.4-.1-.2 0-.4.2c-.1.1-.1.3-.1.4s0 .2.1.3c0 .1.1.2.2.2.2.1.4.2.7.3.2.1.4.1.6.1v.2c0 .2.1.3.2.4a.76.76 0 0 0 .4.2c.2 0 .3-.1.4-.2s.2-.2.2-.4v-.2c.4-.1.7-.3.9-.5.3-.3.4-.7.4-1.1h0z" class="H"/></svg>