<svg xmlns="http://www.w3.org/2000/svg" xmlns:xlink="http://www.w3.org/1999/xlink" width="49" height="15" viewBox="0 0 49 15">
    <defs>
        <path id="betevqtvua" d="M0 0.14L8.206 0.14 8.206 13.973 0 13.973z"/>
        <path id="dewpen2xjc" d="M0.081 0.035L2.517 0.035 2.517 2.462 0.081 2.462z"/>
    </defs>
    <g fill="none" fill-rule="evenodd">
        <mask id="ojvbuin3zb" fill="#fff">
            <use xlink:href="#betevqtvua"/>
        </mask>
        <path fill="#060300" d="M7.28 2.666c-.272-.13-.702-.223-1.132-.223-.474 0-.904.26-.904.687v1.262h2.465l-.52 2.117H5.244v7.464H1.309V6.51H0V4.392H1.31c-.068-.334-.068-.78-.068-1.15C1.241.474 3.841.14 5.311.14c1.2 0 2.036.112 2.895.502L7.28 2.666z" mask="url(#ojvbuin3zb)"/>
        <path fill="#060300" d="M18.374 5.464h-.944v2.203h.963c1.152 0 1.549-.45 1.549-1.18 0-.775-.51-1.023-1.568-1.023zM20.357 14l-1.379-3.027c-.51-1.117-.812-1.257-1.548-1.257V14h-3.38V3.182h4.532c3.872 0 5.118 1.288 5.118 3.089 0 1.862-1.19 2.809-2.739 3.026.454.109 1.002.606 1.322 1.164.435.73 1.55 2.732 1.984 3.539h-3.91zM29.578 14c-1.91 0-3.4-.39-4.673-.945l1.146-2.1c.909.434 2.272.84 3.563.84 1.273 0 1.782-.39 1.782-.961 0-.465-.4-.675-1.273-.855l-1.49-.315c-1.837-.39-3.091-1.23-3.091-3.031 0-2.07 2.072-3.451 4.908-3.451 1.764 0 3.4.375 4.527 1.02l-1.563 1.906c-.855-.466-1.982-.736-2.854-.736-.837 0-1.291.33-1.291.75 0 .346.29.69 1.236.886l1.29.27c1.364.285 3.328.795 3.328 2.896 0 2.506-2.255 3.826-5.545 3.826M44.932 5.479L41.785 5.479 41.785 14 38.27 14 38.27 5.479 35.123 5.479 35.123 3.182 45.34 3.182zM8.302 4.758L8.302 14 12.133 14 12.133 2.545z"/>
        <g transform="translate(45.34 3.182)">
            <mask id="16ui0xn4yd" fill="#fff">
                <use xlink:href="#dewpen2xjc"/>
            </mask>
            <path fill="#231F20" d="M1.543 1.13c.04-.033.06-.085.06-.155 0-.07-.02-.121-.059-.154-.04-.033-.103-.05-.189-.05h-.282v.408h.282c.084 0 .147-.017.188-.05m.207.413l.246.42h-.344l-.26-.457c-.022-.037-.046-.062-.07-.077-.026-.015-.059-.022-.1-.022h-.146v.557h-.31V.53h.627c.163 0 .29.039.378.116.088.077.133.183.133.319 0 .109-.032.2-.094.273-.063.074-.15.12-.264.141.09.023.159.077.204.163m.08.612c.158-.091.283-.217.373-.376.091-.16.137-.337.137-.531 0-.195-.046-.372-.137-.532-.09-.16-.215-.284-.373-.375C1.672.25 1.496.205 1.3.205 1.106.205.929.25.77.34.61.43.485.556.394.715c-.091.16-.136.337-.136.532 0 .194.045.371.136.53.09.16.215.286.374.377.16.092.336.138.532.138.195 0 .371-.046.53-.138m.088-1.96c.185.107.33.252.438.437.106.184.16.39.16.616 0 .226-.054.431-.16.616-.107.184-.254.33-.44.437-.186.108-.391.162-.616.162-.227 0-.433-.054-.618-.162-.186-.107-.332-.253-.44-.437-.108-.185-.162-.39-.162-.616 0-.227.054-.432.16-.616C.349.446.496.3.682.194c.186-.106.393-.159.62-.159.227 0 .433.053.618.16" mask="url(#16ui0xn4yd)"/>
        </g>
    </g>
</svg>
