<svg xmlns="http://www.w3.org/2000/svg" viewBox="0 0 80 80" xmlns:v="https://vecta.io/nano"><g fill="none" stroke="#0071ce" stroke-width="2.5" stroke-linecap="round" stroke-linejoin="round" stroke-miterlimit="10"><path d="M30 53.3H3.6c-1.1 0-2.1-.9-2.1-2.1V26.3c0-1.1.9-2.1 2.1-2.1H30"/><path d="M30 33.5h-7.9m7.9 4.8h-7.9"/><path d="M30 43h-7.9m18.7-16.6h26a3.01 3.01 0 0 1 3 3v18.3a3.01 3.01 0 0 1-3 3h-26"/><path d="M59.6 33.6H41m13.1 4.5H41"/><path d="M56.9 42.7H41m20.4-9.1H42.9M56 38.1H42.9m15.8 4.6H42.9"/></g><path d="M14.4 42.5c-.5.5-1.1.8-2 1v.7c0 .2-.1.4-.2.6-.1.1-.3.2-.6.2-.2 0-.4-.1-.6-.2s-.2-.3-.2-.6v-.7c-.5 0-.9-.1-1.4-.3s-.8-.4-1.2-.6c-.1 0-.2-.1-.2-.3-.1-.1-.1-.2-.1-.4s.1-.4.2-.6a.55.55 0 0 1 .5-.3c.2 0 .4.1.6.2.4.2.8.4 1.2.5s.7.2 1.1.2c.5 0 .9-.1 1.2-.3s.4-.5.4-.8c0-.2-.1-.4-.2-.5s-.5-.3-.7-.3c-.2-.1-.6-.2-1-.3-.6-.2-1.2-.3-1.6-.5s-.8-.4-1.1-.8c-.3-.3-.5-.8-.5-1.4 0-.7.2-1.3.7-1.8s1.2-.8 2-1v-.7c0-.2.1-.4.2-.6.1-.1.3-.2.6-.2.2 0 .4.1.6.2.1.1.2.3.2.6v.7c.8.1 1.5.4 2.2.9l.3.3c.1.1.1.2.1.4s-.1.4-.2.6a.55.55 0 0 1-.5.3h-.3c-.1 0-.2-.1-.3-.2-.4-.2-.7-.4-1-.5s-.6-.2-1-.2c-.5 0-.9.1-1.1.3-.3.2-.4.5-.4.8 0 .2.1.4.3.6s.4.3.6.4.6.2 1.1.3c.6.2 1.2.3 1.6.5s.8.4 1.1.8.4.8.5 1.4c-.2.5-.4 1.1-.9 1.6z" fill="#0071ce"/><g fill="none" stroke="#0071ce" stroke-width="2.5" stroke-linecap="round" stroke-linejoin="round" stroke-miterlimit="10"><path d="M34.7 13.2V9.8c0-4.3 3.5-7.7 7.7-7.7h28.3c4.3 0 7.7 3.5 7.7 7.7V60m.1 5.4v4.7c0 4.3-3.5 7.7-7.7 7.7H42.5c-4.3 0-7.7-3.5-7.7-7.7V17.6"/><path d="M34.7 13.2h37.2m-31 52.2h37.6"/></g><g fill="#0071ce"><circle cx="56.6" cy="8" r="1.4"/><circle cx="56.8" cy="71.6" r="2.8"/></g></svg>