<svg xmlns="http://www.w3.org/2000/svg" viewBox="0 0 80 80" xmlns:v="https://vecta.io/nano"><style><![CDATA[.E{stroke-linejoin:round}.F{stroke-miterlimit:10}.G{stroke-linecap:round}]]></style><g fill="none" stroke="#0071ce" stroke-width="2.5" class="E F G"><path d="M17.8 12.7V9.4a7.92 7.92 0 0 1 7.9-7.9h28.7a7.92 7.92 0 0 1 7.9 7.9v51m-.1 5.4v4.8a7.92 7.92 0 0 1-7.9 7.9H25.6a7.92 7.92 0 0 1-7.9-7.9V19.9"/><path d="M17.8 12.7h37.8M24 65.8h38.2"/></g><g fill="#0071ce"><circle cx="40" cy="7.5" r="1.4"/><circle cx="40.2" cy="72.1" r="2.9"/></g><path d="M51.8 39v-.2h-.2v.2h.2c-.1 0 0 0 0 0z" fill="#0070d0"/><g fill="none" stroke-width="2.5" class="E F"><g stroke="#0070d0" class="G"><path d="M37.2 31.8h13.2s3.2-.2 3.2 2.6v1.7m-30 0v19.2c0 1.7 1.6 3.1 3.6 3.1h25.7c2 0 3.6-1.4 3.6-3.1V40.4c0-1.7-1.6-3.1-3.6-3.1h-28c-.8 0-1.3-.5-1.3-1.2 0-4.5 4.2-4.2 4.7-4.2h1.3"/><path d="M55.9 51.7h-7.5c-2.1 0-4-1.5-4-3.3s1.8-3.3 4-3.3h7.5"/></g><path d="M30.3 27.3h6.2v6.2h-6.2zm9.6-5.5h3.3v3.3h-3.3z" stroke="#0070d0"/></g><path d="M33.3 20.5h2.5V23h-2.5zm6.2-3.2h1.4v1.4h-1.4z" fill="#0070d0"/></svg>