<?xml version="1.0" encoding="utf-8"?>
<!-- Generator: Adobe Illustrator 24.3.0, SVG Export Plug-In . SVG Version: 6.00 Build 0)  -->
<svg version="1.1" id="Layer_1" xmlns="http://www.w3.org/2000/svg" xmlns:xlink="http://www.w3.org/1999/xlink" x="0px" y="0px"
	 viewBox="0 0 80 80" style="enable-background:new 0 0 80 80;" xml:space="preserve">
<style type="text/css">
	.st0{fill:#0071CE;}
	.st1{fill:none;stroke:#0071CE;stroke-width:2.5;stroke-linecap:round;stroke-linejoin:round;stroke-miterlimit:10;}
</style>
<g>
	<g>
		<path class="st0" d="M31.5,38.1C31.4,38,31.2,38,31,38c-0.2,0-0.4,0.1-0.4,0.3v0.5h1.1l-0.2,0.9h-0.8V43H29v-3.2h-0.6v-0.9H29
			c0-0.1,0-0.3,0-0.5c0-1.2,1.1-1.3,1.7-1.3c0.5,0,0.9,0,1.2,0.2L31.5,38.1z"/>
		<path class="st0" d="M37.2,43l-0.6-1.3c-0.2-0.5-0.3-0.5-0.7-0.5V43h-1.4v-4.6h1.9c1.6,0,2.2,0.6,2.2,1.3c0,0.8-0.5,1.2-1.2,1.3
			c0.2,0,0.4,0.3,0.6,0.5c0.2,0.3,0.7,1.2,0.8,1.5H37.2z M36.3,39.3h-0.4v0.9h0.4c0.5,0,0.7-0.2,0.7-0.5
			C37,39.4,36.8,39.3,36.3,39.3z"/>
		<path class="st0" d="M41.1,43c-0.8,0-1.5-0.2-2.1-0.4l0.5-0.9c0.4,0.2,1,0.4,1.6,0.4c0.6,0,0.8-0.2,0.8-0.4c0-0.2-0.2-0.3-0.6-0.4
			l-0.7-0.1c-0.8-0.2-1.4-0.5-1.4-1.3c0-0.9,0.9-1.5,2.2-1.5c0.8,0,1.5,0.2,2,0.5l-0.7,0.8c-0.4-0.2-0.9-0.3-1.3-0.3
			c-0.4,0-0.6,0.1-0.6,0.3c0,0.2,0.1,0.3,0.5,0.4l0.6,0.1c0.6,0.1,1.5,0.4,1.5,1.3C43.5,42.5,42.6,43,41.1,43z"/>
		<path class="st0" d="M47.8,39.3h-1.3V43h-1.4v-3.7h-1.3v-1H48L47.8,39.3z"/>
		<polygon class="st0" points="32.1,39.1 32.1,43 33.6,43 33.6,38.1 		"/>
		<path class="st0" d="M49.2,38.4c0.1,0,0.1,0.1,0.2,0.2c0,0.1,0.1,0.2,0.1,0.2c0,0.1,0,0.2-0.1,0.2c0,0.1-0.1,0.1-0.2,0.2
			c-0.1,0-0.2,0.1-0.2,0.1c-0.1,0-0.2,0-0.2-0.1c-0.1,0-0.1-0.1-0.2-0.2c0-0.1-0.1-0.2-0.1-0.2c0-0.1,0-0.2,0.1-0.2
			c0-0.1,0.1-0.1,0.2-0.2s0.2-0.1,0.2-0.1C49,38.4,49.1,38.4,49.2,38.4z M49.1,39.2c0.1,0,0.1-0.1,0.1-0.1c0-0.1,0.1-0.1,0.1-0.2
			c0-0.1,0-0.1-0.1-0.2c0-0.1-0.1-0.1-0.1-0.1c-0.1,0-0.1-0.1-0.2-0.1c-0.1,0-0.1,0-0.2,0.1c-0.1,0-0.1,0.1-0.1,0.1
			c0,0.1-0.1,0.1-0.1,0.2c0,0.1,0,0.1,0.1,0.2c0,0.1,0.1,0.1,0.1,0.1c0.1,0,0.1,0.1,0.2,0.1C49,39.2,49.1,39.2,49.1,39.2z
			 M49.1,38.9l0.1,0.2H49l-0.1-0.2c0,0,0,0,0,0c0,0,0,0,0,0h-0.1v0.2h-0.1v-0.6h0.2c0.1,0,0.1,0,0.1,0c0,0,0.1,0.1,0.1,0.1
			c0,0,0,0.1,0,0.1C49.1,38.9,49.1,38.9,49.1,38.9C49,38.9,49.1,38.9,49.1,38.9z M49,38.8C49,38.8,49,38.8,49,38.8
			c0-0.1,0-0.1,0-0.1c0,0,0,0-0.1,0h-0.1v0.2L49,38.8C49,38.8,49,38.8,49,38.8z"/>
	</g>
	<g>
		<path class="st1" d="M16.7,12.7V9.4c0-4.3,3.5-7.9,7.9-7.9h28.7c4.3,0,7.9,3.5,7.9,7.9v51"/>
		<path class="st1" d="M61.1,65.8v4.8c0,4.3-3.5,7.9-7.9,7.9H24.5c-4.3,0-7.9-3.5-7.9-7.9V19.9"/>
		<line class="st1" x1="16.7" y1="12.7" x2="54.5" y2="12.7"/>
		<line class="st1" x1="22.9" y1="65.8" x2="61.1" y2="65.8"/>
		<circle class="st0" cx="38.9" cy="7.5" r="1.4"/>
		<circle class="st0" cx="39.1" cy="72.1" r="2.9"/>
	</g>
	<path class="st1" d="M27.1,54.8h23.6c2.5,0,4.6-2.1,4.6-4.6V29.8c0-2.5-2.1-4.6-4.6-4.6H27.1c-2.5,0-4.6,2.1-4.6,4.6v20.4
		C22.5,52.7,24.6,54.8,27.1,54.8z"/>
</g>
</svg>
