<svg xmlns="http://www.w3.org/2000/svg" viewBox="0 0 80 80" xmlns:v="https://vecta.io/nano"><g fill="none" stroke="#0071ce" stroke-width="2.5" stroke-linecap="round"><g stroke-linejoin="round" stroke-miterlimit="10"><path d="M25.3 64H5.2c-2 0-3.7-1.6-3.7-3.7V9.1c0-2 1.6-3.7 3.7-3.7h69.7c2 0 3.7 1.6 3.7 3.7v51.2c0 2-1.6 3.7-3.7 3.7H32.7m-5.5 10.9h25.7"/><path d="M47.3 64v7.3M32.7 64v7.3M51 74.9c-2 0-3.7-1.6-3.7-3.7m-14.6.1c0 2-1.6 3.7-3.7 3.7"/></g><path d="M44.6 22.5h25.7M44.6 30h25.7m-12.4 8.1h12.5m-12.5 7.4h12.5m-34.6-3c-2.7 3.6-7 5.9-11.8 6-8.3.1-15.1-6.5-15.3-14.8-.1-8.3 6.5-15.2 14.8-15.3 8.2-.1 15 6.3 15.3 14.5" stroke-miterlimit="10"/></g><path d="M28.3 39.8c-.7.7-1.8 1.2-3 1.4v1.2c0 .4-.1.7-.3.9s-.5.3-.9.3-.6-.1-.9-.3c-.2-.2-.3-.5-.3-.9v-1.1c-.7-.1-1.5-.2-2.1-.5l-1.8-.9c-.2-.1-.4-.3-.5-.5s-.1-.4-.1-.6c0-.3.1-.6.3-.9s.4-.4.7-.4.6.1.9.3c.6.4 1.2.6 1.8.8s1.1.3 1.7.3c.8 0 1.4-.2 1.9-.5.4-.3.6-.7.6-1.3 0-.3-.1-.6-.4-.8-.2-.2-.6-.4-.9-.5-.4-.1-.9-.3-1.6-.5l-2.5-.8a6.57 6.57 0 0 1-1.7-1.2c-.5-.6-.7-1.3-.7-2.2 0-1.1.4-2 1.2-2.8s1.8-1.3 3-1.5v-1.1c0-.4.1-.7.3-.9s.5-.3.9-.3.7.1.9.3.3.5.3.9v1.1c1.2.2 2.3.6 3.4 1.4.2.1.3.3.4.5s.1.4.1.6c0 .3-.1.6-.3.9s-.4.4-.7.4c-.1 0-.3 0-.4-.1s-.3-.1-.5-.3c-.6-.3-1-.6-1.5-.8s-1-.3-1.6-.3c-.7 0-1.3.2-1.7.5s-.7.8-.7 1.3c0 .4.1.7.4.9l1 .6c.4.1.9.3 1.6.5 1 .2 1.8.5 2.4.7a3.11 3.11 0 0 1 1.6 1.2c.5.5.7 1.3.7 2.2.2 1.2-.2 2.1-1 2.8z" fill="#0071ce" enable-background="new"/><path d="M53.1 37.8L37 36.2c-.4 0-.7.5-.5.8l8.3 13.9c.2.3.7.1.8-.3l.7-5.2 5.3 3.3c.2.2.6.1.7-.2l1.8-2.9c.2-.2.1-.6-.2-.7l-5.3-3.4 4.5-2.8c.4-.3.4-.8 0-.9h0z" fill="none" stroke="#0071ce" stroke-width="2.5" stroke-miterlimit="10"/></svg>