<?xml version="1.0" encoding="utf-8"?>
<!-- Generator: Adobe Illustrator 24.3.0, SVG Export Plug-In . SVG Version: 6.00 Build 0)  -->
<svg version="1.1" id="Layer_1" xmlns="http://www.w3.org/2000/svg" xmlns:xlink="http://www.w3.org/1999/xlink" x="0px" y="0px"
	 viewBox="0 0 80 80" style="enable-background:new 0 0 80 80;" xml:space="preserve">
<style type="text/css">
	.st0{fill:none;stroke:#0072CE;stroke-width:2.5;stroke-linecap:round;stroke-linejoin:round;stroke-miterlimit:10;}
	.st1{fill-rule:evenodd;clip-rule:evenodd;fill:#0472CE;}
	.st2{enable-background:new    ;}
</style>
<g>
	<g>
		<g>
			<path class="st0" d="M62.7,48.3c0,1.7-1.4,3.1-3.1,3.1H46.2c-1.7,0-3.1-1.4-3.1-3.1V34.9c0-1.7,1.4-3.1,3.1-3.1h13.4
				c1.7,0,3.1,1.4,3.1,3.1L62.7,48.3L62.7,48.3z"/>
			<path class="st0" d="M36.8,48.3c0,1.7-1.4,3.1-3.1,3.1H20.3c-1.7,0-3.1-1.4-3.1-3.1V34.9c0-1.7,1.4-3.1,3.1-3.1h13.4
				c1.7,0,3.1,1.4,3.1,3.1V48.3z"/>
			<path class="st0" d="M62.7,74.2c0,1.7-1.4,3.1-3.1,3.1H46.2c-1.7,0-3.1-1.4-3.1-3.1V60.8c0-1.7,1.4-3.1,3.1-3.1h13.4
				c1.7,0,3.1,1.4,3.1,3.1L62.7,74.2L62.7,74.2z"/>
			<path class="st0" d="M36.8,74.2c0,1.7-1.4,3.1-3.1,3.1H20.3c-1.7,0-3.1-1.4-3.1-3.1V60.8c0-1.7,1.4-3.1,3.1-3.1h13.4
				c1.7,0,3.1,1.4,3.1,3.1V74.2z"/>
			<line class="st0" x1="50.5" y1="41.6" x2="55.4" y2="41.6"/>
			<line class="st0" x1="27" y1="39.1" x2="27" y2="44.1"/>
			<line class="st0" x1="24.2" y1="41.6" x2="29.9" y2="41.6"/>
			<line class="st0" x1="50.9" y1="69.6" x2="55" y2="65.5"/>
			<line class="st0" x1="55" y1="69.6" x2="50.9" y2="65.5"/>
			<line class="st0" x1="24.1" y1="70.4" x2="29.9" y2="64.6"/>
		</g>
		<path class="st1" d="M22.4,64.4c0-0.8,0.6-1.4,1.4-1.4c0.8,0,1.4,0.6,1.4,1.4c0,0.8-0.6,1.4-1.4,1.4
			C23.1,65.8,22.4,65.2,22.4,64.4"/>
		<path class="st1" d="M29,70.6c0-0.8,0.6-1.4,1.4-1.4c0.8,0,1.4,0.6,1.4,1.4c0,0.8-0.6,1.4-1.4,1.4C29.7,72,29,71.4,29,70.6"/>
	</g>
	<g>
		<path class="st0" d="M9.8,39.6v-9.4H1.5v-2.4c0-1.9,1-3.7,2.6-4.7L34.9,4.1c1.5-0.9,3.3-1.4,5.1-1.4c1.8,0,3.6,0.5,5.1,1.4
			l30.8,18.9c1.6,1,2.6,2.8,2.6,4.7v2.4h-8.2v9.4"/>
		<g>
			<g class="st2">
				<g>
					<g>
						<polyline class="st0" points="59.3,11 59.3,2.7 70.2,2.7 70.2,19.2 						"/>
					</g>
				</g>
			</g>
		</g>
	</g>
</g>
</svg>
