<?xml version="1.0" encoding="utf-8"?>
<!-- Generator: Adobe Illustrator 24.3.0, SVG Export Plug-In . SVG Version: 6.00 Build 0)  -->
<svg version="1.1" id="Layer_1" xmlns="http://www.w3.org/2000/svg" xmlns:xlink="http://www.w3.org/1999/xlink" x="0px" y="0px"
	 viewBox="0 0 80 80" style="enable-background:new 0 0 80 80;" xml:space="preserve">
<style type="text/css">
	.st0{fill:none;stroke:#2B71B9;stroke-width:2.5;stroke-linecap:round;stroke-linejoin:round;stroke-miterlimit:10;}
	.st1{enable-background:new    ;}
	.st2{fill:#2B71B9;}
</style>
<g>
	<g>
		<g>
			<defs>
				<path id="SVGID_1_" d="M36.1,13.7c0,1.1-0.9,2-2,2s-2-0.9-2-2c0-1.1,0.9-2,2-2S36.1,12.6,36.1,13.7"/>
			</defs>
			<use xlink:href="#SVGID_1_"  style="overflow:visible;fill-rule:evenodd;clip-rule:evenodd;fill:#2B71B9;"/>
			<clipPath id="SVGID_2_">
				<use xlink:href="#SVGID_1_"  style="overflow:visible;"/>
			</clipPath>
		</g>
		<path class="st0" d="M55.9,38.8V21.6h5.9v-1.7c0-1.4-0.7-2.6-1.9-3.4L37.8,2.9c-1.1-0.7-2.4-1-3.7-1c-1.3,0-2.6,0.4-3.7,1
			L8.4,16.5c-1.2,0.7-1.9,2-1.9,3.4v1.7h5.9v22.8"/>
		<polyline class="st0" points="20.3,44.4 20.3,25.6 32.2,25.6 32.2,41.2 		"/>
		<g>
			<g class="st1">
				<g>
					<g>
						<polyline class="st0" points="38.2,36.3 38.1,25.6 48,25.6 48,35.6 						"/>
						<polyline class="st0" points="48,7.8 48,1.9 55.9,1.9 55.9,13.7 						"/>
					</g>
				</g>
			</g>
		</g>
	</g>
	<g>
		<circle class="st0" cx="45.3" cy="50.4" r="15.1"/>
		<line class="st0" x1="55.8" y1="61.2" x2="61.7" y2="67.1"/>
		<path class="st0" d="M60.1,69.8l3.9-4.5l8.8,7.7c0,0,1.7,1.1-0.4,3.8c-2.1,2.6-3.9,0.7-3.9,0.7L60.1,69.8z"/>
	</g>
</g>
<g>
	<path class="st2" d="M44.9,52c-0.2-0.2-0.2-0.5-0.2-0.8c0-0.5,0.1-1,0.3-1.3c0.2-0.4,0.5-0.7,0.8-1.1c0.3-0.3,0.5-0.5,0.6-0.7
		c0.1-0.2,0.2-0.4,0.2-0.7c0-0.2-0.1-0.4-0.3-0.6c-0.2-0.1-0.4-0.2-0.7-0.2c-0.3,0-0.5,0-0.8,0.1c-0.3,0.1-0.5,0.2-0.8,0.4l-0.4,0.2
		c-0.4,0.2-0.7,0.3-0.9,0.3c-0.3,0-0.5-0.1-0.7-0.4c-0.2-0.2-0.3-0.5-0.3-0.9c0-0.2,0-0.4,0.1-0.6c0.1-0.2,0.2-0.3,0.4-0.5
		c0.5-0.4,1.1-0.7,1.7-0.9c0.6-0.2,1.3-0.3,1.9-0.3c0.7,0,1.4,0.1,2,0.4c0.6,0.3,1,0.6,1.3,1c0.3,0.4,0.5,0.9,0.5,1.5
		c0,0.4-0.1,0.8-0.3,1.1c-0.2,0.3-0.4,0.6-0.6,0.9c-0.2,0.2-0.6,0.5-1,0.9c-0.4,0.3-0.7,0.6-0.8,0.8s-0.3,0.4-0.4,0.7
		c0,0.2-0.2,0.4-0.3,0.6c-0.2,0.1-0.4,0.2-0.6,0.2C45.3,52.3,45.1,52.2,44.9,52z M44.5,55.8c-0.3-0.3-0.5-0.7-0.5-1.2
		s0.2-0.8,0.5-1.2c0.3-0.3,0.7-0.5,1.2-0.5c0.5,0,0.9,0.2,1.2,0.5c0.3,0.3,0.5,0.7,0.5,1.2s-0.2,0.8-0.5,1.2
		c-0.3,0.3-0.7,0.5-1.2,0.5C45.2,56.3,44.8,56.1,44.5,55.8z"/>
</g>
</svg>
