<?xml version="1.0" encoding="utf-8"?>
<!-- Generator: Adobe Illustrator 24.3.0, SVG Export Plug-In . SVG Version: 6.00 Build 0)  -->
<svg version="1.1" id="Layer_1" xmlns="http://www.w3.org/2000/svg" xmlns:xlink="http://www.w3.org/1999/xlink" x="0px" y="0px"
	 viewBox="0 0 80 80" style="enable-background:new 0 0 80 80;" xml:space="preserve">
<style type="text/css">
	.st0{fill:none;stroke:#2B71B9;stroke-width:2.5;stroke-linecap:round;stroke-linejoin:round;stroke-miterlimit:10;}
	.st1{enable-background:new    ;}
	.st2{fill:none;stroke:#2B71B9;stroke-width:2.5;stroke-linecap:round;stroke-miterlimit:10;}
</style>
<g>
	<g>
		<g>
			<defs>
				<path id="SVGID_1_" d="M49.4,15.5c0,1-0.8,1.8-1.8,1.8s-1.8-0.8-1.8-1.8c0-1,0.8-1.8,1.8-1.8S49.4,14.5,49.4,15.5"/>
			</defs>
			<use xlink:href="#SVGID_1_"  style="overflow:visible;fill-rule:evenodd;clip-rule:evenodd;fill:#2B71B9;"/>
			<clipPath id="SVGID_2_">
				<use xlink:href="#SVGID_1_"  style="overflow:visible;"/>
			</clipPath>
		</g>
		<path class="st0" d="M27.4,42.1V22.8h-5.5v-1.6c0-1.3,0.7-2.5,1.7-3.1L44.2,5.5c1-0.6,2.2-1,3.4-1c1.2,0,2.4,0.3,3.4,1l20.5,12.6
			c1.1,0.7,1.7,1.8,1.7,3.1v1.6h-5.5v18.1"/>
		<polyline class="st0" points="34.7,42.1 34.7,26.5 45.7,26.5 45.7,42.1 		"/>
		<g>
			<g class="st1">
				<g>
					<g>
						<rect x="51.2" y="26.5" class="st0" width="9.2" height="11"/>
						<polyline class="st0" points="60.4,10 60.4,4.5 67.7,4.5 67.7,15.5 						"/>
					</g>
				</g>
			</g>
		</g>
	</g>
	<path class="st2" d="M1.5,61.2c0,0,11.6-11.4,14-12.3c2-0.7,3.9-1.2,6.6-0.9c3.3,0.4,4.2,1.1,10,1.3l0.9,0.1H47
		c2.9,0,5.3,1.6,5.3,4.5v0c0,2.9-2.4,4.5-5.3,4.5H33 M10.7,75.5c0,0,5.4-5.7,8.3-5.5s27.2,0,27.2,0c1.2,0.7,13.9-7.3,13.9-7.3
		l15.6-9.1c2.6-1.4,3.5-4.6,2.2-7.1v0c-1.4-2.6-4.6-3.5-7.1-2.2L56.2,52"/>
</g>
</svg>
