<svg xmlns="http://www.w3.org/2000/svg" viewBox="0 0 80 80" fill="none" stroke="#0071ce" stroke-width="2.5" stroke-linejoin="round" stroke-miterlimit="10" xmlns:v="https://vecta.io/nano"><path d="M64 78.2H16c-3.5 0-6.3-2.8-6.3-6.3V8c0-3.5 2.8-6.3 6.3-6.3h48c3.5 0 6.3 2.8 6.3 6.3v63.9c.1 3.4-2.8 6.3-6.3 6.3z"/><path d="M19.9 37.3h40.4M19.9 47.7h40.4M19.9 58h40.4M19.9 68.3h40.4M22.9 28v-6.9h-3.8V19c0-.6.3-1.1.8-1.4l9.3-5.7c.5-.3 1-.4 1.5-.4s1.1.2 1.5.4l9.3 5.7c.5.3.8.8.8 1.4v2.1h-3.8v7.3" stroke-linecap="round"/></svg>