<?xml version="1.0" encoding="utf-8"?>
<!-- Generator: Adobe Illustrator 24.3.0, SVG Export Plug-In . SVG Version: 6.00 Build 0)  -->
<svg version="1.1" id="Layer_1" xmlns="http://www.w3.org/2000/svg" xmlns:xlink="http://www.w3.org/1999/xlink" x="0px" y="0px"
	 viewBox="0 0 80 80" style="enable-background:new 0 0 80 80;" xml:space="preserve">
<style type="text/css">
	.st0{fill:none;stroke:#2C71B9;stroke-width:2.4393;stroke-linecap:round;stroke-linejoin:round;stroke-miterlimit:10;}
	.st1{enable-background:new    ;}
</style>
<g>
	<g>
		<defs>
			<path id="SVGID_1_" d="M42.7,28.6c0,1.5-1.2,2.7-2.7,2.7c-1.5,0-2.7-1.2-2.7-2.7c0-1.5,1.2-2.7,2.7-2.7
				C41.5,25.9,42.7,27.1,42.7,28.6"/>
		</defs>
		<use xlink:href="#SVGID_1_"  style="overflow:visible;fill-rule:evenodd;clip-rule:evenodd;fill:#2C71B9;"/>
		<clipPath id="SVGID_2_">
			<use xlink:href="#SVGID_1_"  style="overflow:visible;"/>
		</clipPath>
	</g>
	<path class="st0" d="M10.5,67.5V39.3h-8V37c0-1.9,1-3.6,2.6-4.6l30-18.5c1.5-0.9,3.2-1.4,5-1.4c1.8,0,3.5,0.5,5,1.4l30,18.5
		c1.6,1,2.6,2.7,2.6,4.6v2.4h-8v26.5"/>
	<polyline class="st0" points="21.2,67.5 21.2,44.7 37.3,44.7 37.3,67.5 	"/>
	<g>
		<g class="st1">
			<g>
				<g>
					<rect x="45.4" y="44.7" class="st0" width="13.4" height="16.1"/>
					<polyline class="st0" points="58.8,20.5 58.8,12.5 69.5,12.5 69.5,28.6 					"/>
				</g>
			</g>
		</g>
	</g>
</g>
</svg>
