<svg xmlns="http://www.w3.org/2000/svg" xmlns:xlink="http://www.w3.org/1999/xlink" viewBox="0 0 80 80" xmlns:v="https://vecta.io/nano"><defs><path id="A" d="M42.8 27.9c0 1.5-1.2 2.8-2.7 2.8s-2.8-1.2-2.8-2.8c0-1.5 1.2-2.7 2.8-2.7s2.7 1.1 2.7 2.7"/></defs><use xlink:href="#A" fill-rule="evenodd" fill="#2b70b8"/><path d="M9.8 67.7V38.9H1.5v-2.4c0-1.9 1-3.7 2.6-4.7l30.8-18.9a10.02 10.02 0 0 1 10.2 0l30.8 18.9c1.6 1 2.6 2.8 2.6 4.7v2.4h-8.2V66m-49.5 1.7V44.4h16.5v23.3" fill="none" stroke="#2b70b8" stroke-width="2.5" stroke-linecap="round" stroke-linejoin="round" stroke-miterlimit="10"/><g enable-background="new" fill="none" stroke="#2b70b8" stroke-width="2.5" stroke-linejoin="round" stroke-miterlimit="10"><path d="M45.5 44.4h13.7v16.5H45.5z"/><path d="M59.3 19.6v-8.2h10.9v16.5" stroke-linecap="round"/></g></svg>