<?xml version="1.0" encoding="utf-8"?>
<!-- Generator: Adobe Illustrator 24.3.0, SVG Export Plug-In . SVG Version: 6.00 Build 0)  -->
<svg version="1.1" id="Layer_1" xmlns="http://www.w3.org/2000/svg" xmlns:xlink="http://www.w3.org/1999/xlink" x="0px" y="0px"
	 viewBox="0 0 80 80" style="enable-background:new 0 0 80 80;" xml:space="preserve">
<style type="text/css">
	.st0{fill:none;stroke:#2B71B8;stroke-width:2.5;stroke-linecap:round;stroke-linejoin:round;stroke-miterlimit:10;}
	.st1{fill:#2B71B8;}
</style>
<g>
	<g>
		<circle class="st0" cx="28.5" cy="29" r="26.4"/>
		<line class="st0" x1="47" y1="47.8" x2="57.2" y2="58.1"/>
		<path class="st0" d="M54.5,62.8l6.8-7.8l15.5,13.4c0,0,3,2-0.7,6.6c-3.7,4.6-6.8,1.3-6.8,1.3L54.5,62.8z"/>
	</g>
	<g>
		<g>
			<path class="st1" d="M33.1,34.9c-0.8,0.8-1.8,1.3-3.1,1.5l0,1.2c0,0.4-0.1,0.7-0.3,0.9c-0.2,0.2-0.5,0.4-0.9,0.4
				c-0.4,0-0.7-0.1-0.9-0.3c-0.2-0.2-0.4-0.5-0.4-0.9l0-1.1c-0.8-0.1-1.5-0.2-2.2-0.5c-0.7-0.2-1.4-0.6-1.9-1
				c-0.2-0.1-0.4-0.3-0.5-0.5c-0.1-0.2-0.1-0.4-0.1-0.7c0-0.3,0.1-0.7,0.3-0.9c0.2-0.3,0.5-0.4,0.7-0.4c0.3,0,0.6,0.1,1,0.3
				c0.6,0.4,1.3,0.6,1.8,0.8c0.6,0.2,1.2,0.3,1.8,0.2c0.8,0,1.5-0.2,1.9-0.5c0.4-0.3,0.7-0.8,0.7-1.3c0-0.3-0.1-0.6-0.4-0.9
				c-0.3-0.2-0.6-0.4-1-0.5c-0.4-0.1-0.9-0.3-1.6-0.5c-1-0.3-1.9-0.5-2.6-0.8c-0.7-0.3-1.3-0.7-1.7-1.2C23.2,27.7,23,27,23,26
				c0-1.1,0.4-2.1,1.2-2.9c0.8-0.8,1.8-1.3,3.1-1.6l0-1.2c0-0.4,0.1-0.7,0.3-0.9c0.2-0.2,0.5-0.4,0.9-0.4c0.4,0,0.7,0.1,0.9,0.3
				c0.2,0.2,0.4,0.5,0.4,0.9l0,1.2c1.3,0.2,2.4,0.6,3.6,1.4c0.2,0.1,0.4,0.3,0.5,0.5c0.1,0.2,0.1,0.4,0.1,0.6c0,0.4-0.1,0.7-0.3,0.9
				c-0.2,0.3-0.5,0.4-0.7,0.4c-0.2,0-0.3,0-0.4-0.1c-0.1,0-0.3-0.1-0.6-0.3c-0.6-0.4-1.1-0.6-1.5-0.8c-0.5-0.2-1-0.3-1.7-0.3
				c-0.8,0-1.4,0.2-1.8,0.5c-0.5,0.3-0.7,0.8-0.7,1.3c0,0.4,0.1,0.7,0.4,1s0.6,0.4,1,0.6c0.4,0.1,1,0.3,1.7,0.5
				c1,0.2,1.9,0.5,2.5,0.7s1.2,0.7,1.7,1.2c0.5,0.6,0.7,1.3,0.7,2.3C34.3,33.1,33.9,34.1,33.1,34.9z"/>
		</g>
	</g>
</g>
</svg>
