<svg xmlns="http://www.w3.org/2000/svg" viewBox="0 0 80 80" xmlns:v="https://vecta.io/nano"><path d="M32.8 59c-1.2 1.9-2.8 3.4-5 4.5-2.1 1.1-4.6 1.8-7.3 2v6c0 .5-.1.8-.4 1.2-.3.3-.6.5-1 .5-.5 0-.8-.1-1.1-.4-.2-.3-.4-.7-.4-1.2v-6c-2.8-.1-5.5-.7-8.4-1.7-2.8-1-5.1-2.4-6.9-4.3-.4-.5-.6-1-.6-1.6 0-.4.1-.7.2-1 .2-.2.4-.4.7-.4.4 0 .8.2 1.2.5 4.8 3.7 9.8 5.6 14.7 5.6 4 0 7.2-.9 9.5-2.7s3.5-4.3 3.5-7.5c0-1.9-.6-3.5-1.7-4.7s-2.5-2.1-4.2-2.7-4-1.3-6.9-2c-3.5-.9-6.3-1.8-8.4-2.6S6.4 38.4 5 36.7c-1.5-1.7-2.2-4.1-2.2-7 0-2.4.6-4.6 1.9-6.6 1.2-1.9 3-3.5 5.2-4.7s4.8-1.8 7.7-1.9v-6c0-.5.1-.9.4-1.2.2-.3.6-.4 1-.4.5 0 .8.1 1.1.4.2.3.4.7.4 1.2v6c2.6.2 5.1.8 7.4 1.8 2.4 1 4.3 2.4 5.8 4.1.5.6.7 1.1.7 1.6a1.69 1.69 0 0 1-.3 1c-.2.3-.4.4-.7.4-.5 0-.9-.2-1.2-.5-2.2-2-4.3-3.4-6.3-4.3s-4.4-1.3-7.1-1.3c-4 0-7.2.9-9.5 2.8s-3.5 4.4-3.5 7.7c0 2.2.6 4 1.9 5.3 1.2 1.3 2.8 2.3 4.6 3s4.2 1.4 7.3 2.2c3.3.8 6 1.6 7.9 2.4 2 .8 3.7 1.9 5.1 3.5s2.1 3.7 2.1 6.4c-.2 2.5-.8 4.6-1.9 6.4z" fill="#0071ce" enable-background="new"/><path d="M78 41c0 16.2-4.5 29.3-18.9 29.3-14.2 0-18.9-13.1-18.9-29.3s4.5-29.3 18.9-29.3C74.1 11.7 78 24.9 78 41z" fill="none" stroke="#0071ce" stroke-width="2.5" stroke-miterlimit="10"/></svg>