<svg xmlns="http://www.w3.org/2000/svg" xmlns:xlink="http://www.w3.org/1999/xlink" viewBox="0 0 80 80" xmlns:v="https://vecta.io/nano"><style><![CDATA[.D{stroke-linejoin:round}.E{stroke-miterlimit:10}.F{stroke-linecap:round}]]></style><g fill="none" stroke="#6da9dc" stroke-width="2.5" class="D"><path d="M38.7 38.3H16c-3.3 0-5.9-2.7-5.9-5.9m19.4-17.8h42.8c3.3 0 5.9 2.7 5.9 5.9v11.8c0 3.3-2.7 5.9-5.9 5.9h-20" class="E F"/><circle cx="13.5" cy="17.3" r="11.7"/></g><defs><path id="A" d="M8.6 17.6l2.8 2.6c.3.3.8.3 1.1 0l6.3-5.8"/></defs><clipPath ><use xlink:href="#A"/></clipPath><g fill="none" stroke="#6da9dc" stroke-width="2.5" class="D E"><g class="F"><use xlink:href="#A"/><use xlink:href="#C"/></g><path d="M64.7 50.3c-.6-.6-1.4-.9-2.3-.9-1 0-1.8.5-2.4 1.2v-.3c0-1.7-1.4-3.2-3.2-3.2-1 0-1.9.5-2.5 1.2V48c0-1.7-1.4-3.2-3.2-3.2-1 0-1.9.5-2.5 1.2v-9.8c0-.9-.4-1.7-1-2.3s-1.4-.9-2.3-.9c-1.7 0-3.1 1.5-3.1 3.2v24.6l-4.8-5.2c-1.2-1.2-3.2-1.3-4.5-.1-.6.6-1 1.4-1 2.3s.3 1.7.9 2.3l7 7.4 5 5a8.21 8.21 0 0 0 5.6 2.2h7c4.5 0 8.1-3.7 8.1-8.1v-14c.2-.9-.2-1.7-.8-2.3z"/></g><path d="M31.4 29.8c-.6-.4-1.1-.9-1.4-1.5-.3-.7-.5-1.4-.5-2.3s.2-1.6.5-2.3a2.94 2.94 0 0 1 1.4-1.5c.6-.3 1.3-.5 2.2-.5.8 0 1.6.2 2.2.5s1.1.9 1.4 1.5c.3.7.5 1.4.5 2.3s-.2 1.6-.5 2.3a2.94 2.94 0 0 1-1.4 1.5c-.6.3-1.3.5-2.2.5-.8 0-1.6-.2-2.2-.5zm3.9-1.7c.4-.5.6-1.2.6-2.1s-.2-1.7-.6-2.1c-.4-.5-1-.7-1.7-.7s-1.3.2-1.7.7-.6 1.2-.6 2.1.2 1.7.6 2.1c.4.5 1 .7 1.7.7.7.1 1.3-.2 1.7-.7zm4.1 1.9c-.2-.2-.3-.4-.3-.7v-6.7c0-.3.1-.5.2-.6.2-.2.4-.2.6-.2h3c.9 0 1.6.2 2.1.7s.8 1.1.8 1.9-.3 1.5-.8 1.9-1 .7-1.9.7h-2v2.3c0 .3-.1.5-.3.7s-.4.3-.7.3-.5-.1-.7-.3zm3.4-4.4c.9 0 1.4-.4 1.4-1.2s-.5-1.2-1.4-1.2H41v2.4h1.8zm4.6 4.4c-.2-.2-.2-.4-.2-.6v-6.7c0-.3.1-.5.2-.6.2-.2.4-.2.6-.2h4.2c.6 0 .9.2.9.7s-.3.7-.9.7H49v2h3.1c.6 0 .9.2.9.7s-.3.7-.9.7H49v2.1h3.3c.6 0 .9.2.9.7s-.3.7-.9.7h-4.2c-.3 0-.5-.1-.7-.2zm14-8c.2.2.2.4.2.7v6.7c0 .3-.1.5-.2.7-.2.2-.4.3-.6.3-.3 0-.5-.1-.7-.3l-4-5.1v4.5c0 .3-.1.5-.2.7-.2.2-.4.3-.6.3-.3 0-.5-.1-.6-.3-.2-.2-.2-.4-.2-.7v-6.7c0-.3.1-.5.2-.7.2-.2.4-.3.6-.3.3 0 .5.1.7.3l4 5.1v-4.5c0-.3.1-.5.2-.7.2-.2.4-.3.6-.3s.4.1.6.3z" fill="#6da9dc"/></svg>