<svg xmlns="http://www.w3.org/2000/svg" viewBox="0 0 80 80" fill="#0071ce" stroke="#0071ce" stroke-miterlimit="10" xmlns:v="https://vecta.io/nano"><path d="M36.2 72.5V30.6c0-.3.2-.6.5-.7s.6 0 .9.2c.1.1.2.2.2.4a1.44 1.44 0 0 0 .2.3c1.5 1.6 9 3.3 19.8 3.3s18.2-1.7 19.8-3.3c.1-.2.2-.3.2-.3a.76.76 0 0 1 .2-.4c.2-.2.6-.3.8-.2.3.1.5.4.5.7v41.9c0 4.1-14.1 5.1-21.5 5.1-7.5.1-21.6-1-21.6-5.1zm21.5-36.9c-9.1 0-16.9-1.2-20-3.1v40c0 1.2 7.1 3.6 20 3.6s20-2.4 20-3.6v-40c-3.1 1.9-10.9 3.1-20 3.1z"/><path d="M52.5 43.6c-.4-1-.9-1.9-1.4-2.4-1.7-1.6-2.5-1.5-3.9-1.3-.5 0-1 .1-1.6.1-.7 0-1.4-.1-2.1-.2-1.2-.2-2.2-1.4-3.2-2.5-.9-1-1.8-2.1-2.6-2.1h0c-.2 0-.4.1-.5.1-.2.1-.5 0-.7-.1s-.3-.4-.3-.6v-4c0-.3.2-.6.5-.7s.6 0 .9.2c.1.1.2.2.2.4a1.44 1.44 0 0 0 .2.3c1.5 1.6 9 3.3 19.8 3.3s18.2-1.7 19.8-3.3c.1-.2.2-.3.2-.3a.76.76 0 0 1 .2-.4c.2-.2.6-.3.8-.2.3.1.5.4.5.7v3.9c0 .2-.1.3-.1.5-2.2 3-4.8 4.3-8.2 3.9-.5-.1-1.1-.1-1.6-.2-.8-.1-1.5-.2-2.2-.2-1.3 0-2.1.5-2.8 1.7-.3.5-.6 1.3-.8 2.1-.9 2.6-2.1 6.1-5.8 6.1-3.1-.1-4.3-2.7-5.3-4.8zm17.1-6.4c.5.1 1 .2 1.5.2 2.8.3 4.8-.7 6.6-3.1v-1.7c-3.1 1.9-10.9 3.1-20 3.1s-16.9-1.2-20-3.1v1.2c1.5-.1 2.7 1.3 3.8 2.6.8.9 1.6 1.9 2.3 2 1.2.2 2.3.2 3.2.1.4 0 .8-.1 1.2-.1 1.4 0 2.5.5 3.9 1.8.7.7 1.2 1.7 1.7 2.8 1.1 2.3 1.9 3.8 3.8 3.8 2.4 0 3.3-2.1 4.4-5.1.3-.9.6-1.7.9-2.3.9-1.7 2.2-2.5 4.1-2.5a10.9 10.9 0 0 1 2.6.3z"/><path d="M36.8 31.8c-.5-.5-.6-1.1-.6-1.4 0-4.1 14.1-5.2 21.5-5.2s21.5 1.1 21.5 5.2c0 .5-.2 1-.6 1.4-2.1 2.2-10.7 3.8-20.9 3.8-10.1 0-18.7-1.6-20.9-3.8zm.9-1.4a.76.76 0 0 0 .2.4c1.5 1.6 9 3.3 19.8 3.3s18.2-1.7 19.8-3.3a.76.76 0 0 0 .2-.4c0-1.3-7.1-3.7-20-3.7s-20 2.4-20 3.7zM6.3 15.5V6.4c0-2.2 1.8-4 4-4H47c2.2 0 4 1.8 4 4v9.1c0 2.2-1.8 4-4 4H10.3c-2.2 0-4-1.8-4-4zm4-11.6C9 3.9 7.9 5 7.9 6.4v9.1c0 1.4 1.1 2.5 2.5 2.5H47c1.4 0 2.5-1.1 2.5-2.5V6.4c0-1.4-1.1-2.5-2.5-2.5H10.3zm11.3 63.2v-26c0-1 .5-1.8 1.5-2.3.8-.4 1.8-.6 3-.6 4.1 0 4.6 2 4.6 2.9v26.1c0 2-2.1 3.5-4.6 3.5h0c-2.4 0-4.5-1.6-4.5-3.6zm2.2-27c-.6.3-.7.7-.7.9v26.1c0 1.1 1.4 2 3 2h0c1.6 0 3-.9 3-2v-26c0-1.2-2.1-1.3-3-1.3-.9-.1-1.7.1-2.3.3z"/><path d="M26.2 39.7c.4 0 .8-.3.8-.8v-6c0-1.7-1.2-3.3-3-3.6L3.5 25.5A1.6 1.6 0 0 1 2.2 24V13.3a1.54 1.54 0 0 1 1.5-1.5H7c.4 0 .8-.3.8-.8s-.3-.8-.8-.8H3.8a3.12 3.12 0 0 0-3.1 3.1V24c0 1.5 1.1 2.8 2.5 3l20.5 3.9c1 .2 1.7 1.1 1.7 2.1v6c0 .4.4.7.8.7z"/></svg>