<svg xmlns="http://www.w3.org/2000/svg" viewBox="0 0 80 80" xmlns:v="https://vecta.io/nano"><g fill="none" stroke="#0071ce" stroke-width="2.5" stroke-linecap="round" stroke-miterlimit="10"><path d="M62.2 15.5v44.9M17.8 12.8V9.4a7.92 7.92 0 0 1 7.9-7.9h28.7a7.92 7.92 0 0 1 7.9 7.9v9.8m-.1 46.6v4.8a7.92 7.92 0 0 1-7.9 7.9H25.7a7.92 7.92 0 0 1-7.9-7.9V17.3m0-4.5h37.7"/><path d="M24 65.8h38.2"/></g><g fill="#0071ce"><circle cx="40" cy="7.5" r="1.4"/><circle cx="40.2" cy="72.1" r="2.9"/></g><g fill="none" stroke="#0071ce"><path d="M27.1 40.5h-2.3a.65.65 0 0 1-.6-.6V24.6a.65.65 0 0 1 .6-.6h2.3a.65.65 0 0 1 .6.6v15.3c-.1.3-.3.6-.6.6zm6.5 0h-2.2a.65.65 0 0 1-.6-.6v-18a.65.65 0 0 1 .6-.6h2.2a.65.65 0 0 1 .6.6v18c-.1.3-.3.6-.6.6z" stroke-miterlimit="10" stroke-width="2"/><circle cx="47.3" cy="30.3" r="10.3" stroke-width="2"/><g stroke-linecap="round" stroke-miterlimit="10"><path d="M47 30.5V20m8.6 16.2L47 30.5" stroke-width="2"/><path d="M54.5 23.2L47 30.5" stroke-width="2"/><path d="M24.2 47.1h32.5m-32.5 5.5h32.5m-32.5 6h32.5" stroke-width="2.5"/></g></g></svg>