<?xml version="1.0" encoding="utf-8"?>
<!-- Generator: Adobe Illustrator 24.2.3, SVG Export Plug-In . SVG Version: 6.00 Build 0)  -->
<svg version="1.1" id="Layer_1" xmlns:v="https://vecta.io/nano"
	 xmlns="http://www.w3.org/2000/svg" xmlns:xlink="http://www.w3.org/1999/xlink" x="0px" y="0px" viewBox="0 0 80 80"
	 style="enable-background:new 0 0 80 80;" xml:space="preserve">
<style type="text/css">
	.st0{fill:none;stroke:#0071CE;stroke-width:2.5;stroke-linecap:round;stroke-miterlimit:10;}
	.st1{fill:none;stroke:#0071CE;stroke-width:2.5;stroke-linecap:round;stroke-linejoin:round;stroke-miterlimit:10;}
	.st2{fill:#0071CE;}
</style>
<g>
	<path class="st0" d="M14.9,23.5c0,0,0.8,8,5.4,9.9s8.8,3.5,11.5,5.8s10.7,10.4,10.7,10.4s5.9,5.1,9.6,1.5c3.4-3.2,1.5-7.2,0-8.8
		S40.6,33,40.6,33s-5.8-5.9,1.9-7.3 M30.3,9.2c0,0,21.2,2,24.2,5.3c2.2,2.4,3,21.6,3,21.6"/>
	<path class="st1" d="M26.3,1.5l5.1,5.2L11.4,26.7l-5.2-5.1"/>
	<path class="st0" d="M54,39c10.9,0,19.8,8.9,19.8,19.8S64.9,78.5,54,78.5s-19.8-8.8-19.8-19.8c0-3.5,0.9-6.8,2.5-9.7"/>
</g>
<path class="st2" d="M57.3,64.1c-0.5,0.5-1.2,0.8-2,1v0.8c0,0.2-0.1,0.4-0.2,0.6s-0.3,0.2-0.6,0.2s-0.4-0.1-0.6-0.2
	s-0.2-0.3-0.2-0.6v-0.7c-0.5,0-1-0.1-1.5-0.3c-0.5-0.2-0.9-0.4-1.2-0.6c-0.1-0.1-0.2-0.2-0.3-0.3c-0.1-0.1-0.1-0.3-0.1-0.4
	c0-0.2,0.1-0.4,0.2-0.6s0.3-0.3,0.5-0.3c0.2,0,0.4,0.1,0.6,0.2c0.4,0.2,0.8,0.4,1.2,0.5c0.4,0.1,0.8,0.2,1.2,0.2
	c0.5,0,1-0.1,1.2-0.3c0.3-0.2,0.4-0.5,0.4-0.9c0-0.2-0.1-0.4-0.2-0.6c-0.2-0.1-0.4-0.3-0.6-0.3L54,61.2c-0.7-0.2-1.2-0.3-1.7-0.5
	c-0.4-0.2-0.8-0.4-1.1-0.8s-0.5-0.9-0.5-1.5c0-0.7,0.3-1.4,0.8-1.9s1.2-0.9,2-1v-0.8c0-0.2,0.1-0.4,0.2-0.6s0.3-0.2,0.6-0.2
	c0.2,0,0.4,0.1,0.6,0.2s0.2,0.3,0.2,0.6v0.8c0.8,0.1,1.6,0.4,2.3,0.9c0.1,0.1,0.2,0.2,0.3,0.3s0.1,0.3,0.1,0.4
	c0,0.2-0.1,0.4-0.2,0.6S57.4,58,57.2,58c-0.1,0-0.2,0-0.3,0s-0.2-0.1-0.4-0.2c-0.4-0.2-0.7-0.4-1-0.5c-0.3-0.1-0.7-0.2-1.1-0.2
	c-0.5,0-0.9,0.1-1.2,0.3s-0.4,0.5-0.4,0.9c0,0.2,0.1,0.5,0.3,0.6c0.2,0.2,0.4,0.3,0.7,0.4c0.4,0.1,0.7,0.2,1.1,0.3
	c0.7,0.2,1.2,0.3,1.6,0.5s0.8,0.4,1.1,0.8c0.3,0.4,0.5,0.9,0.5,1.5C58.1,63,57.8,63.7,57.3,64.1L57.3,64.1z"/>
</svg>
