<svg xmlns="http://www.w3.org/2000/svg" viewBox="0 0 80 80" xmlns:v="https://vecta.io/nano"><g fill="none" stroke="#0070d0" stroke-width="2.5"><g stroke-linecap="round" stroke-linejoin="round" stroke-miterlimit="10"><path d="M70.5 37.8h3.9c2.2 0 4.1 1.8 4.1 4.1V74c0 2.2-1.8 4.1-4.1 4.1H5.6c-2.2 0-4.1-1.8-4.1-4.1V41.9c0-2.2 1.8-4.1 4.1-4.1h36.1"/><path d="M13.5 49.5h15.2M13.6 62.3h52.8m-52.8 7h52.8"/></g><circle cx="56" cy="37.7" r="10.9"/></g><g stroke-miterlimit="10"><path d="M58.9 40.7c-.4.4-.9.6-1.6.8v.6c0 .2-.1.3-.2.5-.1.1-.3.2-.5.2s-.3-.1-.5-.2c-.1-.1-.2-.3-.2-.5v-.6c-.4 0-.8-.1-1.1-.2-.4-.1-.7-.3-1-.5l-.2-.2c0-.1-.1-.2-.1-.3 0-.2.1-.3.2-.5.1-.1.2-.2.4-.2.1 0 .3.1.5.2.3.2.6.3.9.4s.6.1.9.1c.4 0 .7-.1 1-.2.2-.2.3-.4.3-.7 0-.2-.1-.3-.2-.4s-.3-.2-.5-.3-.5-.1-.8-.2c-.5-.1-1-.3-1.3-.4s-.6-.3-.9-.6c-.2-.3-.4-.7-.4-1.2 0-.6.2-1.1.6-1.5s.9-.7 1.6-.8v-.6c0-.2.1-.3.2-.5.1-.1.3-.2.5-.2s.3.1.5.2c.1.1.2.3.2.5v.6a4.49 4.49 0 0 1 1.8.7l.2.2c0 .1.1.2.1.3 0 .2-.1.3-.2.5-.1.1-.2.2-.4.2h-.2c-.1 0-.2-.1-.3-.1-.3-.2-.5-.3-.8-.4-.2-.1-.5-.1-.8-.1-.4 0-.7.1-.9.3s-.3.4-.3.7c0 .2.1.4.2.5s.3.2.5.3.5.2.9.2c.5.1.9.3 1.3.4.3.1.6.3.8.6s.4.7.4 1.2c-.1.3-.3.8-.6 1.2z" fill="#0070d0" stroke="#0070d0" stroke-width=".75"/><g fill="none" stroke-width="2.5" stroke-linecap="round" stroke-linejoin="round"><path d="M48 13.4L56 2v21.4" stroke="#0070d0"/><path d="M64 13.4L56 2v21.4" stroke="#0070d0"/></g></g></svg>