<svg xmlns="http://www.w3.org/2000/svg" viewBox="0 0 80 80" fill="none" xmlns:v="https://vecta.io/nano"><g stroke="#0070d0" stroke-width="2.5" stroke-linejoin="round"><circle cx="38.2" cy="33.8" r="9.2"/><circle cx="62" cy="24.7" r="7.3"/><circle cx="43.7" cy="8.2" r="5.5"/></g><path d="M1.5 60.8s11.6-11.4 14-12.3c2-.7 3.9-1.2 6.6-.9 3.3.4 4.2 1.1 10 1.3l.9.1h14c2.9 0 5.3 1.6 5.3 4.5h0c0 2.9-2.4 4.5-5.3 4.5H33M10.7 75.1s5.4-5.7 8.3-5.5 27.2 0 27.2 0c1.2.7 13.9-7.3 13.9-7.3l15.6-9.1c2.6-1.4 3.5-4.6 2.2-7.1h0c-1.4-2.6-4.6-3.5-7.1-2.2l-14.5 7.8" stroke="#0072cc" stroke-width="2.5" stroke-linecap="round" stroke-miterlimit="10"/></svg>