<?xml version="1.0" encoding="utf-8"?>
<!-- Generator: Adobe Illustrator 24.3.0, SVG Export Plug-In . SVG Version: 6.00 Build 0)  -->
<svg version="1.1" id="Layer_1" xmlns="http://www.w3.org/2000/svg" xmlns:xlink="http://www.w3.org/1999/xlink" x="0px" y="0px"
	 viewBox="0 0 80 80" style="enable-background:new 0 0 80 80;" xml:space="preserve">
<style type="text/css">
	.st0{fill:none;stroke:#2B71B9;stroke-width:2.5;stroke-linecap:round;stroke-miterlimit:10;}
	.st1{fill:#2B71B9;stroke:#2B71B9;stroke-width:1.1;stroke-miterlimit:10;}
</style>
<g>
	<path class="st0" d="M1.5,56.7c0,0,11.6-11.4,14-12.3c2-0.7,3.9-1.2,6.6-0.9c3.3,0.4,4.2,1.1,10,1.3l0.9,0.1H47
		c2.9,0,5.3,1.6,5.3,4.5v0c0,2.9-2.4,4.5-5.3,4.5H33 M10.7,71c0,0,5.4-5.7,8.3-5.5c2.9,0.2,27.2,0,27.2,0c1.2,0.7,13.9-7.3,13.9-7.3
		l15.6-9.1c2.6-1.4,3.5-4.6,2.2-7.1v0c-1.4-2.6-4.6-3.5-7.1-2.2l-14.5,7.8"/>
	<path class="st1" d="M53.4,45.3c-0.2,0-0.5-0.1-0.6-0.3c-0.3-0.4-0.3-0.9,0.1-1.2c2.7-2.4,5.2-4.9,7.3-7.2
		c5.6-6.4,10.5-12.7,8.8-19.1c-0.8-3.3-4.1-6.6-8.9-6.7c-4.7-0.1-8.5,3.1-10.4,6.1c-0.2,0.2-0.4,0.4-0.7,0.4s-0.6-0.1-0.7-0.4
		c-1.9-3-5.7-6.2-10.4-6.1c-4.8,0.1-8,3.5-8.9,6.7c-2.2,8.2,7.1,17.3,12.7,23.7c0.3,0.4,0.3,0.9-0.1,1.2c-0.4,0.3-0.9,0.3-1.2-0.1
		C34.7,35.8,24.9,26.1,27.2,17c1-3.9,4.9-7.9,10.5-8c4.9-0.1,8.9,2.8,11.2,5.8c2.3-3,6.1-5.8,10.9-5.8c0.1,0,0.2,0,0.3,0
		c5.6,0.1,9.5,4.1,10.5,8c1.8,7.2-3.6,14.2-9.2,20.7c-2.1,2.4-4.7,4.9-7.4,7.4C53.8,45.2,53.6,45.3,53.4,45.3z"/>
</g>
</svg>
