<?xml version="1.0" encoding="utf-8"?>
<!-- Generator: Adobe Illustrator 24.3.0, SVG Export Plug-In . SVG Version: 6.00 Build 0)  -->
<svg version="1.1" id="Layer_1" xmlns="http://www.w3.org/2000/svg" xmlns:xlink="http://www.w3.org/1999/xlink" x="0px" y="0px"
	 viewBox="0 0 80 80" style="enable-background:new 0 0 80 80;" xml:space="preserve">
<style type="text/css">
	.st0{fill:none;stroke:#2C71B9;stroke-width:2.5;stroke-linecap:round;stroke-linejoin:round;stroke-miterlimit:10;}
</style>
<g>
	<line class="st0" x1="26.2" y1="24.5" x2="9.2" y2="7.5"/>
	<path class="st0" d="M33.2,47.5c13.4,13.4,22.3,6.3,22.3,6.3l6.5-6.5l16.4,16.4l-5.6,6.8l-5.1,6.3c-0.7,0.9-1.7,1.5-2.8,1.6
		C60.4,79,47.4,78.1,25,55.7L24.3,55C1.9,32.5,1,19.6,1.7,15.1C1.9,14,2.5,13,3.3,12.3l6.3-5.1l6.8-5.6l16.4,16.4l-6.5,6.5
		c0,0-7.1,8.9,6.3,22.3L33.2,47.5z"/>
	<line class="st0" x1="55.5" y1="53.8" x2="72.5" y2="70.8"/>
</g>
</svg>
