<svg xmlns="http://www.w3.org/2000/svg" viewBox="0 0 80 80" xmlns:v="https://vecta.io/nano"><path d="M24.47 25.18c-3.32 2.63-8.3 7.6-10.02 13.66-1.67 5.85.63 15.1 7.3 21.26 1.03.96 1.5 2.57 1.7 3.76.15.88.12 1.75.1 2.6-.02.62-.04 1.2.01 1.76.23 2.55 1.8 4 4.4 4.1.6.02 1.2.02 1.8.01h.73c3.78-.01 4.66-.65 5.85-4.27l.24-.74h10.8l.28.66c.87 2.05 2.3 4.04 4.36 4.32 2.27.3 4.12.22 6.17-.36 1.32-.37 2.5-1.75 2.4-3.96-.2-4.95 2.1-7.24 3.94-9.24 1.35-1.46 5.13-3.9 9.05-3.72a4.24 4.24 0 0 0 3.19-1.17c1.05-.98 1.67-2.47 1.72-4.1.1-3.4.1-7.1.02-11.38-.07-3.68-2.03-5.7-5.5-5.7h-.17c-2.47.04-5.54-1-8.14-2.63-1.4-.88-7.15-5.05-6.12-11.54.16-1.03 1.08-4.06 1.08-4.06-3.14-.15-6.25 2.3-8.58 4.7-.8.8-2.4 1.74-7 1.25" fill="none" stroke="#0071ce" stroke-width="2.5" stroke-linecap="round" stroke-linejoin="round" stroke-miterlimit="10"/><g fill="#0071ce"><circle cx="55.24" cy="32.3" r="2.99"/><path d="M34.62 21.1c-.42.4-.98.65-1.67.74v.8c0 .15-.04.27-.13.36s-.2.13-.34.13-.26-.04-.34-.13c-.1-.1-.13-.2-.13-.36v-.77c-.45-.04-.88-.13-1.3-.27-.4-.15-.76-.34-1.06-.6-.14-.1-.2-.25-.2-.45 0-.13.04-.25.1-.34s.16-.14.26-.14.23.05.38.15c.7.48 1.44.73 2.17.73.55 0 .98-.1 1.28-.33s.45-.54.45-.95c0-.25-.08-.44-.24-.6-.16-.15-.36-.27-.6-.36s-.57-.2-1-.3c-.56-.14-1-.28-1.36-.42a2.24 2.24 0 0 1-.9-.66c-.25-.3-.37-.7-.37-1.18 0-.6.22-1.1.65-1.53.44-.42 1-.67 1.72-.75v-.78c0-.15.04-.27.13-.36s.2-.13.34-.13.25.04.34.13.13.2.13.36v.78a4.05 4.05 0 0 1 1.09.27 3.15 3.15 0 0 1 .92.59.55.55 0 0 1 .22.45c0 .13-.04.24-.1.33-.07.1-.16.15-.27.15-.1 0-.23-.05-.38-.15-.32-.25-.62-.43-.9-.55s-.63-.18-1.03-.18c-.5 0-.92.12-1.23.36s-.46.56-.46.97c0 .28.1.5.26.67a1.79 1.79 0 0 0 .64.4c.25.1.6.2 1.04.3.54.13.98.27 1.32.4s.62.35.86.62c.24.28.36.66.36 1.13-.01.56-.22 1.05-.64 1.46z"/><path d="M33.95 18.07c-.32-.13-.75-.27-1.28-.4l-1.06-.3a1.96 1.96 0 0 1-.72-.45c-.22-.22-.33-.5-.33-.84 0-.5.18-.88.55-1.16.35-.27.8-.4 1.38-.4.42 0 .8.07 1.12.2.3.13.63.32.97.58.13.1.2.1.23.1.01 0 .04 0 .08-.05s.06-.1.06-.2c0-.1-.04-.2-.13-.26-.26-.24-.54-.42-.86-.55a3.82 3.82 0 0 0-1.02-.26l-.22-.02v-1c0-.1-.04-.16-.06-.2-.03-.03-.07-.06-.17-.06s-.14.03-.17.06-.06.08-.06.2v1l-.2.02c-.66.08-1.2.3-1.58.7s-.58.82-.58 1.36c0 .43.1.78.32 1.03.22.27.5.46.8.6.34.14.8.28 1.33.4l1.02.3c.27.1.5.24.7.4.2.2.3.46.3.77 0 .5-.18.87-.55 1.14-.34.25-.82.38-1.42.38-.78 0-1.55-.26-2.3-.77-.14-.1-.22-.1-.25-.1-.01 0-.04 0-.07.05-.04.05-.06.1-.06.2a.28.28 0 0 0 .11.25 3 3 0 0 0 .99.56c.4.14.8.23 1.23.26l.22.02v1c0 .1.04.16.06.2s.07.06.17.06.14-.03.17-.06.06-.08.06-.2v-1l.2-.03c.64-.08 1.15-.3 1.53-.67.37-.36.56-.8.56-1.3 0-.42-.1-.74-.3-.98-.23-.24-.48-.42-.78-.55z"/><path d="M35.08 18.32c-.26-.3-.58-.54-.95-.7-.34-.14-.8-.28-1.35-.42-.43-.1-.77-.2-1-.3a1.6 1.6 0 0 1-.55-.34c-.13-.12-.2-.3-.2-.5a.94.94 0 0 1 .36-.78c.26-.2.63-.3 1.08-.3.36 0 .68.05.94.16a3.5 3.5 0 0 1 .87.53c.2.12.36.18.5.18.12 0 .3-.04.46-.24a.75.75 0 0 0 .16-.48c0-.25-.1-.47-.3-.62-.3-.26-.62-.48-1-.63-.3-.13-.62-.2-.94-.26v-.57c0-.2-.07-.4-.2-.52a.76.76 0 0 0-1.03 0c-.13.14-.2.3-.2.52v.57c-.67.1-1.22.38-1.65.8-.48.46-.73 1.04-.73 1.7 0 .55.14 1 .43 1.34.27.33.6.57 1 .73.36.15.83.3 1.4.43l.97.28c.2.08.38.18.52.3.1.1.17.24.17.42 0 .33-.12.58-.35.76-.26.2-.64.3-1.14.3-.68 0-1.36-.23-2.04-.7-.2-.12-.36-.18-.5-.18-.12 0-.3.04-.45.23-.1.14-.15.3-.15.48 0 .27.1.5.3.63.3.27.7.5 1.13.64.36.13.74.22 1.13.26v.55c0 .2.07.4.2.52.13.14.3.2.5.2.2 0 .38-.07.5-.2.13-.13.2-.3.2-.52v-.6c.65-.12 1.18-.37 1.6-.77.47-.45.7-1 .7-1.66.02-.5-.12-.95-.4-1.27zm-.62 2.6c-.38.36-.9.6-1.53.67l-.2.03v1c0 .1-.03.16-.06.2s-.07.06-.17.06-.14-.03-.17-.06-.06-.08-.06-.2v-1l-.22-.02c-.43-.04-.84-.12-1.23-.26a3 3 0 0 1-.99-.56.28.28 0 0 1-.11-.25c0-.08.02-.14.06-.2s.06-.05.07-.05c.03 0 .1.01.25.1.75.5 1.52.77 2.3.77.6 0 1.08-.13 1.42-.38.36-.27.55-.65.55-1.14 0-.3-.1-.57-.3-.77-.18-.17-.4-.3-.7-.4a11.74 11.74 0 0 0-1.02-.3l-1.33-.4a2.12 2.12 0 0 1-.81-.59c-.2-.25-.32-.6-.32-1.03a1.79 1.79 0 0 1 .58-1.36c.4-.38.93-.6 1.58-.7l.2-.02v-1c0-.1.04-.16.06-.2s.07-.06.17-.06.14.03.17.06.06.08.06.2v1l.22.02a3.26 3.26 0 0 1 1.02.26c.32.13.6.32.86.55.1.07.13.15.13.26a.33.33 0 0 1-.06.19c-.04.05-.06.05-.08.05-.03 0-.1-.01-.23-.1-.34-.26-.66-.45-.97-.58-.32-.13-.7-.2-1.12-.2-.57 0-1.03.14-1.38.4-.36.28-.55.67-.55 1.16 0 .34.1.62.33.84.2.2.44.35.72.45.26.1.6.2 1.06.3.53.13.96.26 1.28.4.3.12.55.3.77.56.2.23.3.56.3.98a1.72 1.72 0 0 1-.55 1.3z"/></g><path d="M26.5 26.25c-2.33-1.75-3.83-4.4-4.1-7.3-.55-5.7 3.63-10.8 9.33-11.35s10.8 3.63 11.34 9.33c.16 1.65-.08 3.33-.7 4.86m-15.5 9.54c4.06-4.67 10.97-6.47 18.96-4.94m-29.55 7.9c.3-.1-2.9.96-5.68.5-1.2-.2-4.94-1.57-5.3-2.73-.36-1.17-.74-2.63.6-3.64.9-.7 2.4-.66 3.27 0 1.4 1.07 1.35 2.76.8 3.54-.75 1.07-2.3 1.45-4.18 1.45-2.33 0-4.17-.92-4.17-.92" fill="none" stroke="#0071ce" stroke-width="2.5" stroke-linecap="round" stroke-linejoin="round" stroke-miterlimit="10"/></svg>