<svg xmlns="http://www.w3.org/2000/svg" viewBox="0 0 80 80" fill="none" stroke="#0071ce" stroke-width="2.5" stroke-miterlimit="10" xmlns:v="https://vecta.io/nano"><path d="M38.6 39.8v15.4l-5.2-1c-8-2.3-14.8-9.7-14.7-20.2v-7c0-3.1-1.1-4.6-4-5.6-.1 0-.3-.1-.4-.1V6c1.1.1 2.1.2 3.1.4 9.5 1.7 16.6 10 16.7 19.7v7.7c0 3.5 1.1 5 4.5 6zM49.4 55V39.8c.2 0 .3-.1.5-.1 2.6-.8 4-2.6 4-5.3V14.6h15.2c0 .3.1.5.1.8v19.8C69 45.3 60.9 54 50.8 54.9c-.4.1-.9.1-1.4.1zM14.2 13.6v8.6c0 2.3-.9 3.2-3.2 3.2H6.4c-1.6 0-2.7-1-2.7-2.6V4.4c0-1.6 1.1-2.6 2.7-2.7h5c1.9 0 2.8 1 2.8 2.9v9zm46.9.9h-8.8c-2.1 0-3-.9-3-3V6.8c0-1.7.9-2.8 2.6-2.8h18.2c1.7 0 2.7 1 2.8 2.7v5s-1.1 2.7-2.9 2.7l-8.9.1zm-11.8 33v8.8c0 2-.9 2.9-2.9 2.9h-4.9c-1.6 0-2.6-1-2.6-2.6V38.3c0-1.5.8-2.5 2.3-2.6 1.9-.1 3.9-.1 5.8 0 1.5.1 2.3 1.1 2.3 2.7v9.1zM44.1 62c1.9 3.3 3.9 6.4 4.9 9.9.6 2.1 0 3.9-1.7 5.3-1.6 1.3-3.5 1.6-5.4.7-2-.9-3-2.5-3-4.8 0-.5.1-1 .3-1.4 1.1-3.5 3-6.5 4.9-9.7z"/></svg>