<svg xmlns="http://www.w3.org/2000/svg" viewBox="0 0 80 80" xmlns:v="https://vecta.io/nano"><path d="M46.4 51.8l-10.1 9.9c-1.4 1.4-3.7 1.4-5 0L19.6 49.8c-1.4-1.4-1.4-3.7 0-5l10.1-9.9m3-3.1l16.7 17M36.3 28.4L53 45.3M39.9 24.7L61.8 3.1m-5.2 38.6l21.9-21.6M48.3 33.2l21.9-21.6" fill="none" stroke="#0070d0" stroke-width="2.5" stroke-linecap="round" stroke-linejoin="round" stroke-miterlimit="10"/><path d="M24.6 65.9c-1.4 1-3.7 1.6-6.8 1.6h-8l1.1-1.6H8.5L.8 76.1c-.2.3-.3.6-.2.7.1.2.4.3.9.3a3.08 3.08 0 0 0 1.3-.3c.4-.2.7-.4.9-.7l5.2-7.3h8.3c2.9 0 5.4-.4 7.4-1.2 1.1-.4 1.9-1 2.5-1.6h-2.5zm-11.7-2.8l1.1-1.6h7c3 0 4.7.5 5 1.6h2.3c-.1-.7-.5-1.2-1.3-1.6-1.1-.6-2.9-.9-5.4-.9h-8c-.3 0-.6.1-.9.2s-.5.2-.6.4l-1.5 2h2.3zm62.5 1.2c-.8-1.2-2.2-2.2-4-2.8s-3.9-.9-6.4-.9h-8c-.3 0-.6.1-.8.2s-.3.2-.2.4l4.1 14.9c.1.3.3.6.6.7.3.2.7.3 1.1.3s.8-.1 1-.3.3-.4.2-.7l-2.4-7.3H69c2.9 0 5-.4 6.1-1.2 1.1-.9 1.2-2 .3-3.3zm-7.2 3.2h-8l-2-6h7c4 0 6.6.9 7.8 2.8 1.4 2.1-.2 3.2-4.8 3.2zm-19-5.9c-1.5-.6-3.4-.9-5.9-.9h-1l-.9.9h1.8c4 0 6.1.9 6.3 2.8.2 2.1-1.9 3.2-6.5 3.2h-8l.3-1.6H33l-2.4 10.2c-.1.3 0 .6.2.7.2.2.6.3 1 .3s.8-.1 1.1-.3.5-.4.5-.7l1.4-7.3h8.3c2.9 0 5.2-.4 6.8-1.2 1.5-.8 2.1-1.9 1.9-3.2-.2-1.4-1.1-2.3-2.6-2.9z" stroke-linejoin="round" stroke-miterlimit="10" fill="#0071ce" stroke="#0071ce" stroke-width=".75"/></svg>