<svg xmlns="http://www.w3.org/2000/svg" viewBox="0 0 80 80" stroke="#0070d0" stroke-miterlimit="10" xmlns:v="https://vecta.io/nano"><path d="M1.2 49.1s11.7-11.5 14.1-12.3c2.1-.7 3.9-1.2 6.7-.9 3.3.4 4.3 1.1 10 1.3l.9.1h14c2.9 0 5.3 1.6 5.3 4.6h0c0 2.9-2.4 4.6-5.3 4.6H33m-22.5 17s5.5-5.8 8.4-5.6 27.4 0 27.4 0c1.2.7 14-7.3 14-7.3L76 41.5c2.6-1.4 3.6-4.6 2.2-7.2h0c-1.4-2.6-4.6-3.6-7.2-2.2l-14.6 7.8" fill="none" stroke-width="2.5" stroke-linecap="round" stroke-linejoin="round"/><path d="M23 33.2c-.3-.3-.4-.7-.4-1.1V17.9c0-.5.1-.8.4-1.1s.6-.4 1.1-.4H30c1.8 0 3.2.5 4.2 1.4s1.5 2.2 1.5 3.8-.5 2.9-1.5 3.8-2.4 1.4-4.2 1.4h-4.3V32c0 .5-.1.9-.4 1.1-.3.3-.7.4-1.1.4-.5.1-.9-.1-1.2-.3zm6.6-8.7c2.1 0 3.2-.9 3.2-2.8s-1.1-2.8-3.2-2.8h-3.9v5.6c0 0 3.9 0 3.9 0zm9.3 8.7c-.3-.3-.4-.7-.4-1.1V17.9c0-.5.1-.8.4-1.1s.6-.4 1.1-.4h5.9c1.8 0 3.2.5 4.2 1.4s1.5 2.2 1.5 3.8-.5 2.9-1.5 3.8-2.4 1.4-4.2 1.4h-4.3V32c0 .5-.1.9-.4 1.1-.3.3-.7.4-1.1.4-.5.1-.9-.1-1.2-.3zm6.6-8.7c2.1 0 3.2-.9 3.2-2.8s-1.1-2.8-3.2-2.8h-3.9v5.6h3.9zm9.3 8.7c-.3-.3-.4-.7-.4-1.1V17.9c0-.5.1-.8.4-1.1s.6-.4 1.1-.4h5.9c1.8 0 3.2.5 4.2 1.4s1.5 2.2 1.5 3.8-.5 3-1.5 3.9-2.4 1.4-4.2 1.4h-4.3V32c0 .5-.1.9-.4 1.1-.3.3-.7.4-1.1.4-.5.1-.9-.1-1.2-.3zm6.6-8.7c2.1 0 3.2-.9 3.2-2.8s-1.1-2.8-3.2-2.8h-3.9v5.6h3.9z" fill="#0070d0" stroke-width=".5"/></svg>