<?xml version="1.0" encoding="utf-8"?>
<!-- Generator: Adobe Illustrator 24.3.0, SVG Export Plug-In . SVG Version: 6.00 Build 0)  -->
<svg version="1.1" id="Layer_1" xmlns="http://www.w3.org/2000/svg" xmlns:xlink="http://www.w3.org/1999/xlink" x="0px" y="0px"
	 viewBox="0 0 80 80" style="enable-background:new 0 0 80 80;" xml:space="preserve">
<style type="text/css">
	.st0{fill:none;stroke:#2B71B8;stroke-width:2.5;stroke-linecap:round;stroke-linejoin:round;stroke-miterlimit:10;}
	.st1{fill:#2B71B8;}
</style>
<g>
	<path class="st0" d="M67.7,73.1H13.6c-0.7,0-1.3-0.6-1.3-1.3V8.2c0-0.7,0.6-1.3,1.3-1.3h63.5c0.7,0,1.3,0.6,1.3,1.3v54.1
		C78.4,68.2,73.6,73.1,67.7,73.1z"/>
	<path class="st0" d="M16.8,73.1H2.9c-0.7,0-1.3-0.6-1.3-1.3V22.3c0-1.9,1.6-3.5,3.5-3.5h7.2"/>
	<g>
		<path class="st1" d="M21.1,30.2c-0.2-0.2-0.3-0.5-0.3-0.9v-9.1c0-0.4,0.1-0.7,0.3-0.9c0.2-0.2,0.5-0.3,0.9-0.3H26
			c1.2,0,2.2,0.3,2.9,0.9c0.7,0.6,1,1.5,1,2.6s-0.3,2-1,2.6c-0.7,0.6-1.7,0.9-2.9,0.9h-2.7v3.1c0,0.4-0.1,0.7-0.3,0.9
			c-0.2,0.2-0.5,0.3-0.9,0.3C21.6,30.6,21.3,30.5,21.1,30.2z M25.6,24.3c1.3,0,1.9-0.5,1.9-1.6c0-1.1-0.6-1.7-1.9-1.7h-2.4v3.3H25.6
			z"/>
		<path class="st1" d="M41.1,29.6c0,0.3-0.1,0.6-0.4,0.7s-0.5,0.3-0.9,0.3c-0.2,0-0.4,0-0.6-0.1c-0.2-0.1-0.4-0.2-0.5-0.5l-2.1-3.2
			c-0.2-0.3-0.4-0.5-0.6-0.6c-0.2-0.1-0.5-0.2-0.8-0.2H34v3.3c0,0.4-0.1,0.7-0.3,0.9c-0.2,0.2-0.5,0.3-0.9,0.3
			c-0.4,0-0.7-0.1-0.9-0.3c-0.2-0.2-0.3-0.5-0.3-0.9v-9.1c0-0.4,0.1-0.7,0.3-0.9c0.2-0.2,0.5-0.3,0.9-0.3h4.1c1.3,0,2.4,0.3,3,0.9
			s1,1.4,1,2.6c0,0.9-0.2,1.6-0.7,2.2c-0.5,0.6-1.2,1-2.1,1.2c0.3,0.1,0.6,0.2,0.9,0.4c0.3,0.2,0.5,0.5,0.7,0.8l1.2,1.8
			C41.1,29.1,41.1,29.4,41.1,29.6z M38,23.8c0.3-0.3,0.5-0.7,0.5-1.2c0-0.6-0.2-1-0.5-1.2S37.1,21,36.4,21H34v3.1h2.4
			C37.1,24.1,37.7,24,38,23.8z"/>
		<path class="st1" d="M43.2,30.2c-0.2-0.2-0.3-0.5-0.3-0.9v-9.1c0-0.4,0.1-0.7,0.3-0.9s0.5-0.3,0.9-0.3h5.7c0.8,0,1.2,0.3,1.2,1
			c0,0.7-0.4,1-1.2,1h-4.5v2.7h4.1c0.8,0,1.2,0.3,1.2,1c0,0.6-0.4,1-1.2,1h-4.1v2.9h4.5c0.8,0,1.2,0.3,1.2,1c0,0.6-0.4,1-1.2,1h-5.7
			C43.7,30.5,43.4,30.4,43.2,30.2z"/>
		<path class="st1" d="M54.1,30.3c-0.7-0.2-1.3-0.5-1.8-0.9c-0.2-0.1-0.3-0.2-0.3-0.4c-0.1-0.1-0.1-0.3-0.1-0.5
			c0-0.3,0.1-0.5,0.3-0.7c0.2-0.2,0.4-0.3,0.6-0.3c0.1,0,0.2,0,0.3,0.1c0.1,0,0.3,0.1,0.4,0.2c0.5,0.3,0.9,0.5,1.4,0.6
			c0.5,0.1,1,0.2,1.6,0.2c0.7,0,1.3-0.1,1.6-0.4s0.6-0.6,0.6-1c0-0.3-0.2-0.6-0.5-0.8c-0.4-0.2-1-0.4-1.9-0.6
			c-1-0.2-1.8-0.5-2.4-0.7s-1-0.7-1.3-1.1c-0.3-0.4-0.4-1-0.4-1.6c0-0.7,0.2-1.3,0.6-1.8c0.4-0.5,0.9-1,1.6-1.3
			c0.7-0.3,1.5-0.5,2.4-0.5c1.5,0,2.8,0.4,3.8,1.2c0.2,0.1,0.3,0.3,0.3,0.4c0.1,0.1,0.1,0.3,0.1,0.5c0,0.3-0.1,0.5-0.3,0.7
			c-0.2,0.2-0.4,0.3-0.6,0.3c-0.1,0-0.2,0-0.3,0c-0.1,0-0.2-0.1-0.4-0.2c-0.4-0.3-0.9-0.5-1.2-0.6c-0.4-0.1-0.8-0.2-1.4-0.2
			c-0.7,0-1.2,0.1-1.6,0.4c-0.4,0.3-0.6,0.6-0.6,1c0,0.3,0.1,0.5,0.2,0.6c0.1,0.2,0.4,0.3,0.7,0.4c0.3,0.1,0.8,0.3,1.5,0.4
			c1.5,0.3,2.5,0.7,3.2,1.2c0.6,0.5,1,1.2,1,2.1c0,0.7-0.2,1.3-0.6,1.8c-0.4,0.5-0.9,0.9-1.6,1.2c-0.7,0.3-1.5,0.4-2.4,0.4
			C55.6,30.6,54.8,30.5,54.1,30.3z"/>
		<path class="st1" d="M64.6,30.3c-0.7-0.2-1.3-0.5-1.8-0.9c-0.2-0.1-0.3-0.2-0.3-0.4c-0.1-0.1-0.1-0.3-0.1-0.5
			c0-0.3,0.1-0.5,0.3-0.7c0.2-0.2,0.4-0.3,0.6-0.3c0.1,0,0.2,0,0.3,0.1c0.1,0,0.3,0.1,0.4,0.2c0.5,0.3,0.9,0.5,1.4,0.6
			c0.5,0.1,1,0.2,1.6,0.2c0.7,0,1.3-0.1,1.6-0.4s0.6-0.6,0.6-1c0-0.3-0.2-0.6-0.5-0.8c-0.4-0.2-1-0.4-1.9-0.6
			c-1-0.2-1.8-0.5-2.4-0.7s-1-0.7-1.3-1.1c-0.3-0.4-0.4-1-0.4-1.6c0-0.7,0.2-1.3,0.6-1.8c0.4-0.5,0.9-1,1.6-1.3
			c0.7-0.3,1.5-0.5,2.4-0.5c1.5,0,2.8,0.4,3.8,1.2c0.2,0.1,0.3,0.3,0.3,0.4c0.1,0.1,0.1,0.3,0.1,0.5c0,0.3-0.1,0.5-0.3,0.7
			C71,21.9,70.8,22,70.6,22c-0.1,0-0.2,0-0.3,0c-0.1,0-0.2-0.1-0.4-0.2c-0.4-0.3-0.9-0.5-1.2-0.6c-0.4-0.1-0.8-0.2-1.4-0.2
			c-0.7,0-1.2,0.1-1.6,0.4c-0.4,0.3-0.6,0.6-0.6,1c0,0.3,0.1,0.5,0.2,0.6c0.1,0.2,0.4,0.3,0.7,0.4c0.3,0.1,0.8,0.3,1.5,0.4
			c1.5,0.3,2.5,0.7,3.2,1.2c0.6,0.5,1,1.2,1,2.1c0,0.7-0.2,1.3-0.6,1.8c-0.4,0.5-0.9,0.9-1.6,1.2c-0.7,0.3-1.5,0.4-2.4,0.4
			C66.2,30.6,65.4,30.5,64.6,30.3z"/>
	</g>
	<line class="st0" x1="22" y1="42.2" x2="42.4" y2="42.2"/>
	<line class="st0" x1="22" y1="50.8" x2="42.4" y2="50.8"/>
	<line class="st0" x1="22" y1="59.4" x2="42.4" y2="59.4"/>
	<line class="st0" x1="48.9" y1="42.2" x2="69.3" y2="42.2"/>
	<line class="st0" x1="48.9" y1="50.8" x2="69.3" y2="50.8"/>
	<line class="st0" x1="48.9" y1="59.4" x2="69.3" y2="59.4"/>
</g>
</svg>
