<?xml version="1.0" encoding="utf-8"?>
<!-- Generator: Adobe Illustrator 24.3.0, SVG Export Plug-In . SVG Version: 6.00 Build 0)  -->
<svg version="1.1" id="Layer_1" xmlns="http://www.w3.org/2000/svg" xmlns:xlink="http://www.w3.org/1999/xlink" x="0px" y="0px"
	 viewBox="0 0 80 80" style="enable-background:new 0 0 80 80;" xml:space="preserve">
<style type="text/css">
	.st0{fill:none;stroke:#2B71B9;stroke-width:2.5;stroke-linecap:round;stroke-linejoin:round;stroke-miterlimit:10;}
</style>
<g>
	<path class="st0" d="M39.9,17h-0.2c-11.9,0.1-21.5,9.8-21.5,21.8c0,5.6,2.2,10.9,6.1,14.9c1.9,2,3.2,4.6,3.7,7.4
		c0.5,3.1,3.1,5.4,6.3,5.4h11.4c3.1,0,5.8-2.3,6.3-5.4c0.4-2.8,1.7-5.4,3.7-7.4c8.3-8.6,8.1-22.3-0.5-30.6C51,19.2,45.6,17,39.9,17z
		 M43.7,38.1c0-2-1.6-3.7-3.7-3.7c-2,0-3.7,1.6-3.7,3.7c0,2,1.6,3.7,3.7,3.7C42,41.7,43.7,40.1,43.7,38.1z M50.2,40.8L48.2,39
		c0-0.4,0.1-0.9,0-1.4c0,0,0-0.1,0-0.1c0,0,0,0,0,0c0-0.1,0-0.2,0-0.4l2.1-1.8c0,0,0.1-0.1,0.1-0.2c0.1-0.1,0.1-0.2,0.2-0.3
		c0,0,0-0.1,0-0.1c0-0.2,0-0.3-0.1-0.5c0,0,0,0,0,0l0,0c0,0,0,0,0-0.1l-1-1.7L48.6,31c0,0,0,0,0,0l0,0c-0.2-0.4-0.7-0.5-1.1-0.4
		l-2.6,0.9c0,0-0.1,0-0.1-0.1c-0.3-0.2-0.7-0.5-1-0.6c-0.1,0-0.1,0-0.2,0c-0.1,0-0.2-0.1-0.3-0.2l-0.5-2.4c0-0.3-0.1-0.6-0.4-0.8
		c-0.1-0.1-0.2-0.1-0.4-0.2c-0.1,0-0.1-0.1-0.1-0.1h0c0,0,0,0,0,0l-1.8,0h-1.8c0,0,0,0,0,0l0,0c-0.4,0-0.8,0.3-0.9,0.7l-0.5,2.7
		c-0.5,0.2-1,0.5-1.6,0.9c0,0,0,0,0,0l-2.6-0.9c-0.4-0.1-0.9,0-1.1,0.4l0,0c0,0,0,0,0,0l-0.8,1.5l-0.9,1.7c0,0,0,0,0,0l0,0
		c-0.2,0.4-0.1,0.9,0.2,1.1l2.1,1.8c-0.1,0.5-0.1,1.1,0,1.8l-2.1,1.8c-0.3,0.3-0.4,0.8-0.2,1.1l0,0c0,0,0,0,0,0l1,1.6l0.8,1.5
		c0,0,0,0,0,0l0,0c0.2,0.4,0.7,0.5,1.1,0.4l2.6-0.9c0.5,0.3,1,0.7,1.6,0.9c0,0,0,0,0,0l0.5,2.7c0.1,0.4,0.5,0.7,0.9,0.7h0
		c0,0,0,0,0,0l1.9,0h1.7c0,0,0,0,0,0l0,0c0.4,0,0.8-0.3,0.9-0.7l0.5-2.7c0.5-0.2,0.9-0.4,1.5-0.8c0,0,0.1-0.1,0.1-0.1l2.6,0.9
		c0.4,0.1,0.9,0,1.1-0.4l0,0c0,0,0,0,0,0l0.7-1.3l1.1-1.8c0,0,0,0,0,0l0,0C50.7,41.5,50.6,41.1,50.2,40.8z"/>
	<line class="st0" x1="31.9" y1="70.3" x2="48.1" y2="70.3"/>
	<line class="st0" x1="33.5" y1="74.4" x2="46.5" y2="74.4"/>
	<line class="st0" x1="37.3" y1="78.5" x2="42.7" y2="78.5"/>
	<line class="st0" x1="40" y1="11.6" x2="40" y2="1.5"/>
	<line class="st0" x1="51.6" y1="14.1" x2="57.4" y2="5.8"/>
	<line class="st0" x1="22.6" y1="5.8" x2="28.4" y2="14.1"/>
	<line class="st0" x1="62.7" y1="21.8" x2="70.7" y2="15.7"/>
	<line class="st0" x1="9.3" y1="15.7" x2="17.3" y2="21.8"/>
</g>
</svg>
