<?xml version="1.0" encoding="utf-8"?>
<!-- Generator: Adobe Illustrator 24.3.0, SVG Export Plug-In . SVG Version: 6.00 Build 0)  -->
<svg version="1.1" id="Layer_1" xmlns="http://www.w3.org/2000/svg" xmlns:xlink="http://www.w3.org/1999/xlink" x="0px" y="0px"
	 viewBox="0 0 1210 500" style="enable-background:new 0 0 1210 500;" xml:space="preserve">
<style type="text/css">
	.st0{enable-background:new    ;}
	.st1{fill:#FFC745;}
	.st2{fill-rule:evenodd;clip-rule:evenodd;fill:#FBB315;}
	.st3{fill:none;stroke:#2C6FB6;stroke-width:9.5;stroke-linecap:round;stroke-linejoin:round;stroke-miterlimit:10;}
</style>
<g class="st0">
	<g>
		<rect class="st1" width="1210" height="500"/>
	</g>
</g>
<polygon class="st2" points="1210,0 371.4,500 1210,500 "/>
<g>
	<g>
		<path class="st3" d="M714.3,237h35.8c9.4,0,17.1,7.7,17.1,17.1v135.1c0,9.4-7.7,17.1-17.1,17.1H459.8c-9.4,0-17.1-7.7-17.1-17.1
			V254.1c0-9.4,7.7-17.1,17.1-17.1h175.6"/>
		<line class="st3" x1="493.4" y1="286" x2="557.3" y2="286"/>
		<line class="st3" x1="493.6" y1="340" x2="716.4" y2="340"/>
		<line class="st3" x1="493.6" y1="369.5" x2="716.4" y2="369.5"/>
	</g>
	<g>
		<g>
			<path class="st3" d="M651.8,303.3l-15.9-8.2c-1.9-1-2.6-3.3-1.7-5.2l93.3-181.1c1-1.9,3.3-2.6,5.2-1.7l15.9,8.2
				c1.9,1,2.6,3.3,1.7,5.2L657,301.7C656,303.5,653.7,304.3,651.8,303.3z"/>
			
				<rect x="736.9" y="95.6" transform="matrix(0.4579 -0.889 0.889 0.4579 310.8765 718.1816)" class="st3" width="14.7" height="17.2"/>
			<path class="st3" d="M752.5,132.1l5.6,2.9c1.1,0.6,1.5,1.9,1,3l-31.5,61.2"/>
			<path class="st3" d="M636.1,314.2L636.1,314.2c-4.1-2.1-5.7-7.1-3.6-11.1l3.5-6.8l14.7,7.6l-3.5,6.8
				C645.2,314.7,640.2,316.3,636.1,314.2z"/>
			<line class="st3" x1="632.9" y1="320.5" x2="635.6" y2="315.3"/>
		</g>
	</g>
</g>
</svg>
