<svg xmlns="http://www.w3.org/2000/svg" viewBox="0 0 80 80" xmlns:v="https://vecta.io/nano"><circle cx="40" cy="40" r="38.5" fill="none" stroke="#6caae2" stroke-width="2.5" stroke-linejoin="round"/><path d="M36.4 42.9c0-.5.2-1.1.4-1.5a6.42 6.42 0 0 1 1-1.3c.4-.4.9-.8 1.4-1.2l1.5-1.2c.5-.4 1-.8 1.4-1.3.4-.4.7-.9 1-1.5s.4-1.2.4-1.8c0-.8-.1-1.5-.4-2-.3-.6-.7-1-1.1-1.2-.5-.3-1-.5-1.6-.6-.5-.1-1.2-.2-1.8-.2-.4 0-1.2.1-2.4.3l-2.3.3c-.4 0-.8-.2-1-.5-.3-.3-.4-.7-.4-1.1a1.69 1.69 0 0 1 .3-1c.2-.3.5-.5 1-.6 2-.5 3.9-.8 5.7-.8 1.1 0 2.2.1 3.1.4s1.8.7 2.6 1.2 1.3 1.3 1.8 2.2c.4.9.6 2 .6 3.2 0 .8-.1 1.6-.4 2.3s-.7 1.3-1.1 1.9l-1.5 1.5-1.7 1.3c-.6.4-1.1.8-1.5 1.2l-1.1 1.2c-.3.4-.4.8-.4 1.3v2c0 .5-.2.8-.5 1.1s-.7.4-1.2.4-.9-.1-1.2-.4-.5-.7-.5-1.1l-.1-2.5zm.1 10.8c-.4-.4-.6-.9-.6-1.5s.2-1 .6-1.5c.4-.4 1-.6 1.7-.6a2.52 2.52 0 0 1 1.7.6c.4.4.6.9.6 1.5s-.2 1.1-.6 1.5-1 .6-1.7.6c-.7.1-1.2-.1-1.7-.6z" fill="#6caae2"/></svg>