<svg xmlns="http://www.w3.org/2000/svg" viewBox="0 0 80 80" xmlns:v="https://vecta.io/nano"><path d="M39.6 54.8c0 .7-.4 1.1-1.3 1.1h-6.1c-.9 0-1.3-.4-1.3-1.1s.4-1.1 1.3-1.1h1.7v-7.3l-1.6.9c-.2.1-.4.2-.5.2-.3 0-.5-.1-.8-.4-.2-.2-.3-.5-.3-.8 0-.4.2-.7.6-.9l2.8-1.7c.4-.2.8-.4 1.2-.4s.7.1 1 .4a1.53 1.53 0 0 1 .4 1v9.1h1.7c.8-.1 1.2.2 1.2 1zm8.6-6.5a3.16 3.16 0 0 1 1.4 1.4 4.65 4.65 0 0 1 .5 2.1c0 .8-.2 1.6-.6 2.2a4.63 4.63 0 0 1-1.6 1.5c-.7.4-1.6.5-2.5.5a8.33 8.33 0 0 1-2.2-.3c-.7-.2-1.3-.5-1.8-.9-.2-.1-.3-.3-.4-.4s-.1-.3-.1-.5c0-.3.1-.6.3-.8s.4-.3.6-.3c.1 0 .3 0 .4.1.1 0 .3.1.5.2l1.3.7c.4.2.8.2 1.3.2.7 0 1.3-.2 1.6-.5a2.09 2.09 0 0 0 .6-1.5c0-.6-.2-1.1-.6-1.5s-.9-.5-1.6-.5c-.4 0-.8.1-1.1.2s-.7.3-1.1.5c-.2.1-.5.2-.7.2-.3 0-.5-.1-.7-.3s-.3-.4-.3-.7v-5.2a1.69 1.69 0 0 1 .3-1c.2-.3.5-.3 1-.3h5.7c.9 0 1.3.4 1.3 1.1s-.4 1.1-1.3 1.1h-4.3v2.8c.6-.3 1.2-.5 2-.5s1.5 0 2.1.4z" enable-background="new" fill="#0071ce"/><g fill="none" stroke="#0071ce" stroke-width="2.5" stroke-miterlimit="10"><path d="M64.7,9.4h5.2c4.8,0,8.7,3.9,8.7,8.7v50.4c0,4.8-3.9,8.7-8.7,8.7H10.2c-4.8,0-8.6-3.9-8.6-8.7V18 c0-4.8,3.9-8.6,8.6-8.6h3.4"/><path d="M20.8 9.4h37M1.5 22.8h77"/><path d="M17.4 15.4h0A3.37 3.37 0 0 1 14 12V6.8c0-1.9 1.6-3.5 3.4-3.5h0c1.9 0 3.5 1.5 3.5 3.5V12c-.1 1.9-1.6 3.4-3.5 3.4zm43.8 0h0c-1.9 0-3.5-1.6-3.5-3.4V6.8c0-1.9 1.5-3.5 3.5-3.5h0c1.9 0 3.4 1.5 3.4 3.5V12c.1 1.9-1.5 3.4-3.4 3.4z"/><g stroke-linecap="round"><path d="M56.2 59.4c-3.3 5.3-9.1 8.9-15.9 8.9-10.3 0-18.6-8.3-18.6-18.6S30 31.1 40.3 31.1c8.3 0 15.3 5.4 17.7 12.9"/><path d="M60.6,39.9l-2,4.7L53.2,43" stroke-linejoin="round"/></g></g></svg>