<svg xmlns="http://www.w3.org/2000/svg" viewBox="0 0 80 80" xmlns:v="https://vecta.io/nano"><path d="M3.2 40c0-20.6 16.7-37.2 37.2-37.2 15.8 0 29.3 9.8 34.7 23.7M77.6 40c0 20.6-16.7 37.2-37.2 37.2-15.8 0-29.3-9.8-34.7-23.7m72.8-33.8L76 27l-8.8-1.8M1.5 59.4l2.6-7.3 8.7 1.8" fill="none" stroke="#0071ce" stroke-width="2.5" stroke-linecap="round" stroke-linejoin="round" stroke-miterlimit="10"/><path d="M45.3 46.8c-.9.9-2.1 1.5-3.6 1.7v1.4c0 .4-.1.8-.4 1-.3.3-.6.4-1 .4s-.8-.1-1-.4-.4-.6-.4-1v-1.3c-.9-.1-1.7-.3-2.5-.5s-1.5-.7-2.2-1.1c-.3-.2-.4-.3-.5-.5s-.2-.5-.2-.8c0-.4.1-.8.4-1s.5-.5.8-.5.7.1 1.1.4c.7.4 1.4.8 2.1 1s1.3.3 2.1.3c1 0 1.7-.2 2.2-.5.5-.4.8-.9.8-1.5 0-.4-.2-.7-.4-1-.3-.3-.7-.5-1.1-.6l-1.9-.5c-1.2-.3-2.2-.6-2.9-.9s-1.4-.8-2-1.4c-.5-.7-.8-1.5-.8-2.6 0-1.3.5-2.4 1.4-3.3s2.1-1.5 3.6-1.8v-1.4c0-.4.1-.8.4-1 .3-.3.6-.4 1-.4s.8.1 1 .4c.3.3.4.6.4 1v1.3c1.4.2 2.8.7 4 1.6.2.2.4.3.5.5s.2.5.2.7c0 .4-.1.8-.4 1s-.5.5-.8.5c-.2 0-.3 0-.5-.1l-.6-.3c-.7-.4-1.2-.7-1.8-.9-.5-.2-1.2-.3-1.9-.3-.9 0-1.5.2-2.1.6s-.8.9-.8 1.5c0 .5.2.8.5 1.1s.7.5 1.2.7 1.1.3 1.9.5c1.2.3 2.1.6 2.9.9.7.3 1.4.8 1.9 1.4.5.7.8 1.5.8 2.6-.1 1.1-.5 2.2-1.4 3.1z" fill="#0071ce"/></svg>