<?xml version="1.0" encoding="utf-8"?>
<!-- Generator: Adobe Illustrator 24.3.0, SVG Export Plug-In . SVG Version: 6.00 Build 0)  -->
<svg version="1.1" id="Layer_1" xmlns="http://www.w3.org/2000/svg" xmlns:xlink="http://www.w3.org/1999/xlink" x="0px" y="0px"
	 viewBox="0 0 80 80" style="enable-background:new 0 0 80 80;" xml:space="preserve">
<style type="text/css">
	.st0{fill:none;stroke:#0072CE;stroke-width:2.5;stroke-linecap:round;stroke-linejoin:round;stroke-miterlimit:10;}
</style>
<g>
	<g>
		<line class="st0" x1="13.6" y1="31.2" x2="24.9" y2="19.9"/>
		<line class="st0" x1="31.7" y1="19.1" x2="46.1" y2="27.7"/>
		<line class="st0" x1="52.7" y1="26.7" x2="66.6" y2="11.4"/>
		<ellipse class="st0" cx="28" cy="16.9" rx="4.4" ry="4.4"/>
		<ellipse class="st0" cx="49.8" cy="29.9" rx="4.4" ry="4.4"/>
		<line class="st0" x1="78.2" y1="8.2" x2="73.8" y2="8.2"/>
		<ellipse class="st0" cx="69.5" cy="8.2" rx="4.4" ry="4.4"/>
		<line class="st0" x1="1.8" y1="34.3" x2="6.2" y2="34.3"/>
		<ellipse class="st0" cx="10.5" cy="34.3" rx="4.4" ry="4.4"/>
	</g>
	<line class="st0" x1="1.8" y1="76.2" x2="78.2" y2="76.2"/>
	<polyline class="st0" points="45,75.4 45,51.7 52.6,51.7 52.6,75.4 	"/>
	<polyline class="st0" points="61.4,75.4 61.4,40.4 68.9,40.4 68.9,75.4 	"/>
	<polyline class="st0" points="28.7,75.4 28.7,46.7 36.2,46.7 36.2,75.4 	"/>
	<polyline class="st0" points="12.3,75.4 12.3,59.3 19.9,59.3 19.9,75.4 	"/>
</g>
</svg>
