<?xml version="1.0" encoding="utf-8"?>
<!-- Generator: Adobe Illustrator 24.3.0, SVG Export Plug-In . SVG Version: 6.00 Build 0)  -->
<svg version="1.1" id="Layer_1" xmlns="http://www.w3.org/2000/svg" xmlns:xlink="http://www.w3.org/1999/xlink" x="0px" y="0px"
	 viewBox="0 0 80 80" style="enable-background:new 0 0 80 80;" xml:space="preserve">
<style type="text/css">
	.st0{fill:none;stroke:#1174CA;stroke-width:2.5;stroke-linecap:round;stroke-linejoin:round;stroke-miterlimit:10;}
	.st1{fill:#1474CA;}
</style>
<g>
	<g>
		<path class="st0" d="M78.5,42.1c0,19.2-17.2,34.8-38.4,34.8S1.6,61.4,1.6,42.1"/>
		<path class="st0" d="M64.6,29.4c8.9,2.9,13.9,7.3,13.9,12.3c0,8.7-17.2,15.7-38.5,15.7c-21.3,0-38.5-7-38.5-15.7
			c0-4.4,4-8.5,11.2-11.3"/>
		<path class="st0" d="M4.7,55.8c0,0,6.1,4.6,14.1,6.3"/>
		<path class="st0" d="M74.8,56.7c0,0-11.9,7.5-34.1,7.5"/>
		<path class="st0" d="M67.1,66.8c0,0-8.2,3.1-18.3,3.2"/>
		<path class="st0" d="M25.7,62.9c0,0,0.4,8.6,5.1,12.8"/>
		<path class="st0" d="M34.1,65.3c0,0,1.2,7.9,5.6,11"/>
		<path class="st0" d="M12.5,52.7c-0.6-3.2-0.9-6.6-0.9-10.1c0-22.1,12.1-40,27.1-40s27.1,17.9,27.1,40c0,3.9-0.4,7.6-1.1,11.2"/>
	</g>
	<g>
		<g>
			<path class="st1" d="M43.8,37.6c-0.6,0.6-1.5,1.1-2.6,1.2v1c0,0.3-0.1,0.6-0.3,0.8c-0.2,0.2-0.4,0.3-0.8,0.3
				c-0.3,0-0.6-0.1-0.7-0.3c-0.2-0.2-0.3-0.4-0.3-0.8v-0.9c-0.6-0.1-1.3-0.2-1.9-0.4c-0.6-0.2-1.1-0.5-1.6-0.8
				c-0.2-0.1-0.3-0.2-0.4-0.4c-0.1-0.1-0.1-0.3-0.1-0.5c0-0.3,0.1-0.5,0.3-0.8c0.2-0.2,0.4-0.3,0.6-0.3c0.2,0,0.5,0.1,0.8,0.3
				c0.5,0.3,1,0.5,1.5,0.7c0.5,0.1,1,0.2,1.5,0.2c0.7,0,1.2-0.1,1.6-0.4c0.4-0.3,0.6-0.6,0.6-1.1c0-0.3-0.1-0.5-0.3-0.7
				c-0.2-0.2-0.5-0.3-0.8-0.4c-0.3-0.1-0.8-0.2-1.4-0.4c-0.9-0.2-1.6-0.4-2.1-0.7c-0.6-0.2-1-0.6-1.4-1c-0.4-0.5-0.6-1.1-0.6-1.9
				c0-0.9,0.3-1.7,1-2.4c0.7-0.7,1.5-1.1,2.6-1.3v-1c0-0.3,0.1-0.6,0.3-0.8c0.2-0.2,0.4-0.3,0.7-0.3c0.3,0,0.6,0.1,0.8,0.3
				c0.2,0.2,0.3,0.4,0.3,0.8v1c1,0.1,2,0.5,2.9,1.2c0.2,0.1,0.3,0.2,0.4,0.4c0.1,0.2,0.1,0.3,0.1,0.5c0,0.3-0.1,0.5-0.3,0.8
				c-0.2,0.2-0.4,0.3-0.6,0.3c-0.1,0-0.2,0-0.4-0.1c-0.1,0-0.3-0.1-0.5-0.2c-0.5-0.3-0.9-0.5-1.3-0.7c-0.4-0.2-0.8-0.2-1.4-0.2
				c-0.6,0-1.1,0.1-1.5,0.4c-0.4,0.3-0.6,0.6-0.6,1.1c0,0.3,0.1,0.6,0.3,0.8s0.5,0.4,0.8,0.5c0.3,0.1,0.8,0.2,1.4,0.4
				c0.8,0.2,1.5,0.4,2.1,0.6c0.5,0.2,1,0.6,1.4,1c0.4,0.5,0.6,1.1,0.6,1.9C44.8,36.1,44.5,36.9,43.8,37.6z"/>
		</g>
	</g>
</g>
</svg>
