<svg xmlns="http://www.w3.org/2000/svg" viewBox="0 0 80 80"  xmlns:v="https://vecta.io/nano"><g fill="none" stroke="#0070d0" stroke-width="2.5" stroke-linecap="round" stroke-miterlimit="10"><path d="M53.3 9.3v5.5c0 2 1.6 3.7 3.7 3.7h11.9c.5 0 .9.4.9.9v6M21.4 47h39.2M21.4 57.9h39.2m-39.2 9.6h39.2"/><path d="M69.8 23.4v51.9c0 2-1.6 3.7-3.7 3.7H14.8c-2 0-3.7-1.6-3.7-3.7V5.7c0-2 1.6-3.7 3.7-3.7h37.7c.5 0 1 .2 1.4.6L64.3 13"/><path d="M21.4 36.7h39.2"/></g><path d="M25.4 15.3c.1.1.1.2.1.4v1.5c0 .3 0 .5-.1.6 0 .1-.1.3-.2.3-.1.1-.2.2-.4.2-.2.1-.4.1-.7.1h-.7c-.6 0-1.1-.1-1.5-.4a2.41 2.41 0 0 1-1-1c-.2-.5-.3-1-.3-1.6s.1-1.1.3-1.6.6-.8 1-1 .9-.4 1.5-.4c.4 0 .7 0 1 .1s.5.2.8.4l.2.2c0 .1.1.2.1.3 0 .2 0 .3-.1.4s-.2.2-.3.2h-.2c-.1 0-.1-.1-.2-.1-.2-.1-.4-.2-.5-.2-.2-.1-.3-.1-.5-.1-.5 0-.8.1-1.1.4-.2.3-.4.8-.4 1.4s.1 1.1.4 1.4c.2.3.6.5 1.1.5.2 0 .5 0 .7-.1v-1.1h-.6c-.2 0-.3 0-.4-.1s-.1-.2-.1-.4 0-.3.1-.4.2-.1.4-.1H25c.1.1.3.1.4.2zm2.6 2.9c-.4-.2-.7-.6-.9-1.1s-.3-1-.3-1.6.1-1.1.3-1.6.5-.8.9-1 .9-.4 1.4-.4c.6 0 1 .1 1.4.4.4.2.7.6.9 1 .2.5.3 1 .3 1.6s-.1 1.1-.3 1.6-.5.8-.9 1.1c-.4.2-.9.4-1.4.4s-1-.2-1.4-.4zm2.4-1.3c.2-.3.3-.8.3-1.4s-.1-1.1-.3-1.4-.5-.5-1-.5c-.4 0-.7.2-1 .5-.2.3-.3.8-.3 1.4s.1 1.1.3 1.4.5.5 1 .5c.4 0 .8-.2 1-.5zm8.1 1c0 .2-.1.3-.2.5-.1.1-.3.2-.5.2-.1 0-.2 0-.3-.1s-.2-.2-.2-.3l-.3-.8h-2.5l-.4.8c-.1.1-.1.2-.2.3s-.2.1-.3.1c-.2 0-.3-.1-.5-.2-.1-.1-.2-.3-.2-.5 0-.1 0-.2.1-.3l2-4.5c.1-.2.2-.3.3-.3.1-.1.3-.1.4-.1.2 0 .3 0 .4.1l.3.3 2 4.5s.1.2.1.3zm-3.6-1.8h1.5l-.8-1.9-.7 1.9zm4.8 2.2c-.1-.1-.2-.3-.2-.5v-4.5c0-.2.1-.4.2-.5s.3-.2.5-.2.4.1.5.2.2.3.2.5v3.9h1.8c.4 0 .7.2.7.6 0 .2-.1.4-.2.5s-.3.2-.5.2h-2.5c-.3 0-.4-.1-.5-.2zm5.4.1c-.3-.1-.6-.2-.9-.4l-.2-.2c-.1-.1 0-.2 0-.3 0-.2 0-.3.1-.4s.2-.2.3-.2h.2c.1 0 .1.1.2.1l.6.3c.2.1.4.1.7.1s.5 0 .7-.1.2-.2.2-.4c0-.1-.1-.2-.2-.3s-.4-.2-.8-.3c-.5-.1-.9-.3-1.2-.4-.3-.2-.5-.4-.6-.6s-.2-.5-.2-.8a1.69 1.69 0 0 1 .3-1c.2-.3.5-.5.8-.7s.7-.2 1.1-.2.7 0 1 .1.6.2.8.4c.1.1.2.1.2.2s.1.2.1.3c0 .2 0 .3-.1.4s-.2.2-.3.2h-.2c-.1 0-.1-.1-.2-.1 0 0-.1-.1-.2-.1a.76.76 0 0 1-.4-.2c-.2 0-.3-.1-.5-.1-.3 0-.5.1-.6.2-.2.1-.2.3-.2.4s0 .2.1.3.2.1.3.2c.2.1.4.1.7.2.5.1.9.3 1.2.4.3.2.5.4.6.6s.2.5.2.8a1.69 1.69 0 0 1-.3 1c-.2.3-.5.5-.8.7s-.7.2-1.2.2l-1.3-.3z" stroke="#0070d0" stroke-miterlimit="10" fill="#0070d0" stroke-width=".5"/></svg>