<?xml version="1.0" encoding="utf-8"?>
<!-- Generator: Adobe Illustrator 25.0.1, SVG Export Plug-In . SVG Version: 6.00 Build 0)  -->
<svg version="1.1" id="Layer_1" xmlns:v="https://vecta.io/nano"
	 xmlns="http://www.w3.org/2000/svg" xmlns:xlink="http://www.w3.org/1999/xlink" x="0px" y="0px" viewBox="0 0 80 80"
	 style="enable-background:new 0 0 80 80;" xml:space="preserve">
<style type="text/css">
	.st0{fill:none;stroke:#0070D0;stroke-width:2.5;stroke-linecap:round;stroke-linejoin:round;stroke-miterlimit:10;}
</style>
<circle class="st0" cx="23.5" cy="52.4" r="14"/>
<g>
	<path class="st0" d="M35.3,59.8l6.6,4.1"/>
	<path class="st0" d="M41.1,66.7l2.5-4.9l9.6,5c0,0,1.8,0.6,0.5,3.5c-1.3,2.8-3.3,1.5-3.3,1.5L41.1,66.7z"/>
	<g>
		<path class="st0" d="M6.5,51.4c-2.2,0-4-1.9-4-4.3v-34c0-2.4,1.8-4.3,4-4.3h68c2.2,0,4,1.9,4,4.3v34c0,2.4-1.8,4.3-4,4.3h-34
			 M14.3,21.2h15 M14.4,32.2h52.2 M17.4,45h13"/>
		<path class="st0" d="M44,45h22.6"/>
	</g>
</g>
</svg>
