<svg xmlns="http://www.w3.org/2000/svg" viewBox="0 0 80 80"  xmlns:v="https://vecta.io/nano"><path d="M1.8 52.4s11.5-11.3 13.9-12.2c2-.7 3.9-1.1 6.6-.9 3.3.4 4.2 1.1 9.9 1.3l.9.1h13.8c2.9 0 5.2 1.6 5.2 4.5h0c0 2.9-2.4 4.5-5.2 4.5H33.1M10.9 66.6s5.4-5.7 8.3-5.5 27 0 27 0c1.2.7 13.8-7.2 13.8-7.2l15.5-9c2.5-1.4 3.5-4.5 2.2-7.1h0c-1.4-2.5-4.5-3.5-7.1-2.2l-14.4 7.7" fill="none" stroke="#0070d0" stroke-width="2.5" stroke-linecap="round" stroke-linejoin="round" stroke-miterlimit="10"/><path d="M31.8 15.2c.2.2.3.5.3.8s-.1.6-.3 1l-6.5 11.8c-.3.5-.6.7-1.1.7-.3 0-.6-.1-.9-.3s-.4-.5-.4-.8c0-.2.1-.5.2-.7L29 17h-6.1c-.8 0-1.2-.3-1.2-1s.4-1.1 1.2-1.1H31c.3 0 .6.1.8.3zm3.2 8.7c0-3 .7-5.8 2.2-8.3.2-.3.3-.5.6-.6.2-.1.4-.2.6-.2s.4.1.6.2.2.3.2.6c0 .2 0 .4-.1.5-1 2.5-1.5 5.1-1.5 7.8 0 1.4.1 2.7.4 4 .2 1.3.6 2.5 1.1 3.8.1.1.1.3.1.5s-.1.4-.2.6-.4.2-.6.2-.4-.1-.7-.2-.4-.3-.5-.6c-1.5-2.6-2.2-5.3-2.2-8.3zm13.8-3.8c.7.7 1 1.7 1 3.1v5c0 .4-.1.7-.3.9s-.5.3-.9.3-.6-.1-.9-.3c-.2-.2-.3-.5-.3-.9v-.4c-.2.5-.6.9-1.1 1.2s-1.1.4-1.7.4c-.7 0-1.3-.1-1.8-.4s-1-.6-1.3-1.1-.5-1-.5-1.6c0-.7.2-1.3.6-1.7s1-.7 1.8-.9 2-.3 3.5-.3h.5v-.5c0-.7-.1-1.1-.4-1.5-.3-.3-.7-.5-1.4-.5-.4 0-.8.1-1.2.2s-.9.3-1.4.5c-.4.2-.6.3-.8.3s-.4-.1-.6-.3-.2-.4-.2-.7c0-.2.1-.4.2-.6s.3-.3.6-.5c.5-.3 1.1-.5 1.7-.6l1.9-.2c1.3 0 2.4.4 3 1.1zm-2 6.8c.4-.5.6-1 .6-1.8v-.4H47l-2.1.1c-.5.1-.9.2-1.1.4s-.3.5-.3.8c0 .4.2.8.5 1.1s.7.4 1.1.4c.7.1 1.2-.2 1.7-.6zm6.7 5.9c-.3.1-.5.2-.7.2s-.4-.1-.6-.2-.2-.3-.2-.6c0-.2 0-.4.1-.5.5-1.3.9-2.5 1.1-3.8s.4-2.6.4-4c0-2.7-.5-5.3-1.5-7.8-.1-.2-.1-.4-.1-.5 0-.2.1-.4.2-.6.2-.1.3-.2.6-.2.2 0 .4.1.6.2s.4.3.6.6c1.5 2.5 2.2 5.3 2.2 8.3s-.7 5.8-2.2 8.3c-.1.3-.3.4-.5.6z" fill="#0070d0"/></svg>