<svg xmlns="http://www.w3.org/2000/svg" viewBox="0 0 80 80"  xmlns:v="https://vecta.io/nano"><path d="M1.8 51.9s11.5-11.3 13.9-12.2c2-.7 3.9-1.1 6.6-.9 3.3.4 4.2 1.1 9.9 1.3l.9.1h13.8c2.9 0 5.2 1.6 5.2 4.5h0c0 2.9-2.4 4.5-5.2 4.5H33.1M10.9 66.1s5.4-5.7 8.3-5.5 27 0 27 0c1.2.7 13.8-7.2 13.8-7.2l15.5-9c2.5-1.4 3.5-4.5 2.2-7.1h0c-1.4-2.5-4.5-3.5-7.1-2.2l-14.4 7.7" fill="none" stroke="#0070d0" stroke-width="2.5" stroke-linecap="round" stroke-linejoin="round" stroke-miterlimit="10"/><path d="M14.5 25.5c.1.2.2.4.2.7 0 .4-.2.7-.7 1l-1.5.6c-.6.2-1.1.2-1.6.2-1.5 0-2.8-.4-3.7-1.3s-1.3-2.1-1.3-3.6c0-1 .2-1.8.6-2.6s.9-1.3 1.6-1.8c.7-.4 1.5-.6 2.4-.6s1.6.2 2.2.6 1.1 1 1.5 1.6c.4.7.5 1.5.5 2.4 0 .6-.2.8-.7.8H8.3c.1.9.3 1.6.8 2 .4.4 1.1.6 1.9.6.4 0 .8-.1 1.1-.2s.7-.2 1.1-.4.7-.3.9-.3c.1.1.3.2.4.3zm-5.5-5c-.4.4-.6 1-.7 1.8h4.4c0-.8-.2-1.4-.6-1.8s-.9-.6-1.5-.6c-.7-.1-1.2.1-1.6.6zm16.3 6.4c0 .3-.1.5-.3.8s-.5.3-.8.3-.6-.1-.8-.4l-2.8-3-2.8 3c-.2.3-.4.4-.8.4-.3 0-.5-.1-.8-.3-.2-.2-.3-.5-.3-.8s.1-.6.4-.8l2.9-3.1-2.7-2.9c-.2-.2-.4-.5-.4-.8s.1-.6.3-.8.5-.3.8-.3.6.1.8.4l2.6 2.9 2.6-2.9c.2-.3.5-.4.8-.4s.6.1.8.3.3.5.3.8-.1.6-.4.8L22.1 23l2.9 3.1c.2.2.3.5.3.8zm9.5-8.2c.6.4 1.1 1 1.5 1.8s.5 1.6.5 2.6-.2 1.9-.5 2.6c-.4.7-.9 1.3-1.5 1.7s-1.4.6-2.2.6c-.7 0-1.3-.1-1.8-.4s-.9-.7-1.2-1.2v4c0 .3-.1.6-.3.8s-.5.3-.9.3-.7-.1-.9-.3-.3-.5-.3-.8V19.3c0-.4.1-.6.3-.8s.5-.3.9-.3.7.1.9.3.3.5.3.8v.5c.3-.5.7-.9 1.2-1.2s1.2-.4 1.8-.4c.8-.1 1.5.1 2.2.5zm-1.1 6.7c.4-.5.6-1.3.6-2.2 0-1-.2-1.8-.6-2.3s-1-.8-1.8-.8-1.4.3-1.8.8-.6 1.3-.6 2.3.2 1.7.6 2.3c.4.5 1 .8 1.8.8.8-.1 1.4-.4 1.8-.9zm11.3-7c.2.2.3.4.3.8s-.1.6-.3.8-.5.3-.9.3l-.6.1c-.8.1-1.3.3-1.7.8-.4.4-.5 1-.5 1.7V27c0 .4-.1.7-.4.9-.2 0-.5.1-.9.1s-.6-.1-.9-.3c-.2-.2-.3-.5-.3-.9v-7.6c0-.4.1-.6.3-.8s.5-.3.8-.3.6.1.8.3.3.5.3.8v.8c.2-.6.6-1 1.1-1.3s1-.5 1.6-.5h.3c.5-.1.8 0 1 .2h0zm9.2 7.1c.1.2.2.4.2.7 0 .4-.2.7-.7 1l-1.5.6c-.6.2-1.1.2-1.6.2-1.5 0-2.8-.4-3.7-1.3s-1.3-2.1-1.3-3.6c0-1 .2-1.8.6-2.6s.9-1.3 1.6-1.8c.7-.4 1.5-.6 2.4-.6s1.6.2 2.2.6 1.1 1 1.5 1.6c.4.7.5 1.5.5 2.4 0 .6-.2.8-.7.8H48c.1.9.3 1.6.8 2 .4.4 1.1.6 1.9.6.4 0 .8-.1 1.1-.2s.7-.2 1.1-.4.7-.3.9-.3c.1.1.3.2.4.3zm-5.5-5c-.4.4-.6 1-.7 1.8h4.4c0-.8-.2-1.4-.6-1.8s-.9-.6-1.5-.6c-.7-.1-1.2.1-1.6.6zm7.8 6.7c-.4-.2-.6-.6-.6-1.1 0-.3.1-.5.2-.6.1-.2.3-.2.5-.2s.5.1.9.3.8.3 1.1.4c.4.1.9.2 1.3.2.5 0 1-.1 1.3-.3s.5-.4.5-.8c0-.2-.1-.4-.2-.5s-.3-.3-.7-.4c-.3-.1-.8-.2-1.5-.4-1.2-.2-2-.6-2.5-1s-.8-1-.8-1.8c0-.6.2-1.1.5-1.6s.8-.8 1.4-1.1 1.3-.4 2-.4c.5 0 1.1.1 1.6.2s1 .3 1.4.6.6.6.6 1c0 .3-.1.5-.2.7a.55.55 0 0 1-.5.3c-.1 0-.3 0-.4-.1s-.3-.1-.5-.3c-.4-.2-.7-.3-1-.4s-.6-.1-1-.1c-.5 0-.9.1-1.1.3-.3.2-.4.5-.4.8s.1.6.4.7c.3.2.8.3 1.7.5s1.6.4 2.1.6.8.5 1.1.9c.2.4.3.8.3 1.3 0 .9-.4 1.6-1.1 2.1s-1.7.8-2.9.8c-1.5.3-2.6 0-3.5-.6zm9.5 0c-.4-.2-.6-.6-.6-1.1 0-.3.1-.5.2-.6.1-.2.3-.2.5-.2s.5.1.9.3.8.3 1.1.4c.4.1.9.2 1.3.2.5 0 1-.1 1.3-.3s.5-.4.5-.8c0-.2-.1-.4-.2-.5s-.3-.3-.7-.4c-.3-.1-.8-.2-1.5-.4-1.2-.2-2-.6-2.5-1s-.8-1-.8-1.8c0-.6.2-1.1.5-1.6s.8-.8 1.4-1.1 1.3-.4 2-.4c.5 0 1.1.1 1.6.2s1 .3 1.4.6.6.6.6 1c0 .3-.1.5-.2.7a.55.55 0 0 1-.5.3c-.1 0-.3 0-.4-.1s-.3-.1-.5-.3c-.4-.2-.7-.3-1-.4s-.6-.1-1-.1c-.5 0-.9.1-1.1.3-.3.2-.4.5-.4.8s.1.6.4.7c.3.2.8.3 1.7.5s1.6.4 2.1.6.8.5 1.1.9c.2.4.3.8.3 1.3 0 .9-.4 1.6-1.1 2.1s-1.7.8-2.9.8c-1.5.3-2.7 0-3.5-.6z" fill="#0070d0"/></svg>