<svg xmlns="http://www.w3.org/2000/svg" viewBox="0 0 80 80"  xmlns:v="https://vecta.io/nano"><path d="M1.8 51.3S13.3 40 15.7 39.1c2-.7 3.9-1.1 6.6-.9 3.3.4 4.2 1.1 9.9 1.3l.9.1h13.8c2.9 0 5.2 1.6 5.2 4.5h0c0 2.9-2.4 4.5-5.2 4.5H33.1M10.9 65.5s5.4-5.7 8.3-5.5 27 0 27 0c1.2.7 13.8-7.2 13.8-7.2l15.5-9c2.5-1.4 3.5-4.5 2.2-7.1h0c-1.4-2.5-4.5-3.5-7.1-2.2l-14.4 7.7" fill="none" stroke="#0070d0" stroke-width="2.5" stroke-linecap="round" stroke-linejoin="round" stroke-miterlimit="10"/><path d="M32.5 20.2c.7.4 1.2.9 1.5 1.6s.5 1.4.5 2.3-.2 1.7-.6 2.4-1 1.2-1.7 1.6-1.6.6-2.6.6c-.8 0-1.6-.1-2.4-.4s-1.4-.6-2-1.1c-.3-.3-.4-.6-.4-.9s.1-.5.2-.7c.2-.2.4-.3.6-.3.1 0 .3 0 .4.1.2 0 .3.1.4.2.5.4 1 .6 1.5.8s1 .3 1.6.3c.9 0 1.5-.2 2-.6s.7-1 .7-1.8-.2-1.4-.7-1.8-1.1-.7-1.9-.7c-.5 0-1 .1-1.4.2s-.8.4-1.2.7c-.2.2-.5.3-.8.3s-.5-.1-.7-.2c-.2-.2-.3-.4-.3-.6v-6.1c0-.4.1-.7.3-.9s.5-.3.9-.3H33c.8 0 1.2.3 1.2 1s-.4 1-1.2 1h-5.2v3.7c.7-.5 1.5-.7 2.4-.7.9-.2 1.7-.1 2.3.3zm5 6.6c-.9-1.2-1.3-3-1.3-5.3s.4-4 1.3-5.2 2.1-1.8 3.7-1.8 2.9.6 3.7 1.8 1.3 3 1.3 5.2-.4 4-1.3 5.3c-.9 1.2-2.1 1.8-3.7 1.8s-2.8-.6-3.7-1.8zm5.7-1.4c.4-.8.6-2.1.6-3.9s-.2-3.1-.6-3.9-1-1.2-1.9-1.2-1.5.4-1.9 1.2-.6 2.1-.6 3.9.2 3.1.6 3.9 1 1.2 1.9 1.2c.8.1 1.5-.3 1.9-1.2zm15-1.3c.2.2.3.4.3.7 0 .7-.4 1-1.2 1h-1v1.5c0 .4-.1.7-.3.9s-.5.3-.9.3-.7-.1-.9-.3-.3-.5-.3-.9v-1.5h-5.1c-.4 0-.6-.1-.8-.3s-.3-.5-.3-.8.1-.6.3-.9l6-8.7c.1-.2.3-.3.5-.4s.4-.1.6-.1c.3 0 .6.1.9.3.2.2.4.5.4.9v8h1c.3 0 .6.1.8.3zm-8-.3h3.6v-5.3l-3.6 5.3z" fill="#0070d0"/></svg>