<?xml version="1.0" encoding="utf-8"?>
<!-- Generator: Adobe Illustrator 25.0.1, SVG Export Plug-In . SVG Version: 6.00 Build 0)  -->
<svg version="1.1" id="Layer_1" xmlns:v="https://vecta.io/nano"
	 xmlns="http://www.w3.org/2000/svg" xmlns:xlink="http://www.w3.org/1999/xlink" x="0px" y="0px" viewBox="0 0 80 80"
	 style="enable-background:new 0 0 80 80;" xml:space="preserve">
<style type="text/css">
	.st0{fill:none;stroke:#0070D0;stroke-width:2.5;stroke-linecap:round;stroke-linejoin:round;stroke-miterlimit:10;}
</style>
<path class="st0" d="M13.3,45.9c3.7-3.8,8-7.2,12.8-10.6 M2.4,62.4c1.9-4.7,4.5-9,7.7-12.9 M22.7,46.2c2.2-2.4,4.7-4.8,7.3-7.2
	 M9.7,68.5C12,61,15.6,55,20.2,49.5 M7.9,78.4c0.2-2.1,0.5-4,0.9-5.9 M18,33.7l4.5-2.6 M2,46.6c3.8-4.4,7.2-7.1,12.2-10.3"/>
<path class="st0" d="M49.2,1.6l8.9,18L78,22.5L63.6,36.6L67,56.4L49.2,47l-17.8,9.4l3.4-19.8L20.4,22.5l19.9-2.9L49.2,1.6z"/>
</svg>
