<?xml version="1.0" encoding="utf-8"?>
<!-- Generator: Adobe Illustrator 24.3.0, SVG Export Plug-In . SVG Version: 6.00 Build 0)  -->
<svg version="1.1" id="Layer_1" xmlns="http://www.w3.org/2000/svg" xmlns:xlink="http://www.w3.org/1999/xlink" x="0px" y="0px"
	 viewBox="0 0 80 80" style="enable-background:new 0 0 80 80;" xml:space="preserve">
<style type="text/css">
	.st0{fill:none;stroke:#2E72B8;stroke-width:2.5;stroke-linecap:round;stroke-miterlimit:10;}
	.st1{fill:#2E72B8;stroke:#2E72B8;stroke-width:1.0792;stroke-miterlimit:10;}
	.st2{fill:#2E72B8;}
</style>
<g>
	<path class="st0" d="M1.5,55.3c0,0,11.6-11.4,14-12.2c2-0.7,3.9-1.2,6.6-0.9c3.3,0.4,4.2,1.1,10,1.3l0.9,0.1H47
		c2.9,0,5.3,1.6,5.3,4.5v0c0,2.9-2.4,4.5-5.3,4.5H33 M10.7,69.6c0,0,5.4-5.7,8.3-5.5c2.9,0.2,27.2,0,27.2,0
		c1.2,0.7,13.9-7.2,13.9-7.2l15.6-9.1c2.6-1.4,3.5-4.6,2.2-7.1l0,0c-1.4-2.6-4.6-3.5-7.1-2.2l-14.6,7.8"/>
	<g>
		<path class="st1" d="M63.2,21H23.1c-0.2,0-0.4-0.1-0.5-0.3c-0.1-0.2-0.1-0.4,0-0.6L28.6,10c0.1-0.2,0.3-0.3,0.5-0.3h28
			c0.2,0,0.4,0.1,0.5,0.3l6.1,10.1c0.1,0.2,0.1,0.4,0,0.6C63.6,20.9,63.4,21,63.2,21z M24.2,19.8h38l-5.3-8.9H29.5L24.2,19.8z"/>
		<path class="st1" d="M28.1,26.6c-3.1,0-5.6-2.5-5.6-5.5h1.2c0,2.4,2,4.3,4.4,4.3c2.4,0,4.4-1.9,4.4-4.3h1.2
			C33.7,24.1,31.2,26.6,28.1,26.6z"/>
		<path class="st1" d="M38.1,26.6c-3.1,0-5.6-2.5-5.6-5.5h1.2c0,2.4,2,4.3,4.4,4.3c2.4,0,4.4-1.9,4.4-4.3h1.2
			C43.7,24.1,41.2,26.6,38.1,26.6z"/>
		<path class="st1" d="M48.1,26.6c-3.1,0-5.6-2.5-5.6-5.5h1.2c0,2.4,2,4.3,4.4,4.3s4.4-1.9,4.4-4.3h1.2
			C53.8,24.1,51.2,26.6,48.1,26.6z"/>
		<path class="st1" d="M58.2,26.6c-3.1,0-5.6-2.5-5.6-5.5h1.2c0,2.4,2,4.3,4.4,4.3c2.4,0,4.4-1.9,4.4-4.3h1.2
			C63.8,24.1,61.3,26.6,58.2,26.6z"/>
		<path class="st1" d="M28.1,39.5c-0.3,0-0.6-0.3-0.6-0.6V26.1c0-0.3,0.3-0.6,0.6-0.6s0.6,0.3,0.6,0.6v12.8
			C28.7,39.2,28.4,39.5,28.1,39.5z"/>
		<path class="st1" d="M38.1,39.8c-0.3,0-0.6-0.3-0.6-0.6V26.1c0-0.3,0.3-0.6,0.6-0.6s0.6,0.3,0.6,0.6v13.1
			C38.7,39.5,38.4,39.8,38.1,39.8z"/>
		<path class="st1" d="M58.7,40c-0.3,0-0.6-0.3-0.6-0.6V26.1c0-0.3,0.3-0.6,0.6-0.6s0.6,0.3,0.6,0.6v13.3C59.3,39.7,59,40,58.7,40z"
			/>
		<path class="st2" d="M34.9,33.5c-0.6,0-1.1-0.5-1.1-1.1c0-0.6,0.5-1.1,1.1-1.1c0.6,0,1.1,0.5,1.1,1.1C36,33,35.5,33.5,34.9,33.5z"
			/>
	</g>
	<path class="st2" d="M51.2,35h-5.8c-0.5,0-0.8-0.4-0.8-0.8v-2.5c0-0.5,0.4-0.8,0.8-0.8h5.8c0.5,0,0.8,0.4,0.8,0.8v2.5
		C52,34.6,51.6,35,51.2,35z"/>
</g>
</svg>
