<svg xmlns="http://www.w3.org/2000/svg" viewBox="0 0 80 80" xmlns:v="https://vecta.io/nano"><g fill="none" stroke="#0071ce" stroke-width="2.494" stroke-linejoin="round" stroke-miterlimit="10"><path d="M77.2 30.8H2.6a1.1 1.1 0 0 1-1-.6c-.2-.4-.2-.8 0-1.1l11.3-18.7c.2-.3.6-.5 1-.5H66c.4 0 .8.2 1 .5l11.3 18.7c.2.3.2.8 0 1.1-.3.4-.7.6-1.1.6z"/><g stroke-linecap="round"><path d="M20.3 31.1c0 5-4.2 9.2-9.4 9.2s-9.4-4.1-9.4-9.2m38.2 0c0 5-4.2 9.2-9.4 9.2s-9.4-4.1-9.4-9.2m38.2 0c0 5-4.2 9.2-9.4 9.2s-9.4-4.1-9.4-9.2m38.2 0c0 5-4.2 9.2-9.4 9.2s-9.4-4.1-9.4-9.2m-48.9 9.7v29.4l59.2-.1V40.8"/><path d="M31.7 40.8v29.4"/></g></g><path d="M24.6 49.8c-.9 0-1.7.8-1.7 1.7s.8 1.7 1.7 1.7 1.7-.8 1.7-1.7-.8-1.7-1.7-1.7zm24.8-5.1c-.9 0-1.7.8-1.7 1.7s.8 1.7 1.7 1.7 1.7-.8 1.7-1.7c0-1-.8-1.7-1.7-1.7z" fill="#0071ce"/><g fill="none" stroke="#0071ce" stroke-width="2.494" stroke-linejoin="round" stroke-miterlimit="10"><path d="M55.8 61.7h-13c-1.2 0-2.1-1-2.1-2.1v-4.2c0-1.2 1-2.1 2.1-2.1h13c1.2 0 2.1 1 2.1 2.1v4.2c0 1.1-.9 2.1-2.1 2.1z"/><g stroke-linecap="round"><path d="M48.8 46.5l-6.9 6.8"/><path d="M48.8 46.5l-6.9 6.8m8.1-6.8l6.9 6.8"/></g></g></svg>