<?xml version="1.0" encoding="utf-8"?>
<!-- Generator: Adobe Illustrator 24.3.0, SVG Export Plug-In . SVG Version: 6.00 Build 0)  -->
<svg version="1.1" id="Layer_1" xmlns="http://www.w3.org/2000/svg" xmlns:xlink="http://www.w3.org/1999/xlink" x="0px" y="0px"
	 viewBox="0 0 80 80" style="enable-background:new 0 0 80 80;" xml:space="preserve">
<style type="text/css">
	.st0{fill:none;stroke:#2B71B8;stroke-width:2.5;stroke-linecap:round;stroke-linejoin:round;stroke-miterlimit:10;}
	.st1{fill:#2B71B8;}
</style>
<g>
	<g>
		<path class="st0" d="M70.6,24.8h5.5c0.8,0,1.4,0.6,1.4,1.4v43.1c0,0.8-0.6,1.4-1.4,1.4H3.9c-0.8,0-1.4-0.6-1.4-1.4V26.2
			c0-0.8,0.6-1.4,1.4-1.4h50.7"/>
		<path class="st0" d="M70.6,36.4c-2.6,0-4.7-2.1-4.7-4.7v0H14.1v0c0,2.6-2.1,4.7-4.7,4.7h0V59h0c2.6,0,4.7,2.1,4.7,4.7h51.8
			c0-2.6,2.1-4.7,4.7-4.7h0L70.6,36.4L70.6,36.4z"/>
	</g>
	<g>
		<g>
			<path class="st1" d="M44.5,53.5c-0.8,0.8-1.8,1.3-3.1,1.5l0,1.2c0,0.4-0.1,0.7-0.3,0.9c-0.2,0.2-0.5,0.3-0.9,0.3
				c-0.4,0-0.7-0.1-0.9-0.3c-0.2-0.2-0.4-0.5-0.4-0.9l0-1.1c-0.8-0.1-1.5-0.2-2.2-0.5c-0.7-0.2-1.3-0.6-1.9-0.9
				c-0.2-0.1-0.4-0.3-0.5-0.5c-0.1-0.2-0.1-0.4-0.1-0.6c0-0.3,0.1-0.6,0.3-0.9c0.2-0.3,0.5-0.4,0.7-0.4c0.3,0,0.6,0.1,1,0.3
				c0.6,0.4,1.2,0.6,1.8,0.8c0.6,0.2,1.2,0.2,1.8,0.2c0.8,0,1.4-0.2,1.9-0.5c0.4-0.3,0.7-0.7,0.6-1.3c0-0.3-0.1-0.6-0.4-0.8
				c-0.3-0.2-0.6-0.4-0.9-0.5c-0.4-0.1-0.9-0.3-1.6-0.5c-1-0.3-1.9-0.5-2.5-0.8c-0.7-0.3-1.2-0.7-1.7-1.2c-0.5-0.6-0.7-1.3-0.7-2.3
				c0-1.1,0.4-2.1,1.2-2.9c0.8-0.8,1.8-1.3,3.1-1.5l0-1.2c0-0.4,0.1-0.7,0.3-0.9c0.2-0.2,0.5-0.3,0.9-0.3c0.4,0,0.7,0.1,0.9,0.3
				c0.2,0.2,0.3,0.5,0.3,0.9l0,1.1c1.2,0.2,2.4,0.6,3.5,1.4c0.2,0.1,0.4,0.3,0.4,0.5c0.1,0.2,0.1,0.4,0.1,0.6c0,0.3-0.1,0.6-0.3,0.9
				c-0.2,0.3-0.5,0.4-0.7,0.4c-0.2,0-0.3,0-0.4-0.1c-0.1,0-0.3-0.1-0.5-0.3c-0.6-0.4-1.1-0.6-1.5-0.8c-0.4-0.2-1-0.3-1.6-0.3
				c-0.7,0-1.3,0.2-1.8,0.5c-0.4,0.3-0.7,0.8-0.7,1.3c0,0.4,0.1,0.7,0.4,0.9c0.3,0.2,0.6,0.4,1,0.6s1,0.3,1.7,0.5
				c1,0.2,1.8,0.5,2.5,0.7c0.6,0.2,1.2,0.6,1.7,1.2c0.5,0.6,0.7,1.3,0.7,2.2C45.7,51.8,45.3,52.7,44.5,53.5z"/>
		</g>
	</g>
	<polyline class="st0" points="68.6,15.8 62.1,9.4 55.7,15.8 	"/>
	<line class="st0" x1="62.1" y1="9.4" x2="62.1" y2="24.4"/>
</g>
</svg>
