<svg xmlns="http://www.w3.org/2000/svg" viewBox="0 0 80 80" fill="none" stroke="#0071ce" stroke-width="2.5" xmlns:v="https://vecta.io/nano"><circle cx="39.6" cy="16.3" r="14.6"/><g stroke-linecap="round" stroke-miterlimit="10"><path d="M61.7 54.3L56 50.5c-2.5-1.7-6-1-7.7 1.5h0c-1.7 2.5-1 6 1.5 7.7l17 11.4c2.5 1.7 5.9 1 7.7-1.6h0c.8-1.3 1.8-2.8 1.5-4.2l-.6-1.1c-8.3-16.6-19.1-29.5-35.6-29.4-16.6.1-27.5 11.7-36.4 29.7L3 65.6c-.2 1.3.5 3 1.3 4.2h0C6 72.4 9.5 73 12 71.3l17.1-11.5c2.5-1.7 3.2-5.2 1.5-7.7h0c-1.7-2.5-5.1-3.2-7.6-1.5l-6 4.1m6 9.2v14.4"/><path d="M56.1 63.9v14.4"/></g><path d="M21.9 40.6l1.2 10.1m3.7-13.1l1.6 13.1m28.4-10.1l-1.3 10.1m-3.7-13.1l-1.6 13.1" stroke-miterlimit="10"/><path d="M18.5 39.4v-7.2c0-2.8 2.3-5 5-5h.7m36.6 12.2v-7.2c0-2.8-2.3-5-5-5H55" stroke-miterlimit="10" stroke-linecap="round"/></svg>