<?xml version="1.0" encoding="utf-8"?>
<!-- Generator: Adobe Illustrator 24.3.0, SVG Export Plug-In . SVG Version: 6.00 Build 0)  -->
<svg version="1.1" id="Layer_1" xmlns="http://www.w3.org/2000/svg" xmlns:xlink="http://www.w3.org/1999/xlink" x="0px" y="0px"
	 viewBox="0 0 80 80" style="enable-background:new 0 0 80 80;" xml:space="preserve">
<style type="text/css">
	.st0{fill:none;stroke:#2C71B9;stroke-width:2.5;stroke-linecap:round;stroke-linejoin:round;stroke-miterlimit:10;}
</style>
<g>
	<g>
		<defs>
			<path id="SVGID_1_" d="M39.1,25.3c-2,0-3.7,0.8-3.7,1.8c0,1,1.6,1.8,3.7,1.8c2,0,3.7-0.8,3.7-1.8C42.8,26.2,41.1,25.3,39.1,25.3"
				/>
		</defs>
		<use xlink:href="#SVGID_1_"  style="overflow:visible;fill-rule:evenodd;clip-rule:evenodd;fill:#2C71B9;"/>
		<clipPath id="SVGID_2_">
			<use xlink:href="#SVGID_1_"  style="overflow:visible;"/>
		</clipPath>
	</g>
	<g>
		<path class="st0" d="M52.8,40l-7.3,2.8c-2.7,1.2-6.1,1.2-9.2,0.1l-32-11.7c-3.8-1.4-3.9-6.7-0.1-8.1l29.9-11.5
			c3-1.2,6.4-1.2,9.5-0.1l32,11.7c3.8,1.4,3.9,6.7-0.2,8.1L62,36.5"/>
		<path class="st0" d="M67.5,41.8v14.7c-1.5,1.4-3.4,2.6-5.5,3.7"/>
		<path class="st0" d="M12.5,41.8v14.7c6.4,5.7,18.4,9.2,27.5,9.2c3.4,0,7.2-0.5,11-1.4"/>
		<line class="st0" x1="62" y1="36.5" x2="62" y2="62"/>
		<line class="st0" x1="39.1" y1="27.2" x2="62" y2="36.5"/>
		<circle class="st0" cx="62" cy="65.7" r="3.7"/>
	</g>
</g>
</svg>
