<svg xmlns="http://www.w3.org/2000/svg" xmlns:xlink="http://www.w3.org/1999/xlink" viewBox="0 0 80 80" xmlns:v="https://vecta.io/nano"><style><![CDATA[.E{enable-background:new}.F{fill:#0071ce}.G{stroke-miterlimit:10}]]></style><path d="M37.5 38.5c.2.2.3.5.3.9 0 .3-.1.7-.3 1.1l-9.2 17c-.3.5-.7.8-1.2.8-.4 0-.7-.1-1-.4s-.4-.6-.4-.9c0-.2.1-.5.2-.8l8.5-15.6h-9.1c-.5 0-.8-.1-1-.3s-.3-.5-.3-.9c0-.8.5-1.2 1.4-1.2h11.3c.3 0 .6.1.8.3zm16 17.5c.2.2.4.5.4.9 0 .8-.5 1.2-1.4 1.2H41.6c-.4 0-.7-.1-1-.4s-.4-.5-.4-.9.2-.8.5-1.2l6.6-7.2c.9-1 1.5-1.8 1.9-2.6s.6-1.6.6-2.3c0-1-.3-1.8-.9-2.3s-1.4-.8-2.4-.8c-1.6 0-3.2.6-4.8 1.8-.2.1-.4.2-.5.3s-.3.1-.4.1c-.3 0-.5-.1-.7-.4 0-.2-.1-.5-.1-.9 0-.5.2-.8.6-1.1.8-.7 1.7-1.2 2.8-1.6a9.6 9.6 0 0 1 3.3-.6c1.9 0 3.3.5 4.4 1.4s1.6 2.2 1.6 3.8c0 1.1-.2 2.2-.7 3.3-.5 1-1.3 2.2-2.5 3.5l-5.3 5.7h8.2c.5 0 .9.1 1.1.3z" class="E F"/><g class="E F"><use xlink:href="#B"/><use xlink:href="#C"/><use xlink:href="#D"/><use xlink:href="#E"/></g><g fill="none" stroke="#0071ce" stroke-width=".25" class="E G"><use xlink:href="#B"/><use xlink:href="#C"/><use xlink:href="#D"/><use xlink:href="#E"/></g><g class="E F"><use xlink:href="#F"/><use xlink:href="#G"/><use xlink:href="#H"/><use xlink:href="#I"/><use xlink:href="#J"/><use xlink:href="#K"/></g><g fill="none" stroke="#0071ce" stroke-width=".25" class="E G"><use xlink:href="#F"/><use xlink:href="#G"/><use xlink:href="#H"/><use xlink:href="#I"/><use xlink:href="#J"/><use xlink:href="#K"/></g><g fill="none" stroke="#0072cc" stroke-width="2.5" class="G"><path d="M64.7,8.1h5.2c4.8,0,8.7,3.9,8.7,8.7v50.4c0,4.8-3.9,8.7-8.7,8.7H10.2c-4.8,0-8.7-3.9-8.7-8.7V16.8 c0-4.8,3.9-8.7,8.7-8.7h3.4"/><path d="M20.8 8.1h37M1.5 21.6h77"/><path d="M17.4 14.2h0a3.37 3.37 0 0 1-3.4-3.4V5.6a3.37 3.37 0 0 1 3.4-3.4h0a3.37 3.37 0 0 1 3.4 3.4v5.2a3.37 3.37 0 0 1-3.4 3.4zm43.8 0h0a3.37 3.37 0 0 1-3.4-3.4V5.6a3.37 3.37 0 0 1 3.4-3.4h0a3.37 3.37 0 0 1 3.4 3.4v5.2c.1 1.9-1.5 3.4-3.4 3.4z"/></g><defs ><path id="B" d="M26.8 32.7c.1.1.1.2.1.3v2.1c0 .1 0 .2-.1.3s-.2.1-.3.1-.2 0-.3-.1-.1-.2-.1-.3V35c-.1.1-.2.3-.4.3s-.3.1-.5.1c-.4 0-.6-.1-.8-.3s-.3-.5-.3-.9V33c0-.1 0-.2.1-.3s.2-.1.3-.1.2 0 .3.1c.2.1.2.2.2.3v1.4c0 .2 0 .3.1.4s.2.1.3.1c.2 0 .3-.1.4-.2s.2-.3.2-.5V33c0-.1 0-.2.1-.3s.2-.1.3-.1.3.1.4.1z"/><path id="C" d="M30 32.8c.2.1.3.3.4.5s.2.5.2.8-.1.6-.2.8-.3.4-.4.5c-.2.1-.4.2-.7.2-.2 0-.4 0-.5-.1s-.3-.2-.4-.3v1.1c0 .1 0 .2-.1.3s-.2.1-.3.1-.2 0-.3-.1-.1-.2-.1-.3V33c0-.1 0-.2.1-.3s.2-.1.3-.1.2 0 .3.1.1.2.1.3h0c.1-.1.2-.3.4-.3.2-.1.3-.1.5-.1.3 0 .5.1.7.2zm-.4 1.9c.1-.1.2-.3.2-.6s-.1-.5-.2-.6-.3-.2-.5-.2-.4.1-.5.2-.2.3-.2.6.1.5.2.6.3.2.5.2.3 0 .5-.2z"/><path id="D" d="M34.6 35c.1 0 .1.1.1.2s0 .2-.1.3-.2.1-.4.1H34c-.7-.1-1-.4-1-1.1v-1.1h-.2c-.1 0-.2 0-.3-.1s-.1-.1-.1-.2 0-.2.1-.2c.1-.1.2-.1.3-.1h.2v-.5c0-.1 0-.2.1-.3s.2-.1.3-.1.2 0 .3.1.1.2.1.3v.5h.4c.3 0 .4.1.4.3 0 .1 0 .2-.1.2-.1.1-.2.1-.3.1h-.4v1.2c0 .1 0 .2.1.3s.1.1.2.1h.2c.1-.1.2 0 .3 0z"/><path id="E" d="M35.6 35.4c-.2-.1-.4-.3-.5-.5s-.2-.5-.2-.8.1-.6.2-.8.3-.4.5-.5.5-.2.8-.2.6.1.8.2.4.3.5.5.2.5.2.8-.1.6-.2.8-.3.4-.5.5-.5.2-.8.2-.6-.1-.8-.2zm1.4-1.3c0-.3-.1-.5-.2-.6s-.3-.2-.5-.2c-.4 0-.6.3-.6.8s.2.8.6.8.7-.3.7-.8z"/><path id="F" d="M31.2 61.6c.2.3.3.7.3 1.3v1.9c0 .2-.1.3-.2.4s-.3.1-.4.1c-.2 0-.3 0-.4-.1s-.2-.2-.2-.4v-1.9c0-.3 0-.4-.1-.5s-.2-.2-.4-.2-.4.1-.5.2c-.1.2-.2.4-.2.6v1.7c0 .2-.1.3-.2.4s-.3.1-.4.1c-.2 0-.3 0-.4-.1s-.2-.2-.2-.4v-1.9c0-.3 0-.4-.1-.5s-.2-.2-.4-.2-.4.1-.5.2c-.1.2-.2.4-.2.6v1.7c0 .2-.1.3-.2.4s-.3.1-.4.1c-.2 0-.3 0-.4-.1s-.2-.2-.2-.4v-2.9c0-.2.1-.3.2-.4s.3-.1.4-.1c.2 0 .3 0 .4.1s.2.2.2.4v.1c.1-.2.3-.4.5-.5s.4-.2.7-.2.5.1.7.2.3.3.5.6c.1-.2.3-.4.5-.5s.5-.2.8-.2.6.2.8.4z"/><path id="G" d="M33.3 65.1c-.3-.2-.6-.4-.7-.7-.2-.3-.3-.7-.3-1.1s.1-.8.3-1.1.4-.5.7-.7.7-.2 1.1-.2.8.1 1.1.2c.3.2.6.4.7.7.2.3.3.7.3 1.1s-.1.8-.3 1.1-.4.5-.7.7-.7.3-1.1.3-.8-.1-1.1-.3zm2-1.8c0-.4-.1-.7-.2-.8-.2-.2-.4-.3-.7-.3-.6 0-.9.4-.9 1.1s.3 1.1.9 1.1.9-.4.9-1.1z"/><path id="H" d="M40.7 61.7c.2.3.3.7.3 1.2v1.9c0 .2-.1.3-.2.4a.76.76 0 0 1-.4.2c-.2 0-.3-.1-.4-.2s-.2-.2-.2-.4V63c0-.3 0-.5-.1-.6s-.3-.2-.5-.2c-.3 0-.5.1-.6.2-.2.2-.2.4-.2.6v1.7c0 .2-.1.3-.2.4a.76.76 0 0 1-.4.2.76.76 0 0 1-.4-.2c-.1-.1-.2-.2-.2-.4v-2.9c0-.2.1-.3.2-.4a.76.76 0 0 1 .4-.2c.2 0 .3 0 .4.1s.2.2.2.4v.1c.1-.2.3-.4.5-.5s.5-.2.7-.2c.6.1.9.3 1.1.6z"/><path id="I" d="M44.5 64.6c.1.1.1.2.1.3 0 .2-.1.3-.2.4s-.3.1-.5.1h-.2c-.9-.1-1.4-.6-1.4-1.5v-1.6H42c-.2 0-.3 0-.4-.1s-.1-.2-.1-.3c0-.2 0-.3.1-.3.1-.1.2-.1.4-.1h.3v-.6c0-.2.1-.3.2-.4a.76.76 0 0 1 .4-.2c.2 0 .3.1.4.2s.2.2.2.4v.6h.6c.4 0 .5.2.5.5 0 .1 0 .3-.1.3-.1.1-.2.1-.4.1h-.6v1.7c0 .2 0 .3.1.4s.2.1.3.1h.2c.2-.1.3-.1.4 0z"/><path id="J" d="M49 62.9v1.9c0 .2-.1.3-.2.4a.76.76 0 0 1-.4.2c-.2 0-.3-.1-.4-.2s-.2-.2-.2-.4v-1.9c0-.2 0-.4-.1-.5s-.3-.2-.5-.2c-.3 0-.5.1-.6.2-.2.2-.2.4-.2.6v1.7c0 .2-.1.3-.2.4a.76.76 0 0 1-.4.2c-.2 0-.3-.1-.4-.2s-.2-.2-.2-.4v-4.6c0-.2.1-.3.2-.4s.3-.2.5-.2.3 0 .4.1.2.2.2.4v1.7c.1-.2.3-.4.5-.5s.5-.2.7-.2c.8.2 1.3.8 1.3 1.9z"/><path id="K" d="M50.5 65.3c-.2-.1-.5-.1-.6-.3-.1 0-.1-.1-.2-.2s-.1-.2-.1-.3 0-.2.1-.3.2-.1.3-.1h.2c.1 0 .1.1.2.1.1.1.3.1.4.2s.3.1.5.1.3 0 .4-.1.2-.1.2-.2 0-.1-.1-.2c0 0-.1-.1-.3-.1-.1 0-.3-.1-.6-.1-.5-.1-.8-.2-1-.4s-.3-.4-.3-.8c0-.2.1-.5.2-.6.1-.2.3-.3.6-.5.3-.1.5-.2.9-.2.2 0 .5 0 .7.1s.4.1.6.2.2.3.2.4 0 .2-.1.3-.2.1-.3.1-.3 0-.4-.1-.3-.1-.4-.2c-.1 0-.2-.1-.4-.1s-.3 0-.4.1-.1.1-.1.3c0 .1.1.2.2.3s.3.1.6.2c.4.1.6.2.8.3s.4.2.4.4.1.3.1.6c0 .4-.2.7-.5.9s-.7.3-1.3.3c0-.1-.3-.1-.5-.1z"/></defs></svg>