<?xml version="1.0" encoding="utf-8"?>
<!-- Generator: Adobe Illustrator 24.3.0, SVG Export Plug-In . SVG Version: 6.00 Build 0)  -->
<svg version="1.1" id="Layer_1" xmlns="http://www.w3.org/2000/svg" xmlns:xlink="http://www.w3.org/1999/xlink" x="0px" y="0px"
	 viewBox="0 0 80 80" style="enable-background:new 0 0 80 80;" xml:space="preserve">
<style type="text/css">
	.st0{fill:none;stroke:#0070D0;stroke-width:2.5;stroke-linecap:round;stroke-linejoin:round;stroke-miterlimit:10;}
	.st1{fill:#0071CE;}
</style>
<g>
	<g>
		<g>
			<defs>
				<path id="SVGID_1_" d="M41.8,56.5c0,1-0.8,1.8-1.8,1.8s-1.8-0.8-1.8-1.8c0-1,0.8-1.8,1.8-1.8S41.8,55.4,41.8,56.5"/>
			</defs>
			<use xlink:href="#SVGID_1_"  style="overflow:visible;fill-rule:evenodd;clip-rule:evenodd;fill:#0070D0;"/>
			<clipPath id="SVGID_2_">
				<use xlink:href="#SVGID_1_"  style="overflow:visible;"/>
			</clipPath>
		</g>
		<g>
			<path class="st0" d="M25.3,63.8H5.2c-2,0-3.7-1.6-3.7-3.7V8.9c0-2,1.6-3.7,3.7-3.7h69.7c2,0,3.7,1.6,3.7,3.7v51.2
				c0,2-1.6,3.7-3.7,3.7H32.7"/>
			<line class="st0" x1="27.2" y1="74.7" x2="52.8" y2="74.7"/>
			<line class="st0" x1="47.3" y1="63.8" x2="47.3" y2="71.1"/>
			<line class="st0" x1="32.7" y1="63.8" x2="32.7" y2="71.1"/>
			<line class="st0" x1="8.8" y1="49.1" x2="71.2" y2="49.1"/>
			<path class="st0" d="M51,74.7c-2,0-3.7-1.6-3.7-3.7"/>
			<path class="st0" d="M32.7,71.1c0,2-1.6,3.7-3.7,3.7"/>
		</g>
	</g>
	<g>
		<g>
			<g>
				<path class="st1" d="M39.5,29.7c-0.2-0.2-0.3-0.4-0.3-0.7l-0.9-5.2c0-0.1,0-0.2,0-0.3c0-0.5,0.2-0.9,0.5-1.2
					c0.3-0.3,0.8-0.4,1.3-0.4c0.5,0,1,0.1,1.3,0.4c0.3,0.3,0.5,0.7,0.5,1.2c0,0.1,0,0.2,0,0.3L41,29c0,0.3-0.1,0.5-0.3,0.7
					s-0.4,0.2-0.6,0.2S39.7,29.8,39.5,29.7z M38.9,33.4c-0.3-0.3-0.5-0.7-0.5-1.2c0-0.5,0.2-0.8,0.5-1.2c0.3-0.3,0.7-0.5,1.2-0.5
					c0.5,0,0.8,0.2,1.1,0.5c0.3,0.3,0.5,0.7,0.5,1.2c0,0.5-0.2,0.8-0.5,1.2c-0.3,0.3-0.7,0.5-1.1,0.5C39.6,33.9,39.2,33.8,38.9,33.4
					z"/>
			</g>
		</g>
		<g>
			<path class="st0" d="M40,39.5H26.7c-1.5,0-2.4-1.6-1.7-2.9l6.7-11.5l6.7-11.5c0.7-1.3,2.6-1.3,3.3,0l6.7,11.5L55,36.6
				c0.7,1.3-0.2,2.9-1.7,2.9H40z"/>
		</g>
	</g>
</g>
</svg>
