<svg xmlns="http://www.w3.org/2000/svg" viewBox="0 0 80 80" xmlns:v="https://vecta.io/nano"><g fill="none" stroke="#0071ce" stroke-width="2.5" stroke-linecap="round" stroke-miterlimit="10"><path d="M11.6 18.7s.6 6.1 4.1 7.6 6.8 2.7 8.9 4.5 8.3 8 8.3 8 4.5 3.9 7.4 1.2c2.6-2.5 1.2-5.6 0-6.8s-8.9-7.1-8.9-7.1-4.4-4.6 1.5-5.6M23.4 7.7s16.3 1.6 18.7 4.1c1.7 1.9 2.3 16.7 2.3 16.7"/><path d="M20.3 1.7l4 4L8.8 21.2l-4-4" stroke-linejoin="round"/><path d="M40.5,32.3c6.2,0,11.3,5,11.3,11.3s-5,11.3-11.3,11.3s-11.3-5-11.3-11.3c0-2,0.5-3.9,1.4-5.5"/></g><path d="M42.8 46.3c-.4.4-.9.6-1.5.7v.6c0 .2-.1.3-.2.4s-.2.2-.4.2-.3-.1-.4-.2-.2-.2-.2-.4v-.5c-.4 0-.7-.1-1-.2s-.6-.3-.9-.5c-.1-.1-.2-.1-.2-.2s-.1-.2-.1-.3c0-.2.1-.3.2-.4s.2-.2.3-.2.3.1.5.2c.3.2.6.3.9.4s.6.1.8.1c.4 0 .7-.1.9-.2s.3-.4.3-.6-.1-.3-.2-.4a.76.76 0 0 0-.4-.2c-.2-.1-.4-.1-.8-.2-.5-.1-.9-.2-1.2-.4-.3-.1-.6-.3-.8-.6s-.3-.6-.3-1.1.2-1 .6-1.4.9-.6 1.5-.7v-.6c0-.2.1-.3.2-.4a.76.76 0 0 1 .4-.2c.2 0 .3.1.4.2s.2.2.2.4v.5c.6.1 1.1.3 1.7.7.1.1.2.1.2.2s.1.2.1.3c0 .2-.1.3-.2.4s-.2.2-.3.2h-.2c-.1 0-.1-.1-.3-.1-.3-.2-.5-.3-.7-.4s-.5-.1-.8-.1c-.4 0-.6.1-.8.2-.2.2-.3.4-.3.6s.1.3.2.4.3.2.5.3.5.1.8.2c.5.1.9.2 1.2.4s.6.3.8.6.3.6.3 1.1c-.2.4-.4.9-.8 1.2z" fill="#0472cc" stroke="#0472cc" stroke-miterlimit="10"/><path d="M52 65.8H41.8c-2.1 0-3.9-1.2-3.9-3.3h0c0-2.1 1.7-3.3 3.9-3.3H52l.7-.1c4.2-.1 4.9-.7 7.3-1 2-.2 3.4.1 4.9.6 1.8.6 10.3 9 10.3 9M35 61l-10.7-5.7c-1.9-1-4.2-.3-5.2 1.6h0c-1 1.9-.3 4.2 1.6 5.2l11.4 6.7s9.3 5.8 10.2 5.3h20c2.2-.1 6.1 4.1 6.1 4.1" fill="none" stroke="#0072cc" stroke-width="2.179" stroke-linecap="round" stroke-miterlimit="10"/></svg>