<svg xmlns="http://www.w3.org/2000/svg" width="30" height="30" viewBox="0 0 30 30">
    <g fill="none">
        <circle cx="15" cy="15" r="15" fill="#1DA1F2"/>
        <path fill="#FFF" d="M12.271 23.296c6.682 0 10.335-5.53 10.335-10.322 0-.158 0-.316-.007-.466.708-.512 1.326-1.152 1.815-1.881-.648.286-1.348.481-2.086.571.753-.45 1.325-1.158 1.597-2.008-.7.414-1.477.715-2.305.88-.663-.707-1.605-1.143-2.652-1.143-2.004 0-3.63 1.625-3.63 3.626 0 .286.03.564.097.827-3.02-.15-5.695-1.595-7.488-3.791-.309.534-.49 1.158-.49 1.82 0 1.257.64 2.37 1.62 3.017-.595-.015-1.152-.18-1.642-.451v.045c0 1.76 1.25 3.22 2.915 3.558-.301.083-.625.128-.956.128-.234 0-.46-.023-.686-.068.46 1.445 1.8 2.49 3.39 2.52-1.243.971-2.81 1.55-4.512 1.55-.294 0-.58-.015-.867-.052 1.59 1.038 3.503 1.64 5.552 1.64"/>
    </g>
</svg>
