<svg xmlns="http://www.w3.org/2000/svg" viewBox="0 0 80 80" xmlns:v="https://vecta.io/nano"><g fill="none" stroke="#0070d0" stroke-width="2.5"><path d="M2.3 64.8V8" stroke-linecap="round" stroke-miterlimit="10"/><ellipse cx="28" cy="8" rx="25.7" ry="6.5"/><path d="M53.7 8v24.9M31 52.9l-3 .1c-14.2 0-25.7-1.9-25.7-4.2m51.4-22.4c0 2.3-11.5 4.2-25.7 4.2S2.3 28.8 2.3 26.4m35.4 44.2a73.65 73.65 0 0 1-9.8.6c-14.2 0-25.7-2.9-25.7-6.5" stroke-linecap="round" stroke-miterlimit="10"/><circle cx="54.9" cy="55.7" r="22.8"/></g><path d="M60.9 62c-.8.8-1.9 1.4-3.3 1.6v1.3c0 .4-.1.7-.4 1a1.53 1.53 0 0 1-1 .4c-.4 0-.7-.1-1-.4-.3-.2-.4-.6-.4-1v-1.2c-.8-.1-1.6-.2-2.4-.5s-1.4-.6-2-1c-.2-.1-.4-.3-.5-.5s-.1-.4-.1-.7a1.69 1.69 0 0 1 .3-1c.2-.3.5-.4.8-.4s.6.1 1 .4c.7.4 1.3.7 1.9.9a6.28 6.28 0 0 0 1.9.3c.9 0 1.6-.2 2-.5.5-.3.7-.8.7-1.4 0-.4-.1-.7-.4-.9l-1-.6-1.7-.5-2.7-.8c-.5-.5-1.1-.9-1.6-1.5s-.8-1.4-.8-2.4c0-1.2.4-2.2 1.3-3.1s2-1.4 3.3-1.6v-1.3c0-.4.1-.7.4-1 .3-.2.6-.4 1-.4s.7.1 1 .4a1.53 1.53 0 0 1 .4 1v1.2c1.3.2 2.6.7 3.8 1.5.2.1.4.3.5.5s.1.4.1.7a1.69 1.69 0 0 1-.3 1c-.2.3-.5.4-.8.4-.2 0-.3 0-.5-.1-.1 0-.3-.1-.6-.3-.6-.4-1.2-.7-1.6-.9-.5-.2-1.1-.3-1.8-.3-.8 0-1.4.2-1.9.5-.5.4-.7.8-.7 1.4 0 .4.1.8.4 1s.6.5 1.1.6l1.8.5 2.7.8c.7.3 1.3.7 1.8 1.3s.7 1.4.7 2.4c-.2 1.4-.6 2.4-1.4 3.2z" fill="#0070d0"/></svg>