<svg xmlns="http://www.w3.org/2000/svg" viewBox="0 0 80 80" xmlns:v="https://vecta.io/nano"><path d="M26.6 60.6c-2.2 0-3.9 1.8-3.9 3.9 0 2.2 1.8 3.9 3.9 3.9s3.9-1.8 3.9-3.9-1.8-3.9-3.9-3.9z" fill="#0071ce"/><g fill="none" stroke="#0071ce" stroke-width="2.494" stroke-linejoin="round"><circle cx="26.9" cy="64.6" r="13.7"/><path d="M13.2 4.6l10.3 46.2M5.9 1.7l7.3 2.9m27.1 56.6l33.8-8" stroke-linecap="round" stroke-miterlimit="10"/><path d="M21.1 9.407l22.486-5.295L46.37 15.9l-22.486 5.295zm2.735 11.823l30.76-7.243 3.553 15.088-30.76 7.243z" stroke-miterlimit="10"/><path d="M30 47.2l-2.5-10.6 37.2-8.8 4.7 19.8L41 54.3" stroke-linecap="round" stroke-miterlimit="10"/></g></svg>