<svg xmlns="http://www.w3.org/2000/svg" viewBox="0 0 80 80" fill="none" stroke="#0071ce" stroke-width="2.585" xmlns:v="https://vecta.io/nano"><path d="M74.9 30.5c-.92 0-1.85-.35-2.55-1.06C63.7 20.78 52.2 16.02 40 16.02c-12.22 0-23.7 4.76-32.35 13.4-1.4 1.4-3.7 1.4-5.1 0s-1.4-3.7 0-5.1a52.75 52.75 0 0 1 17.53-11.64A52.76 52.76 0 0 1 39.99 8.8c6.88 0 13.6 1.3 19.93 3.9 6.57 2.67 12.46 6.6 17.52 11.64 1.4 1.4 1.4 3.7 0 5.1-.7.7-1.62 1.06-2.55 1.06zm-9.22 10.13c-.92 0-1.85-.35-2.55-1.06-6.18-6.18-14.4-9.6-23.12-9.6-8.74 0-16.95 3.4-23.13 9.58-1.4 1.4-3.7 1.4-5.1 0s-1.4-3.7 0-5.1c7.54-7.54 17.57-11.7 28.22-11.7a39.64 39.64 0 0 1 28.23 11.7c1.4 1.4 1.4 3.7 0 5.1a3.62 3.62 0 0 1-2.55 1.05zM55.1 50.35c-.92 0-1.85-.35-2.55-1.06-3.36-3.36-7.82-5.2-12.56-5.2a17.68 17.68 0 0 0-12.56 5.2c-1.4 1.4-3.7 1.4-5.1 0s-1.4-3.7 0-5.1A24.81 24.81 0 0 1 40 36.87c6.68 0 12.95 2.6 17.67 7.32 1.4 1.4 1.4 3.7 0 5.1a3.61 3.61 0 0 1-2.56 1.06z" stroke-miterlimit="10"/><circle cx="40" cy="61.32" r="9.87"/></svg>