<?xml version="1.0" encoding="utf-8"?>
<!-- Generator: Adobe Illustrator 24.3.0, SVG Export Plug-In . SVG Version: 6.00 Build 0)  -->
<svg version="1.1" id="Layer_1" xmlns="http://www.w3.org/2000/svg" xmlns:xlink="http://www.w3.org/1999/xlink" x="0px" y="0px"
	 viewBox="0 0 80 80" style="enable-background:new 0 0 80 80;" xml:space="preserve">
<style type="text/css">
	.st0{fill:none;stroke:#0070D0;stroke-width:2.5;stroke-linecap:round;stroke-linejoin:round;stroke-miterlimit:10;}
	.st1{fill:none;stroke:#0071CE;stroke-width:2.5;stroke-linecap:round;stroke-miterlimit:10;}
	.st2{fill:#0071CE;}
</style>
<g>
	<g>
		<g>
			<defs>
				<path id="SVGID_1_" d="M41.8,56.5c0,1-0.8,1.8-1.8,1.8s-1.8-0.8-1.8-1.8c0-1,0.8-1.8,1.8-1.8S41.8,55.4,41.8,56.5"/>
			</defs>
			<use xlink:href="#SVGID_1_"  style="overflow:visible;fill-rule:evenodd;clip-rule:evenodd;fill:#0070D0;"/>
			<clipPath id="SVGID_2_">
				<use xlink:href="#SVGID_1_"  style="overflow:visible;"/>
			</clipPath>
		</g>
		<g>
			<path class="st0" d="M25.3,63.8H5.2c-2,0-3.7-1.6-3.7-3.7V8.9c0-2,1.6-3.7,3.7-3.7h69.7c2,0,3.7,1.6,3.7,3.7v51.2
				c0,2-1.6,3.7-3.7,3.7H32.7"/>
			<line class="st0" x1="27.2" y1="74.7" x2="52.8" y2="74.7"/>
			<line class="st0" x1="47.3" y1="63.8" x2="47.3" y2="71.1"/>
			<line class="st0" x1="32.7" y1="63.8" x2="32.7" y2="71.1"/>
			<line class="st0" x1="8.8" y1="49.1" x2="71.2" y2="49.1"/>
			<path class="st0" d="M51,74.7c-2,0-3.7-1.6-3.7-3.7"/>
			<path class="st0" d="M32.7,71.1c0,2-1.6,3.7-3.7,3.7"/>
		</g>
	</g>
	<g>
		<line class="st1" x1="47.6" y1="30.1" x2="65.7" y2="30.1"/>
		<line class="st1" x1="13" y1="30.1" x2="31.7" y2="30.1"/>
		<line class="st1" x1="59.4" y1="23.1" x2="65.7" y2="30.1"/>
		<line class="st1" x1="65.7" y1="30.1" x2="59.2" y2="37.3"/>
	</g>
	<g>
		<g>
			<path class="st2" d="M44.4,36.8c-0.9,0.9-2.2,1.5-3.7,1.7v1.6c0,0.4-0.1,0.7-0.4,0.9c-0.2,0.2-0.5,0.4-0.9,0.4
				c-0.4,0-0.7-0.1-0.9-0.4c-0.2-0.2-0.4-0.6-0.4-0.9v-1.5c-1-0.1-1.9-0.3-2.8-0.6c-0.9-0.3-1.7-0.7-2.3-1.3
				c-0.2-0.2-0.4-0.3-0.5-0.5c-0.1-0.2-0.1-0.4-0.1-0.7c0-0.4,0.1-0.7,0.3-0.9c0.2-0.3,0.4-0.4,0.7-0.4c0.2,0,0.3,0,0.5,0.1
				c0.1,0.1,0.3,0.2,0.6,0.3c0.8,0.5,1.5,0.9,2.3,1.1c0.7,0.2,1.5,0.4,2.3,0.4c1.1,0,2-0.2,2.6-0.7s0.9-1.1,0.9-1.9
				c0-0.5-0.2-0.9-0.5-1.2s-0.8-0.5-1.3-0.7c-0.5-0.2-1.2-0.4-2.1-0.6c-1.3-0.3-2.3-0.6-3.1-1c-0.8-0.3-1.5-0.8-2-1.5
				c-0.6-0.7-0.9-1.6-0.9-2.7c0-1.4,0.5-2.5,1.5-3.5c1-1,2.2-1.5,3.8-1.8V19c0-0.4,0.1-0.7,0.4-0.9c0.2-0.2,0.5-0.4,0.9-0.4
				s0.7,0.1,0.9,0.4c0.2,0.2,0.4,0.6,0.4,0.9v1.6c1.7,0.2,3.1,0.8,4.4,1.8c0.4,0.3,0.6,0.7,0.6,1.2c0,0.4-0.1,0.7-0.3,0.9
				s-0.5,0.4-0.7,0.4c-0.2,0-0.3,0-0.4-0.1c-0.1,0-0.3-0.1-0.6-0.3c-0.7-0.5-1.3-0.8-1.9-1.1c-0.6-0.2-1.3-0.4-2.2-0.4
				c-1,0-1.9,0.2-2.5,0.7c-0.6,0.5-0.9,1.1-0.9,1.9c0,0.6,0.2,1,0.5,1.3c0.4,0.3,0.8,0.6,1.3,0.8c0.5,0.2,1.3,0.4,2.2,0.6
				c1.2,0.3,2.2,0.6,3,0.9c0.8,0.3,1.4,0.8,2,1.4s0.8,1.5,0.8,2.6C45.8,34.7,45.3,35.8,44.4,36.8z"/>
		</g>
	</g>
</g>
</svg>
