<svg xmlns="http://www.w3.org/2000/svg" viewBox="0 0 80 80" xmlns:v="https://vecta.io/nano"><path d="M40.3 40.3c0 16.6-4.6 30-19.3 30-14.6 0-19.3-13.4-19.3-30s4.6-30 19.3-30c15.3-.1 19.3 13.4 19.3 30z" fill="none" stroke="#0071ce" stroke-width="2.5" stroke-miterlimit="10"/><path d="M45 28.1c-1.3-1.6-2-4.1-2-7.3s.7-5.7 2-7.3 3.2-2.4 5.5-2.4c2.4 0 4.2.8 5.6 2.4 1.3 1.6 2 4.1 2 7.3s-.7 5.7-2 7.3-3.2 2.5-5.6 2.5-4.2-.8-5.5-2.5zm9.2-1.5c.8-1.2 1.2-3.1 1.2-5.8s-.4-4.5-1.2-5.8c-.8-1.2-2-1.8-3.7-1.8-1.6 0-2.8.6-3.6 1.9-.8 1.2-1.2 3.2-1.2 5.7 0 2.6.4 4.5 1.2 5.8s2 1.8 3.6 1.8 2.9-.6 3.7-1.8zm-2 17.5c-.3 0-.6-.1-.8-.4-.2-.2-.4-.5-.4-.9 0-.3.1-.6.2-.8l17.7-30.5c.3-.5.7-.8 1.2-.8.3 0 .6.1.8.4.2.2.4.5.4.9 0 .3-.1.6-.2.8L53.4 43.3c-.3.5-.7.8-1.2.8zm14.1-2.9c-1.3-1.6-2-4.1-2-7.3s.7-5.7 2-7.3 3.2-2.4 5.5-2.4c2.4 0 4.2.8 5.5 2.4s2 4.1 2 7.3-.7 5.7-2 7.3-3.2 2.4-5.5 2.4c-2.4 0-4.2-.8-5.5-2.4zm9.1-1.6c.8-1.2 1.2-3.1 1.2-5.8 0-2.6-.4-4.5-1.2-5.7s-2-1.8-3.6-1.8c-1.7 0-2.9.6-3.7 1.8s-1.2 3.1-1.2 5.7.4 4.5 1.2 5.8c.8 1.2 2 1.8 3.7 1.8 1.6 0 2.8-.6 3.6-1.8z" fill="#0071ce" enable-background="new"/><path d="M55.1 63.3c0 .3-.1.5-.3.7s-.5.3-.8.3c-.2 0-.4-.1-.5-.2-.2-.1-.3-.3-.4-.5L52 61.2h-6.4l-1.1 2.4c-.1.2-.2.4-.4.5s-.4.2-.6.2c-.3 0-.5-.1-.8-.3s-.3-.4-.3-.7c0-.2 0-.3.1-.5l5-10.8c.1-.2.3-.4.5-.6.2-.1.5-.2.7-.2s.5.1.7.2.4.3.5.6L55 62.8c0 .2.1.4.1.5zm-8.8-3.9h4.8L48.7 54l-2.4 5.4zM57.1 64c-.2-.2-.3-.5-.3-.9V52.5c0-.4.1-.6.3-.8s.5-.3.8-.3h4.5c1.4 0 2.4.3 3.2 1s1.2 1.7 1.2 2.9-.4 2.2-1.2 2.9-1.8 1-3.2 1h-3.3v3.9c0 .4-.1.7-.3.9s-.5.3-.9.3c-.3.1-.5 0-.8-.3zm5.1-6.6c1.6 0 2.4-.7 2.4-2.1s-.8-2.1-2.4-2.1h-3v4.2h3zm17.2 6c0 .3-.1.5-.3.7s-.5.3-.8.3c-.2 0-.4 0-.6-.1a.78.78 0 0 1-.4-.4l-2.4-3.7c-.2-.4-.5-.7-.8-.8-.3-.2-.6-.2-1.1-.2h-1.8v4.1c0 .4-.1.7-.3.9s-.5.3-.8.3c-.4 0-.6-.1-.8-.3s-.3-.5-.3-.9V52.5c0-.4.1-.6.3-.8s.5-.3.8-.3h4.6c1.5 0 2.6.3 3.3 1 .7.6 1 1.6 1 2.8 0 1-.3 1.8-.8 2.5-.6.6-1.4 1-2.4 1.2.4.1.7.2.9.5.3.2.5.5.8.9l1.7 2.5c.1.2.2.4.2.6zm-3.2-6.6c.4-.3.6-.8.6-1.5s-.2-1.2-.6-1.5-1.1-.5-2-.5h-3.1v4.1h3.1c.9-.1 1.6-.3 2-.6z" enable-background="new" fill="#0071ce"/></svg>